%TF.GenerationSoftware,KiCad,Pcbnew,8.0.7*%
%TF.CreationDate,2025-02-16T08:40:01+09:00*%
%TF.ProjectId,cool642tb_R,636f6f6c-3634-4327-9462-5f522e6b6963,rev?*%
%TF.SameCoordinates,Original*%
%TF.FileFunction,Profile,NP*%
%FSLAX46Y46*%
G04 Gerber Fmt 4.6, Leading zero omitted, Abs format (unit mm)*
G04 Created by KiCad (PCBNEW 8.0.7) date 2025-02-16 08:40:01*
%MOMM*%
%LPD*%
G01*
G04 APERTURE LIST*
%TA.AperFunction,Profile*%
%ADD10C,0.050000*%
%TD*%
%TA.AperFunction,Profile*%
%ADD11C,0.200000*%
%TD*%
%TA.AperFunction,Profile*%
%ADD12C,0.120000*%
%TD*%
G04 APERTURE END LIST*
D10*
X86980000Y24660000D02*
X87020000Y-76290000D01*
D11*
X67810000Y-47670000D02*
G75*
G02*
X65610000Y-47670000I-1100000J0D01*
G01*
X65610000Y-47670000D02*
G75*
G02*
X67810000Y-47670000I1100000J0D01*
G01*
D10*
X87020000Y-76290000D02*
X58610000Y-76280000D01*
D11*
X67810000Y-9470000D02*
G75*
G02*
X65610000Y-9470000I-1100000J0D01*
G01*
X65610000Y-9470000D02*
G75*
G02*
X67810000Y-9470000I1100000J0D01*
G01*
D10*
X9580000Y-47410000D02*
X9580000Y-66640000D01*
X58610000Y-76280000D02*
X58570000Y-47410000D01*
D11*
X-8420000Y-9530000D02*
G75*
G02*
X-10620000Y-9530000I-1100000J0D01*
G01*
X-10620000Y-9530000D02*
G75*
G02*
X-8420000Y-9530000I1100000J0D01*
G01*
D10*
X9580000Y-66640000D02*
X-29750001Y-66687364D01*
X58570000Y-47410000D02*
X9580000Y-47410000D01*
D11*
X-8560000Y-47600000D02*
G75*
G02*
X-10760000Y-47600000I-1100000J0D01*
G01*
X-10760000Y-47600000D02*
G75*
G02*
X-8560000Y-47600000I1100000J0D01*
G01*
D10*
X-29750000Y24660000D02*
X86980000Y24660000D01*
X-29750001Y-66687364D02*
X-29750000Y24660000D01*
D12*
%TO.C,U1*%
X-13865753Y7119247D02*
G75*
G02*
X-13484753Y6738247I3J-380997D01*
G01*
X-14170553Y4452247D02*
G75*
G02*
X-13484749Y5138054I438053J247753D01*
G01*
X-15897753Y5138047D02*
G75*
G02*
X-15211953Y4452247I247753J-438047D01*
G01*
X-15897753Y6738247D02*
G75*
G02*
X-15516753Y7119243I380993J3D01*
G01*
X-21510753Y14475753D02*
G75*
G02*
X-21891753Y14094753I-380996J-4D01*
G01*
X-21891753Y16507753D02*
G75*
G02*
X-21510753Y16126753I8J-380992D01*
G01*
X-23491953Y16507753D02*
G75*
G02*
X-24177753Y15821953I-438047J-247753D01*
G01*
X-24177753Y14780553D02*
G75*
G02*
X-23491953Y14094753I247753J-438047D01*
G01*
X-13484753Y6738247D02*
X-13484753Y5138047D01*
X-14170553Y4452247D02*
X-15211953Y4452247D01*
X-15516753Y7119247D02*
X-13865753Y7119247D01*
X-15897753Y5138047D02*
X-15897753Y6738247D01*
X-21510753Y16126753D02*
X-21510753Y14475753D01*
X-21891753Y14094753D02*
X-23491953Y14094753D01*
X-23491953Y16507753D02*
X-21891753Y16507753D01*
X-24177753Y14780553D02*
X-24177753Y15821953D01*
%TD*%
M02*
