M48
; DRILL file {KiCad 8.0.7} date 2025-02-16T08:40:09+0900
; FORMAT={-:-/ absolute / metric / decimal}
; #@! TF.CreationDate,2025-02-16T08:40:09+09:00
; #@! TF.GenerationSoftware,Kicad,Pcbnew,8.0.7
; #@! TF.FileFunction,Plated,1,2,PTH
FMAT,2
METRIC
; #@! TA.AperFunction,Plated,PTH,ViaDrill
T1C0.300
; #@! TA.AperFunction,Plated,PTH,ComponentDrill
T2C0.500
; #@! TA.AperFunction,Plated,PTH,ComponentDrill
T3C0.813
; #@! TA.AperFunction,Plated,PTH,ComponentDrill
T4C1.000
; #@! TA.AperFunction,Plated,PTH,ComponentDrill
T5C1.500
%
G90
G05
T1
X-29.12Y-27.84
X-28.7Y-31.1
X-27.13Y-27.24
X-27.1Y-45.81
X-25.04Y22.85
X-22.45Y-46.34
X-22.06Y-9.07
X-20.91Y-2.1
X-20.88Y20.41
X-19.71Y16.8
X-19.7Y0.33
X-15.66Y19.16
X-15.66Y7.65
X-13.75Y-6.16
X-9.85Y-28.7
X-6.9Y-27.24
X-6.86Y14.05
X-6.85Y-44.94
X0.34Y-28.07
X0.51Y-9.1
X0.56Y-46.93
X11.05Y-46.23
X12.11Y11.42
X19.34Y-9.1
X19.36Y-28.07
X28.47Y-30.3
X28.48Y-7.84
X31.16Y10.19
X31.2Y-31.24
X38.45Y-9.1
X38.47Y-28.07
X49.02Y-45.64
X50.25Y6.67
X53.67Y-9.04
X57.53Y-28.07
X63.31Y-54.39
X63.91Y-56.86
X65.68Y-31.23
X66.68Y11.17
X67.12Y-28.72
X69.43Y-6.24
X76.65Y-9.16
X76.72Y-28.03
X85.18Y12.69
X85.18Y-68.24
X85.78Y23.85
X85.88Y-69.63
X86.46Y-66.96
X86.48Y16.63
T3
X-27.09Y21.65
X-27.09Y19.11
X-27.09Y16.57
X-27.09Y14.03
X-27.09Y11.49
X-27.09Y8.95
X-27.09Y6.41
X-22.85Y-10.95
X-22.5Y-49.14
X-18.68Y-29.98
X-15.23Y-10.95
X-14.88Y-49.14
X-11.85Y21.65
X-11.85Y19.11
X-11.85Y16.57
X-11.85Y14.03
X-11.85Y11.49
X-11.85Y8.95
X-11.85Y6.41
X-11.06Y-29.98
X0.295Y-30.13
X0.35Y8.0
X0.5Y-11.08
X0.52Y-48.97
X7.915Y-30.13
X7.97Y8.0
X8.12Y-11.08
X8.14Y-48.97
X19.34Y-10.98
X19.34Y-30.01
X19.6Y8.04
X26.96Y-10.98
X26.96Y-30.01
X27.22Y8.04
X38.37Y-30.1
X38.43Y-11.15
X38.49Y8.0
X45.99Y-30.1
X46.05Y-11.15
X46.11Y8.0
X53.68Y-10.93
X57.5Y8.14
X57.5Y-29.95
X61.3Y-10.93
X65.12Y8.14
X65.12Y-29.95
X76.48Y8.06
X76.51Y-49.2
X76.73Y-10.92
X76.74Y-30.11
X84.1Y8.06
X84.13Y-49.2
X84.35Y-10.92
X84.36Y-30.11
T4
X-23.915Y16.252
X-23.915Y14.347
X-15.635Y4.718
X-13.755Y4.718
X60.59Y-54.35
X60.59Y-56.89
X60.59Y-59.43
X60.59Y-61.97
X60.59Y-64.51
X60.59Y-67.05
X60.59Y-69.59
T5
X-5.73Y21.73
X83.54Y21.77
T2
G00X-27.07Y0.18
M15
G01X-27.07Y0.48
M16
G05
G00X-27.07Y-2.32
M15
G01X-27.07Y-2.02
M16
G05
G00X-27.07Y-4.82
M15
G01X-27.07Y-4.52
M16
G05
M30
