%TF.GenerationSoftware,KiCad,Pcbnew,8.0.7*%
%TF.CreationDate,2025-02-20T17:21:25+09:00*%
%TF.ProjectId,cool642az1uball_R,636f6f6c-3634-4326-917a-317562616c6c,rev?*%
%TF.SameCoordinates,Original*%
%TF.FileFunction,Soldermask,Top*%
%TF.FilePolarity,Negative*%
%FSLAX46Y46*%
G04 Gerber Fmt 4.6, Leading zero omitted, Abs format (unit mm)*
G04 Created by KiCad (PCBNEW 8.0.7) date 2025-02-20 17:21:25*
%MOMM*%
%LPD*%
G01*
G04 APERTURE LIST*
%ADD10R,1.397000X1.397000*%
%ADD11R,1.300000X0.950000*%
%ADD12C,1.397000*%
%ADD13C,1.900000*%
%ADD14C,1.700000*%
%ADD15C,3.000000*%
%ADD16C,5.000000*%
%ADD17O,1.000000X1.300000*%
%ADD18O,2.750000X1.800000*%
%ADD19C,1.500000*%
G04 APERTURE END LIST*
D10*
%TO.C,D7*%
X19340000Y-30010000D03*
D11*
X21375000Y-30010000D03*
X24925000Y-30010000D03*
D12*
X26960000Y-30010000D03*
%TD*%
D10*
%TO.C,D11*%
X38370000Y-30100000D03*
D11*
X40405000Y-30100000D03*
X43955000Y-30100000D03*
D12*
X45990000Y-30100000D03*
%TD*%
D13*
%TO.C,SW1*%
X-5500000Y0D03*
D14*
X-5080000Y0D03*
D15*
X-5000000Y-3700000D03*
D14*
X-4500000Y0D03*
D15*
X-3810000Y2540000D03*
D16*
X0Y0D03*
D15*
X0Y-5900000D03*
X2540000Y5080000D03*
D14*
X4500000Y0D03*
X5080000Y0D03*
D13*
X5500000Y0D03*
%TD*%
D10*
%TO.C,D20*%
X76510000Y-49200000D03*
D11*
X78545000Y-49200000D03*
X82095000Y-49200000D03*
D12*
X84130000Y-49200000D03*
%TD*%
D13*
%TO.C,SW8*%
X-24550000Y-38100000D03*
D14*
X-24130000Y-38100000D03*
D15*
X-24050000Y-41800000D03*
D14*
X-23550000Y-38100000D03*
D15*
X-22860000Y-35560000D03*
D16*
X-19050000Y-38100000D03*
D15*
X-19050000Y-44000000D03*
X-16510000Y-33020000D03*
D14*
X-14550000Y-38100000D03*
X-13970000Y-38100000D03*
D13*
X-13550000Y-38100000D03*
%TD*%
D10*
%TO.C,D13*%
X57500000Y8140000D03*
D11*
X59535000Y8140000D03*
X63085000Y8140000D03*
D12*
X65120000Y8140000D03*
%TD*%
D13*
%TO.C,SW16*%
X13550000Y-57150000D03*
D14*
X13970000Y-57150000D03*
D15*
X14050000Y-60850000D03*
D14*
X14550000Y-57150000D03*
D15*
X15240000Y-54610000D03*
D16*
X19050000Y-57150000D03*
D15*
X19050000Y-63050000D03*
X21590000Y-52070000D03*
D14*
X23550000Y-57150000D03*
X24130000Y-57150000D03*
D13*
X24550000Y-57150000D03*
%TD*%
D17*
%TO.C,SW21*%
X-27070000Y-4670000D03*
X-27070000Y-2170000D03*
X-27070000Y330000D03*
%TD*%
D13*
%TO.C,SW13*%
X51650000Y0D03*
D14*
X52070000Y0D03*
D15*
X52150000Y-3700000D03*
D14*
X52650000Y0D03*
D15*
X53340000Y2540000D03*
D16*
X57150000Y0D03*
D15*
X57150000Y-5900000D03*
X59690000Y5080000D03*
D14*
X61650000Y0D03*
X62230000Y0D03*
D13*
X62650000Y0D03*
%TD*%
D10*
%TO.C,D15*%
X57500000Y-29950000D03*
D11*
X59535000Y-29950000D03*
X63085000Y-29950000D03*
D12*
X65120000Y-29950000D03*
%TD*%
D10*
%TO.C,D1*%
X350000Y8000000D03*
D11*
X2385000Y8000000D03*
X5935000Y8000000D03*
D12*
X7970000Y8000000D03*
%TD*%
D10*
%TO.C,D9*%
X38490000Y8000000D03*
D11*
X40525000Y8000000D03*
X44075000Y8000000D03*
D12*
X46110000Y8000000D03*
%TD*%
D10*
%TO.C,D17*%
X76480000Y8060000D03*
D11*
X78515000Y8060000D03*
X82065000Y8060000D03*
D12*
X84100000Y8060000D03*
%TD*%
D10*
%TO.C,D4*%
X-22850000Y-10950000D03*
D11*
X-20815000Y-10950000D03*
X-17265000Y-10950000D03*
D12*
X-15230000Y-10950000D03*
%TD*%
%TO.C,R1*%
X-19632000Y-1788480D03*
X-12520000Y-1788480D03*
%TD*%
D10*
%TO.C,D16*%
X19570000Y-48970000D03*
D11*
X21605000Y-48970000D03*
X25155000Y-48970000D03*
D12*
X27190000Y-48970000D03*
%TD*%
D10*
%TO.C,D21*%
X38660000Y-49030000D03*
D11*
X40695000Y-49030000D03*
X44245000Y-49030000D03*
D12*
X46280000Y-49030000D03*
%TD*%
D13*
%TO.C,SW17*%
X70700000Y0D03*
D14*
X71120000Y0D03*
D15*
X71200000Y-3700000D03*
D14*
X71700000Y0D03*
D15*
X72390000Y2540000D03*
D16*
X76200000Y0D03*
D15*
X76200000Y-5900000D03*
X78740000Y5080000D03*
D14*
X80700000Y0D03*
X81280000Y0D03*
D13*
X81700000Y0D03*
%TD*%
D10*
%TO.C,D3*%
X295000Y-30130000D03*
D11*
X2330000Y-30130000D03*
X5880000Y-30130000D03*
D12*
X7915000Y-30130000D03*
%TD*%
D10*
%TO.C,D19*%
X76740000Y-30110000D03*
D11*
X78775000Y-30110000D03*
X82325000Y-30110000D03*
D12*
X84360000Y-30110000D03*
%TD*%
D13*
%TO.C,SW11*%
X32600000Y-38100000D03*
D14*
X33020000Y-38100000D03*
D15*
X33100000Y-41800000D03*
D14*
X33600000Y-38100000D03*
D15*
X34290000Y-35560000D03*
D16*
X38100000Y-38100000D03*
D15*
X38100000Y-44000000D03*
X40640000Y-33020000D03*
D14*
X42600000Y-38100000D03*
X43180000Y-38100000D03*
D13*
X43600000Y-38100000D03*
%TD*%
%TO.C,SW23*%
X51650000Y-57150000D03*
D14*
X52070000Y-57150000D03*
D15*
X52150000Y-60850000D03*
D14*
X52650000Y-57150000D03*
D15*
X53340000Y-54610000D03*
D16*
X57150000Y-57150000D03*
D15*
X57150000Y-63050000D03*
X59690000Y-52070000D03*
D14*
X61650000Y-57150000D03*
X62230000Y-57150000D03*
D13*
X62650000Y-57150000D03*
%TD*%
%TO.C,SW12*%
X-5500000Y-57150000D03*
D14*
X-5080000Y-57150000D03*
D15*
X-5000000Y-60850000D03*
D14*
X-4500000Y-57150000D03*
D15*
X-3810000Y-54610000D03*
D16*
X0Y-57150000D03*
D15*
X0Y-63050000D03*
X2540000Y-52070000D03*
D14*
X4500000Y-57150000D03*
X5080000Y-57150000D03*
D13*
X5500000Y-57150000D03*
%TD*%
%TO.C,SW19*%
X70700000Y-38200000D03*
D14*
X71120000Y-38200000D03*
D15*
X71200000Y-41900000D03*
D14*
X71700000Y-38200000D03*
D15*
X72390000Y-35660000D03*
D16*
X76200000Y-38200000D03*
D15*
X76200000Y-44100000D03*
X78740000Y-33120000D03*
D14*
X80700000Y-38200000D03*
X81280000Y-38200000D03*
D13*
X81700000Y-38200000D03*
%TD*%
%TO.C,SW20*%
X70700000Y-57150000D03*
D14*
X71120000Y-57150000D03*
D15*
X71200000Y-60850000D03*
D14*
X71700000Y-57150000D03*
D15*
X72390000Y-54610000D03*
D16*
X76200000Y-57150000D03*
D15*
X76200000Y-63050000D03*
X78740000Y-52070000D03*
D14*
X80700000Y-57150000D03*
X81280000Y-57150000D03*
D13*
X81700000Y-57150000D03*
%TD*%
D10*
%TO.C,D10*%
X38430000Y-11150000D03*
D11*
X40465000Y-11150000D03*
X44015000Y-11150000D03*
D12*
X46050000Y-11150000D03*
%TD*%
%TO.C,R2*%
X-19632000Y-4940000D03*
X-12520000Y-4940000D03*
%TD*%
D13*
%TO.C,SW7*%
X13550000Y-38100000D03*
D14*
X13970000Y-38100000D03*
D15*
X14050000Y-41800000D03*
D14*
X14550000Y-38100000D03*
D15*
X15240000Y-35560000D03*
D16*
X19050000Y-38100000D03*
D15*
X19050000Y-44000000D03*
X21590000Y-33020000D03*
D14*
X23550000Y-38100000D03*
X24130000Y-38100000D03*
D13*
X24550000Y-38100000D03*
%TD*%
D10*
%TO.C,D22*%
X53590000Y-49060000D03*
D11*
X55625000Y-49060000D03*
X59175000Y-49060000D03*
D12*
X61210000Y-49060000D03*
%TD*%
D13*
%TO.C,SW10*%
X32600000Y-19050000D03*
D14*
X33020000Y-19050000D03*
D15*
X33100000Y-22750000D03*
D14*
X33600000Y-19050000D03*
D15*
X34290000Y-16510000D03*
D16*
X38100000Y-19050000D03*
D15*
X38100000Y-24950000D03*
X40640000Y-13970000D03*
D14*
X42600000Y-19050000D03*
X43180000Y-19050000D03*
D13*
X43600000Y-19050000D03*
%TD*%
D10*
%TO.C,D2*%
X500000Y-11080000D03*
D11*
X2535000Y-11080000D03*
X6085000Y-11080000D03*
D12*
X8120000Y-11080000D03*
%TD*%
D10*
%TO.C,D6*%
X19340000Y-10980000D03*
D11*
X21375000Y-10980000D03*
X24925000Y-10980000D03*
D12*
X26960000Y-10980000D03*
%TD*%
D13*
%TO.C,SW5*%
X13550000Y0D03*
D14*
X13970000Y0D03*
D15*
X14050000Y-3700000D03*
D14*
X14550000Y0D03*
D15*
X15240000Y2540000D03*
D16*
X19050000Y0D03*
D15*
X19050000Y-5900000D03*
X21590000Y5080000D03*
D14*
X23550000Y0D03*
X24130000Y0D03*
D13*
X24550000Y0D03*
%TD*%
%TO.C,SW6*%
X13550000Y-19050000D03*
D14*
X13970000Y-19050000D03*
D15*
X14050000Y-22750000D03*
D14*
X14550000Y-19050000D03*
D15*
X15240000Y-16510000D03*
D16*
X19050000Y-19050000D03*
D15*
X19050000Y-24950000D03*
X21590000Y-13970000D03*
D14*
X23550000Y-19050000D03*
X24130000Y-19050000D03*
D13*
X24550000Y-19050000D03*
%TD*%
%TO.C,SW9*%
X32600000Y0D03*
D14*
X33020000Y0D03*
D15*
X33100000Y-3700000D03*
D14*
X33600000Y0D03*
D15*
X34290000Y2540000D03*
D16*
X38100000Y0D03*
D15*
X38100000Y-5900000D03*
X40640000Y5080000D03*
D14*
X42600000Y0D03*
X43180000Y0D03*
D13*
X43600000Y0D03*
%TD*%
%TO.C,SW4*%
X-24550000Y-19050000D03*
D14*
X-24130000Y-19050000D03*
D15*
X-24050000Y-22750000D03*
D14*
X-23550000Y-19050000D03*
D15*
X-22860000Y-16510000D03*
D16*
X-19050000Y-19050000D03*
D15*
X-19050000Y-24950000D03*
X-16510000Y-13970000D03*
D14*
X-14550000Y-19050000D03*
X-13970000Y-19050000D03*
D13*
X-13550000Y-19050000D03*
%TD*%
%TO.C,SW22*%
X32700000Y-57150000D03*
D14*
X33120000Y-57150000D03*
D15*
X33200000Y-60850000D03*
D14*
X33700000Y-57150000D03*
D15*
X34390000Y-54610000D03*
D16*
X38200000Y-57150000D03*
D15*
X38200000Y-63050000D03*
X40740000Y-52070000D03*
D14*
X42700000Y-57150000D03*
X43280000Y-57150000D03*
D13*
X43700000Y-57150000D03*
%TD*%
D10*
%TO.C,D8*%
X-18680000Y-29980000D03*
D11*
X-16645000Y-29980000D03*
X-13095000Y-29980000D03*
D12*
X-11060000Y-29980000D03*
%TD*%
D15*
%TO.C,BT1*%
X-5730000Y21730000D03*
X83540000Y21770000D03*
%TD*%
D10*
%TO.C,D14*%
X53680000Y-10930000D03*
D11*
X55715000Y-10930000D03*
X59265000Y-10930000D03*
D12*
X61300000Y-10930000D03*
%TD*%
D10*
%TO.C,D12*%
X300000Y-49060000D03*
D11*
X2335000Y-49060000D03*
X5885000Y-49060000D03*
D12*
X7920000Y-49060000D03*
%TD*%
D10*
%TO.C,D5*%
X19600000Y8040000D03*
D11*
X21635000Y8040000D03*
X25185000Y8040000D03*
D12*
X27220000Y8040000D03*
%TD*%
D13*
%TO.C,SW2*%
X-5500000Y-19050000D03*
D14*
X-5080000Y-19050000D03*
D15*
X-5000000Y-22750000D03*
D14*
X-4500000Y-19050000D03*
D15*
X-3810000Y-16510000D03*
D16*
X0Y-19050000D03*
D15*
X0Y-24950000D03*
X2540000Y-13970000D03*
D14*
X4500000Y-19050000D03*
X5080000Y-19050000D03*
D13*
X5500000Y-19050000D03*
%TD*%
%TO.C,SW18*%
X70700000Y-19050000D03*
D14*
X71120000Y-19050000D03*
D15*
X71200000Y-22750000D03*
D14*
X71700000Y-19050000D03*
D15*
X72390000Y-16510000D03*
D16*
X76200000Y-19050000D03*
D15*
X76200000Y-24950000D03*
X78740000Y-13970000D03*
D14*
X80700000Y-19050000D03*
X81280000Y-19050000D03*
D13*
X81700000Y-19050000D03*
%TD*%
%TO.C,SW14*%
X51650000Y-19050000D03*
D14*
X52070000Y-19050000D03*
D15*
X52150000Y-22750000D03*
D14*
X52650000Y-19050000D03*
D15*
X53340000Y-16510000D03*
D16*
X57150000Y-19050000D03*
D15*
X57150000Y-24950000D03*
X59690000Y-13970000D03*
D14*
X61650000Y-19050000D03*
X62230000Y-19050000D03*
D13*
X62650000Y-19050000D03*
%TD*%
D10*
%TO.C,D18*%
X76730000Y-10920000D03*
D11*
X78765000Y-10920000D03*
X82315000Y-10920000D03*
D12*
X84350000Y-10920000D03*
%TD*%
D13*
%TO.C,SW15*%
X51650000Y-38100000D03*
D14*
X52070000Y-38100000D03*
D15*
X52150000Y-41800000D03*
D14*
X52650000Y-38100000D03*
D15*
X53340000Y-35560000D03*
D16*
X57150000Y-38100000D03*
D15*
X57150000Y-44000000D03*
X59690000Y-33020000D03*
D14*
X61650000Y-38100000D03*
X62230000Y-38100000D03*
D13*
X62650000Y-38100000D03*
%TD*%
D18*
%TO.C,U1*%
X-27590000Y21650000D03*
X-27590000Y19110000D03*
X-27590000Y16570000D03*
X-27590000Y14030000D03*
X-27590000Y11490000D03*
X-27590000Y8950000D03*
X-27590000Y6410000D03*
X-11350000Y6410000D03*
X-11350000Y8950000D03*
X-11350000Y11490000D03*
X-11350000Y14030000D03*
X-11350000Y16570000D03*
X-11350000Y19110000D03*
X-11350000Y21650000D03*
D19*
X-15634600Y4718000D03*
X-13755000Y4718000D03*
X-23915000Y14347000D03*
X-23915000Y16252000D03*
%TD*%
D13*
%TO.C,SW3*%
X-5500000Y-38100000D03*
D14*
X-5080000Y-38100000D03*
D15*
X-5000000Y-41800000D03*
D14*
X-4500000Y-38100000D03*
D15*
X-3810000Y-35560000D03*
D16*
X0Y-38100000D03*
D15*
X0Y-44000000D03*
X2540000Y-33020000D03*
D14*
X4500000Y-38100000D03*
X5080000Y-38100000D03*
D13*
X5500000Y-38100000D03*
%TD*%
M02*
