%TF.GenerationSoftware,KiCad,Pcbnew,8.0.7*%
%TF.CreationDate,2025-02-20T17:21:25+09:00*%
%TF.ProjectId,cool642az1uball_R,636f6f6c-3634-4326-917a-317562616c6c,rev?*%
%TF.SameCoordinates,Original*%
%TF.FileFunction,Copper,L2,Bot*%
%TF.FilePolarity,Positive*%
%FSLAX46Y46*%
G04 Gerber Fmt 4.6, Leading zero omitted, Abs format (unit mm)*
G04 Created by KiCad (PCBNEW 8.0.7) date 2025-02-20 17:21:25*
%MOMM*%
%LPD*%
G01*
G04 APERTURE LIST*
%ADD10C,0.300000*%
%TA.AperFunction,NonConductor*%
%ADD11C,0.300000*%
%TD*%
%TA.AperFunction,NonConductor*%
%ADD12C,0.200000*%
%TD*%
%TA.AperFunction,ComponentPad*%
%ADD13R,1.397000X1.397000*%
%TD*%
%TA.AperFunction,SMDPad,CuDef*%
%ADD14R,1.300000X0.950000*%
%TD*%
%TA.AperFunction,ComponentPad*%
%ADD15C,1.397000*%
%TD*%
%TA.AperFunction,ComponentPad*%
%ADD16O,1.397000X1.778000*%
%TD*%
%TA.AperFunction,SMDPad,CuDef*%
%ADD17R,2.000000X2.000000*%
%TD*%
%TA.AperFunction,SMDPad,CuDef*%
%ADD18R,1.900000X2.000000*%
%TD*%
%TA.AperFunction,ComponentPad*%
%ADD19O,1.000000X1.300000*%
%TD*%
%TA.AperFunction,ComponentPad*%
%ADD20C,3.000000*%
%TD*%
%TA.AperFunction,ComponentPad*%
%ADD21O,2.750000X1.800000*%
%TD*%
%TA.AperFunction,ComponentPad*%
%ADD22C,1.500000*%
%TD*%
%TA.AperFunction,ViaPad*%
%ADD23C,0.600000*%
%TD*%
%TA.AperFunction,Conductor*%
%ADD24C,0.200000*%
%TD*%
G04 APERTURE END LIST*
D10*
D11*
X-38166205Y4719293D02*
X-38169173Y5647859D01*
X-38169173Y5647859D02*
X-38739001Y5146035D01*
X-38739001Y5146035D02*
X-38739686Y5360320D01*
X-38739686Y5360320D02*
X-38811571Y5502948D01*
X-38811571Y5502948D02*
X-38883227Y5574148D01*
X-38883227Y5574148D02*
X-39026312Y5645119D01*
X-39026312Y5645119D02*
X-39383453Y5643978D01*
X-39383453Y5643978D02*
X-39526081Y5572093D01*
X-39526081Y5572093D02*
X-39597281Y5500436D01*
X-39597281Y5500436D02*
X-39668252Y5357351D01*
X-39668252Y5357351D02*
X-39666882Y4928782D01*
X-39666882Y4928782D02*
X-39594997Y4786154D01*
X-39594997Y4786154D02*
X-39523341Y4714954D01*
X-39673733Y7071628D02*
X-39670993Y6214489D01*
X-39672363Y6643059D02*
X-38172370Y6647854D01*
X-38172370Y6647854D02*
X-38386198Y6504312D01*
X-38386198Y6504312D02*
X-38528598Y6360999D01*
X-38528598Y6360999D02*
X-38599569Y6217915D01*
X-39532932Y7714938D02*
X-39604588Y7786138D01*
X-39604588Y7786138D02*
X-39675788Y7714481D01*
X-39675788Y7714481D02*
X-39604131Y7643281D01*
X-39604131Y7643281D02*
X-39532932Y7714938D01*
X-39532932Y7714938D02*
X-39675788Y7714481D01*
X-38320707Y8361674D02*
X-38249507Y8433331D01*
X-38249507Y8433331D02*
X-38178536Y8576415D01*
X-38178536Y8576415D02*
X-38179678Y8933556D01*
X-38179678Y8933556D02*
X-38251562Y9076184D01*
X-38251562Y9076184D02*
X-38323219Y9147384D01*
X-38323219Y9147384D02*
X-38466304Y9218356D01*
X-38466304Y9218356D02*
X-38609160Y9217899D01*
X-38609160Y9217899D02*
X-38823216Y9145786D01*
X-38823216Y9145786D02*
X-39677615Y8285907D01*
X-39677615Y8285907D02*
X-39680583Y9214474D01*
X-38826185Y10074352D02*
X-38754300Y9931724D01*
X-38754300Y9931724D02*
X-38682644Y9860524D01*
X-38682644Y9860524D02*
X-38539559Y9789553D01*
X-38539559Y9789553D02*
X-38468131Y9789781D01*
X-38468131Y9789781D02*
X-38325503Y9861666D01*
X-38325503Y9861666D02*
X-38254303Y9933323D01*
X-38254303Y9933323D02*
X-38183331Y10076407D01*
X-38183331Y10076407D02*
X-38184245Y10362120D01*
X-38184245Y10362120D02*
X-38256130Y10504748D01*
X-38256130Y10504748D02*
X-38327786Y10575948D01*
X-38327786Y10575948D02*
X-38470871Y10646920D01*
X-38470871Y10646920D02*
X-38542299Y10646691D01*
X-38542299Y10646691D02*
X-38684927Y10574806D01*
X-38684927Y10574806D02*
X-38756127Y10503150D01*
X-38756127Y10503150D02*
X-38827098Y10360065D01*
X-38827098Y10360065D02*
X-38826185Y10074352D01*
X-38826185Y10074352D02*
X-38897157Y9931267D01*
X-38897157Y9931267D02*
X-38968356Y9859611D01*
X-38968356Y9859611D02*
X-39110984Y9787726D01*
X-39110984Y9787726D02*
X-39396697Y9786812D01*
X-39396697Y9786812D02*
X-39539782Y9857784D01*
X-39539782Y9857784D02*
X-39611439Y9928984D01*
X-39611439Y9928984D02*
X-39683324Y10071612D01*
X-39683324Y10071612D02*
X-39684237Y10357325D01*
X-39684237Y10357325D02*
X-39613265Y10500409D01*
X-39613265Y10500409D02*
X-39542066Y10572066D01*
X-39542066Y10572066D02*
X-39399438Y10643951D01*
X-39399438Y10643951D02*
X-39113725Y10644864D01*
X-39113725Y10644864D02*
X-38970640Y10573893D01*
X-38970640Y10573893D02*
X-38898983Y10502693D01*
X-38898983Y10502693D02*
X-38827098Y10360065D01*
X-38188127Y11576399D02*
X-38188583Y11719256D01*
X-38188583Y11719256D02*
X-38260468Y11861884D01*
X-38260468Y11861884D02*
X-38332125Y11933084D01*
X-38332125Y11933084D02*
X-38475210Y12004055D01*
X-38475210Y12004055D02*
X-38761151Y12074570D01*
X-38761151Y12074570D02*
X-39118292Y12073428D01*
X-39118292Y12073428D02*
X-39403776Y12001086D01*
X-39403776Y12001086D02*
X-39546404Y11929202D01*
X-39546404Y11929202D02*
X-39617604Y11857545D01*
X-39617604Y11857545D02*
X-39688576Y11714460D01*
X-39688576Y11714460D02*
X-39688119Y11571604D01*
X-39688119Y11571604D02*
X-39616234Y11428976D01*
X-39616234Y11428976D02*
X-39544577Y11357776D01*
X-39544577Y11357776D02*
X-39401493Y11286804D01*
X-39401493Y11286804D02*
X-39115551Y11216290D01*
X-39115551Y11216290D02*
X-38758410Y11217431D01*
X-38758410Y11217431D02*
X-38472926Y11289773D01*
X-38472926Y11289773D02*
X-38330298Y11361658D01*
X-38330298Y11361658D02*
X-38259098Y11433314D01*
X-38259098Y11433314D02*
X-38188127Y11576399D01*
X-38334408Y12647365D02*
X-38263208Y12719022D01*
X-38263208Y12719022D02*
X-38192237Y12862106D01*
X-38192237Y12862106D02*
X-38193379Y13219248D01*
X-38193379Y13219248D02*
X-38265264Y13361876D01*
X-38265264Y13361876D02*
X-38336920Y13433075D01*
X-38336920Y13433075D02*
X-38480005Y13504047D01*
X-38480005Y13504047D02*
X-38622861Y13503590D01*
X-38622861Y13503590D02*
X-38836918Y13431477D01*
X-38836918Y13431477D02*
X-39691316Y12571598D01*
X-39691316Y12571598D02*
X-39694284Y13500165D01*
X-39699993Y15285870D02*
X-38699998Y15289066D01*
X-38842855Y15288610D02*
X-38771655Y15360266D01*
X-38771655Y15360266D02*
X-38700683Y15503351D01*
X-38700683Y15503351D02*
X-38701368Y15717636D01*
X-38701368Y15717636D02*
X-38773253Y15860264D01*
X-38773253Y15860264D02*
X-38916338Y15931235D01*
X-38916338Y15931235D02*
X-39702048Y15928723D01*
X-38916338Y15931235D02*
X-38773710Y16003120D01*
X-38773710Y16003120D02*
X-38702738Y16146205D01*
X-38702738Y16146205D02*
X-38703424Y16360490D01*
X-38703424Y16360490D02*
X-38775308Y16503118D01*
X-38775308Y16503118D02*
X-38918393Y16574089D01*
X-38918393Y16574089D02*
X-39704103Y16571577D01*
X-39706387Y17285859D02*
X-38706392Y17289056D01*
X-38849249Y17288600D02*
X-38778049Y17360256D01*
X-38778049Y17360256D02*
X-38707077Y17503341D01*
X-38707077Y17503341D02*
X-38707762Y17717625D01*
X-38707762Y17717625D02*
X-38779647Y17860254D01*
X-38779647Y17860254D02*
X-38922732Y17931225D01*
X-38922732Y17931225D02*
X-39708442Y17928713D01*
X-38922732Y17931225D02*
X-38780104Y18003110D01*
X-38780104Y18003110D02*
X-38709132Y18146195D01*
X-38709132Y18146195D02*
X-38709817Y18360479D01*
X-38709817Y18360479D02*
X-38781702Y18503107D01*
X-38781702Y18503107D02*
X-38924787Y18574079D01*
X-38924787Y18574079D02*
X-39710497Y18571567D01*
D12*
X-32249997Y27378402D02*
X-41446659Y27349001D01*
X-32149997Y-3901598D02*
X-41346659Y-3930999D01*
X-40860242Y27350875D02*
X-40760242Y-3929125D01*
X-40860242Y27350875D02*
X-40760242Y-3929125D01*
X-40860242Y27350875D02*
X-40270223Y26226252D01*
X-40860242Y27350875D02*
X-41443058Y26222502D01*
X-40760242Y-3929125D02*
X-41350261Y-2804502D01*
X-40760242Y-3929125D02*
X-40177426Y-2800752D01*
D13*
%TO.P,D7,1,K*%
%TO.N,Row2*%
X19340000Y-30010000D03*
D14*
X21375000Y-30010000D03*
%TO.P,D7,2,A*%
%TO.N,Net-(D7-A)*%
X24925000Y-30010000D03*
D15*
X26960000Y-30010000D03*
%TD*%
D16*
%TO.P,OL1,1,SDA*%
%TO.N,SDIO*%
X-23180000Y-51200000D03*
X-23180000Y-63646000D03*
%TO.P,OL1,2,SCL*%
%TO.N,SCLK*%
X-20640000Y-51200000D03*
X-20640000Y-63646000D03*
%TO.P,OL1,3,VCC*%
%TO.N,3.3V*%
X-18100000Y-51200000D03*
X-18100000Y-63646000D03*
%TO.P,OL1,4,GND*%
%TO.N,GND*%
X-15560000Y-51200000D03*
X-15560000Y-63646000D03*
%TD*%
D13*
%TO.P,D11,1,K*%
%TO.N,Row2*%
X38370000Y-30100000D03*
D14*
X40405000Y-30100000D03*
%TO.P,D11,2,A*%
%TO.N,Net-(D11-A)*%
X43955000Y-30100000D03*
D15*
X45990000Y-30100000D03*
%TD*%
D17*
%TO.P,SW1,1,1*%
%TO.N,Col0*%
X-8100000Y-3700000D03*
X-6900000Y2540000D03*
D18*
%TO.P,SW1,2,2*%
%TO.N,Net-(D1-A)*%
X2800000Y-5900000D03*
D17*
X5600000Y5080000D03*
%TD*%
D13*
%TO.P,D20,1,K*%
%TO.N,Row3*%
X76510000Y-49200000D03*
D14*
X78545000Y-49200000D03*
%TO.P,D20,2,A*%
%TO.N,Net-(D20-A)*%
X82095000Y-49200000D03*
D15*
X84130000Y-49200000D03*
%TD*%
D17*
%TO.P,SW8,1,1*%
%TO.N,Col1*%
X-27150000Y-41800000D03*
X-25950000Y-35560000D03*
D18*
%TO.P,SW8,2,2*%
%TO.N,Net-(D8-A)*%
X-16250000Y-44000000D03*
D17*
X-13450000Y-33020000D03*
%TD*%
D13*
%TO.P,D13,1,K*%
%TO.N,Row0*%
X57500000Y8140000D03*
D14*
X59535000Y8140000D03*
%TO.P,D13,2,A*%
%TO.N,Net-(D13-A)*%
X63085000Y8140000D03*
D15*
X65120000Y8140000D03*
%TD*%
D17*
%TO.P,SW16,1,1*%
%TO.N,Col3*%
X10950000Y-60850000D03*
X12150000Y-54610000D03*
D18*
%TO.P,SW16,2,2*%
%TO.N,Net-(D16-A)*%
X21850000Y-63050000D03*
D17*
X24650000Y-52070000D03*
%TD*%
D19*
%TO.P,SW21,1,A*%
%TO.N,unconnected-(SW21-A-Pad1)*%
X-27070000Y-4670000D03*
%TO.P,SW21,2,B*%
%TO.N,Net-(BT1--)*%
X-27070000Y-2170000D03*
%TO.P,SW21,3,C*%
%TO.N,GND*%
X-27070000Y330000D03*
%TD*%
D17*
%TO.P,SW13,1,1*%
%TO.N,Col3*%
X49050000Y-3700000D03*
X50250000Y2540000D03*
D18*
%TO.P,SW13,2,2*%
%TO.N,Net-(D13-A)*%
X59950000Y-5900000D03*
D17*
X62750000Y5080000D03*
%TD*%
D13*
%TO.P,D15,1,K*%
%TO.N,Row2*%
X57500000Y-29950000D03*
D14*
X59535000Y-29950000D03*
%TO.P,D15,2,A*%
%TO.N,Net-(D15-A)*%
X63085000Y-29950000D03*
D15*
X65120000Y-29950000D03*
%TD*%
D13*
%TO.P,D1,1,K*%
%TO.N,Row0*%
X350000Y8000000D03*
D14*
X2385000Y8000000D03*
%TO.P,D1,2,A*%
%TO.N,Net-(D1-A)*%
X5935000Y8000000D03*
D15*
X7970000Y8000000D03*
%TD*%
D13*
%TO.P,D9,1,K*%
%TO.N,Row0*%
X38490000Y8000000D03*
D14*
X40525000Y8000000D03*
%TO.P,D9,2,A*%
%TO.N,Net-(D9-A)*%
X44075000Y8000000D03*
D15*
X46110000Y8000000D03*
%TD*%
D13*
%TO.P,D17,1,K*%
%TO.N,Row0*%
X76480000Y8060000D03*
D14*
X78515000Y8060000D03*
%TO.P,D17,2,A*%
%TO.N,Net-(D17-A)*%
X82065000Y8060000D03*
D15*
X84100000Y8060000D03*
%TD*%
D13*
%TO.P,D4,1,K*%
%TO.N,Row3*%
X-22850000Y-10950000D03*
D14*
X-20815000Y-10950000D03*
%TO.P,D4,2,A*%
%TO.N,Net-(D4-A)*%
X-17265000Y-10950000D03*
D15*
X-15230000Y-10950000D03*
%TD*%
%TO.P,R1,1*%
%TO.N,3.3V*%
X-19632000Y-1788480D03*
%TO.P,R1,2*%
%TO.N,SDIO*%
X-12520000Y-1788480D03*
%TD*%
D13*
%TO.P,D16,1,K*%
%TO.N,Row3*%
X19570000Y-48970000D03*
D14*
X21605000Y-48970000D03*
%TO.P,D16,2,A*%
%TO.N,Net-(D16-A)*%
X25155000Y-48970000D03*
D15*
X27190000Y-48970000D03*
%TD*%
D13*
%TO.P,D21,1,K*%
%TO.N,Row2*%
X38660000Y-49030000D03*
D14*
X40695000Y-49030000D03*
%TO.P,D21,2,A*%
%TO.N,Net-(D21-A)*%
X44245000Y-49030000D03*
D15*
X46280000Y-49030000D03*
%TD*%
D17*
%TO.P,SW17,1,1*%
%TO.N,Col4*%
X68100000Y-3700000D03*
X69300000Y2540000D03*
D18*
%TO.P,SW17,2,2*%
%TO.N,Net-(D17-A)*%
X79000000Y-5900000D03*
D17*
X81800000Y5080000D03*
%TD*%
D13*
%TO.P,D3,1,K*%
%TO.N,Row2*%
X295000Y-30130000D03*
D14*
X2330000Y-30130000D03*
%TO.P,D3,2,A*%
%TO.N,Net-(D3-A)*%
X5880000Y-30130000D03*
D15*
X7915000Y-30130000D03*
%TD*%
D13*
%TO.P,D19,1,K*%
%TO.N,Row2*%
X76740000Y-30110000D03*
D14*
X78775000Y-30110000D03*
%TO.P,D19,2,A*%
%TO.N,Net-(D19-A)*%
X82325000Y-30110000D03*
D15*
X84360000Y-30110000D03*
%TD*%
D17*
%TO.P,SW11,1,1*%
%TO.N,Col2*%
X30000000Y-41800000D03*
X31200000Y-35560000D03*
D18*
%TO.P,SW11,2,2*%
%TO.N,Net-(D11-A)*%
X40900000Y-44000000D03*
D17*
X43700000Y-33020000D03*
%TD*%
%TO.P,SW23,1,1*%
%TO.N,Col5*%
X49050000Y-60850000D03*
X50250000Y-54610000D03*
D18*
%TO.P,SW23,2,2*%
%TO.N,Net-(D22-A)*%
X59950000Y-63050000D03*
D17*
X62750000Y-52070000D03*
%TD*%
%TO.P,SW12,1,1*%
%TO.N,Col2*%
X-8100000Y-60850000D03*
X-6900000Y-54610000D03*
D18*
%TO.P,SW12,2,2*%
%TO.N,Net-(D12-A)*%
X2800000Y-63050000D03*
D17*
X5600000Y-52070000D03*
%TD*%
%TO.P,SW19,1,1*%
%TO.N,Col4*%
X68100000Y-41900000D03*
X69300000Y-35660000D03*
D18*
%TO.P,SW19,2,2*%
%TO.N,Net-(D19-A)*%
X79000000Y-44100000D03*
D17*
X81800000Y-33120000D03*
%TD*%
%TO.P,SW20,1,1*%
%TO.N,Col4*%
X68100000Y-60850000D03*
X69300000Y-54610000D03*
D18*
%TO.P,SW20,2,2*%
%TO.N,Net-(D20-A)*%
X79000000Y-63050000D03*
D17*
X81800000Y-52070000D03*
%TD*%
D13*
%TO.P,D10,1,K*%
%TO.N,Row1*%
X38430000Y-11150000D03*
D14*
X40465000Y-11150000D03*
%TO.P,D10,2,A*%
%TO.N,Net-(D10-A)*%
X44015000Y-11150000D03*
D15*
X46050000Y-11150000D03*
%TD*%
%TO.P,R2,1*%
%TO.N,3.3V*%
X-19632000Y-4940000D03*
%TO.P,R2,2*%
%TO.N,SCLK*%
X-12520000Y-4940000D03*
%TD*%
D17*
%TO.P,SW7,1,1*%
%TO.N,Col1*%
X10950000Y-41800000D03*
X12150000Y-35560000D03*
D18*
%TO.P,SW7,2,2*%
%TO.N,Net-(D7-A)*%
X21850000Y-44000000D03*
D17*
X24650000Y-33020000D03*
%TD*%
D13*
%TO.P,D22,1,K*%
%TO.N,Row3*%
X53590000Y-49060000D03*
D14*
X55625000Y-49060000D03*
%TO.P,D22,2,A*%
%TO.N,Net-(D22-A)*%
X59175000Y-49060000D03*
D15*
X61210000Y-49060000D03*
%TD*%
D17*
%TO.P,SW10,1,1*%
%TO.N,Col2*%
X30000000Y-22750000D03*
X31200000Y-16510000D03*
D18*
%TO.P,SW10,2,2*%
%TO.N,Net-(D10-A)*%
X40900000Y-24950000D03*
D17*
X43700000Y-13970000D03*
%TD*%
D13*
%TO.P,D2,1,K*%
%TO.N,Row1*%
X500000Y-11080000D03*
D14*
X2535000Y-11080000D03*
%TO.P,D2,2,A*%
%TO.N,Net-(D2-A)*%
X6085000Y-11080000D03*
D15*
X8120000Y-11080000D03*
%TD*%
D13*
%TO.P,D6,1,K*%
%TO.N,Row1*%
X19340000Y-10980000D03*
D14*
X21375000Y-10980000D03*
%TO.P,D6,2,A*%
%TO.N,Net-(D6-A)*%
X24925000Y-10980000D03*
D15*
X26960000Y-10980000D03*
%TD*%
D17*
%TO.P,SW5,1,1*%
%TO.N,Col1*%
X10950000Y-3700000D03*
X12150000Y2540000D03*
D18*
%TO.P,SW5,2,2*%
%TO.N,Net-(D5-A)*%
X21850000Y-5900000D03*
D17*
X24650000Y5080000D03*
%TD*%
%TO.P,SW6,1,1*%
%TO.N,Col1*%
X10950000Y-22750000D03*
X12150000Y-16510000D03*
D18*
%TO.P,SW6,2,2*%
%TO.N,Net-(D6-A)*%
X21850000Y-24950000D03*
D17*
X24650000Y-13970000D03*
%TD*%
%TO.P,SW9,1,1*%
%TO.N,Col2*%
X30000000Y-3700000D03*
X31200000Y2540000D03*
D18*
%TO.P,SW9,2,2*%
%TO.N,Net-(D9-A)*%
X40900000Y-5900000D03*
D17*
X43700000Y5080000D03*
%TD*%
%TO.P,SW4,1,1*%
%TO.N,Col0*%
X-27150000Y-22750000D03*
X-25950000Y-16510000D03*
D18*
%TO.P,SW4,2,2*%
%TO.N,Net-(D4-A)*%
X-16250000Y-24950000D03*
D17*
X-13450000Y-13970000D03*
%TD*%
%TO.P,SW22,1,1*%
%TO.N,Col5*%
X30100000Y-60850000D03*
X31300000Y-54610000D03*
D18*
%TO.P,SW22,2,2*%
%TO.N,Net-(D21-A)*%
X41000000Y-63050000D03*
D17*
X43800000Y-52070000D03*
%TD*%
D13*
%TO.P,D8,1,K*%
%TO.N,Row3*%
X-18680000Y-29980000D03*
D14*
X-16645000Y-29980000D03*
%TO.P,D8,2,A*%
%TO.N,Net-(D8-A)*%
X-13095000Y-29980000D03*
D15*
X-11060000Y-29980000D03*
%TD*%
D20*
%TO.P,BT1,1,+*%
%TO.N,Bat*%
X-5730000Y21730000D03*
%TO.P,BT1,2,-*%
%TO.N,Net-(BT1--)*%
X83540000Y21770000D03*
%TD*%
D13*
%TO.P,D14,1,K*%
%TO.N,Row1*%
X53680000Y-10930000D03*
D14*
X55715000Y-10930000D03*
%TO.P,D14,2,A*%
%TO.N,Net-(D14-A)*%
X59265000Y-10930000D03*
D15*
X61300000Y-10930000D03*
%TD*%
D13*
%TO.P,D12,1,K*%
%TO.N,Row3*%
X300000Y-49060000D03*
D14*
X2335000Y-49060000D03*
%TO.P,D12,2,A*%
%TO.N,Net-(D12-A)*%
X5885000Y-49060000D03*
D15*
X7920000Y-49060000D03*
%TD*%
D13*
%TO.P,D5,1,K*%
%TO.N,Row0*%
X19600000Y8040000D03*
D14*
X21635000Y8040000D03*
%TO.P,D5,2,A*%
%TO.N,Net-(D5-A)*%
X25185000Y8040000D03*
D15*
X27220000Y8040000D03*
%TD*%
D17*
%TO.P,SW2,1,1*%
%TO.N,Col0*%
X-8100000Y-22750000D03*
X-6900000Y-16510000D03*
D18*
%TO.P,SW2,2,2*%
%TO.N,Net-(D2-A)*%
X2800000Y-24950000D03*
D17*
X5600000Y-13970000D03*
%TD*%
%TO.P,SW18,1,1*%
%TO.N,Col4*%
X68100000Y-22750000D03*
X69300000Y-16510000D03*
D18*
%TO.P,SW18,2,2*%
%TO.N,Net-(D18-A)*%
X79000000Y-24950000D03*
D17*
X81800000Y-13970000D03*
%TD*%
%TO.P,SW14,1,1*%
%TO.N,Col3*%
X49050000Y-22750000D03*
X50250000Y-16510000D03*
D18*
%TO.P,SW14,2,2*%
%TO.N,Net-(D14-A)*%
X59950000Y-24950000D03*
D17*
X62750000Y-13970000D03*
%TD*%
D13*
%TO.P,D18,1,K*%
%TO.N,Row1*%
X76730000Y-10920000D03*
D14*
X78765000Y-10920000D03*
%TO.P,D18,2,A*%
%TO.N,Net-(D18-A)*%
X82315000Y-10920000D03*
D15*
X84350000Y-10920000D03*
%TD*%
D17*
%TO.P,SW15,1,1*%
%TO.N,Col3*%
X49050000Y-41800000D03*
X50250000Y-35560000D03*
D18*
%TO.P,SW15,2,2*%
%TO.N,Net-(D15-A)*%
X59950000Y-44000000D03*
D17*
X62750000Y-33020000D03*
%TD*%
D21*
%TO.P,U1,1,P0.02_A0_D0*%
%TO.N,Col5*%
X-27590000Y21650000D03*
%TO.P,U1,2,P0.03_A1_D1*%
%TO.N,Row0*%
X-27590000Y19110000D03*
%TO.P,U1,3,P0.28_A2_D2*%
%TO.N,Row1*%
X-27590000Y16570000D03*
%TO.P,U1,4,P0.29_A3_D3*%
%TO.N,Row2*%
X-27590000Y14030000D03*
%TO.P,U1,5,P0.04_A4_D4_SDA*%
%TO.N,SDIO*%
X-27590000Y11490000D03*
%TO.P,U1,6,P0.05_A5_D5_SCL*%
%TO.N,SCLK*%
X-27590000Y8950000D03*
%TO.P,U1,7,P1.11_D6_TX*%
%TO.N,Row3*%
X-27590000Y6410000D03*
%TO.P,U1,8,P1.12_D7_RX*%
%TO.N,Col3*%
X-11350000Y6410000D03*
%TO.P,U1,9,P1.13_D8_SCK*%
%TO.N,Col2*%
X-11350000Y8950000D03*
%TO.P,U1,10,P1.14_D9_MISO*%
%TO.N,Col1*%
X-11350000Y11490000D03*
%TO.P,U1,11,P1.15_D10_MOSI*%
%TO.N,Col0*%
X-11350000Y14030000D03*
%TO.P,U1,12,3V3*%
%TO.N,3.3V*%
X-11350000Y16570000D03*
%TO.P,U1,13,GND*%
%TO.N,GND*%
X-11350000Y19110000D03*
%TO.P,U1,14,5V*%
%TO.N,VCC*%
X-11350000Y21650000D03*
D22*
%TO.P,U1,15,NFC1_0.09*%
%TO.N,unconnected-(U1-NFC1_0.09-Pad15)*%
X-15634600Y4718000D03*
%TO.P,U1,16,NFC2_0.10*%
%TO.N,Col4*%
X-13755000Y4718000D03*
%TO.P,U1,20,BATT+*%
%TO.N,Bat*%
X-23915000Y14347000D03*
%TO.P,U1,21,BATT-*%
%TO.N,GND*%
X-23915000Y16252000D03*
%TD*%
D17*
%TO.P,SW3,1,1*%
%TO.N,Col0*%
X-8100000Y-41800000D03*
X-6900000Y-35560000D03*
D18*
%TO.P,SW3,2,2*%
%TO.N,Net-(D3-A)*%
X2800000Y-44000000D03*
D17*
X5600000Y-33020000D03*
%TD*%
D23*
%TO.N,Col3*%
X12120000Y-45640000D03*
%TO.N,Row3*%
X19550000Y-46930000D03*
%TO.N,Col5*%
X49090000Y-65280000D03*
X30000000Y-65230000D03*
%TO.N,SDIO*%
X-20970000Y-3260000D03*
%TO.N,SCLK*%
X-17190000Y-7370000D03*
%TO.N,GND*%
X-3900000Y-7060000D03*
%TO.N,SCLK*%
X-17260000Y8970000D03*
X-17170000Y-4940000D03*
%TO.N,SDIO*%
X-13830000Y11660000D03*
%TO.N,3.3V*%
X-18760000Y15860000D03*
%TO.N,Col5*%
X47490000Y23010000D03*
%TO.N,Col2*%
X-2030000Y-31240000D03*
%TO.N,Row2*%
X36030000Y-28070000D03*
%TO.N,Row3*%
X53580000Y-46930000D03*
%TO.N,Bat*%
X-25040000Y22850000D03*
%TO.N,Row0*%
X-15660000Y19160000D03*
X-15660000Y7650000D03*
%TO.N,Row1*%
X76650000Y-9160000D03*
X53670000Y-9040000D03*
X510000Y-9100000D03*
X-22060000Y-9070000D03*
X38450000Y-9100000D03*
X19340000Y-9100000D03*
%TO.N,Row2*%
X340000Y-28070000D03*
X38470000Y-28070000D03*
X19360000Y-28070000D03*
X76720000Y-28030000D03*
X57530000Y-28070000D03*
X-29120000Y-27840000D03*
%TO.N,Row3*%
X560000Y-46930000D03*
X-22450000Y-46340000D03*
%TO.N,GND*%
X65680000Y-31230000D03*
X28480000Y-7840000D03*
X-19710000Y16800000D03*
X-19700000Y330000D03*
X28470000Y-30300000D03*
%TO.N,Col0*%
X-6860000Y14050000D03*
X-27130000Y-27240000D03*
X-6900000Y-27240000D03*
%TO.N,Col1*%
X-27100000Y-45810000D03*
X11050000Y-46230000D03*
X12110000Y11420000D03*
%TO.N,Col2*%
X31200000Y-31240000D03*
X31160000Y10190000D03*
%TO.N,Col3*%
X49020000Y-45640000D03*
X50250000Y6670000D03*
%TO.N,Col4*%
X69430000Y-6240000D03*
X-13750000Y-6160000D03*
%TO.N,Net-(BT1--)*%
X-20910000Y-2100000D03*
X-20880000Y20410000D03*
%TD*%
D24*
%TO.N,Col3*%
X12150000Y-54610000D02*
X12150000Y-45670000D01*
X12150000Y-45670000D02*
X12120000Y-45640000D01*
%TO.N,Row3*%
X19570000Y-48970000D02*
X19570000Y-46950000D01*
X19570000Y-46950000D02*
X19550000Y-46930000D01*
%TO.N,Net-(D22-A)*%
X62750000Y-52070000D02*
X62750000Y-50600000D01*
X62750000Y-50600000D02*
X61210000Y-49060000D01*
X59950000Y-63050000D02*
X59950000Y-57506497D01*
X59950000Y-57506497D02*
X62750000Y-54706497D01*
X62750000Y-54706497D02*
X62750000Y-52070000D01*
%TO.N,Col5*%
X30100000Y-60850000D02*
X30100000Y-65130000D01*
X30100000Y-65130000D02*
X30000000Y-65230000D01*
X49090000Y-65280000D02*
X49050000Y-65240000D01*
X49050000Y-65240000D02*
X49050000Y-60850000D01*
%TO.N,SDIO*%
X-16032593Y-9951500D02*
X-20970000Y-5014093D01*
X-9400000Y-28440000D02*
X-9400000Y-25817058D01*
X-20874314Y-49090000D02*
X-16705686Y-49090000D01*
X-20970000Y-5014093D02*
X-20970000Y-3260000D01*
X-10600000Y-38928628D02*
X-9400000Y-37728628D01*
X-10887843Y-43272157D02*
X-10600000Y-42984314D01*
X-23020000Y-51200000D02*
X-20892157Y-49072157D01*
X-9400000Y-37728628D02*
X-9400000Y-28440000D01*
X-16705686Y-49090000D02*
X-10887843Y-43272157D01*
X-10600000Y-13371372D02*
X-14019872Y-9951500D01*
X-10600000Y-42984314D02*
X-10600000Y-38928628D01*
X-23180000Y-51200000D02*
X-23020000Y-51200000D01*
X-14019872Y-9951500D02*
X-16032593Y-9951500D01*
X-20892157Y-49072157D02*
X-20874314Y-49090000D01*
X-9400000Y-25817058D02*
X-10600000Y-24617058D01*
X-10600000Y-24617058D02*
X-10600000Y-24285686D01*
X-10600000Y-24285686D02*
X-10600000Y-13371372D01*
%TO.N,3.3V*%
X-19632000Y-1788480D02*
X-19632000Y-4940000D01*
%TO.N,SCLK*%
X-16035686Y-7370000D02*
X-17190000Y-7370000D01*
X-9000000Y-25651372D02*
X-10200000Y-24451372D01*
X-9000000Y-34090000D02*
X-9000000Y-31380000D01*
X-10200000Y-24451372D02*
X-10200000Y-13205686D01*
X-10200000Y-13205686D02*
X-14007843Y-9397843D01*
X-9000000Y-27390000D02*
X-9000000Y-25651372D01*
X-10200000Y-39094314D02*
X-9000000Y-37894314D01*
X-9000000Y-37894314D02*
X-9000000Y-34090000D01*
X-14007843Y-9397843D02*
X-16035686Y-7370000D01*
X-10200000Y-43150000D02*
X-10200000Y-39094314D01*
X-9000000Y-31380000D02*
X-9000000Y-27390000D01*
%TO.N,3.3V*%
X-19632000Y-4940000D02*
X-18872000Y-5700000D01*
X-18872000Y-5700000D02*
X-17140000Y-5700000D01*
X-9800000Y-24285686D02*
X-8600000Y-25485686D01*
X-17140000Y-5700000D02*
X-9800000Y-13040000D01*
X-8600000Y-38060000D02*
X-9800000Y-39260000D01*
X-9800000Y-13040000D02*
X-9800000Y-24285686D01*
X-9800000Y-39260000D02*
X-9800000Y-43488319D01*
X-8600000Y-25485686D02*
X-8600000Y-38060000D01*
X-9800000Y-43488319D02*
X-17511681Y-51200000D01*
X-17511681Y-51200000D02*
X-18100000Y-51200000D01*
%TO.N,GND*%
X-3900000Y-7060000D02*
X-3900000Y-10910000D01*
X-8200000Y-25320000D02*
X-8200000Y-38320000D01*
X-9400000Y-39520000D02*
X-9400000Y-43654004D01*
X-3900000Y-10910000D02*
X-9400000Y-16410000D01*
X-9400000Y-16410000D02*
X-9400000Y-24120000D01*
X-9400000Y-24120000D02*
X-8200000Y-25320000D01*
X-8200000Y-38320000D02*
X-9400000Y-39520000D01*
X-9400000Y-43654004D02*
X-15560000Y-49814004D01*
X-15560000Y-49814004D02*
X-15560000Y-51200000D01*
%TO.N,SCLK*%
X-18990000Y-49550000D02*
X-16600000Y-49550000D01*
X-20640000Y-51200000D02*
X-18990000Y-49550000D01*
X-16600000Y-49550000D02*
X-10200000Y-43150000D01*
%TO.N,Col0*%
X-1090000Y-10700000D02*
X-1090000Y-8980000D01*
X-6900000Y-16510000D02*
X-1090000Y-10700000D01*
X-3750000Y-6320000D02*
X-5460000Y-6320000D01*
X-8080000Y-3700000D02*
X-5460000Y-6320000D01*
X-1090000Y-8980000D02*
X-3750000Y-6320000D01*
X-8100000Y-3700000D02*
X-8080000Y-3700000D01*
%TO.N,GND*%
X-15560000Y-51200000D02*
X-15560000Y-63646000D01*
%TO.N,3.3V*%
X-18100000Y-51200000D02*
X-18100000Y-63646000D01*
%TO.N,SCLK*%
X-20640000Y-51200000D02*
X-20640000Y-63646000D01*
%TO.N,SDIO*%
X-23180000Y-51200000D02*
X-23180000Y-63646000D01*
%TO.N,SCLK*%
X-17260000Y8970000D02*
X-17260000Y-4850000D01*
X-17260000Y-4850000D02*
X-17170000Y-4940000D01*
%TO.N,SDIO*%
X-13384753Y11214753D02*
X-13384753Y5832678D01*
X-13830000Y11660000D02*
X-13384753Y11214753D01*
X-13384753Y5832678D02*
X-12520000Y4967925D01*
X-12520000Y4967925D02*
X-12520000Y-1788480D01*
%TO.N,3.3V*%
X-18820000Y15800000D02*
X-18820000Y-976480D01*
X-18820000Y-976480D02*
X-19632000Y-1788480D01*
X-18760000Y15860000D02*
X-18820000Y15800000D01*
%TO.N,Col5*%
X47490000Y-48827907D02*
X47490000Y-22440000D01*
X50250000Y-54610000D02*
X50250000Y-51587907D01*
X47490000Y-22440000D02*
X47490000Y23010000D01*
X50250000Y-51587907D02*
X47490000Y-48827907D01*
%TO.N,Net-(D12-A)*%
X5600000Y-52070000D02*
X2800000Y-54870000D01*
X2800000Y-54870000D02*
X2800000Y-63050000D01*
X7920000Y-49060000D02*
X5600000Y-51380000D01*
X5600000Y-51380000D02*
X5600000Y-52070000D01*
X7920000Y-49060000D02*
X5885000Y-49060000D01*
%TO.N,Row3*%
X300000Y-49060000D02*
X2335000Y-49060000D01*
X300000Y-49060000D02*
X300000Y-47190000D01*
X300000Y-47190000D02*
X560000Y-46930000D01*
%TO.N,Col2*%
X-6900000Y-50130000D02*
X-2600000Y-45830000D01*
X-2600000Y-37023045D02*
X-2030000Y-36453045D01*
X-6900000Y-54610000D02*
X-6900000Y-50130000D01*
X-2600000Y-45830000D02*
X-2600000Y-37023045D01*
X-2030000Y-36453045D02*
X-2030000Y-31240000D01*
X-6900000Y-54610000D02*
X-6900000Y-59650000D01*
X-6900000Y-59650000D02*
X-8100000Y-60850000D01*
%TO.N,Col3*%
X12150000Y-54610000D02*
X12150000Y-59650000D01*
X12150000Y-59650000D02*
X10950000Y-60850000D01*
%TO.N,Col5*%
X50250000Y-54610000D02*
X50250000Y-59650000D01*
X50250000Y-59650000D02*
X49050000Y-60850000D01*
X31300000Y-54610000D02*
X31300000Y-59650000D01*
X31300000Y-59650000D02*
X30100000Y-60850000D01*
%TO.N,Net-(D16-A)*%
X24650000Y-52070000D02*
X21850000Y-54870000D01*
X21850000Y-54870000D02*
X21850000Y-63050000D01*
X27190000Y-48970000D02*
X24650000Y-51510000D01*
X24650000Y-51510000D02*
X24650000Y-52070000D01*
%TO.N,Row3*%
X19570000Y-48970000D02*
X21605000Y-48970000D01*
%TO.N,Net-(D16-A)*%
X27190000Y-48970000D02*
X25155000Y-48970000D01*
%TO.N,Net-(D21-A)*%
X46280000Y-49030000D02*
X43800000Y-51510000D01*
X43800000Y-51510000D02*
X43800000Y-52070000D01*
X43800000Y-52070000D02*
X41000000Y-54870000D01*
X41000000Y-54870000D02*
X41000000Y-63050000D01*
%TO.N,Row2*%
X38660000Y-49030000D02*
X35500000Y-45870000D01*
X35500000Y-45870000D02*
X35500000Y-36612742D01*
X35500000Y-36612742D02*
X36030000Y-36082742D01*
X36030000Y-36082742D02*
X36030000Y-28070000D01*
%TO.N,Row3*%
X53590000Y-49060000D02*
X53590000Y-46940000D01*
X53590000Y-46940000D02*
X53580000Y-46930000D01*
%TO.N,Net-(D21-A)*%
X46280000Y-49030000D02*
X44245000Y-49030000D01*
%TO.N,Row2*%
X38660000Y-49030000D02*
X40695000Y-49030000D01*
%TO.N,Net-(D22-A)*%
X61210000Y-49060000D02*
X59175000Y-49060000D01*
%TO.N,Row3*%
X53590000Y-49060000D02*
X55625000Y-49060000D01*
%TO.N,Bat*%
X-25040000Y15472000D02*
X-23915000Y14347000D01*
X-25040000Y22850000D02*
X-25040000Y15472000D01*
%TO.N,Net-(D1-A)*%
X5600000Y5080000D02*
X2800000Y2280000D01*
X5600000Y5630000D02*
X5600000Y5080000D01*
X7970000Y8000000D02*
X5600000Y5630000D01*
X5935000Y8000000D02*
X7970000Y8000000D01*
X2800000Y2280000D02*
X2800000Y-5900000D01*
%TO.N,Row0*%
X19600000Y8040000D02*
X21635000Y8040000D01*
X57500000Y8140000D02*
X59535000Y8140000D01*
X350000Y8000000D02*
X2385000Y8000000D01*
X-15660000Y19160000D02*
X-15660000Y7650000D01*
X76480000Y8060000D02*
X78515000Y8060000D01*
X38490000Y8000000D02*
X40525000Y8000000D01*
%TO.N,Net-(D2-A)*%
X6085000Y-11080000D02*
X8120000Y-11080000D01*
X8120000Y-11080000D02*
X5600000Y-13600000D01*
X5600000Y-13600000D02*
X5600000Y-13970000D01*
X5600000Y-13970000D02*
X2800000Y-16770000D01*
X2800000Y-16770000D02*
X2800000Y-24950000D01*
%TO.N,Row1*%
X38430000Y-11150000D02*
X40465000Y-11150000D01*
X-22060000Y10730000D02*
X-24965000Y13635000D01*
X-22060000Y-9070000D02*
X-22060000Y10730000D01*
X500000Y-9110000D02*
X510000Y-9100000D01*
X76730000Y-9240000D02*
X76650000Y-9160000D01*
X-24965000Y13635000D02*
X-24965000Y14445000D01*
X19340000Y-10980000D02*
X21375000Y-10980000D01*
X53670000Y-10920000D02*
X53680000Y-10930000D01*
X500000Y-11080000D02*
X2535000Y-11080000D01*
X-24965000Y14445000D02*
X-27090000Y16570000D01*
X38430000Y-9120000D02*
X38450000Y-9100000D01*
X500000Y-11080000D02*
X500000Y-9110000D01*
X19340000Y-10980000D02*
X19340000Y-9100000D01*
X53670000Y-9040000D02*
X53670000Y-10920000D01*
X76730000Y-10920000D02*
X76730000Y-9240000D01*
X53680000Y-10930000D02*
X55715000Y-10930000D01*
X38430000Y-11150000D02*
X38430000Y-9120000D01*
X76730000Y-10920000D02*
X78765000Y-10920000D01*
%TO.N,Net-(D3-A)*%
X5600000Y-33020000D02*
X2800000Y-35820000D01*
X5880000Y-30130000D02*
X7915000Y-30130000D01*
X7915000Y-30130000D02*
X7915000Y-30705000D01*
X7915000Y-30705000D02*
X5600000Y-33020000D01*
X2800000Y-35820000D02*
X2800000Y-44000000D01*
%TO.N,Row2*%
X38370000Y-28170000D02*
X38470000Y-28070000D01*
X295000Y-30130000D02*
X2330000Y-30130000D01*
X295000Y-30130000D02*
X295000Y-28115000D01*
X295000Y-28115000D02*
X340000Y-28070000D01*
X57500000Y-29950000D02*
X57500000Y-28100000D01*
X38370000Y-30100000D02*
X40405000Y-30100000D01*
X-29265000Y-27695000D02*
X-29120000Y-27840000D01*
X19340000Y-28090000D02*
X19360000Y-28070000D01*
X76740000Y-28050000D02*
X76740000Y-30110000D01*
X19340000Y-30010000D02*
X21375000Y-30010000D01*
X-27090000Y14030000D02*
X-27222056Y14030000D01*
X38370000Y-30100000D02*
X38370000Y-28170000D01*
X57500000Y-28100000D02*
X57530000Y-28070000D01*
X57500000Y-29950000D02*
X59535000Y-29950000D01*
X76740000Y-30110000D02*
X78775000Y-30110000D01*
X76720000Y-28030000D02*
X76740000Y-28050000D01*
X-27222056Y14030000D02*
X-29265000Y11987056D01*
X-29265000Y11987056D02*
X-29265000Y-27695000D01*
X19340000Y-30010000D02*
X19340000Y-28090000D01*
%TO.N,Net-(D4-A)*%
X-16250000Y-16770000D02*
X-16250000Y-24950000D01*
X-17265000Y-10950000D02*
X-15230000Y-10950000D01*
X-15230000Y-10950000D02*
X-13450000Y-12730000D01*
X-13450000Y-12730000D02*
X-13450000Y-13970000D01*
X-13450000Y-13970000D02*
X-16250000Y-16770000D01*
%TO.N,Row3*%
X-18680000Y-29980000D02*
X-18680000Y-34053045D01*
X-25820000Y-7980000D02*
X-25820000Y5140000D01*
X-25820000Y5140000D02*
X-27090000Y6410000D01*
X-21650000Y-17973045D02*
X-21650000Y-27010000D01*
X-21650000Y-27010000D02*
X-18680000Y-29980000D01*
X-22450000Y-37823045D02*
X-22450000Y-46340000D01*
X-22850000Y-10950000D02*
X-25820000Y-7980000D01*
X-22450000Y-46340000D02*
X-22450000Y-49090000D01*
X-21260000Y-12540000D02*
X-21260000Y-17583045D01*
X-18680000Y-34053045D02*
X-22450000Y-37823045D01*
X-22850000Y-10950000D02*
X-20815000Y-10950000D01*
X-22850000Y-10950000D02*
X-21260000Y-12540000D01*
X-21260000Y-17583045D02*
X-21650000Y-17973045D01*
X-18680000Y-29980000D02*
X-16645000Y-29980000D01*
X76510000Y-49200000D02*
X78545000Y-49200000D01*
%TO.N,Net-(D5-A)*%
X24650000Y5470000D02*
X24650000Y5080000D01*
X24650000Y5080000D02*
X21850000Y2280000D01*
X25185000Y8040000D02*
X27220000Y8040000D01*
X27220000Y8040000D02*
X24650000Y5470000D01*
X21850000Y2280000D02*
X21850000Y-5900000D01*
%TO.N,Net-(D6-A)*%
X26960000Y-10980000D02*
X24650000Y-13290000D01*
X24925000Y-10980000D02*
X26960000Y-10980000D01*
X24650000Y-13290000D02*
X24650000Y-13970000D01*
X24650000Y-13970000D02*
X21850000Y-16770000D01*
X21850000Y-16770000D02*
X21850000Y-24950000D01*
%TO.N,Net-(D7-A)*%
X21850000Y-35820000D02*
X24650000Y-33020000D01*
X21850000Y-44000000D02*
X21850000Y-35820000D01*
X24925000Y-30010000D02*
X26960000Y-30010000D01*
X26960000Y-30010000D02*
X24650000Y-32320000D01*
X24650000Y-32320000D02*
X24650000Y-33020000D01*
%TO.N,Net-(D8-A)*%
X-13450000Y-32370000D02*
X-13450000Y-33020000D01*
X-11060000Y-29980000D02*
X-13450000Y-32370000D01*
X-16250000Y-35820000D02*
X-16250000Y-44000000D01*
X-13095000Y-29980000D02*
X-11060000Y-29980000D01*
X-13450000Y-33020000D02*
X-16250000Y-35820000D01*
%TO.N,Net-(D9-A)*%
X46110000Y8000000D02*
X43700000Y5590000D01*
X43700000Y5590000D02*
X43700000Y5080000D01*
X44075000Y8000000D02*
X46110000Y8000000D01*
X40900000Y2280000D02*
X40900000Y-5900000D01*
X43700000Y5080000D02*
X40900000Y2280000D01*
%TO.N,Net-(D10-A)*%
X44015000Y-11150000D02*
X46050000Y-11150000D01*
X40900000Y-16770000D02*
X40900000Y-24950000D01*
X46050000Y-11150000D02*
X46050000Y-11620000D01*
X46050000Y-11620000D02*
X43700000Y-13970000D01*
X43700000Y-13970000D02*
X40900000Y-16770000D01*
%TO.N,Net-(D11-A)*%
X43700000Y-33020000D02*
X40900000Y-35820000D01*
X45990000Y-30100000D02*
X43700000Y-32390000D01*
X40900000Y-35820000D02*
X40900000Y-44000000D01*
X43955000Y-30100000D02*
X45990000Y-30100000D01*
X43700000Y-32390000D02*
X43700000Y-33020000D01*
%TO.N,Net-(D13-A)*%
X59950000Y2280000D02*
X59950000Y-5900000D01*
X62750000Y5080000D02*
X59950000Y2280000D01*
X65120000Y8140000D02*
X65120000Y7450000D01*
X65120000Y7450000D02*
X62750000Y5080000D01*
X63085000Y8140000D02*
X65120000Y8140000D01*
%TO.N,Net-(D14-A)*%
X61300000Y-10930000D02*
X62750000Y-12380000D01*
X62750000Y-13970000D02*
X59950000Y-16770000D01*
X59265000Y-10930000D02*
X61300000Y-10930000D01*
X59950000Y-16770000D02*
X59950000Y-24950000D01*
X62750000Y-12380000D02*
X62750000Y-13970000D01*
%TO.N,Net-(D15-A)*%
X65120000Y-29950000D02*
X62750000Y-32320000D01*
X62750000Y-32320000D02*
X62750000Y-33020000D01*
X62750000Y-33020000D02*
X59950000Y-35820000D01*
X63085000Y-29950000D02*
X65120000Y-29950000D01*
X59950000Y-35820000D02*
X59950000Y-44000000D01*
%TO.N,Net-(D17-A)*%
X81800000Y5080000D02*
X79000000Y2280000D01*
X79000000Y2280000D02*
X79000000Y-5900000D01*
X82065000Y8060000D02*
X84100000Y8060000D01*
X84100000Y8060000D02*
X84100000Y7380000D01*
X84100000Y7380000D02*
X81800000Y5080000D01*
%TO.N,Net-(D18-A)*%
X84350000Y-11420000D02*
X81800000Y-13970000D01*
X84350000Y-10920000D02*
X84350000Y-11420000D01*
X79000000Y-16770000D02*
X79000000Y-24950000D01*
X82315000Y-10920000D02*
X84350000Y-10920000D01*
X81800000Y-13970000D02*
X79000000Y-16770000D01*
%TO.N,GND*%
X28470000Y-30300000D02*
X28470000Y-7850000D01*
X-19690000Y340000D02*
X-19700000Y330000D01*
X-19700000Y330000D02*
X-19700000Y16790000D01*
X-19700000Y16790000D02*
X-19710000Y16800000D01*
X28470000Y-7850000D02*
X28480000Y-7840000D01*
X65890000Y-31440000D02*
X65680000Y-31230000D01*
%TO.N,Net-(D19-A)*%
X84360000Y-30560000D02*
X81800000Y-33120000D01*
X81800000Y-33120000D02*
X79000000Y-35920000D01*
X79000000Y-35920000D02*
X79000000Y-44100000D01*
X82325000Y-30110000D02*
X84360000Y-30110000D01*
X84360000Y-30110000D02*
X84360000Y-30560000D01*
%TO.N,Col0*%
X-8100000Y-17710000D02*
X-6900000Y-16510000D01*
X-6860000Y14050000D02*
X-6900000Y14010000D01*
X-8100000Y1340000D02*
X-6900000Y2540000D01*
X-8100000Y-41690000D02*
X-6900000Y-40490000D01*
X-6900000Y14010000D02*
X-6900000Y2540000D01*
X-6900000Y-23950000D02*
X-8100000Y-22750000D01*
X-25950000Y-21550000D02*
X-27150000Y-22750000D01*
X-6900000Y-40490000D02*
X-6900000Y-35560000D01*
X-6900000Y-35560000D02*
X-6900000Y-23950000D01*
X-27150000Y-27220000D02*
X-27130000Y-27240000D01*
X-8100000Y-41800000D02*
X-8100000Y-41690000D01*
X-8100000Y-22750000D02*
X-8100000Y-17710000D01*
X-25950000Y-16510000D02*
X-25950000Y-21550000D01*
X-8100000Y-3700000D02*
X-8100000Y1340000D01*
X-27150000Y-22750000D02*
X-27150000Y-27220000D01*
%TO.N,Col1*%
X-25950000Y-35560000D02*
X-25950000Y-40600000D01*
X12110000Y11420000D02*
X12110000Y11120000D01*
X12150000Y-23950000D02*
X10950000Y-22750000D01*
X10950000Y-36760000D02*
X12150000Y-35560000D01*
X12150000Y-2500000D02*
X10950000Y-3700000D01*
X10950000Y-17710000D02*
X12150000Y-16510000D01*
X-25950000Y-40600000D02*
X-27150000Y-41800000D01*
X12110000Y11120000D02*
X12150000Y11080000D01*
X12150000Y-35560000D02*
X12150000Y-23950000D01*
X12150000Y-16510000D02*
X12150000Y-4900000D01*
X11050000Y-46230000D02*
X10950000Y-46130000D01*
X12150000Y11080000D02*
X12150000Y2540000D01*
X10950000Y-22750000D02*
X10950000Y-17710000D01*
X10950000Y-46130000D02*
X10950000Y-41800000D01*
X12150000Y-4900000D02*
X10950000Y-3700000D01*
X10950000Y-41800000D02*
X10950000Y-36760000D01*
X12150000Y2540000D02*
X12150000Y-2500000D01*
X-27150000Y-45760000D02*
X-27100000Y-45810000D01*
X-27150000Y-41800000D02*
X-27150000Y-45760000D01*
%TO.N,Col2*%
X31200000Y-21550000D02*
X30000000Y-22750000D01*
X31120000Y-16430000D02*
X31120000Y-4820000D01*
X31160000Y10190000D02*
X31160000Y9780000D01*
X31200000Y2540000D02*
X31200000Y-2500000D01*
X31120000Y-4820000D02*
X30000000Y-3700000D01*
X31200000Y-31240000D02*
X31200000Y-23950000D01*
X31200000Y-16510000D02*
X31120000Y-16430000D01*
X31200000Y9740000D02*
X31200000Y2540000D01*
X31200000Y-23950000D02*
X30000000Y-22750000D01*
X31200000Y-35560000D02*
X31200000Y-31240000D01*
X30000000Y-36760000D02*
X31200000Y-35560000D01*
X30000000Y-41800000D02*
X30000000Y-36760000D01*
X31200000Y-16510000D02*
X31200000Y-21550000D01*
X31200000Y-2500000D02*
X30000000Y-3700000D01*
X31160000Y9780000D02*
X31200000Y9740000D01*
%TO.N,Col3*%
X50250000Y-2500000D02*
X49050000Y-3700000D01*
X50250000Y-35560000D02*
X50250000Y-23950000D01*
X50250000Y-16510000D02*
X50250000Y-4900000D01*
X50250000Y-35560000D02*
X49050000Y-36760000D01*
X50250000Y-4900000D02*
X49050000Y-3700000D01*
X49050000Y-36760000D02*
X49050000Y-41800000D01*
X49020000Y-45640000D02*
X49020000Y-45080000D01*
X49050000Y-17710000D02*
X49050000Y-22750000D01*
X50250000Y2540000D02*
X50250000Y-2500000D01*
X50250000Y-16510000D02*
X49050000Y-17710000D01*
X50250000Y6670000D02*
X50250000Y2540000D01*
X49020000Y-45080000D02*
X49050000Y-45050000D01*
X49050000Y-45050000D02*
X49050000Y-41800000D01*
X50250000Y-23950000D02*
X49050000Y-22750000D01*
%TO.N,Col4*%
X69330000Y-47902945D02*
X69330000Y-43130000D01*
X69300000Y-47932945D02*
X69330000Y-47902945D01*
X69300000Y-2500000D02*
X68100000Y-3700000D01*
X-13755000Y4718000D02*
X-13755000Y-6155000D01*
X69330000Y-43130000D02*
X68100000Y-41900000D01*
X69430000Y-16380000D02*
X69430000Y-6240000D01*
X69300000Y-16510000D02*
X69430000Y-16380000D01*
X69430000Y-5030000D02*
X68100000Y-3700000D01*
X68100000Y-36860000D02*
X69300000Y-35660000D01*
X69300000Y-35660000D02*
X69300000Y-25770000D01*
X68100000Y-55910000D02*
X69300000Y-54710000D01*
X68100000Y-17710000D02*
X69300000Y-16510000D01*
X69430000Y-6240000D02*
X69430000Y-5030000D01*
X69300000Y2540000D02*
X69300000Y-2500000D01*
X68100000Y-22750000D02*
X68100000Y-17710000D01*
X69300000Y-54710000D02*
X69300000Y-47932945D01*
X-13755000Y-6155000D02*
X-13750000Y-6160000D01*
X68100000Y-41900000D02*
X68100000Y-36860000D01*
X69300000Y-25770000D02*
X68100000Y-24570000D01*
X68100000Y-24570000D02*
X68100000Y-22750000D01*
X68100000Y-60950000D02*
X68100000Y-55910000D01*
%TO.N,Net-(D20-A)*%
X81800000Y-52170000D02*
X79000000Y-54970000D01*
X81800000Y-51530000D02*
X81800000Y-52170000D01*
X84130000Y-49200000D02*
X82095000Y-49200000D01*
X79000000Y-54970000D02*
X79000000Y-63150000D01*
X84130000Y-49200000D02*
X81800000Y-51530000D01*
%TO.N,Net-(BT1--)*%
X-20880000Y-2070000D02*
X-20910000Y-2100000D01*
X-20880000Y20410000D02*
X-20880000Y-2070000D01*
%TD*%
M02*
