%TF.GenerationSoftware,KiCad,Pcbnew,8.0.7*%
%TF.CreationDate,2025-02-20T17:21:25+09:00*%
%TF.ProjectId,cool642az1uball_R,636f6f6c-3634-4326-917a-317562616c6c,rev?*%
%TF.SameCoordinates,Original*%
%TF.FileFunction,Copper,L1,Top*%
%TF.FilePolarity,Positive*%
%FSLAX46Y46*%
G04 Gerber Fmt 4.6, Leading zero omitted, Abs format (unit mm)*
G04 Created by KiCad (PCBNEW 8.0.7) date 2025-02-20 17:21:25*
%MOMM*%
%LPD*%
G01*
G04 APERTURE LIST*
%TA.AperFunction,ComponentPad*%
%ADD10R,1.397000X1.397000*%
%TD*%
%TA.AperFunction,SMDPad,CuDef*%
%ADD11R,1.300000X0.950000*%
%TD*%
%TA.AperFunction,ComponentPad*%
%ADD12C,1.397000*%
%TD*%
%TA.AperFunction,ComponentPad*%
%ADD13O,1.397000X1.778000*%
%TD*%
%TA.AperFunction,ComponentPad*%
%ADD14O,1.000000X1.300000*%
%TD*%
%TA.AperFunction,ComponentPad*%
%ADD15C,3.000000*%
%TD*%
%TA.AperFunction,ComponentPad*%
%ADD16O,2.750000X1.800000*%
%TD*%
%TA.AperFunction,ComponentPad*%
%ADD17C,1.500000*%
%TD*%
%TA.AperFunction,ViaPad*%
%ADD18C,0.600000*%
%TD*%
%TA.AperFunction,Conductor*%
%ADD19C,0.200000*%
%TD*%
G04 APERTURE END LIST*
D10*
%TO.P,D7,1,K*%
%TO.N,Row2*%
X19340000Y-30010000D03*
D11*
X21375000Y-30010000D03*
%TO.P,D7,2,A*%
%TO.N,Net-(D7-A)*%
X24925000Y-30010000D03*
D12*
X26960000Y-30010000D03*
%TD*%
D13*
%TO.P,OL1,1,SDA*%
%TO.N,SDIO*%
X-23180000Y-51200000D03*
X-23180000Y-63646000D03*
%TO.P,OL1,2,SCL*%
%TO.N,SCLK*%
X-20640000Y-51200000D03*
X-20640000Y-63646000D03*
%TO.P,OL1,3,VCC*%
%TO.N,3.3V*%
X-18100000Y-51200000D03*
X-18100000Y-63646000D03*
%TO.P,OL1,4,GND*%
%TO.N,GND*%
X-15560000Y-51200000D03*
X-15560000Y-63646000D03*
%TD*%
D10*
%TO.P,D11,1,K*%
%TO.N,Row2*%
X38370000Y-30100000D03*
D11*
X40405000Y-30100000D03*
%TO.P,D11,2,A*%
%TO.N,Net-(D11-A)*%
X43955000Y-30100000D03*
D12*
X45990000Y-30100000D03*
%TD*%
D10*
%TO.P,D20,1,K*%
%TO.N,Row3*%
X76510000Y-49200000D03*
D11*
X78545000Y-49200000D03*
%TO.P,D20,2,A*%
%TO.N,Net-(D20-A)*%
X82095000Y-49200000D03*
D12*
X84130000Y-49200000D03*
%TD*%
D10*
%TO.P,D13,1,K*%
%TO.N,Row0*%
X57500000Y8140000D03*
D11*
X59535000Y8140000D03*
%TO.P,D13,2,A*%
%TO.N,Net-(D13-A)*%
X63085000Y8140000D03*
D12*
X65120000Y8140000D03*
%TD*%
D14*
%TO.P,SW21,1,A*%
%TO.N,unconnected-(SW21-A-Pad1)*%
X-27070000Y-4670000D03*
%TO.P,SW21,2,B*%
%TO.N,Net-(BT1--)*%
X-27070000Y-2170000D03*
%TO.P,SW21,3,C*%
%TO.N,GND*%
X-27070000Y330000D03*
%TD*%
D10*
%TO.P,D15,1,K*%
%TO.N,Row2*%
X57500000Y-29950000D03*
D11*
X59535000Y-29950000D03*
%TO.P,D15,2,A*%
%TO.N,Net-(D15-A)*%
X63085000Y-29950000D03*
D12*
X65120000Y-29950000D03*
%TD*%
D10*
%TO.P,D1,1,K*%
%TO.N,Row0*%
X350000Y8000000D03*
D11*
X2385000Y8000000D03*
%TO.P,D1,2,A*%
%TO.N,Net-(D1-A)*%
X5935000Y8000000D03*
D12*
X7970000Y8000000D03*
%TD*%
D10*
%TO.P,D9,1,K*%
%TO.N,Row0*%
X38490000Y8000000D03*
D11*
X40525000Y8000000D03*
%TO.P,D9,2,A*%
%TO.N,Net-(D9-A)*%
X44075000Y8000000D03*
D12*
X46110000Y8000000D03*
%TD*%
D10*
%TO.P,D17,1,K*%
%TO.N,Row0*%
X76480000Y8060000D03*
D11*
X78515000Y8060000D03*
%TO.P,D17,2,A*%
%TO.N,Net-(D17-A)*%
X82065000Y8060000D03*
D12*
X84100000Y8060000D03*
%TD*%
D10*
%TO.P,D4,1,K*%
%TO.N,Row3*%
X-22850000Y-10950000D03*
D11*
X-20815000Y-10950000D03*
%TO.P,D4,2,A*%
%TO.N,Net-(D4-A)*%
X-17265000Y-10950000D03*
D12*
X-15230000Y-10950000D03*
%TD*%
%TO.P,R1,1*%
%TO.N,3.3V*%
X-19632000Y-1788480D03*
%TO.P,R1,2*%
%TO.N,SDIO*%
X-12520000Y-1788480D03*
%TD*%
D10*
%TO.P,D16,1,K*%
%TO.N,Row3*%
X19570000Y-48970000D03*
D11*
X21605000Y-48970000D03*
%TO.P,D16,2,A*%
%TO.N,Net-(D16-A)*%
X25155000Y-48970000D03*
D12*
X27190000Y-48970000D03*
%TD*%
D10*
%TO.P,D21,1,K*%
%TO.N,Row2*%
X38660000Y-49030000D03*
D11*
X40695000Y-49030000D03*
%TO.P,D21,2,A*%
%TO.N,Net-(D21-A)*%
X44245000Y-49030000D03*
D12*
X46280000Y-49030000D03*
%TD*%
D10*
%TO.P,D3,1,K*%
%TO.N,Row2*%
X295000Y-30130000D03*
D11*
X2330000Y-30130000D03*
%TO.P,D3,2,A*%
%TO.N,Net-(D3-A)*%
X5880000Y-30130000D03*
D12*
X7915000Y-30130000D03*
%TD*%
D10*
%TO.P,D19,1,K*%
%TO.N,Row2*%
X76740000Y-30110000D03*
D11*
X78775000Y-30110000D03*
%TO.P,D19,2,A*%
%TO.N,Net-(D19-A)*%
X82325000Y-30110000D03*
D12*
X84360000Y-30110000D03*
%TD*%
D10*
%TO.P,D10,1,K*%
%TO.N,Row1*%
X38430000Y-11150000D03*
D11*
X40465000Y-11150000D03*
%TO.P,D10,2,A*%
%TO.N,Net-(D10-A)*%
X44015000Y-11150000D03*
D12*
X46050000Y-11150000D03*
%TD*%
%TO.P,R2,1*%
%TO.N,3.3V*%
X-19632000Y-4940000D03*
%TO.P,R2,2*%
%TO.N,SCLK*%
X-12520000Y-4940000D03*
%TD*%
D10*
%TO.P,D22,1,K*%
%TO.N,Row3*%
X53590000Y-49060000D03*
D11*
X55625000Y-49060000D03*
%TO.P,D22,2,A*%
%TO.N,Net-(D22-A)*%
X59175000Y-49060000D03*
D12*
X61210000Y-49060000D03*
%TD*%
D10*
%TO.P,D2,1,K*%
%TO.N,Row1*%
X500000Y-11080000D03*
D11*
X2535000Y-11080000D03*
%TO.P,D2,2,A*%
%TO.N,Net-(D2-A)*%
X6085000Y-11080000D03*
D12*
X8120000Y-11080000D03*
%TD*%
D10*
%TO.P,D6,1,K*%
%TO.N,Row1*%
X19340000Y-10980000D03*
D11*
X21375000Y-10980000D03*
%TO.P,D6,2,A*%
%TO.N,Net-(D6-A)*%
X24925000Y-10980000D03*
D12*
X26960000Y-10980000D03*
%TD*%
D10*
%TO.P,D8,1,K*%
%TO.N,Row3*%
X-18680000Y-29980000D03*
D11*
X-16645000Y-29980000D03*
%TO.P,D8,2,A*%
%TO.N,Net-(D8-A)*%
X-13095000Y-29980000D03*
D12*
X-11060000Y-29980000D03*
%TD*%
D15*
%TO.P,BT1,1,+*%
%TO.N,Bat*%
X-5730000Y21730000D03*
%TO.P,BT1,2,-*%
%TO.N,Net-(BT1--)*%
X83540000Y21770000D03*
%TD*%
D10*
%TO.P,D14,1,K*%
%TO.N,Row1*%
X53680000Y-10930000D03*
D11*
X55715000Y-10930000D03*
%TO.P,D14,2,A*%
%TO.N,Net-(D14-A)*%
X59265000Y-10930000D03*
D12*
X61300000Y-10930000D03*
%TD*%
D10*
%TO.P,D12,1,K*%
%TO.N,Row3*%
X300000Y-49060000D03*
D11*
X2335000Y-49060000D03*
%TO.P,D12,2,A*%
%TO.N,Net-(D12-A)*%
X5885000Y-49060000D03*
D12*
X7920000Y-49060000D03*
%TD*%
D10*
%TO.P,D5,1,K*%
%TO.N,Row0*%
X19600000Y8040000D03*
D11*
X21635000Y8040000D03*
%TO.P,D5,2,A*%
%TO.N,Net-(D5-A)*%
X25185000Y8040000D03*
D12*
X27220000Y8040000D03*
%TD*%
D10*
%TO.P,D18,1,K*%
%TO.N,Row1*%
X76730000Y-10920000D03*
D11*
X78765000Y-10920000D03*
%TO.P,D18,2,A*%
%TO.N,Net-(D18-A)*%
X82315000Y-10920000D03*
D12*
X84350000Y-10920000D03*
%TD*%
D16*
%TO.P,U1,1,P0.02_A0_D0*%
%TO.N,Col5*%
X-27590000Y21650000D03*
%TO.P,U1,2,P0.03_A1_D1*%
%TO.N,Row0*%
X-27590000Y19110000D03*
%TO.P,U1,3,P0.28_A2_D2*%
%TO.N,Row1*%
X-27590000Y16570000D03*
%TO.P,U1,4,P0.29_A3_D3*%
%TO.N,Row2*%
X-27590000Y14030000D03*
%TO.P,U1,5,P0.04_A4_D4_SDA*%
%TO.N,SDIO*%
X-27590000Y11490000D03*
%TO.P,U1,6,P0.05_A5_D5_SCL*%
%TO.N,SCLK*%
X-27590000Y8950000D03*
%TO.P,U1,7,P1.11_D6_TX*%
%TO.N,Row3*%
X-27590000Y6410000D03*
%TO.P,U1,8,P1.12_D7_RX*%
%TO.N,Col3*%
X-11350000Y6410000D03*
%TO.P,U1,9,P1.13_D8_SCK*%
%TO.N,Col2*%
X-11350000Y8950000D03*
%TO.P,U1,10,P1.14_D9_MISO*%
%TO.N,Col1*%
X-11350000Y11490000D03*
%TO.P,U1,11,P1.15_D10_MOSI*%
%TO.N,Col0*%
X-11350000Y14030000D03*
%TO.P,U1,12,3V3*%
%TO.N,3.3V*%
X-11350000Y16570000D03*
%TO.P,U1,13,GND*%
%TO.N,GND*%
X-11350000Y19110000D03*
%TO.P,U1,14,5V*%
%TO.N,VCC*%
X-11350000Y21650000D03*
D17*
%TO.P,U1,15,NFC1_0.09*%
%TO.N,unconnected-(U1-NFC1_0.09-Pad15)*%
X-15634600Y4718000D03*
%TO.P,U1,16,NFC2_0.10*%
%TO.N,Col4*%
X-13755000Y4718000D03*
%TO.P,U1,20,BATT+*%
%TO.N,Bat*%
X-23915000Y14347000D03*
%TO.P,U1,21,BATT-*%
%TO.N,GND*%
X-23915000Y16252000D03*
%TD*%
D18*
%TO.N,Col3*%
X12120000Y-45640000D03*
%TO.N,Row3*%
X19550000Y-46930000D03*
%TO.N,Col5*%
X49090000Y-65280000D03*
X30000000Y-65230000D03*
%TO.N,SDIO*%
X-20970000Y-3260000D03*
%TO.N,SCLK*%
X-17190000Y-7370000D03*
%TO.N,GND*%
X-3900000Y-7060000D03*
%TO.N,SCLK*%
X-17260000Y8970000D03*
X-17170000Y-4940000D03*
%TO.N,SDIO*%
X-13830000Y11660000D03*
%TO.N,3.3V*%
X-18760000Y15860000D03*
%TO.N,Col5*%
X47490000Y23010000D03*
%TO.N,Col2*%
X-2030000Y-31240000D03*
%TO.N,Row2*%
X36030000Y-28070000D03*
%TO.N,Row3*%
X53580000Y-46930000D03*
%TO.N,Bat*%
X-25040000Y22850000D03*
%TO.N,Row0*%
X-15660000Y19160000D03*
X-15660000Y7650000D03*
%TO.N,Row1*%
X76650000Y-9160000D03*
X53670000Y-9040000D03*
X510000Y-9100000D03*
X-22060000Y-9070000D03*
X38450000Y-9100000D03*
X19340000Y-9100000D03*
%TO.N,Row2*%
X340000Y-28070000D03*
X38470000Y-28070000D03*
X19360000Y-28070000D03*
X76720000Y-28030000D03*
X57530000Y-28070000D03*
X-29120000Y-27840000D03*
%TO.N,Row3*%
X560000Y-46930000D03*
X-22450000Y-46340000D03*
%TO.N,GND*%
X65680000Y-31230000D03*
X28480000Y-7840000D03*
X-19710000Y16800000D03*
X-19700000Y330000D03*
X28470000Y-30300000D03*
%TO.N,Col0*%
X-6860000Y14050000D03*
X-27130000Y-27240000D03*
X-6900000Y-27240000D03*
%TO.N,Col1*%
X-27100000Y-45810000D03*
X11050000Y-46230000D03*
X12110000Y11420000D03*
%TO.N,Col2*%
X31200000Y-31240000D03*
X31160000Y10190000D03*
%TO.N,Col3*%
X49020000Y-45640000D03*
X50250000Y6670000D03*
%TO.N,Col4*%
X69430000Y-6240000D03*
X-13750000Y-6160000D03*
%TO.N,Net-(BT1--)*%
X-20910000Y-2100000D03*
X-20880000Y20410000D03*
%TD*%
D19*
%TO.N,Col3*%
X11990000Y-45640000D02*
X12120000Y-45640000D01*
X12120000Y-45640000D02*
X49020000Y-45640000D01*
%TO.N,Row3*%
X560000Y-46930000D02*
X19550000Y-46930000D01*
X19550000Y-46930000D02*
X53580000Y-46930000D01*
%TO.N,Col5*%
X49040000Y-65230000D02*
X49090000Y-65280000D01*
X30000000Y-65230000D02*
X49040000Y-65230000D01*
%TO.N,SDIO*%
X-13991520Y-3260000D02*
X-12520000Y-1788480D01*
X-20970000Y-3260000D02*
X-13991520Y-3260000D01*
%TO.N,SCLK*%
X-17190000Y-7370000D02*
X-17190000Y-6950000D01*
X-17190000Y-6950000D02*
X-17170000Y-6930000D01*
X-17170000Y-6930000D02*
X-17170000Y-4940000D01*
%TO.N,GND*%
X-5724314Y-7060000D02*
X-3900000Y-7060000D01*
X-3900000Y-7060000D02*
X-3330000Y-7060000D01*
X-19700000Y330000D02*
X-13114314Y330000D01*
X-2550000Y-7840000D02*
X28480000Y-7840000D01*
X-13114314Y330000D02*
X-5724314Y-7060000D01*
X-3330000Y-7060000D02*
X-2550000Y-7840000D01*
%TO.N,SCLK*%
X-27090000Y8950000D02*
X-17280000Y8950000D01*
X-17170000Y-4940000D02*
X-12520000Y-4940000D01*
X-17280000Y8950000D02*
X-17260000Y8970000D01*
%TO.N,SDIO*%
X-14000000Y11490000D02*
X-13830000Y11660000D01*
X-27090000Y11490000D02*
X-14000000Y11490000D01*
%TO.N,3.3V*%
X-12560000Y15860000D02*
X-18760000Y15860000D01*
X-11850000Y16570000D02*
X-12560000Y15860000D01*
%TO.N,Col5*%
X-25210000Y23530000D02*
X-27090000Y21650000D01*
X46970000Y23530000D02*
X-25210000Y23530000D01*
X47490000Y23010000D02*
X46970000Y23530000D01*
%TO.N,Net-(D16-A)*%
X27190000Y-48970000D02*
X25155000Y-48970000D01*
%TO.N,Row3*%
X19570000Y-48970000D02*
X21605000Y-48970000D01*
%TO.N,Net-(D12-A)*%
X7920000Y-49060000D02*
X5885000Y-49060000D01*
%TO.N,Row3*%
X300000Y-49060000D02*
X2335000Y-49060000D01*
%TO.N,Col2*%
X31200000Y-31240000D02*
X-2030000Y-31240000D01*
%TO.N,Row2*%
X36030000Y-28070000D02*
X38470000Y-28070000D01*
X19360000Y-28070000D02*
X36030000Y-28070000D01*
%TO.N,Row3*%
X53580000Y-46930000D02*
X61932321Y-46930000D01*
%TO.N,Net-(D21-A)*%
X46280000Y-49030000D02*
X44245000Y-49030000D01*
%TO.N,Row2*%
X38660000Y-49030000D02*
X40695000Y-49030000D01*
%TO.N,Net-(D22-A)*%
X61210000Y-49060000D02*
X59175000Y-49060000D01*
%TO.N,Row3*%
X53590000Y-49060000D02*
X55625000Y-49060000D01*
%TO.N,Bat*%
X-5730000Y21730000D02*
X-6850000Y22850000D01*
X-6850000Y22850000D02*
X-25040000Y22850000D01*
%TO.N,Net-(D1-A)*%
X7970000Y8000000D02*
X5935000Y8000000D01*
%TO.N,Row0*%
X20920000Y9360000D02*
X19600000Y8040000D01*
X48002093Y7520000D02*
X46523593Y8998500D01*
X0Y7650000D02*
X350000Y8000000D01*
X39488500Y8998500D02*
X38490000Y8000000D01*
X76480000Y8060000D02*
X78515000Y8060000D01*
X37130000Y9360000D02*
X20920000Y9360000D01*
X57500000Y8140000D02*
X59535000Y8140000D01*
X1350000Y9000000D02*
X18640000Y9000000D01*
X350000Y8000000D02*
X2385000Y8000000D01*
X38490000Y8000000D02*
X40525000Y8000000D01*
X-27090000Y19110000D02*
X-15710000Y19110000D01*
X56880000Y7520000D02*
X48002093Y7520000D01*
X-15710000Y19110000D02*
X-15660000Y19160000D01*
X18640000Y9000000D02*
X19600000Y8040000D01*
X76480000Y8060000D02*
X75401500Y9138500D01*
X75401500Y9138500D02*
X58498500Y9138500D01*
X350000Y8000000D02*
X1350000Y9000000D01*
X19600000Y8040000D02*
X21635000Y8040000D01*
X-15660000Y7650000D02*
X0Y7650000D01*
X57500000Y8140000D02*
X56880000Y7520000D01*
X46523593Y8998500D02*
X39488500Y8998500D01*
X38490000Y8000000D02*
X37130000Y9360000D01*
X58498500Y9138500D02*
X57500000Y8140000D01*
%TO.N,Net-(D2-A)*%
X8120000Y-11080000D02*
X6085000Y-11080000D01*
%TO.N,Row1*%
X19340000Y-10980000D02*
X21375000Y-10980000D01*
X-13297679Y-9070000D02*
X-11150000Y-6922321D01*
X-7070000Y-6922321D02*
X-4892321Y-9100000D01*
X19340000Y-9100000D02*
X38450000Y-9100000D01*
X-4892321Y-9100000D02*
X510000Y-9100000D01*
X69760000Y-6862321D02*
X63710000Y-6862321D01*
X76570000Y-9080000D02*
X71977679Y-9080000D01*
X53680000Y-10930000D02*
X55715000Y-10930000D01*
X510000Y-9100000D02*
X19340000Y-9100000D01*
X2535000Y-11080000D02*
X500000Y-11080000D01*
X61532321Y-9040000D02*
X63710000Y-6862321D01*
X71977679Y-9080000D02*
X69760000Y-6862321D01*
X76730000Y-10920000D02*
X78765000Y-10920000D01*
X-11150000Y-6922321D02*
X-7070000Y-6922321D01*
X76650000Y-9160000D02*
X76570000Y-9080000D01*
X-22060000Y-9070000D02*
X-13297679Y-9070000D01*
X38430000Y-11150000D02*
X40465000Y-11150000D01*
X53670000Y-9040000D02*
X61532321Y-9040000D01*
X53610000Y-9100000D02*
X53670000Y-9040000D01*
X38450000Y-9100000D02*
X53610000Y-9100000D01*
%TO.N,Net-(D3-A)*%
X7915000Y-30130000D02*
X5880000Y-30130000D01*
%TO.N,Row2*%
X76740000Y-30110000D02*
X78775000Y-30110000D01*
X38370000Y-30100000D02*
X40405000Y-30100000D01*
X76680000Y-28070000D02*
X76720000Y-28030000D01*
X57530000Y-28070000D02*
X76680000Y-28070000D01*
X38470000Y-28070000D02*
X57530000Y-28070000D01*
X-29120000Y-27840000D02*
X110000Y-27840000D01*
X19340000Y-30010000D02*
X21375000Y-30010000D01*
X57500000Y-29950000D02*
X59535000Y-29950000D01*
X295000Y-30130000D02*
X2330000Y-30130000D01*
X110000Y-27840000D02*
X340000Y-28070000D01*
X340000Y-28070000D02*
X19360000Y-28070000D01*
%TO.N,Net-(D4-A)*%
X-15230000Y-10950000D02*
X-17265000Y-10950000D01*
%TO.N,Row3*%
X560000Y-46930000D02*
X-6644004Y-46930000D01*
X-22850000Y-10950000D02*
X-20815000Y-10950000D01*
X76510000Y-49200000D02*
X78545000Y-49200000D01*
X-8581683Y-44992321D02*
X-11002321Y-44992321D01*
X-11002321Y-44992321D02*
X-12350000Y-46340000D01*
X-18680000Y-29980000D02*
X-16645000Y-29980000D01*
X-12350000Y-46340000D02*
X-22450000Y-46340000D01*
X63800000Y-45062321D02*
X69580000Y-45062321D01*
X61932321Y-46930000D02*
X63800000Y-45062321D01*
X76510000Y-49200000D02*
X73717679Y-49200000D01*
X73717679Y-49200000D02*
X69580000Y-45062321D01*
X-6644004Y-46930000D02*
X-8581683Y-44992321D01*
%TO.N,Net-(D5-A)*%
X27220000Y8040000D02*
X25185000Y8040000D01*
%TO.N,Net-(D6-A)*%
X26960000Y-10980000D02*
X24925000Y-10980000D01*
%TO.N,Net-(D7-A)*%
X26960000Y-30010000D02*
X24925000Y-30010000D01*
%TO.N,Net-(D8-A)*%
X-11060000Y-29980000D02*
X-13095000Y-29980000D01*
%TO.N,Net-(D9-A)*%
X46110000Y8000000D02*
X44075000Y8000000D01*
%TO.N,Net-(D10-A)*%
X46050000Y-11150000D02*
X44015000Y-11150000D01*
%TO.N,Net-(D11-A)*%
X45990000Y-30100000D02*
X43955000Y-30100000D01*
%TO.N,Net-(D13-A)*%
X65120000Y8140000D02*
X63085000Y8140000D01*
%TO.N,Net-(D14-A)*%
X61300000Y-10930000D02*
X59265000Y-10930000D01*
%TO.N,Net-(D15-A)*%
X65120000Y-29950000D02*
X63085000Y-29950000D01*
%TO.N,Net-(D17-A)*%
X84100000Y8060000D02*
X82065000Y8060000D01*
%TO.N,Net-(D18-A)*%
X84350000Y-10920000D02*
X82315000Y-10920000D01*
%TO.N,GND*%
X65680000Y-31230000D02*
X34770000Y-31230000D01*
X-19710000Y16800000D02*
X-19640000Y16800000D01*
X33840000Y-30300000D02*
X28470000Y-30300000D01*
X-27070000Y330000D02*
X-19700000Y330000D01*
X-14160000Y16800000D02*
X-11850000Y19110000D01*
X-19640000Y16800000D02*
X-14160000Y16800000D01*
X-23915000Y16252000D02*
X-23367000Y16800000D01*
X34770000Y-31230000D02*
X33840000Y-30300000D01*
X-23367000Y16800000D02*
X-19710000Y16800000D01*
%TO.N,Net-(D19-A)*%
X84360000Y-30110000D02*
X82325000Y-30110000D01*
%TO.N,Col0*%
X-27130000Y-27240000D02*
X-6900000Y-27240000D01*
X-11850000Y14030000D02*
X-6880000Y14030000D01*
X-6880000Y14030000D02*
X-6860000Y14050000D01*
%TO.N,Col1*%
X-8237679Y-44592321D02*
X-11202321Y-44592321D01*
X-11202321Y-44592321D02*
X-12210000Y-45600000D01*
X-12210000Y-45600000D02*
X-26890000Y-45600000D01*
X-11850000Y11490000D02*
X12040000Y11490000D01*
X11020000Y-46260000D02*
X-6570000Y-46260000D01*
X-26890000Y-45600000D02*
X-27100000Y-45810000D01*
X11050000Y-46230000D02*
X11020000Y-46260000D01*
X12040000Y11490000D02*
X12110000Y11420000D01*
X-6570000Y-46260000D02*
X-8237679Y-44592321D01*
%TO.N,Col2*%
X-11040000Y9760000D02*
X30730000Y9760000D01*
X30730000Y9760000D02*
X31160000Y10190000D01*
X-11850000Y8950000D02*
X-11040000Y9760000D01*
%TO.N,Col3*%
X50240000Y6680000D02*
X50250000Y6670000D01*
X11980000Y-45630000D02*
X11990000Y-45640000D01*
X-11580000Y6680000D02*
X50240000Y6680000D01*
X-11850000Y6410000D02*
X-11580000Y6680000D01*
%TO.N,Col4*%
X63766635Y-6240000D02*
X69430000Y-6240000D01*
X-4850000Y-8500000D02*
X-4790000Y-8440000D01*
X-7190000Y-6160000D02*
X-4850000Y-8500000D01*
X-4790000Y-8440000D02*
X61566635Y-8440000D01*
X-13750000Y-6160000D02*
X-7190000Y-6160000D01*
X61566635Y-8440000D02*
X63766635Y-6240000D01*
%TO.N,Net-(D20-A)*%
X84130000Y-49200000D02*
X82095000Y-49200000D01*
%TO.N,Net-(BT1--)*%
X-21410000Y-2100000D02*
X-21480000Y-2170000D01*
X-20910000Y-2100000D02*
X-21410000Y-2100000D01*
X-3070000Y21770000D02*
X-4910000Y19930000D01*
X-9857944Y19930000D02*
X-10337944Y20410000D01*
X-4910000Y19930000D02*
X-9857944Y19930000D01*
X-10337944Y20410000D02*
X-20880000Y20410000D01*
X83540000Y21770000D02*
X-3070000Y21770000D01*
X82040000Y21770000D02*
X83540000Y21770000D01*
X-21480000Y-2170000D02*
X-27070000Y-2170000D01*
%TO.N,Col5*%
X-27090000Y21650000D02*
X-25170000Y23570000D01*
%TD*%
M02*
