%TF.GenerationSoftware,KiCad,Pcbnew,8.0.7*%
%TF.CreationDate,2025-02-20T17:21:25+09:00*%
%TF.ProjectId,cool642az1uball_R,636f6f6c-3634-4326-917a-317562616c6c,rev?*%
%TF.SameCoordinates,Original*%
%TF.FileFunction,Legend,Top*%
%TF.FilePolarity,Positive*%
%FSLAX46Y46*%
G04 Gerber Fmt 4.6, Leading zero omitted, Abs format (unit mm)*
G04 Created by KiCad (PCBNEW 8.0.7) date 2025-02-20 17:21:25*
%MOMM*%
%LPD*%
G01*
G04 APERTURE LIST*
%ADD10C,0.150000*%
%ADD11R,1.397000X1.397000*%
%ADD12C,1.397000*%
G04 APERTURE END LIST*
D10*
X-22578380Y-52825104D02*
X-22102190Y-52825104D01*
X-22673618Y-53110819D02*
X-22340285Y-52110819D01*
X-22340285Y-52110819D02*
X-22006952Y-53110819D01*
X-21768856Y-52110819D02*
X-21102190Y-52110819D01*
X-21102190Y-52110819D02*
X-21768856Y-53110819D01*
X-21768856Y-53110819D02*
X-21102190Y-53110819D01*
X-20197428Y-53110819D02*
X-20768856Y-53110819D01*
X-20483142Y-53110819D02*
X-20483142Y-52110819D01*
X-20483142Y-52110819D02*
X-20578380Y-52253676D01*
X-20578380Y-52253676D02*
X-20673618Y-52348914D01*
X-20673618Y-52348914D02*
X-20768856Y-52396533D01*
X-19768856Y-52110819D02*
X-19768856Y-52920342D01*
X-19768856Y-52920342D02*
X-19721237Y-53015580D01*
X-19721237Y-53015580D02*
X-19673618Y-53063200D01*
X-19673618Y-53063200D02*
X-19578380Y-53110819D01*
X-19578380Y-53110819D02*
X-19387904Y-53110819D01*
X-19387904Y-53110819D02*
X-19292666Y-53063200D01*
X-19292666Y-53063200D02*
X-19245047Y-53015580D01*
X-19245047Y-53015580D02*
X-19197428Y-52920342D01*
X-19197428Y-52920342D02*
X-19197428Y-52110819D01*
X-18387904Y-52587009D02*
X-18245047Y-52634628D01*
X-18245047Y-52634628D02*
X-18197428Y-52682247D01*
X-18197428Y-52682247D02*
X-18149809Y-52777485D01*
X-18149809Y-52777485D02*
X-18149809Y-52920342D01*
X-18149809Y-52920342D02*
X-18197428Y-53015580D01*
X-18197428Y-53015580D02*
X-18245047Y-53063200D01*
X-18245047Y-53063200D02*
X-18340285Y-53110819D01*
X-18340285Y-53110819D02*
X-18721237Y-53110819D01*
X-18721237Y-53110819D02*
X-18721237Y-52110819D01*
X-18721237Y-52110819D02*
X-18387904Y-52110819D01*
X-18387904Y-52110819D02*
X-18292666Y-52158438D01*
X-18292666Y-52158438D02*
X-18245047Y-52206057D01*
X-18245047Y-52206057D02*
X-18197428Y-52301295D01*
X-18197428Y-52301295D02*
X-18197428Y-52396533D01*
X-18197428Y-52396533D02*
X-18245047Y-52491771D01*
X-18245047Y-52491771D02*
X-18292666Y-52539390D01*
X-18292666Y-52539390D02*
X-18387904Y-52587009D01*
X-18387904Y-52587009D02*
X-18721237Y-52587009D01*
X-17768856Y-52825104D02*
X-17292666Y-52825104D01*
X-17864094Y-53110819D02*
X-17530761Y-52110819D01*
X-17530761Y-52110819D02*
X-17197428Y-53110819D01*
X-16387904Y-53110819D02*
X-16864094Y-53110819D01*
X-16864094Y-53110819D02*
X-16864094Y-52110819D01*
X-15578380Y-53110819D02*
X-16054570Y-53110819D01*
X-16054570Y-53110819D02*
X-16054570Y-52110819D01*
X-16161466Y-2076696D02*
X-16432399Y-1689649D01*
X-16625923Y-2076696D02*
X-16625923Y-1263896D01*
X-16625923Y-1263896D02*
X-16316285Y-1263896D01*
X-16316285Y-1263896D02*
X-16238875Y-1302601D01*
X-16238875Y-1302601D02*
X-16200170Y-1341306D01*
X-16200170Y-1341306D02*
X-16161466Y-1418715D01*
X-16161466Y-1418715D02*
X-16161466Y-1534830D01*
X-16161466Y-1534830D02*
X-16200170Y-1612239D01*
X-16200170Y-1612239D02*
X-16238875Y-1650944D01*
X-16238875Y-1650944D02*
X-16316285Y-1689649D01*
X-16316285Y-1689649D02*
X-16625923Y-1689649D01*
X-15387370Y-2076696D02*
X-15851827Y-2076696D01*
X-15619599Y-2076696D02*
X-15619599Y-1263896D01*
X-15619599Y-1263896D02*
X-15697008Y-1380011D01*
X-15697008Y-1380011D02*
X-15774418Y-1457420D01*
X-15774418Y-1457420D02*
X-15851827Y-1496125D01*
X-16161466Y-5228216D02*
X-16432399Y-4841169D01*
X-16625923Y-5228216D02*
X-16625923Y-4415416D01*
X-16625923Y-4415416D02*
X-16316285Y-4415416D01*
X-16316285Y-4415416D02*
X-16238875Y-4454121D01*
X-16238875Y-4454121D02*
X-16200170Y-4492826D01*
X-16200170Y-4492826D02*
X-16161466Y-4570235D01*
X-16161466Y-4570235D02*
X-16161466Y-4686350D01*
X-16161466Y-4686350D02*
X-16200170Y-4763759D01*
X-16200170Y-4763759D02*
X-16238875Y-4802464D01*
X-16238875Y-4802464D02*
X-16316285Y-4841169D01*
X-16316285Y-4841169D02*
X-16625923Y-4841169D01*
X-15851827Y-4492826D02*
X-15813123Y-4454121D01*
X-15813123Y-4454121D02*
X-15735713Y-4415416D01*
X-15735713Y-4415416D02*
X-15542189Y-4415416D01*
X-15542189Y-4415416D02*
X-15464780Y-4454121D01*
X-15464780Y-4454121D02*
X-15426075Y-4492826D01*
X-15426075Y-4492826D02*
X-15387370Y-4570235D01*
X-15387370Y-4570235D02*
X-15387370Y-4647645D01*
X-15387370Y-4647645D02*
X-15426075Y-4763759D01*
X-15426075Y-4763759D02*
X-15890532Y-5228216D01*
X-15890532Y-5228216D02*
X-15387370Y-5228216D01*
X40675714Y16541009D02*
X40532857Y16588628D01*
X40532857Y16588628D02*
X40485238Y16636247D01*
X40485238Y16636247D02*
X40437619Y16731485D01*
X40437619Y16731485D02*
X40437619Y16874342D01*
X40437619Y16874342D02*
X40485238Y16969580D01*
X40485238Y16969580D02*
X40532857Y17017200D01*
X40532857Y17017200D02*
X40628095Y17064819D01*
X40628095Y17064819D02*
X41009047Y17064819D01*
X41009047Y17064819D02*
X41009047Y16064819D01*
X41009047Y16064819D02*
X40675714Y16064819D01*
X40675714Y16064819D02*
X40580476Y16112438D01*
X40580476Y16112438D02*
X40532857Y16160057D01*
X40532857Y16160057D02*
X40485238Y16255295D01*
X40485238Y16255295D02*
X40485238Y16350533D01*
X40485238Y16350533D02*
X40532857Y16445771D01*
X40532857Y16445771D02*
X40580476Y16493390D01*
X40580476Y16493390D02*
X40675714Y16541009D01*
X40675714Y16541009D02*
X41009047Y16541009D01*
X40151904Y16064819D02*
X39580476Y16064819D01*
X39866190Y17064819D02*
X39866190Y16064819D01*
X38723333Y17064819D02*
X39294761Y17064819D01*
X39009047Y17064819D02*
X39009047Y16064819D01*
X39009047Y16064819D02*
X39104285Y16207676D01*
X39104285Y16207676D02*
X39199523Y16302914D01*
X39199523Y16302914D02*
X39294761Y16350533D01*
X-2399160Y13215533D02*
X-6208684Y13215533D01*
X-4303922Y15120295D02*
X-4303922Y11310771D01*
X84270839Y12785533D02*
X80461316Y12785533D01*
%TO.C,D7*%
X20450000Y-29260000D02*
X20450000Y-30760000D01*
X20450000Y-30760000D02*
X25850000Y-30760000D01*
X22650000Y-29510000D02*
X23550000Y-30010000D01*
X22650000Y-30510000D02*
X22650000Y-29510000D01*
X23550000Y-30010000D02*
X22650000Y-30510000D01*
X23650000Y-30510000D02*
X23650000Y-29510000D01*
X25850000Y-29260000D02*
X20450000Y-29260000D01*
X25850000Y-30760000D02*
X25850000Y-29260000D01*
%TO.C,OL1*%
X-27306000Y-49300000D02*
X-11336000Y-49296000D01*
X-27306000Y-65254000D02*
X-27306000Y-49300000D01*
X-27306000Y-65254000D02*
X-11336000Y-65250000D01*
X-24704000Y-50946000D02*
X-24704000Y-63900000D01*
X-24704000Y-50946000D02*
X-13782000Y-50946000D01*
X-24704000Y-63900000D02*
X-13782000Y-63900000D01*
X-13782000Y-50946000D02*
X-13782000Y-63900000D01*
X-11336000Y-65250000D02*
X-11336000Y-49296000D01*
%TO.C,D11*%
X39480000Y-29350000D02*
X39480000Y-30850000D01*
X39480000Y-30850000D02*
X44880000Y-30850000D01*
X41680000Y-29600000D02*
X42580000Y-30100000D01*
X41680000Y-30600000D02*
X41680000Y-29600000D01*
X42580000Y-30100000D02*
X41680000Y-30600000D01*
X42680000Y-30600000D02*
X42680000Y-29600000D01*
X44880000Y-29350000D02*
X39480000Y-29350000D01*
X44880000Y-30850000D02*
X44880000Y-29350000D01*
%TO.C,D20*%
X77620000Y-48450000D02*
X77620000Y-49950000D01*
X77620000Y-49950000D02*
X83020000Y-49950000D01*
X79820000Y-48700000D02*
X80720000Y-49200000D01*
X79820000Y-49700000D02*
X79820000Y-48700000D01*
X80720000Y-49200000D02*
X79820000Y-49700000D01*
X80820000Y-49700000D02*
X80820000Y-48700000D01*
X83020000Y-48450000D02*
X77620000Y-48450000D01*
X83020000Y-49950000D02*
X83020000Y-48450000D01*
%TO.C,D13*%
X58610000Y8890000D02*
X58610000Y7390000D01*
X58610000Y7390000D02*
X64010000Y7390000D01*
X60810000Y8640000D02*
X61710000Y8140000D01*
X60810000Y7640000D02*
X60810000Y8640000D01*
X61710000Y8140000D02*
X60810000Y7640000D01*
X61810000Y7640000D02*
X61810000Y8640000D01*
X64010000Y8890000D02*
X58610000Y8890000D01*
X64010000Y7390000D02*
X64010000Y8890000D01*
%TO.C,SW21*%
X-29620000Y2330000D02*
X-26120000Y2330000D01*
X-29620000Y-6670000D02*
X-29620000Y2330000D01*
X-26120000Y2330000D02*
X-26120000Y-6670000D01*
X-26120000Y-6670000D02*
X-29620000Y-6670000D01*
%TO.C,D15*%
X58610000Y-29200000D02*
X58610000Y-30700000D01*
X58610000Y-30700000D02*
X64010000Y-30700000D01*
X60810000Y-29450000D02*
X61710000Y-29950000D01*
X60810000Y-30450000D02*
X60810000Y-29450000D01*
X61710000Y-29950000D02*
X60810000Y-30450000D01*
X61810000Y-30450000D02*
X61810000Y-29450000D01*
X64010000Y-29200000D02*
X58610000Y-29200000D01*
X64010000Y-30700000D02*
X64010000Y-29200000D01*
%TO.C,D1*%
X1460000Y8750000D02*
X1460000Y7250000D01*
X1460000Y7250000D02*
X6860000Y7250000D01*
X3660000Y8500000D02*
X4560000Y8000000D01*
X3660000Y7500000D02*
X3660000Y8500000D01*
X4560000Y8000000D02*
X3660000Y7500000D01*
X4660000Y7500000D02*
X4660000Y8500000D01*
X6860000Y8750000D02*
X1460000Y8750000D01*
X6860000Y7250000D02*
X6860000Y8750000D01*
%TO.C,D9*%
X39600000Y8750000D02*
X39600000Y7250000D01*
X39600000Y7250000D02*
X45000000Y7250000D01*
X41800000Y8500000D02*
X42700000Y8000000D01*
X41800000Y7500000D02*
X41800000Y8500000D01*
X42700000Y8000000D02*
X41800000Y7500000D01*
X42800000Y7500000D02*
X42800000Y8500000D01*
X45000000Y8750000D02*
X39600000Y8750000D01*
X45000000Y7250000D02*
X45000000Y8750000D01*
%TO.C,D17*%
X77590000Y8810000D02*
X77590000Y7310000D01*
X77590000Y7310000D02*
X82990000Y7310000D01*
X79790000Y8560000D02*
X80690000Y8060000D01*
X79790000Y7560000D02*
X79790000Y8560000D01*
X80690000Y8060000D02*
X79790000Y7560000D01*
X80790000Y7560000D02*
X80790000Y8560000D01*
X82990000Y8810000D02*
X77590000Y8810000D01*
X82990000Y7310000D02*
X82990000Y8810000D01*
%TO.C,D4*%
X-21740000Y-10200000D02*
X-21740000Y-11700000D01*
X-21740000Y-11700000D02*
X-16340000Y-11700000D01*
X-19540000Y-10450000D02*
X-18640000Y-10950000D01*
X-19540000Y-11450000D02*
X-19540000Y-10450000D01*
X-18640000Y-10950000D02*
X-19540000Y-11450000D01*
X-18540000Y-11450000D02*
X-18540000Y-10450000D01*
X-16340000Y-10200000D02*
X-21740000Y-10200000D01*
X-16340000Y-11700000D02*
X-16340000Y-10200000D01*
%TO.C,R1*%
X-17577140Y-787720D02*
X-17577140Y-2789240D01*
X-17577140Y-2789240D02*
X-14574860Y-2789240D01*
X-14574860Y-787720D02*
X-17577140Y-787720D01*
X-14574860Y-2789240D02*
X-14574860Y-787720D01*
%TO.C,D16*%
X20680000Y-48220000D02*
X20680000Y-49720000D01*
X20680000Y-49720000D02*
X26080000Y-49720000D01*
X22880000Y-48470000D02*
X23780000Y-48970000D01*
X22880000Y-49470000D02*
X22880000Y-48470000D01*
X23780000Y-48970000D02*
X22880000Y-49470000D01*
X23880000Y-49470000D02*
X23880000Y-48470000D01*
X26080000Y-48220000D02*
X20680000Y-48220000D01*
X26080000Y-49720000D02*
X26080000Y-48220000D01*
%TO.C,D21*%
X39770000Y-48280000D02*
X39770000Y-49780000D01*
X39770000Y-49780000D02*
X45170000Y-49780000D01*
X41970000Y-48530000D02*
X42870000Y-49030000D01*
X41970000Y-49530000D02*
X41970000Y-48530000D01*
X42870000Y-49030000D02*
X41970000Y-49530000D01*
X42970000Y-49530000D02*
X42970000Y-48530000D01*
X45170000Y-48280000D02*
X39770000Y-48280000D01*
X45170000Y-49780000D02*
X45170000Y-48280000D01*
%TO.C,D3*%
X1405000Y-29380000D02*
X1405000Y-30880000D01*
X1405000Y-30880000D02*
X6805000Y-30880000D01*
X3605000Y-29630000D02*
X4505000Y-30130000D01*
X3605000Y-30630000D02*
X3605000Y-29630000D01*
X4505000Y-30130000D02*
X3605000Y-30630000D01*
X4605000Y-30630000D02*
X4605000Y-29630000D01*
X6805000Y-29380000D02*
X1405000Y-29380000D01*
X6805000Y-30880000D02*
X6805000Y-29380000D01*
%TO.C,D19*%
X77850000Y-29360000D02*
X77850000Y-30860000D01*
X77850000Y-30860000D02*
X83250000Y-30860000D01*
X80050000Y-29610000D02*
X80950000Y-30110000D01*
X80050000Y-30610000D02*
X80050000Y-29610000D01*
X80950000Y-30110000D02*
X80050000Y-30610000D01*
X81050000Y-30610000D02*
X81050000Y-29610000D01*
X83250000Y-29360000D02*
X77850000Y-29360000D01*
X83250000Y-30860000D02*
X83250000Y-29360000D01*
%TO.C,D10*%
X39540000Y-10400000D02*
X39540000Y-11900000D01*
X39540000Y-11900000D02*
X44940000Y-11900000D01*
X41740000Y-10650000D02*
X42640000Y-11150000D01*
X41740000Y-11650000D02*
X41740000Y-10650000D01*
X42640000Y-11150000D02*
X41740000Y-11650000D01*
X42740000Y-11650000D02*
X42740000Y-10650000D01*
X44940000Y-10400000D02*
X39540000Y-10400000D01*
X44940000Y-11900000D02*
X44940000Y-10400000D01*
%TO.C,R2*%
X-17577140Y-3939240D02*
X-17577140Y-5940760D01*
X-17577140Y-5940760D02*
X-14574860Y-5940760D01*
X-14574860Y-3939240D02*
X-17577140Y-3939240D01*
X-14574860Y-5940760D02*
X-14574860Y-3939240D01*
%TO.C,D22*%
X54700000Y-48310000D02*
X54700000Y-49810000D01*
X54700000Y-49810000D02*
X60100000Y-49810000D01*
X56900000Y-48560000D02*
X57800000Y-49060000D01*
X56900000Y-49560000D02*
X56900000Y-48560000D01*
X57800000Y-49060000D02*
X56900000Y-49560000D01*
X57900000Y-49560000D02*
X57900000Y-48560000D01*
X60100000Y-48310000D02*
X54700000Y-48310000D01*
X60100000Y-49810000D02*
X60100000Y-48310000D01*
%TO.C,D2*%
X1610000Y-10330000D02*
X1610000Y-11830000D01*
X1610000Y-11830000D02*
X7010000Y-11830000D01*
X3810000Y-10580000D02*
X4710000Y-11080000D01*
X3810000Y-11580000D02*
X3810000Y-10580000D01*
X4710000Y-11080000D02*
X3810000Y-11580000D01*
X4810000Y-11580000D02*
X4810000Y-10580000D01*
X7010000Y-10330000D02*
X1610000Y-10330000D01*
X7010000Y-11830000D02*
X7010000Y-10330000D01*
%TO.C,D6*%
X20450000Y-10230000D02*
X20450000Y-11730000D01*
X20450000Y-11730000D02*
X25850000Y-11730000D01*
X22650000Y-10480000D02*
X23550000Y-10980000D01*
X22650000Y-11480000D02*
X22650000Y-10480000D01*
X23550000Y-10980000D02*
X22650000Y-11480000D01*
X23650000Y-11480000D02*
X23650000Y-10480000D01*
X25850000Y-10230000D02*
X20450000Y-10230000D01*
X25850000Y-11730000D02*
X25850000Y-10230000D01*
%TO.C,D8*%
X-17570000Y-29230000D02*
X-17570000Y-30730000D01*
X-17570000Y-30730000D02*
X-12170000Y-30730000D01*
X-15370000Y-29480000D02*
X-14470000Y-29980000D01*
X-15370000Y-30480000D02*
X-15370000Y-29480000D01*
X-14470000Y-29980000D02*
X-15370000Y-30480000D01*
X-14370000Y-30480000D02*
X-14370000Y-29480000D01*
X-12170000Y-29230000D02*
X-17570000Y-29230000D01*
X-12170000Y-30730000D02*
X-12170000Y-29230000D01*
%TO.C,BT1*%
X-4110000Y20110000D02*
X-8110000Y20110000D01*
X-8110000Y24110000D01*
X-4110000Y24110000D01*
X-4110000Y20110000D01*
X85890000Y20110000D02*
X81890000Y20110000D01*
X81890000Y24110000D01*
X85890000Y24110000D01*
X85890000Y20110000D01*
X86390000Y10110000D02*
X-8610000Y10110000D01*
X-8610000Y24110000D01*
X86390000Y24110000D01*
X86390000Y10110000D01*
%TO.C,D14*%
X54790000Y-10180000D02*
X54790000Y-11680000D01*
X54790000Y-11680000D02*
X60190000Y-11680000D01*
X56990000Y-10430000D02*
X57890000Y-10930000D01*
X56990000Y-11430000D02*
X56990000Y-10430000D01*
X57890000Y-10930000D02*
X56990000Y-11430000D01*
X57990000Y-11430000D02*
X57990000Y-10430000D01*
X60190000Y-10180000D02*
X54790000Y-10180000D01*
X60190000Y-11680000D02*
X60190000Y-10180000D01*
%TO.C,D12*%
X1410000Y-48310000D02*
X1410000Y-49810000D01*
X1410000Y-49810000D02*
X6810000Y-49810000D01*
X3610000Y-48560000D02*
X4510000Y-49060000D01*
X3610000Y-49560000D02*
X3610000Y-48560000D01*
X4510000Y-49060000D02*
X3610000Y-49560000D01*
X4610000Y-49560000D02*
X4610000Y-48560000D01*
X6810000Y-48310000D02*
X1410000Y-48310000D01*
X6810000Y-49810000D02*
X6810000Y-48310000D01*
%TO.C,D5*%
X20710000Y8790000D02*
X20710000Y7290000D01*
X20710000Y7290000D02*
X26110000Y7290000D01*
X22910000Y8540000D02*
X23810000Y8040000D01*
X22910000Y7540000D02*
X22910000Y8540000D01*
X23810000Y8040000D02*
X22910000Y7540000D01*
X23910000Y7540000D02*
X23910000Y8540000D01*
X26110000Y8790000D02*
X20710000Y8790000D01*
X26110000Y7290000D02*
X26110000Y8790000D01*
%TO.C,D18*%
X77840000Y-10170000D02*
X77840000Y-11670000D01*
X77840000Y-11670000D02*
X83240000Y-11670000D01*
X80040000Y-10420000D02*
X80940000Y-10920000D01*
X80040000Y-11420000D02*
X80040000Y-10420000D01*
X80940000Y-10920000D02*
X80040000Y-11420000D01*
X81040000Y-11420000D02*
X81040000Y-10420000D01*
X83240000Y-10170000D02*
X77840000Y-10170000D01*
X83240000Y-11670000D02*
X83240000Y-10170000D01*
%TD*%
D11*
%TO.C,D7*%
X19340000Y-30010000D03*
D12*
X26960000Y-30010000D03*
%TD*%
D11*
%TO.C,D11*%
X38370000Y-30100000D03*
D12*
X45990000Y-30100000D03*
%TD*%
D11*
%TO.C,D20*%
X76510000Y-49200000D03*
D12*
X84130000Y-49200000D03*
%TD*%
D11*
%TO.C,D13*%
X57500000Y8140000D03*
D12*
X65120000Y8140000D03*
%TD*%
D11*
%TO.C,D15*%
X57500000Y-29950000D03*
D12*
X65120000Y-29950000D03*
%TD*%
D11*
%TO.C,D1*%
X350000Y8000000D03*
D12*
X7970000Y8000000D03*
%TD*%
D11*
%TO.C,D9*%
X38490000Y8000000D03*
D12*
X46110000Y8000000D03*
%TD*%
D11*
%TO.C,D17*%
X76480000Y8060000D03*
D12*
X84100000Y8060000D03*
%TD*%
D11*
%TO.C,D4*%
X-22850000Y-10950000D03*
D12*
X-15230000Y-10950000D03*
%TD*%
%TO.C,R1*%
X-19632000Y-1788480D03*
X-12520000Y-1788480D03*
%TD*%
D11*
%TO.C,D16*%
X19570000Y-48970000D03*
D12*
X27190000Y-48970000D03*
%TD*%
D11*
%TO.C,D21*%
X38660000Y-49030000D03*
D12*
X46280000Y-49030000D03*
%TD*%
D11*
%TO.C,D3*%
X295000Y-30130000D03*
D12*
X7915000Y-30130000D03*
%TD*%
D11*
%TO.C,D19*%
X76740000Y-30110000D03*
D12*
X84360000Y-30110000D03*
%TD*%
D11*
%TO.C,D10*%
X38430000Y-11150000D03*
D12*
X46050000Y-11150000D03*
%TD*%
%TO.C,R2*%
X-19632000Y-4940000D03*
X-12520000Y-4940000D03*
%TD*%
D11*
%TO.C,D22*%
X53590000Y-49060000D03*
D12*
X61210000Y-49060000D03*
%TD*%
D11*
%TO.C,D2*%
X500000Y-11080000D03*
D12*
X8120000Y-11080000D03*
%TD*%
D11*
%TO.C,D6*%
X19340000Y-10980000D03*
D12*
X26960000Y-10980000D03*
%TD*%
D11*
%TO.C,D8*%
X-18680000Y-29980000D03*
D12*
X-11060000Y-29980000D03*
%TD*%
D11*
%TO.C,D14*%
X53680000Y-10930000D03*
D12*
X61300000Y-10930000D03*
%TD*%
D11*
%TO.C,D12*%
X300000Y-49060000D03*
D12*
X7920000Y-49060000D03*
%TD*%
D11*
%TO.C,D5*%
X19600000Y8040000D03*
D12*
X27220000Y8040000D03*
%TD*%
D11*
%TO.C,D18*%
X76730000Y-10920000D03*
D12*
X84350000Y-10920000D03*
%TD*%
M02*
