%TF.GenerationSoftware,KiCad,Pcbnew,8.0.7*%
%TF.CreationDate,2025-02-25T22:45:06+09:00*%
%TF.ProjectId,cool642tb_L,636f6f6c-3634-4327-9462-5f4c2e6b6963,rev?*%
%TF.SameCoordinates,Original*%
%TF.FileFunction,Legend,Top*%
%TF.FilePolarity,Positive*%
%FSLAX46Y46*%
G04 Gerber Fmt 4.6, Leading zero omitted, Abs format (unit mm)*
G04 Created by KiCad (PCBNEW 8.0.7) date 2025-02-25 22:45:06*
%MOMM*%
%LPD*%
G01*
G04 APERTURE LIST*
%ADD10C,0.150000*%
%ADD11C,0.120000*%
%ADD12R,1.397000X1.397000*%
%ADD13C,1.397000*%
G04 APERTURE END LIST*
D10*
X39624761Y19521009D02*
X39481904Y19568628D01*
X39481904Y19568628D02*
X39434285Y19616247D01*
X39434285Y19616247D02*
X39386666Y19711485D01*
X39386666Y19711485D02*
X39386666Y19854342D01*
X39386666Y19854342D02*
X39434285Y19949580D01*
X39434285Y19949580D02*
X39481904Y19997200D01*
X39481904Y19997200D02*
X39577142Y20044819D01*
X39577142Y20044819D02*
X39958094Y20044819D01*
X39958094Y20044819D02*
X39958094Y19044819D01*
X39958094Y19044819D02*
X39624761Y19044819D01*
X39624761Y19044819D02*
X39529523Y19092438D01*
X39529523Y19092438D02*
X39481904Y19140057D01*
X39481904Y19140057D02*
X39434285Y19235295D01*
X39434285Y19235295D02*
X39434285Y19330533D01*
X39434285Y19330533D02*
X39481904Y19425771D01*
X39481904Y19425771D02*
X39529523Y19473390D01*
X39529523Y19473390D02*
X39624761Y19521009D01*
X39624761Y19521009D02*
X39958094Y19521009D01*
X38434285Y20044819D02*
X39005713Y20044819D01*
X38719999Y20044819D02*
X38719999Y19044819D01*
X38719999Y19044819D02*
X38815237Y19187676D01*
X38815237Y19187676D02*
X38910475Y19282914D01*
X38910475Y19282914D02*
X39005713Y19330533D01*
X-3069160Y16195533D02*
X-6878684Y16195533D01*
X-4973922Y18100295D02*
X-4973922Y14290771D01*
X83600839Y15765533D02*
X79791316Y15765533D01*
%TO.C,D3*%
X2000000Y-28970000D02*
X2000000Y-30470000D01*
X2000000Y-30470000D02*
X7400000Y-30470000D01*
X4200000Y-29720000D02*
X5100000Y-29220000D01*
X4200000Y-30220000D02*
X4200000Y-29220000D01*
X5100000Y-30220000D02*
X4200000Y-29720000D01*
X5100000Y-30230000D02*
X5100000Y-29230000D01*
X7400000Y-28970000D02*
X2000000Y-28970000D01*
X7400000Y-30470000D02*
X7400000Y-28970000D01*
%TO.C,B1*%
X-4780000Y23090000D02*
X-8780000Y23090000D01*
X-8780000Y27090000D01*
X-4780000Y27090000D01*
X-4780000Y23090000D01*
X85220000Y23090000D02*
X81220000Y23090000D01*
X81220000Y27090000D01*
X85220000Y27090000D01*
X85220000Y23090000D01*
X85720000Y13090000D02*
X-9280000Y13090000D01*
X-9280000Y27090000D01*
X85720000Y27090000D01*
X85720000Y13090000D01*
%TO.C,D13*%
X59280000Y9230000D02*
X59280000Y7730000D01*
X59280000Y7730000D02*
X64680000Y7730000D01*
X61480000Y8480000D02*
X62380000Y8980000D01*
X61480000Y7980000D02*
X61480000Y8980000D01*
X62380000Y7980000D02*
X61480000Y8480000D01*
X62380000Y7970000D02*
X62380000Y8970000D01*
X64680000Y9230000D02*
X59280000Y9230000D01*
X64680000Y7730000D02*
X64680000Y9230000D01*
%TO.C,D10*%
X40110000Y-9670000D02*
X40110000Y-11170000D01*
X40110000Y-11170000D02*
X45510000Y-11170000D01*
X42310000Y-10420000D02*
X43210000Y-9920000D01*
X42310000Y-10920000D02*
X42310000Y-9920000D01*
X43210000Y-10920000D02*
X42310000Y-10420000D01*
X43210000Y-10930000D02*
X43210000Y-9930000D01*
X45510000Y-9670000D02*
X40110000Y-9670000D01*
X45510000Y-11170000D02*
X45510000Y-9670000D01*
%TO.C,D19*%
X78300000Y-28880000D02*
X78300000Y-30380000D01*
X78300000Y-30380000D02*
X83700000Y-30380000D01*
X80500000Y-29630000D02*
X81400000Y-29130000D01*
X80500000Y-30130000D02*
X80500000Y-29130000D01*
X81400000Y-30130000D02*
X80500000Y-29630000D01*
X81400000Y-30140000D02*
X81400000Y-29140000D01*
X83700000Y-28880000D02*
X78300000Y-28880000D01*
X83700000Y-30380000D02*
X83700000Y-28880000D01*
%TO.C,D16*%
X59070000Y-47850000D02*
X59070000Y-49350000D01*
X59070000Y-49350000D02*
X64470000Y-49350000D01*
X61270000Y-48600000D02*
X62170000Y-48100000D01*
X61270000Y-49100000D02*
X61270000Y-48100000D01*
X62170000Y-49100000D02*
X61270000Y-48600000D01*
X62170000Y-49110000D02*
X62170000Y-48110000D01*
X64470000Y-47850000D02*
X59070000Y-47850000D01*
X64470000Y-49350000D02*
X64470000Y-47850000D01*
%TO.C,D7*%
X21100000Y-28820000D02*
X21100000Y-30320000D01*
X21100000Y-30320000D02*
X26500000Y-30320000D01*
X23300000Y-29570000D02*
X24200000Y-29070000D01*
X23300000Y-30070000D02*
X23300000Y-29070000D01*
X24200000Y-30070000D02*
X23300000Y-29570000D01*
X24200000Y-30080000D02*
X24200000Y-29080000D01*
X26500000Y-28820000D02*
X21100000Y-28820000D01*
X26500000Y-30320000D02*
X26500000Y-28820000D01*
%TO.C,D21*%
X96135000Y-9290000D02*
X96135000Y-10790000D01*
X96135000Y-10790000D02*
X101535000Y-10790000D01*
X98335000Y-10040000D02*
X99235000Y-9540000D01*
X98335000Y-10540000D02*
X98335000Y-9540000D01*
X99235000Y-10540000D02*
X98335000Y-10040000D01*
X99235000Y-10550000D02*
X99235000Y-9550000D01*
X101535000Y-9290000D02*
X96135000Y-9290000D01*
X101535000Y-10790000D02*
X101535000Y-9290000D01*
%TO.C,D14*%
X59200000Y-9740000D02*
X59200000Y-11240000D01*
X59200000Y-11240000D02*
X64600000Y-11240000D01*
X61400000Y-10490000D02*
X62300000Y-9990000D01*
X61400000Y-10990000D02*
X61400000Y-9990000D01*
X62300000Y-10990000D02*
X61400000Y-10490000D01*
X62300000Y-11000000D02*
X62300000Y-10000000D01*
X64600000Y-9740000D02*
X59200000Y-9740000D01*
X64600000Y-11240000D02*
X64600000Y-9740000D01*
%TO.C,D18*%
X73965000Y-9800000D02*
X73965000Y-11300000D01*
X73965000Y-11300000D02*
X79365000Y-11300000D01*
X76165000Y-10550000D02*
X77065000Y-10050000D01*
X76165000Y-11050000D02*
X76165000Y-10050000D01*
X77065000Y-11050000D02*
X76165000Y-10550000D01*
X77065000Y-11060000D02*
X77065000Y-10060000D01*
X79365000Y-9800000D02*
X73965000Y-9800000D01*
X79365000Y-11300000D02*
X79365000Y-9800000D01*
%TO.C,D5*%
X20880000Y9270000D02*
X20880000Y7770000D01*
X20880000Y7770000D02*
X26280000Y7770000D01*
X23080000Y8520000D02*
X23980000Y9020000D01*
X23080000Y8020000D02*
X23080000Y9020000D01*
X23980000Y8020000D02*
X23080000Y8520000D01*
X23980000Y8010000D02*
X23980000Y9010000D01*
X26280000Y9270000D02*
X20880000Y9270000D01*
X26280000Y7770000D02*
X26280000Y9270000D01*
%TO.C,D9*%
X40120000Y9360000D02*
X40120000Y7860000D01*
X40120000Y7860000D02*
X45520000Y7860000D01*
X42320000Y8610000D02*
X43220000Y9110000D01*
X42320000Y8110000D02*
X42320000Y9110000D01*
X43220000Y8110000D02*
X42320000Y8610000D01*
X43220000Y8100000D02*
X43220000Y9100000D01*
X45520000Y9360000D02*
X40120000Y9360000D01*
X45520000Y7860000D02*
X45520000Y9360000D01*
%TO.C,D8*%
X21030000Y-47920000D02*
X21030000Y-49420000D01*
X21030000Y-49420000D02*
X26430000Y-49420000D01*
X23230000Y-48670000D02*
X24130000Y-48170000D01*
X23230000Y-49170000D02*
X23230000Y-48170000D01*
X24130000Y-49170000D02*
X23230000Y-48670000D01*
X24130000Y-49180000D02*
X24130000Y-48180000D01*
X26430000Y-47920000D02*
X21030000Y-47920000D01*
X26430000Y-49420000D02*
X26430000Y-47920000D01*
%TO.C,D23*%
X97380000Y-47760000D02*
X97380000Y-49260000D01*
X97380000Y-49260000D02*
X102780000Y-49260000D01*
X99580000Y-48510000D02*
X100480000Y-48010000D01*
X99580000Y-49010000D02*
X99580000Y-48010000D01*
X100480000Y-49010000D02*
X99580000Y-48510000D01*
X100480000Y-49020000D02*
X100480000Y-48020000D01*
X102780000Y-47760000D02*
X97380000Y-47760000D01*
X102780000Y-49260000D02*
X102780000Y-47760000D01*
%TO.C,D11*%
X40010000Y-28900000D02*
X40010000Y-30400000D01*
X40010000Y-30400000D02*
X45410000Y-30400000D01*
X42210000Y-29650000D02*
X43110000Y-29150000D01*
X42210000Y-30150000D02*
X42210000Y-29150000D01*
X43110000Y-30150000D02*
X42210000Y-29650000D01*
X43110000Y-30160000D02*
X43110000Y-29160000D01*
X45410000Y-28900000D02*
X40010000Y-28900000D01*
X45410000Y-30400000D02*
X45410000Y-28900000D01*
D11*
%TO.C,SW21*%
X87600000Y-15060000D02*
X88200000Y-15060000D01*
X87900000Y-15360000D02*
X87600000Y-15060000D01*
X88200000Y-15060000D02*
X87900000Y-15360000D01*
X88700000Y-12860000D02*
X88700000Y-15360000D01*
X88700000Y-25460000D02*
X88700000Y-22660000D01*
X93500000Y-12860000D02*
X88700000Y-12860000D01*
X93600000Y-25460000D02*
X88700000Y-25460000D01*
X94900000Y-19160000D02*
X95900000Y-19160000D01*
X95400000Y-18660000D02*
X95400000Y-19660000D01*
X97200000Y-12860000D02*
X102100000Y-12860000D01*
X102100000Y-12860000D02*
X102100000Y-15460000D01*
X102100000Y-17860000D02*
X102100000Y-20460000D01*
X102100000Y-22860000D02*
X102100000Y-25460000D01*
X102100000Y-25460000D02*
X97200000Y-25460000D01*
X98400000Y-19160000D02*
G75*
G02*
X92400000Y-19160000I-3000000J0D01*
G01*
X92400000Y-19160000D02*
G75*
G02*
X98400000Y-19160000I3000000J0D01*
G01*
D10*
%TO.C,D6*%
X21000000Y-9670000D02*
X21000000Y-11170000D01*
X21000000Y-11170000D02*
X26400000Y-11170000D01*
X23200000Y-10420000D02*
X24100000Y-9920000D01*
X23200000Y-10920000D02*
X23200000Y-9920000D01*
X24100000Y-10920000D02*
X23200000Y-10420000D01*
X24100000Y-10930000D02*
X24100000Y-9930000D01*
X26400000Y-9670000D02*
X21000000Y-9670000D01*
X26400000Y-11170000D02*
X26400000Y-9670000D01*
%TO.C,SW24*%
X102890000Y5104000D02*
X106390000Y5104000D01*
X102890000Y-3896000D02*
X102890000Y5104000D01*
X106390000Y5104000D02*
X106390000Y-3896000D01*
X106390000Y-3896000D02*
X102890000Y-3896000D01*
%TO.C,D15*%
X59150000Y-28870000D02*
X59150000Y-30370000D01*
X59150000Y-30370000D02*
X64550000Y-30370000D01*
X61350000Y-29620000D02*
X62250000Y-29120000D01*
X61350000Y-30120000D02*
X61350000Y-29120000D01*
X62250000Y-30120000D02*
X61350000Y-29620000D01*
X62250000Y-30130000D02*
X62250000Y-29130000D01*
X64550000Y-28870000D02*
X59150000Y-28870000D01*
X64550000Y-30370000D02*
X64550000Y-28870000D01*
%TO.C,D2*%
X-2390000Y-10170000D02*
X-2390000Y-11670000D01*
X-2390000Y-11670000D02*
X3010000Y-11670000D01*
X-190000Y-10920000D02*
X710000Y-10420000D01*
X-190000Y-11420000D02*
X-190000Y-10420000D01*
X710000Y-11420000D02*
X-190000Y-10920000D01*
X710000Y-11430000D02*
X710000Y-10430000D01*
X3010000Y-10170000D02*
X-2390000Y-10170000D01*
X3010000Y-11670000D02*
X3010000Y-10170000D01*
%TO.C,D12*%
X40100000Y-47940000D02*
X40100000Y-49440000D01*
X40100000Y-49440000D02*
X45500000Y-49440000D01*
X42300000Y-48690000D02*
X43200000Y-48190000D01*
X42300000Y-49190000D02*
X42300000Y-48190000D01*
X43200000Y-49190000D02*
X42300000Y-48690000D01*
X43200000Y-49200000D02*
X43200000Y-48200000D01*
X45500000Y-47940000D02*
X40100000Y-47940000D01*
X45500000Y-49440000D02*
X45500000Y-47940000D01*
%TO.C,D4*%
X-2190000Y-48220000D02*
X-2190000Y-49720000D01*
X-2190000Y-49720000D02*
X3210000Y-49720000D01*
X10000Y-48970000D02*
X910000Y-48470000D01*
X10000Y-49470000D02*
X10000Y-48470000D01*
X910000Y-49470000D02*
X10000Y-48970000D01*
X910000Y-49480000D02*
X910000Y-48480000D01*
X3210000Y-48220000D02*
X-2190000Y-48220000D01*
X3210000Y-49720000D02*
X3210000Y-48220000D01*
%TO.C,D1*%
X2070000Y9400000D02*
X2070000Y7900000D01*
X2070000Y7900000D02*
X7470000Y7900000D01*
X4270000Y8650000D02*
X5170000Y9150000D01*
X4270000Y8150000D02*
X4270000Y9150000D01*
X5170000Y8150000D02*
X4270000Y8650000D01*
X5170000Y8140000D02*
X5170000Y9140000D01*
X7470000Y9400000D02*
X2070000Y9400000D01*
X7470000Y7900000D02*
X7470000Y9400000D01*
%TO.C,D17*%
X78305000Y9260000D02*
X78305000Y7760000D01*
X78305000Y7760000D02*
X83705000Y7760000D01*
X80505000Y8510000D02*
X81405000Y9010000D01*
X80505000Y8010000D02*
X80505000Y9010000D01*
X81405000Y8010000D02*
X80505000Y8510000D01*
X81405000Y8000000D02*
X81405000Y9000000D01*
X83705000Y9260000D02*
X78305000Y9260000D01*
X83705000Y7760000D02*
X83705000Y9260000D01*
%TO.C,D22*%
X97280000Y-28850000D02*
X97280000Y-30350000D01*
X97280000Y-30350000D02*
X102680000Y-30350000D01*
X99480000Y-29600000D02*
X100380000Y-29100000D01*
X99480000Y-30100000D02*
X99480000Y-29100000D01*
X100380000Y-30100000D02*
X99480000Y-29600000D01*
X100380000Y-30110000D02*
X100380000Y-29110000D01*
X102680000Y-28850000D02*
X97280000Y-28850000D01*
X102680000Y-30350000D02*
X102680000Y-28850000D01*
%TO.C,D20*%
X74650000Y-48060000D02*
X74650000Y-49560000D01*
X74650000Y-49560000D02*
X80050000Y-49560000D01*
X76850000Y-48810000D02*
X77750000Y-48310000D01*
X76850000Y-49310000D02*
X76850000Y-48310000D01*
X77750000Y-49310000D02*
X76850000Y-48810000D01*
X77750000Y-49320000D02*
X77750000Y-48320000D01*
X80050000Y-48060000D02*
X74650000Y-48060000D01*
X80050000Y-49560000D02*
X80050000Y-48060000D01*
%TD*%
D12*
%TO.C,D3*%
X890000Y-29720000D03*
D13*
X8510000Y-29720000D03*
%TD*%
D12*
%TO.C,D13*%
X58170000Y8480000D03*
D13*
X65790000Y8480000D03*
%TD*%
D12*
%TO.C,D10*%
X39000000Y-10420000D03*
D13*
X46620000Y-10420000D03*
%TD*%
D12*
%TO.C,D19*%
X77190000Y-29630000D03*
D13*
X84810000Y-29630000D03*
%TD*%
D12*
%TO.C,D16*%
X57960000Y-48600000D03*
D13*
X65580000Y-48600000D03*
%TD*%
D12*
%TO.C,D7*%
X19990000Y-29570000D03*
D13*
X27610000Y-29570000D03*
%TD*%
D12*
%TO.C,D21*%
X95025000Y-10040000D03*
D13*
X102645000Y-10040000D03*
%TD*%
D12*
%TO.C,D14*%
X58090000Y-10490000D03*
D13*
X65710000Y-10490000D03*
%TD*%
D12*
%TO.C,D18*%
X72855000Y-10550000D03*
D13*
X80475000Y-10550000D03*
%TD*%
D12*
%TO.C,D5*%
X19770000Y8520000D03*
D13*
X27390000Y8520000D03*
%TD*%
D12*
%TO.C,D9*%
X39010000Y8610000D03*
D13*
X46630000Y8610000D03*
%TD*%
D12*
%TO.C,D8*%
X19920000Y-48670000D03*
D13*
X27540000Y-48670000D03*
%TD*%
D12*
%TO.C,D23*%
X96270000Y-48510000D03*
D13*
X103890000Y-48510000D03*
%TD*%
D12*
%TO.C,D11*%
X38900000Y-29650000D03*
D13*
X46520000Y-29650000D03*
%TD*%
D12*
%TO.C,D6*%
X19890000Y-10420000D03*
D13*
X27510000Y-10420000D03*
%TD*%
D12*
%TO.C,D15*%
X58040000Y-29620000D03*
D13*
X65660000Y-29620000D03*
%TD*%
D12*
%TO.C,D2*%
X-3500000Y-10920000D03*
D13*
X4120000Y-10920000D03*
%TD*%
D12*
%TO.C,D12*%
X38990000Y-48690000D03*
D13*
X46610000Y-48690000D03*
%TD*%
D12*
%TO.C,D4*%
X-3300000Y-48970000D03*
D13*
X4320000Y-48970000D03*
%TD*%
D12*
%TO.C,D1*%
X960000Y8650000D03*
D13*
X8580000Y8650000D03*
%TD*%
D12*
%TO.C,D17*%
X77195000Y8510000D03*
D13*
X84815000Y8510000D03*
%TD*%
D12*
%TO.C,D22*%
X96170000Y-29600000D03*
D13*
X103790000Y-29600000D03*
%TD*%
D12*
%TO.C,D20*%
X73540000Y-48810000D03*
D13*
X81160000Y-48810000D03*
%TD*%
M02*
