%TF.GenerationSoftware,KiCad,Pcbnew,8.0.7*%
%TF.CreationDate,2025-02-25T22:45:06+09:00*%
%TF.ProjectId,cool642tb_L,636f6f6c-3634-4327-9462-5f4c2e6b6963,rev?*%
%TF.SameCoordinates,Original*%
%TF.FileFunction,Profile,NP*%
%FSLAX46Y46*%
G04 Gerber Fmt 4.6, Leading zero omitted, Abs format (unit mm)*
G04 Created by KiCad (PCBNEW 8.0.7) date 2025-02-25 22:45:06*
%MOMM*%
%LPD*%
G01*
G04 APERTURE LIST*
%TA.AperFunction,Profile*%
%ADD10C,0.200000*%
%TD*%
%TA.AperFunction,Profile*%
%ADD11C,0.050000*%
%TD*%
%TA.AperFunction,Profile*%
%ADD12C,0.120000*%
%TD*%
G04 APERTURE END LIST*
D10*
X86850000Y-47620000D02*
G75*
G02*
X84650000Y-47620000I-1100000J0D01*
G01*
X84650000Y-47620000D02*
G75*
G02*
X86850000Y-47620000I1100000J0D01*
G01*
X10480000Y-47550000D02*
G75*
G02*
X8280000Y-47550000I-1100000J0D01*
G01*
X8280000Y-47550000D02*
G75*
G02*
X10480000Y-47550000I1100000J0D01*
G01*
X86850000Y-9420000D02*
G75*
G02*
X84650000Y-9420000I-1100000J0D01*
G01*
X84650000Y-9420000D02*
G75*
G02*
X86850000Y-9420000I1100000J0D01*
G01*
X10620000Y-9480000D02*
G75*
G02*
X8420000Y-9480000I-1100000J0D01*
G01*
X8420000Y-9480000D02*
G75*
G02*
X10620000Y-9480000I1100000J0D01*
G01*
D11*
X-9570000Y27370000D02*
X106600000Y27370000D01*
X106600000Y-66700000D01*
X-9570000Y-66700000D01*
X-9570000Y27370000D01*
D12*
%TO.C,U1*%
X91152247Y17580553D02*
X91152247Y18621953D01*
X91838047Y19307753D02*
X93438247Y19307753D01*
X93438247Y16894753D02*
X91838047Y16894753D01*
X93819247Y18926753D02*
X93819247Y17275753D01*
X99432247Y7938047D02*
X99432247Y9538247D01*
X99813247Y9919247D02*
X101464247Y9919247D01*
X101159447Y7252247D02*
X100118047Y7252247D01*
X101845247Y9538247D02*
X101845247Y7938047D01*
X91152247Y17580553D02*
G75*
G02*
X91838047Y16894753I247753J-438047D01*
G01*
X91838047Y19307753D02*
G75*
G02*
X91152247Y18621953I-438047J-247753D01*
G01*
X93438247Y19307753D02*
G75*
G02*
X93819247Y18926753I8J-380992D01*
G01*
X93819247Y17275753D02*
G75*
G02*
X93438247Y16894753I-380996J-4D01*
G01*
X99432247Y9538247D02*
G75*
G02*
X99813247Y9919253I381003J3D01*
G01*
X99432247Y7938047D02*
G75*
G02*
X100118047Y7252247I247753J-438047D01*
G01*
X101159447Y7252247D02*
G75*
G02*
X101845251Y7938054I438053J247753D01*
G01*
X101464247Y9919247D02*
G75*
G02*
X101845247Y9538247I3J-380997D01*
G01*
%TD*%
M02*
