%TF.GenerationSoftware,KiCad,Pcbnew,8.0.7*%
%TF.CreationDate,2025-06-04T19:27:18+09:00*%
%TF.ProjectId,cool642tb_R_v121,636f6f6c-3634-4327-9462-5f525f763132,rev?*%
%TF.SameCoordinates,Original*%
%TF.FileFunction,Soldermask,Top*%
%TF.FilePolarity,Negative*%
%FSLAX46Y46*%
G04 Gerber Fmt 4.6, Leading zero omitted, Abs format (unit mm)*
G04 Created by KiCad (PCBNEW 8.0.7) date 2025-06-04 19:27:18*
%MOMM*%
%LPD*%
G01*
G04 APERTURE LIST*
%ADD10C,1.900000*%
%ADD11C,1.700000*%
%ADD12C,3.000000*%
%ADD13C,5.000000*%
%ADD14O,1.000000X1.300000*%
%ADD15O,2.750000X1.800000*%
%ADD16C,1.500000*%
%ADD17C,1.524000*%
%ADD18R,1.700000X1.700000*%
%ADD19O,1.700000X1.700000*%
%ADD20C,2.000000*%
G04 APERTURE END LIST*
D10*
%TO.C,SW1*%
X-5500000Y0D03*
D11*
X-5080000Y0D03*
D12*
X-5000000Y-3700000D03*
D11*
X-4500000Y0D03*
D12*
X-3810000Y2540000D03*
D13*
X0Y0D03*
D12*
X0Y-5900000D03*
X2540000Y5080000D03*
D11*
X4500000Y0D03*
X5080000Y0D03*
D10*
X5500000Y0D03*
%TD*%
%TO.C,SW8*%
X-24550000Y-38100000D03*
D11*
X-24130000Y-38100000D03*
D12*
X-24050000Y-41800000D03*
D11*
X-23550000Y-38100000D03*
D12*
X-22860000Y-35560000D03*
D13*
X-19050000Y-38100000D03*
D12*
X-19050000Y-44000000D03*
X-16510000Y-33020000D03*
D11*
X-14550000Y-38100000D03*
X-13970000Y-38100000D03*
D10*
X-13550000Y-38100000D03*
%TD*%
%TO.C,SW15*%
X51650000Y-38100000D03*
D11*
X52070000Y-38100000D03*
D12*
X52150000Y-41800000D03*
D11*
X52650000Y-38100000D03*
D12*
X53340000Y-35560000D03*
D13*
X57150000Y-38100000D03*
D12*
X57150000Y-44000000D03*
X59690000Y-33020000D03*
D11*
X61650000Y-38100000D03*
X62230000Y-38100000D03*
D10*
X62650000Y-38100000D03*
%TD*%
%TO.C,SW16*%
X-5500000Y-57150000D03*
D11*
X-5080000Y-57150000D03*
D12*
X-5000000Y-60850000D03*
D11*
X-4500000Y-57150000D03*
D12*
X-3810000Y-54610000D03*
D13*
X0Y-57150000D03*
D12*
X0Y-63050000D03*
X2540000Y-52070000D03*
D11*
X4500000Y-57150000D03*
X5080000Y-57150000D03*
D10*
X5500000Y-57150000D03*
%TD*%
D14*
%TO.C,SW21*%
X-27100000Y-1890000D03*
X-27100000Y610000D03*
X-27100000Y3110000D03*
%TD*%
D10*
%TO.C,SW13*%
X51650000Y0D03*
D11*
X52070000Y0D03*
D12*
X52150000Y-3700000D03*
D11*
X52650000Y0D03*
D12*
X53340000Y2540000D03*
D13*
X57150000Y0D03*
D12*
X57150000Y-5900000D03*
X59690000Y5080000D03*
D11*
X61650000Y0D03*
X62230000Y0D03*
D10*
X62650000Y0D03*
%TD*%
%TO.C,SW17*%
X70700000Y0D03*
D11*
X71120000Y0D03*
D12*
X71200000Y-3700000D03*
D11*
X71700000Y0D03*
D12*
X72390000Y2540000D03*
D13*
X76200000Y0D03*
D12*
X76200000Y-5900000D03*
X78740000Y5080000D03*
D11*
X80700000Y0D03*
X81280000Y0D03*
D10*
X81700000Y0D03*
%TD*%
%TO.C,SW11*%
X32600000Y-38100000D03*
D11*
X33020000Y-38100000D03*
D12*
X33100000Y-41800000D03*
D11*
X33600000Y-38100000D03*
D12*
X34290000Y-35560000D03*
D13*
X38100000Y-38100000D03*
D12*
X38100000Y-44000000D03*
X40640000Y-33020000D03*
D11*
X42600000Y-38100000D03*
X43180000Y-38100000D03*
D10*
X43600000Y-38100000D03*
%TD*%
%TO.C,SW12*%
X-24550000Y-57150000D03*
D11*
X-24130000Y-57150000D03*
D12*
X-24050000Y-60850000D03*
D11*
X-23550000Y-57150000D03*
D12*
X-22860000Y-54610000D03*
D13*
X-19050000Y-57150000D03*
D12*
X-19050000Y-63050000D03*
X-16510000Y-52070000D03*
D11*
X-14550000Y-57150000D03*
X-13970000Y-57150000D03*
D10*
X-13550000Y-57150000D03*
%TD*%
%TO.C,SW19*%
X70700000Y-38200000D03*
D11*
X71120000Y-38200000D03*
D12*
X71200000Y-41900000D03*
D11*
X71700000Y-38200000D03*
D12*
X72390000Y-35660000D03*
D13*
X76200000Y-38200000D03*
D12*
X76200000Y-44100000D03*
X78740000Y-33120000D03*
D11*
X80700000Y-38200000D03*
X81280000Y-38200000D03*
D10*
X81700000Y-38200000D03*
%TD*%
%TO.C,SW20*%
X70700000Y-57250000D03*
D11*
X71120000Y-57250000D03*
D12*
X71200000Y-60950000D03*
D11*
X71700000Y-57250000D03*
D12*
X72390000Y-54710000D03*
D13*
X76200000Y-57250000D03*
D12*
X76200000Y-63150000D03*
X78740000Y-52170000D03*
D11*
X80700000Y-57250000D03*
X81280000Y-57250000D03*
D10*
X81700000Y-57250000D03*
%TD*%
%TO.C,SW3*%
X-5500000Y-38100000D03*
D11*
X-5080000Y-38100000D03*
D12*
X-5000000Y-41800000D03*
D11*
X-4500000Y-38100000D03*
D12*
X-3810000Y-35560000D03*
D13*
X0Y-38100000D03*
D12*
X0Y-44000000D03*
X2540000Y-33020000D03*
D11*
X4500000Y-38100000D03*
X5080000Y-38100000D03*
D10*
X5500000Y-38100000D03*
%TD*%
%TO.C,SW7*%
X13550000Y-38100000D03*
D11*
X13970000Y-38100000D03*
D12*
X14050000Y-41800000D03*
D11*
X14550000Y-38100000D03*
D12*
X15240000Y-35560000D03*
D13*
X19050000Y-38100000D03*
D12*
X19050000Y-44000000D03*
X21590000Y-33020000D03*
D11*
X23550000Y-38100000D03*
X24130000Y-38100000D03*
D10*
X24550000Y-38100000D03*
%TD*%
%TO.C,SW10*%
X32600000Y-19050000D03*
D11*
X33020000Y-19050000D03*
D12*
X33100000Y-22750000D03*
D11*
X33600000Y-19050000D03*
D12*
X34290000Y-16510000D03*
D13*
X38100000Y-19050000D03*
D12*
X38100000Y-24950000D03*
X40640000Y-13970000D03*
D11*
X42600000Y-19050000D03*
X43180000Y-19050000D03*
D10*
X43600000Y-19050000D03*
%TD*%
D15*
%TO.C,U1*%
X-27110000Y24450000D03*
X-27110000Y21910000D03*
X-27110000Y19370000D03*
X-27110000Y16830000D03*
X-27110000Y14290000D03*
X-27110000Y11750000D03*
X-27110000Y9210000D03*
X-10870000Y9210000D03*
X-10870000Y11750000D03*
X-10870000Y14290000D03*
X-10870000Y16830000D03*
X-10870000Y19370000D03*
X-10870000Y21910000D03*
X-10870000Y24450000D03*
D16*
X-15154600Y7518000D03*
X-13275000Y7518000D03*
X-23435000Y17147000D03*
X-23435000Y19052000D03*
D17*
X-20870000Y22900000D03*
X-17150000Y22840000D03*
%TD*%
D18*
%TO.C,J1*%
X60590000Y-54350000D03*
D19*
X60590000Y-56890000D03*
X60590000Y-59430000D03*
X60590000Y-61970000D03*
X60590000Y-64510000D03*
X60590000Y-67050000D03*
X60590000Y-69590000D03*
%TD*%
D10*
%TO.C,SW5*%
X13550000Y0D03*
D11*
X13970000Y0D03*
D12*
X14050000Y-3700000D03*
D11*
X14550000Y0D03*
D12*
X15240000Y2540000D03*
D13*
X19050000Y0D03*
D12*
X19050000Y-5900000D03*
X21590000Y5080000D03*
D11*
X23550000Y0D03*
X24130000Y0D03*
D10*
X24550000Y0D03*
%TD*%
%TO.C,SW6*%
X13550000Y-19050000D03*
D11*
X13970000Y-19050000D03*
D12*
X14050000Y-22750000D03*
D11*
X14550000Y-19050000D03*
D12*
X15240000Y-16510000D03*
D13*
X19050000Y-19050000D03*
D12*
X19050000Y-24950000D03*
X21590000Y-13970000D03*
D11*
X23550000Y-19050000D03*
X24130000Y-19050000D03*
D10*
X24550000Y-19050000D03*
%TD*%
%TO.C,SW9*%
X32600000Y0D03*
D11*
X33020000Y0D03*
D12*
X33100000Y-3700000D03*
D11*
X33600000Y0D03*
D12*
X34290000Y2540000D03*
D13*
X38100000Y0D03*
D12*
X38100000Y-5900000D03*
X40640000Y5080000D03*
D11*
X42600000Y0D03*
X43180000Y0D03*
D10*
X43600000Y0D03*
%TD*%
%TO.C,SW4*%
X-24550000Y-19050000D03*
D11*
X-24130000Y-19050000D03*
D12*
X-24050000Y-22750000D03*
D11*
X-23550000Y-19050000D03*
D12*
X-22860000Y-16510000D03*
D13*
X-19050000Y-19050000D03*
D12*
X-19050000Y-24950000D03*
X-16510000Y-13970000D03*
D11*
X-14550000Y-19050000D03*
X-13970000Y-19050000D03*
D10*
X-13550000Y-19050000D03*
%TD*%
D12*
%TO.C,BT1*%
X-6020000Y24670000D03*
X83250000Y24710000D03*
%TD*%
D20*
%TO.C,SW22*%
X-15770000Y580000D03*
X-22270000Y580000D03*
%TD*%
D10*
%TO.C,SW2*%
X-5500000Y-19050000D03*
D11*
X-5080000Y-19050000D03*
D12*
X-5000000Y-22750000D03*
D11*
X-4500000Y-19050000D03*
D12*
X-3810000Y-16510000D03*
D13*
X0Y-19050000D03*
D12*
X0Y-24950000D03*
X2540000Y-13970000D03*
D11*
X4500000Y-19050000D03*
X5080000Y-19050000D03*
D10*
X5500000Y-19050000D03*
%TD*%
%TO.C,SW18*%
X70700000Y-19050000D03*
D11*
X71120000Y-19050000D03*
D12*
X71200000Y-22750000D03*
D11*
X71700000Y-19050000D03*
D12*
X72390000Y-16510000D03*
D13*
X76200000Y-19050000D03*
D12*
X76200000Y-24950000D03*
X78740000Y-13970000D03*
D11*
X80700000Y-19050000D03*
X81280000Y-19050000D03*
D10*
X81700000Y-19050000D03*
%TD*%
%TO.C,SW14*%
X51650000Y-19050000D03*
D11*
X52070000Y-19050000D03*
D12*
X52150000Y-22750000D03*
D11*
X52650000Y-19050000D03*
D12*
X53340000Y-16510000D03*
D13*
X57150000Y-19050000D03*
D12*
X57150000Y-24950000D03*
X59690000Y-13970000D03*
D11*
X61650000Y-19050000D03*
X62230000Y-19050000D03*
D10*
X62650000Y-19050000D03*
%TD*%
M02*
