%TF.GenerationSoftware,KiCad,Pcbnew,8.0.7*%
%TF.CreationDate,2025-02-16T08:14:47+09:00*%
%TF.ProjectId,cool642tb_L,636f6f6c-3634-4327-9462-5f4c2e6b6963,rev?*%
%TF.SameCoordinates,Original*%
%TF.FileFunction,Copper,L2,Bot*%
%TF.FilePolarity,Positive*%
%FSLAX46Y46*%
G04 Gerber Fmt 4.6, Leading zero omitted, Abs format (unit mm)*
G04 Created by KiCad (PCBNEW 8.0.7) date 2025-02-16 08:14:47*
%MOMM*%
%LPD*%
G01*
G04 APERTURE LIST*
%ADD10C,0.300000*%
%TA.AperFunction,NonConductor*%
%ADD11C,0.300000*%
%TD*%
%TA.AperFunction,NonConductor*%
%ADD12C,0.200000*%
%TD*%
%TA.AperFunction,SMDPad,CuDef*%
%ADD13R,2.000000X2.000000*%
%TD*%
%TA.AperFunction,SMDPad,CuDef*%
%ADD14R,1.900000X2.000000*%
%TD*%
%TA.AperFunction,ComponentPad*%
%ADD15R,1.397000X1.397000*%
%TD*%
%TA.AperFunction,SMDPad,CuDef*%
%ADD16R,1.300000X0.950000*%
%TD*%
%TA.AperFunction,ComponentPad*%
%ADD17C,1.397000*%
%TD*%
%TA.AperFunction,ComponentPad*%
%ADD18C,3.000000*%
%TD*%
%TA.AperFunction,ComponentPad*%
%ADD19C,2.000000*%
%TD*%
%TA.AperFunction,ComponentPad*%
%ADD20R,1.500000X1.500000*%
%TD*%
%TA.AperFunction,ComponentPad*%
%ADD21C,2.800000*%
%TD*%
%TA.AperFunction,ComponentPad*%
%ADD22O,1.000000X1.300000*%
%TD*%
%TA.AperFunction,ComponentPad*%
%ADD23O,2.750000X1.800000*%
%TD*%
%TA.AperFunction,ComponentPad*%
%ADD24C,1.500000*%
%TD*%
%TA.AperFunction,ViaPad*%
%ADD25C,0.600000*%
%TD*%
%TA.AperFunction,Conductor*%
%ADD26C,0.200000*%
%TD*%
G04 APERTURE END LIST*
D10*
D11*
X109200871Y15980624D02*
X109194345Y15052076D01*
X109194345Y15052076D02*
X109769274Y15548047D01*
X109769274Y15548047D02*
X109767768Y15333766D01*
X109767768Y15333766D02*
X109838190Y15190411D01*
X109838190Y15190411D02*
X109909115Y15118482D01*
X109909115Y15118482D02*
X110051467Y15046051D01*
X110051467Y15046051D02*
X110408601Y15043541D01*
X110408601Y15043541D02*
X110551956Y15113964D01*
X110551956Y15113964D02*
X110623885Y15184888D01*
X110623885Y15184888D02*
X110696316Y15327240D01*
X110696316Y15327240D02*
X110699328Y15755801D01*
X110699328Y15755801D02*
X110628906Y15899156D01*
X110628906Y15899156D02*
X110557981Y15971085D01*
X110684267Y13612997D02*
X110690291Y14470119D01*
X110687279Y14041558D02*
X109187316Y14052101D01*
X109187316Y14052101D02*
X109402601Y14193448D01*
X109402601Y14193448D02*
X109546459Y14335298D01*
X109546459Y14335298D02*
X109618889Y14477649D01*
X110536895Y12971160D02*
X110607820Y12899231D01*
X110607820Y12899231D02*
X110679749Y12970156D01*
X110679749Y12970156D02*
X110608824Y13042085D01*
X110608824Y13042085D02*
X110536895Y12971160D01*
X110536895Y12971160D02*
X110679749Y12970156D01*
X109175769Y12409284D02*
X109169243Y11480736D01*
X109169243Y11480736D02*
X109744172Y11976707D01*
X109744172Y11976707D02*
X109742665Y11762427D01*
X109742665Y11762427D02*
X109813088Y11619071D01*
X109813088Y11619071D02*
X109884013Y11547142D01*
X109884013Y11547142D02*
X110026364Y11474711D01*
X110026364Y11474711D02*
X110383499Y11472201D01*
X110383499Y11472201D02*
X110526854Y11542624D01*
X110526854Y11542624D02*
X110598783Y11613549D01*
X110598783Y11613549D02*
X110671214Y11755900D01*
X110671214Y11755900D02*
X110674226Y12184461D01*
X110674226Y12184461D02*
X110603803Y12327817D01*
X110603803Y12327817D02*
X110532879Y12399745D01*
X109162716Y10552188D02*
X109161712Y10409334D01*
X109161712Y10409334D02*
X109232135Y10265978D01*
X109232135Y10265978D02*
X109303060Y10194050D01*
X109303060Y10194050D02*
X109445411Y10121619D01*
X109445411Y10121619D02*
X109730616Y10048184D01*
X109730616Y10048184D02*
X110087750Y10045674D01*
X110087750Y10045674D02*
X110373960Y10115092D01*
X110373960Y10115092D02*
X110517315Y10185515D01*
X110517315Y10185515D02*
X110589244Y10256440D01*
X110589244Y10256440D02*
X110661675Y10398791D01*
X110661675Y10398791D02*
X110662679Y10541645D01*
X110662679Y10541645D02*
X110592256Y10685001D01*
X110592256Y10685001D02*
X110521332Y10756929D01*
X110521332Y10756929D02*
X110378980Y10829360D01*
X110378980Y10829360D02*
X110093775Y10902795D01*
X110093775Y10902795D02*
X109736641Y10905305D01*
X109736641Y10905305D02*
X109450432Y10835887D01*
X109450432Y10835887D02*
X109307076Y10765464D01*
X109307076Y10765464D02*
X109235147Y10694539D01*
X109235147Y10694539D02*
X109162716Y10552188D01*
X109152675Y9123652D02*
X109151671Y8980798D01*
X109151671Y8980798D02*
X109222094Y8837443D01*
X109222094Y8837443D02*
X109293019Y8765514D01*
X109293019Y8765514D02*
X109435370Y8693083D01*
X109435370Y8693083D02*
X109720576Y8619648D01*
X109720576Y8619648D02*
X110077710Y8617138D01*
X110077710Y8617138D02*
X110363919Y8686556D01*
X110363919Y8686556D02*
X110507275Y8756979D01*
X110507275Y8756979D02*
X110579203Y8827904D01*
X110579203Y8827904D02*
X110651634Y8970256D01*
X110651634Y8970256D02*
X110652638Y9113109D01*
X110652638Y9113109D02*
X110582216Y9256465D01*
X110582216Y9256465D02*
X110511291Y9328394D01*
X110511291Y9328394D02*
X110368939Y9400825D01*
X110368939Y9400825D02*
X110083734Y9474260D01*
X110083734Y9474260D02*
X109726600Y9476770D01*
X109726600Y9476770D02*
X109440391Y9407351D01*
X109440391Y9407351D02*
X109297035Y9336928D01*
X109297035Y9336928D02*
X109225106Y9266004D01*
X109225106Y9266004D02*
X109152675Y9123652D01*
X109785978Y7762025D02*
X109715555Y7905380D01*
X109715555Y7905380D02*
X109644630Y7977309D01*
X109644630Y7977309D02*
X109502279Y8049740D01*
X109502279Y8049740D02*
X109430852Y8050242D01*
X109430852Y8050242D02*
X109287496Y7979819D01*
X109287496Y7979819D02*
X109215568Y7908895D01*
X109215568Y7908895D02*
X109143137Y7766543D01*
X109143137Y7766543D02*
X109141128Y7480836D01*
X109141128Y7480836D02*
X109211551Y7337480D01*
X109211551Y7337480D02*
X109282476Y7265551D01*
X109282476Y7265551D02*
X109424828Y7193120D01*
X109424828Y7193120D02*
X109496254Y7192618D01*
X109496254Y7192618D02*
X109639610Y7263041D01*
X109639610Y7263041D02*
X109711539Y7333966D01*
X109711539Y7333966D02*
X109783970Y7476318D01*
X109783970Y7476318D02*
X109785978Y7762025D01*
X109785978Y7762025D02*
X109858409Y7904376D01*
X109858409Y7904376D02*
X109930338Y7975301D01*
X109930338Y7975301D02*
X110073693Y8045724D01*
X110073693Y8045724D02*
X110359401Y8043716D01*
X110359401Y8043716D02*
X110501752Y7971285D01*
X110501752Y7971285D02*
X110572677Y7899356D01*
X110572677Y7899356D02*
X110643100Y7756000D01*
X110643100Y7756000D02*
X110641091Y7470293D01*
X110641091Y7470293D02*
X110568661Y7327941D01*
X110568661Y7327941D02*
X110496732Y7257017D01*
X110496732Y7257017D02*
X110353376Y7186594D01*
X110353376Y7186594D02*
X110067669Y7188602D01*
X110067669Y7188602D02*
X109925317Y7261033D01*
X109925317Y7261033D02*
X109854392Y7332962D01*
X109854392Y7332962D02*
X109783970Y7476318D01*
X110626532Y5398916D02*
X109626557Y5405945D01*
X109769411Y5404941D02*
X109697482Y5334016D01*
X109697482Y5334016D02*
X109625051Y5191664D01*
X109625051Y5191664D02*
X109623545Y4977384D01*
X109623545Y4977384D02*
X109693967Y4834028D01*
X109693967Y4834028D02*
X109836319Y4761597D01*
X109836319Y4761597D02*
X110622014Y4756075D01*
X109836319Y4761597D02*
X109692963Y4691175D01*
X109692963Y4691175D02*
X109620532Y4548823D01*
X109620532Y4548823D02*
X109619026Y4334543D01*
X109619026Y4334543D02*
X109689449Y4191187D01*
X109689449Y4191187D02*
X109831801Y4118756D01*
X109831801Y4118756D02*
X110617496Y4113234D01*
X110612475Y3398966D02*
X109612500Y3405994D01*
X109755353Y3404990D02*
X109683425Y3334065D01*
X109683425Y3334065D02*
X109610994Y3191714D01*
X109610994Y3191714D02*
X109609488Y2977433D01*
X109609488Y2977433D02*
X109679910Y2834078D01*
X109679910Y2834078D02*
X109822262Y2761647D01*
X109822262Y2761647D02*
X110607957Y2756124D01*
X109822262Y2761647D02*
X109678906Y2691224D01*
X109678906Y2691224D02*
X109606475Y2548872D01*
X109606475Y2548872D02*
X109604969Y2334592D01*
X109604969Y2334592D02*
X109675392Y2191236D01*
X109675392Y2191236D02*
X109817743Y2118806D01*
X109817743Y2118806D02*
X110603438Y2113283D01*
D12*
X107029988Y24646486D02*
X112469685Y24608252D01*
X106809988Y-6653514D02*
X112249685Y-6691748D01*
X111883279Y24612373D02*
X111663279Y-6687627D01*
X111883279Y24612373D02*
X111663279Y-6687627D01*
X111883279Y24612373D02*
X112461768Y23481775D01*
X111883279Y24612373D02*
X111288955Y23490019D01*
X111663279Y-6687627D02*
X111084790Y-5557029D01*
X111663279Y-6687627D02*
X112257603Y-5565273D01*
D13*
%TO.P,SW14,1,1*%
%TO.N,Col3*%
X49050000Y-22750000D03*
X50250000Y-16510000D03*
D14*
%TO.P,SW14,2,2*%
%TO.N,Net-(D14-A)*%
X59950000Y-24950000D03*
D13*
X62750000Y-13970000D03*
%TD*%
D15*
%TO.P,D3,1,K*%
%TO.N,Row2*%
X890000Y-29720000D03*
D16*
X2925000Y-29720000D03*
%TO.P,D3,2,A*%
%TO.N,Net-(D3-A)*%
X6475000Y-29720000D03*
D17*
X8510000Y-29720000D03*
%TD*%
D18*
%TO.P,B1,1,+*%
%TO.N,Bat*%
X-6400000Y24710000D03*
%TO.P,B1,2,-*%
%TO.N,Net-(B1--)*%
X82870000Y24750000D03*
%TD*%
D13*
%TO.P,SW18,1,1*%
%TO.N,Col4*%
X68100000Y-22750000D03*
X69300000Y-16510000D03*
D14*
%TO.P,SW18,2,2*%
%TO.N,Net-(D18-A)*%
X79000000Y-24950000D03*
D13*
X81800000Y-13970000D03*
%TD*%
D15*
%TO.P,D13,1,K*%
%TO.N,Row0*%
X58170000Y8480000D03*
D16*
X60205000Y8480000D03*
%TO.P,D13,2,A*%
%TO.N,Net-(D13-A)*%
X63755000Y8480000D03*
D17*
X65790000Y8480000D03*
%TD*%
D13*
%TO.P,SW12,1,1*%
%TO.N,Col2*%
X30000000Y-60850000D03*
X31200000Y-54610000D03*
D14*
%TO.P,SW12,2,2*%
%TO.N,Net-(D12-A)*%
X40900000Y-63050000D03*
D13*
X43700000Y-52070000D03*
%TD*%
%TO.P,SW23,1,1*%
%TO.N,Col5*%
X87150000Y-60850000D03*
X88350000Y-54610000D03*
D14*
%TO.P,SW23,2,2*%
%TO.N,Net-(D23-A)*%
X98050000Y-63050000D03*
D13*
X100850000Y-52070000D03*
%TD*%
D15*
%TO.P,D10,1,K*%
%TO.N,Row1*%
X39000000Y-10420000D03*
D16*
X41035000Y-10420000D03*
%TO.P,D10,2,A*%
%TO.N,Net-(D10-A)*%
X44585000Y-10420000D03*
D17*
X46620000Y-10420000D03*
%TD*%
D15*
%TO.P,D19,1,K*%
%TO.N,Row2*%
X77190000Y-29630000D03*
D16*
X79225000Y-29630000D03*
%TO.P,D19,2,A*%
%TO.N,Net-(D19-A)*%
X82775000Y-29630000D03*
D17*
X84810000Y-29630000D03*
%TD*%
D15*
%TO.P,D16,1,K*%
%TO.N,Row3*%
X57960000Y-48600000D03*
D16*
X59995000Y-48600000D03*
%TO.P,D16,2,A*%
%TO.N,Net-(D16-A)*%
X63545000Y-48600000D03*
D17*
X65580000Y-48600000D03*
%TD*%
D13*
%TO.P,SW19,1,1*%
%TO.N,Col4*%
X68100000Y-41900000D03*
X69300000Y-35660000D03*
D14*
%TO.P,SW19,2,2*%
%TO.N,Net-(D19-A)*%
X79000000Y-44100000D03*
D13*
X81800000Y-33120000D03*
%TD*%
%TO.P,SW1,1,1*%
%TO.N,Col0*%
X-8100000Y-3700000D03*
X-6900000Y2540000D03*
D14*
%TO.P,SW1,2,2*%
%TO.N,Net-(D1-A)*%
X2800000Y-5900000D03*
D13*
X5600000Y5080000D03*
%TD*%
%TO.P,SW13,1,1*%
%TO.N,Col3*%
X49050000Y-3700000D03*
X50250000Y2540000D03*
D14*
%TO.P,SW13,2,2*%
%TO.N,Net-(D13-A)*%
X59950000Y-5900000D03*
D13*
X62750000Y5080000D03*
%TD*%
D15*
%TO.P,D7,1,K*%
%TO.N,Row2*%
X19990000Y-29570000D03*
D16*
X22025000Y-29570000D03*
%TO.P,D7,2,A*%
%TO.N,Net-(D7-A)*%
X25575000Y-29570000D03*
D17*
X27610000Y-29570000D03*
%TD*%
D15*
%TO.P,D21,1,K*%
%TO.N,Row1*%
X95025000Y-10040000D03*
D16*
X97060000Y-10040000D03*
%TO.P,D21,2,A*%
%TO.N,Net-(D21-A)*%
X100610000Y-10040000D03*
D17*
X102645000Y-10040000D03*
%TD*%
D13*
%TO.P,SW10,1,1*%
%TO.N,Col2*%
X30000000Y-22750000D03*
X31200000Y-16510000D03*
D14*
%TO.P,SW10,2,2*%
%TO.N,Net-(D10-A)*%
X40900000Y-24950000D03*
D13*
X43700000Y-13970000D03*
%TD*%
D15*
%TO.P,D14,1,K*%
%TO.N,Row1*%
X58090000Y-10490000D03*
D16*
X60125000Y-10490000D03*
%TO.P,D14,2,A*%
%TO.N,Net-(D14-A)*%
X63675000Y-10490000D03*
D17*
X65710000Y-10490000D03*
%TD*%
D15*
%TO.P,D18,1,K*%
%TO.N,Row1*%
X72855000Y-10550000D03*
D16*
X74890000Y-10550000D03*
%TO.P,D18,2,A*%
%TO.N,Net-(D18-A)*%
X78440000Y-10550000D03*
D17*
X80475000Y-10550000D03*
%TD*%
D15*
%TO.P,D5,1,K*%
%TO.N,Row0*%
X19770000Y8520000D03*
D16*
X21805000Y8520000D03*
%TO.P,D5,2,A*%
%TO.N,Net-(D5-A)*%
X25355000Y8520000D03*
D17*
X27390000Y8520000D03*
%TD*%
D13*
%TO.P,SW9,1,1*%
%TO.N,Col2*%
X30000000Y-3700000D03*
X31200000Y2540000D03*
D14*
%TO.P,SW9,2,2*%
%TO.N,Net-(D9-A)*%
X40900000Y-5900000D03*
D13*
X43700000Y5080000D03*
%TD*%
%TO.P,SW15,1,1*%
%TO.N,Col3*%
X49050000Y-41900000D03*
X50250000Y-35660000D03*
D14*
%TO.P,SW15,2,2*%
%TO.N,Net-(D15-A)*%
X59950000Y-44100000D03*
D13*
X62750000Y-33120000D03*
%TD*%
%TO.P,SW11,1,1*%
%TO.N,Col2*%
X30100000Y-41900000D03*
X31300000Y-35660000D03*
D14*
%TO.P,SW11,2,2*%
%TO.N,Net-(D11-A)*%
X41000000Y-44100000D03*
D13*
X43800000Y-33120000D03*
%TD*%
%TO.P,SW5,1,1*%
%TO.N,Col1*%
X10950000Y-3700000D03*
X12150000Y2540000D03*
D14*
%TO.P,SW5,2,2*%
%TO.N,Net-(D5-A)*%
X21850000Y-5900000D03*
D13*
X24650000Y5080000D03*
%TD*%
D15*
%TO.P,D9,1,K*%
%TO.N,Row0*%
X39010000Y8610000D03*
D16*
X41045000Y8610000D03*
%TO.P,D9,2,A*%
%TO.N,Net-(D9-A)*%
X44595000Y8610000D03*
D17*
X46630000Y8610000D03*
%TD*%
D15*
%TO.P,D8,1,K*%
%TO.N,Row3*%
X19920000Y-48670000D03*
D16*
X21955000Y-48670000D03*
%TO.P,D8,2,A*%
%TO.N,Net-(D8-A)*%
X25505000Y-48670000D03*
D17*
X27540000Y-48670000D03*
%TD*%
D13*
%TO.P,SW4,1,1*%
%TO.N,Col0*%
X-8100000Y-60850000D03*
X-6900000Y-54610000D03*
D14*
%TO.P,SW4,2,2*%
%TO.N,Net-(D4-A)*%
X2800000Y-63050000D03*
D13*
X5600000Y-52070000D03*
%TD*%
%TO.P,SW17,1,1*%
%TO.N,Col4*%
X68100000Y-3700000D03*
X69300000Y2540000D03*
D14*
%TO.P,SW17,2,2*%
%TO.N,Net-(D17-A)*%
X79000000Y-5900000D03*
D13*
X81800000Y5080000D03*
%TD*%
D15*
%TO.P,D23,1,K*%
%TO.N,Row3*%
X96270000Y-48510000D03*
D16*
X98305000Y-48510000D03*
%TO.P,D23,2,A*%
%TO.N,Net-(D23-A)*%
X101855000Y-48510000D03*
D17*
X103890000Y-48510000D03*
%TD*%
D13*
%TO.P,SW22,1,1*%
%TO.N,Col5*%
X87150000Y-41800000D03*
X88350000Y-35560000D03*
D14*
%TO.P,SW22,2,2*%
%TO.N,Net-(D22-A)*%
X98050000Y-44000000D03*
D13*
X100850000Y-33020000D03*
%TD*%
D15*
%TO.P,D11,1,K*%
%TO.N,Row2*%
X38900000Y-29650000D03*
D16*
X40935000Y-29650000D03*
%TO.P,D11,2,A*%
%TO.N,Net-(D11-A)*%
X44485000Y-29650000D03*
D17*
X46520000Y-29650000D03*
%TD*%
D13*
%TO.P,SW6,1,1*%
%TO.N,Col1*%
X10950000Y-22750000D03*
X12150000Y-16510000D03*
D14*
%TO.P,SW6,2,2*%
%TO.N,Net-(D6-A)*%
X21850000Y-24950000D03*
D13*
X24650000Y-13970000D03*
%TD*%
D19*
%TO.P,SW21,1,1*%
%TO.N,Net-(D21-A)*%
X102400000Y-16660000D03*
%TO.P,SW21,2,2*%
%TO.N,Col5*%
X102400000Y-21660000D03*
D20*
%TO.P,SW21,A,A*%
%TO.N,RE_A1*%
X87900000Y-16660000D03*
D19*
%TO.P,SW21,B,B*%
%TO.N,RE_B*%
X87900000Y-21660000D03*
%TO.P,SW21,C,C*%
%TO.N,GND*%
X87900000Y-19160000D03*
D21*
%TO.P,SW21,MP*%
%TO.N,N/C*%
X95400000Y-13560000D03*
X95400000Y-24760000D03*
%TD*%
D13*
%TO.P,SW3,1,1*%
%TO.N,Col0*%
X-8100000Y-41900000D03*
X-6900000Y-35660000D03*
D14*
%TO.P,SW3,2,2*%
%TO.N,Net-(D3-A)*%
X2800000Y-44100000D03*
D13*
X5600000Y-33120000D03*
%TD*%
D15*
%TO.P,D6,1,K*%
%TO.N,Row1*%
X19890000Y-10420000D03*
D16*
X21925000Y-10420000D03*
%TO.P,D6,2,A*%
%TO.N,Net-(D6-A)*%
X25475000Y-10420000D03*
D17*
X27510000Y-10420000D03*
%TD*%
D13*
%TO.P,SW2,1,1*%
%TO.N,Col0*%
X-8100000Y-22750000D03*
X-6900000Y-16510000D03*
D14*
%TO.P,SW2,2,2*%
%TO.N,Net-(D2-A)*%
X2800000Y-24950000D03*
D13*
X5600000Y-13970000D03*
%TD*%
%TO.P,SW16,1,1*%
%TO.N,Col3*%
X49050000Y-60850000D03*
X50250000Y-54610000D03*
D14*
%TO.P,SW16,2,2*%
%TO.N,Net-(D16-A)*%
X59950000Y-63050000D03*
D13*
X62750000Y-52070000D03*
%TD*%
D22*
%TO.P,SW24,1,A*%
%TO.N,GND*%
X103840000Y3104000D03*
%TO.P,SW24,2,B*%
%TO.N,Net-(B1--)*%
X103840000Y604000D03*
%TO.P,SW24,3,C*%
%TO.N,unconnected-(SW24-C-Pad3)*%
X103840000Y-1896000D03*
%TD*%
D15*
%TO.P,D15,1,K*%
%TO.N,Row2*%
X58040000Y-29620000D03*
D16*
X60075000Y-29620000D03*
%TO.P,D15,2,A*%
%TO.N,Net-(D15-A)*%
X63625000Y-29620000D03*
D17*
X65660000Y-29620000D03*
%TD*%
D13*
%TO.P,SW8,1,1*%
%TO.N,Col1*%
X10950000Y-60850000D03*
X12150000Y-54610000D03*
D14*
%TO.P,SW8,2,2*%
%TO.N,Net-(D8-A)*%
X21850000Y-63050000D03*
D13*
X24650000Y-52070000D03*
%TD*%
D15*
%TO.P,D2,1,K*%
%TO.N,Row1*%
X-3500000Y-10920000D03*
D16*
X-1465000Y-10920000D03*
%TO.P,D2,2,A*%
%TO.N,Net-(D2-A)*%
X2085000Y-10920000D03*
D17*
X4120000Y-10920000D03*
%TD*%
D15*
%TO.P,D12,1,K*%
%TO.N,Row3*%
X38990000Y-48690000D03*
D16*
X41025000Y-48690000D03*
%TO.P,D12,2,A*%
%TO.N,Net-(D12-A)*%
X44575000Y-48690000D03*
D17*
X46610000Y-48690000D03*
%TD*%
D15*
%TO.P,D4,1,K*%
%TO.N,Row3*%
X-3300000Y-48970000D03*
D16*
X-1265000Y-48970000D03*
%TO.P,D4,2,A*%
%TO.N,Net-(D4-A)*%
X2285000Y-48970000D03*
D17*
X4320000Y-48970000D03*
%TD*%
D15*
%TO.P,D1,1,K*%
%TO.N,Row0*%
X960000Y8650000D03*
D16*
X2995000Y8650000D03*
%TO.P,D1,2,A*%
%TO.N,Net-(D1-A)*%
X6545000Y8650000D03*
D17*
X8580000Y8650000D03*
%TD*%
D15*
%TO.P,D17,1,K*%
%TO.N,Row0*%
X77195000Y8510000D03*
D16*
X79230000Y8510000D03*
%TO.P,D17,2,A*%
%TO.N,Net-(D17-A)*%
X82780000Y8510000D03*
D17*
X84815000Y8510000D03*
%TD*%
D13*
%TO.P,SW7,1,1*%
%TO.N,Col1*%
X10950000Y-41900000D03*
X12150000Y-35660000D03*
D14*
%TO.P,SW7,2,2*%
%TO.N,Net-(D7-A)*%
X21850000Y-44100000D03*
D13*
X24650000Y-33120000D03*
%TD*%
D23*
%TO.P,U1,1,P0.02_A0_D0*%
%TO.N,RE_B*%
X87740000Y24450000D03*
%TO.P,U1,2,P0.03_A1_D1*%
%TO.N,Row0*%
X87740000Y21910000D03*
%TO.P,U1,3,P0.28_A2_D2*%
%TO.N,Row1*%
X87740000Y19370000D03*
%TO.P,U1,4,P0.29_A3_D3*%
%TO.N,Row2*%
X87740000Y16830000D03*
%TO.P,U1,5,P0.04_A4_D4_SDA*%
%TO.N,unconnected-(U1-P0.04_A4_D4_SDA-Pad5)*%
X87740000Y14290000D03*
%TO.P,U1,6,P0.05_A5_D5_SCL*%
%TO.N,RE_A1*%
X87740000Y11750000D03*
%TO.P,U1,7,P1.11_D6_TX*%
%TO.N,Row3*%
X87740000Y9210000D03*
%TO.P,U1,8,P1.12_D7_RX*%
%TO.N,Col3*%
X103980000Y9210000D03*
%TO.P,U1,9,P1.13_D8_SCK*%
%TO.N,Col2*%
X103980000Y11750000D03*
%TO.P,U1,10,P1.14_D9_MISO*%
%TO.N,Col1*%
X103980000Y14290000D03*
%TO.P,U1,11,P1.15_D10_MOSI*%
%TO.N,Col0*%
X103980000Y16830000D03*
%TO.P,U1,12,3V3*%
%TO.N,unconnected-(U1-3V3-Pad12)*%
X103980000Y19370000D03*
%TO.P,U1,13,GND*%
%TO.N,GND*%
X103980000Y21910000D03*
%TO.P,U1,14,5V*%
%TO.N,VCC*%
X103980000Y24450000D03*
D24*
%TO.P,U1,15,NFC1_0.09*%
%TO.N,Col5*%
X99695400Y7518000D03*
%TO.P,U1,16,NFC2_0.10*%
%TO.N,Col4*%
X101575000Y7518000D03*
%TO.P,U1,20,BATT+*%
%TO.N,Bat*%
X91415000Y17147000D03*
%TO.P,U1,21,BATT-*%
%TO.N,GND*%
X91415000Y19052000D03*
%TD*%
D13*
%TO.P,SW20,1,1*%
%TO.N,Col4*%
X68100000Y-60850000D03*
X69300000Y-54610000D03*
D14*
%TO.P,SW20,2,2*%
%TO.N,Net-(D20-A)*%
X79000000Y-63050000D03*
D13*
X81800000Y-52070000D03*
%TD*%
D15*
%TO.P,D22,1,K*%
%TO.N,Row2*%
X96170000Y-29600000D03*
D16*
X98205000Y-29600000D03*
%TO.P,D22,2,A*%
%TO.N,Net-(D22-A)*%
X101755000Y-29600000D03*
D17*
X103790000Y-29600000D03*
%TD*%
D15*
%TO.P,D20,1,K*%
%TO.N,Row3*%
X73540000Y-48810000D03*
D16*
X75575000Y-48810000D03*
%TO.P,D20,2,A*%
%TO.N,Net-(D20-A)*%
X79125000Y-48810000D03*
D17*
X81160000Y-48810000D03*
%TD*%
D25*
%TO.N,Net-(B1--)*%
X85820000Y570000D03*
%TO.N,Col0*%
X-6880000Y15660000D03*
%TO.N,Row2*%
X47670000Y16810000D03*
%TO.N,Row1*%
X66800000Y19400000D03*
%TO.N,Row0*%
X77140000Y21790000D03*
%TO.N,RE_B*%
X94000000Y24500000D03*
%TO.N,Col4*%
X101600000Y2240000D03*
%TO.N,GND*%
X91050000Y3090000D03*
%TO.N,Row0*%
X19800000Y10500000D03*
X980000Y10490000D03*
X39010000Y10500000D03*
X77210000Y10500000D03*
X58160000Y10500000D03*
%TO.N,Row1*%
X19870000Y-8140000D03*
X95020000Y-8140000D03*
X66870000Y-8140000D03*
X72870000Y-8110000D03*
X-3470000Y-8130000D03*
X58080000Y-8140000D03*
X38980000Y-8140000D03*
%TO.N,Row2*%
X38930000Y-27590000D03*
X96220000Y-27590000D03*
X19990000Y-27590000D03*
X58040000Y-27590000D03*
X47740000Y-27590000D03*
X910000Y-27590000D03*
X77230000Y-27590000D03*
%TO.N,Row3*%
X57950000Y-50040000D03*
X82750000Y-50040000D03*
X96280000Y-50080000D03*
X-3260000Y-50500000D03*
X73580000Y-50040000D03*
X38990000Y-50040000D03*
X19920000Y-50040000D03*
%TO.N,Col1*%
X12040000Y13160000D03*
%TO.N,Col2*%
X31170000Y11920000D03*
%TO.N,Col3*%
X50170000Y6870000D03*
%TO.N,Col4*%
X69220000Y4620000D03*
%TO.N,Col5*%
X88400000Y-26700000D03*
X102400000Y-26770000D03*
%TD*%
D26*
%TO.N,Net-(B1--)*%
X85813500Y576500D02*
X85820000Y570000D01*
X85813500Y21806500D02*
X85813500Y576500D01*
X82870000Y24750000D02*
X85813500Y21806500D01*
%TO.N,Col0*%
X-6900000Y2540000D02*
X-6900000Y15640000D01*
X-6900000Y15640000D02*
X-6880000Y15660000D01*
%TO.N,Row3*%
X88240000Y9210000D02*
X90050000Y7400000D01*
X90050000Y4420000D02*
X90050000Y-11060000D01*
X90050000Y7400000D02*
X90050000Y4420000D01*
%TO.N,RE_A1*%
X90450000Y9090000D02*
X88240000Y11300000D01*
X88240000Y11300000D02*
X88240000Y11750000D01*
%TO.N,Row2*%
X47670000Y16810000D02*
X47670000Y13910000D01*
X47670000Y13910000D02*
X47650000Y13890000D01*
%TO.N,Row1*%
X66800000Y-8070000D02*
X66870000Y-8140000D01*
X66800000Y19400000D02*
X66800000Y-8070000D01*
%TO.N,Row0*%
X77180000Y19140000D02*
X77180000Y21750000D01*
X77180000Y21750000D02*
X77140000Y21790000D01*
X77180000Y19140000D02*
X77180000Y10530000D01*
%TO.N,RE_B*%
X94000000Y11300000D02*
X94000000Y24500000D01*
X93440000Y10740000D02*
X94000000Y11300000D01*
X91680000Y8980000D02*
X93440000Y10740000D01*
%TO.N,GND*%
X91050000Y9338529D02*
X90739265Y9649265D01*
X90739265Y9649265D02*
X90415000Y9973529D01*
X90365000Y18002000D02*
X90365000Y10023530D01*
X90365000Y10023530D02*
X90739265Y9649265D01*
X90415000Y14850000D02*
X90415000Y9973529D01*
X90415000Y15238000D02*
X90415000Y14850000D01*
X90415000Y14850000D02*
X90365000Y14900000D01*
X90365000Y14900000D02*
X90365000Y18002000D01*
X90365000Y18002000D02*
X91415000Y19052000D01*
%TO.N,Col4*%
X101575000Y2265000D02*
X101600000Y2240000D01*
X101575000Y7518000D02*
X101575000Y2265000D01*
%TO.N,Col5*%
X102400000Y-21660000D02*
X98995400Y-18255400D01*
X98995400Y-18255400D02*
X98995400Y6818000D01*
X98995400Y6818000D02*
X99695400Y7518000D01*
%TO.N,GND*%
X91050000Y320000D02*
X91050000Y3090000D01*
X91050000Y3090000D02*
X91050000Y9338529D01*
%TO.N,Net-(D1-A)*%
X2800000Y2280000D02*
X5600000Y5080000D01*
X8580000Y8650000D02*
X6545000Y8650000D01*
X5600000Y5670000D02*
X8580000Y8650000D01*
X5600000Y5080000D02*
X5600000Y5670000D01*
X2800000Y-5900000D02*
X2800000Y2280000D01*
%TO.N,Row0*%
X77195000Y8510000D02*
X79230000Y8510000D01*
X980000Y10490000D02*
X980000Y8670000D01*
X58170000Y8480000D02*
X60205000Y8480000D01*
X39010000Y8610000D02*
X41045000Y8610000D01*
X77195000Y10485000D02*
X77210000Y10500000D01*
X39010000Y8610000D02*
X39010000Y10500000D01*
X980000Y8670000D02*
X960000Y8650000D01*
X19770000Y8520000D02*
X21805000Y8520000D01*
X19770000Y10470000D02*
X19800000Y10500000D01*
X77180000Y10530000D02*
X77210000Y10500000D01*
X19770000Y8520000D02*
X19770000Y10470000D01*
X58170000Y8480000D02*
X58170000Y10490000D01*
X58170000Y10490000D02*
X58160000Y10500000D01*
X960000Y8650000D02*
X2995000Y8650000D01*
X77195000Y8510000D02*
X77195000Y10485000D01*
%TO.N,Net-(D2-A)*%
X2800000Y-16770000D02*
X5600000Y-13970000D01*
X5600000Y-12400000D02*
X4120000Y-10920000D01*
X2800000Y-24950000D02*
X2800000Y-16770000D01*
X5600000Y-13970000D02*
X5600000Y-12400000D01*
X4120000Y-10920000D02*
X2085000Y-10920000D01*
%TO.N,Row1*%
X72855000Y-10550000D02*
X74890000Y-10550000D01*
X72855000Y-8125000D02*
X72855000Y-10550000D01*
X95025000Y-8145000D02*
X95020000Y-8140000D01*
X19890000Y-10420000D02*
X19890000Y-8160000D01*
X95025000Y-10040000D02*
X95025000Y-8145000D01*
X39000000Y-8160000D02*
X38980000Y-8140000D01*
X39000000Y-10420000D02*
X39000000Y-8160000D01*
X58090000Y-8150000D02*
X58080000Y-8140000D01*
X58090000Y-10490000D02*
X60125000Y-10490000D01*
X-3500000Y-8490000D02*
X-3500000Y-10920000D01*
X-3470000Y-8130000D02*
X-3470000Y-8460000D01*
X58090000Y-10490000D02*
X58090000Y-8150000D01*
X19890000Y-10420000D02*
X21925000Y-10420000D01*
X39000000Y-10420000D02*
X41035000Y-10420000D01*
X-1465000Y-10920000D02*
X-3500000Y-10920000D01*
X72870000Y-8110000D02*
X72855000Y-8125000D01*
X19890000Y-8160000D02*
X19870000Y-8140000D01*
X-3470000Y-8460000D02*
X-3500000Y-8490000D01*
X97060000Y-10040000D02*
X95025000Y-10040000D01*
%TO.N,Net-(D3-A)*%
X5600000Y-33120000D02*
X5600000Y-32630000D01*
X2800000Y-35920000D02*
X5600000Y-33120000D01*
X5600000Y-32630000D02*
X8510000Y-29720000D01*
X2800000Y-44100000D02*
X2800000Y-35920000D01*
X8510000Y-29720000D02*
X6475000Y-29720000D01*
%TO.N,Row2*%
X58040000Y-29620000D02*
X60075000Y-29620000D01*
X38900000Y-29650000D02*
X40935000Y-29650000D01*
X77190000Y-27630000D02*
X77230000Y-27590000D01*
X58040000Y-29620000D02*
X58040000Y-27590000D01*
X47650000Y13890000D02*
X47650000Y-27500000D01*
X77190000Y-29630000D02*
X77190000Y-27630000D01*
X47650000Y-27500000D02*
X47740000Y-27590000D01*
X910000Y-27590000D02*
X890000Y-27610000D01*
X38900000Y-27620000D02*
X38930000Y-27590000D01*
X19990000Y-29570000D02*
X19990000Y-27590000D01*
X19990000Y-29570000D02*
X22025000Y-29570000D01*
X96170000Y-29600000D02*
X96170000Y-27640000D01*
X890000Y-27610000D02*
X890000Y-29720000D01*
X38900000Y-29650000D02*
X38900000Y-27620000D01*
X890000Y-29720000D02*
X2925000Y-29720000D01*
X77190000Y-29630000D02*
X79225000Y-29630000D01*
X96170000Y-29600000D02*
X98205000Y-29600000D01*
X96170000Y-27640000D02*
X96220000Y-27590000D01*
%TO.N,Net-(D4-A)*%
X4320000Y-48970000D02*
X4320000Y-50790000D01*
X2285000Y-48970000D02*
X4320000Y-48970000D01*
X2800000Y-54870000D02*
X5600000Y-52070000D01*
X2800000Y-63050000D02*
X2800000Y-54870000D01*
X4320000Y-50790000D02*
X5600000Y-52070000D01*
X5600000Y-52070000D02*
X5600000Y-51670000D01*
%TO.N,Row3*%
X59995000Y-48600000D02*
X57960000Y-48600000D01*
X19920000Y-48670000D02*
X19920000Y-50040000D01*
X19920000Y-48670000D02*
X21955000Y-48670000D01*
X75575000Y-48810000D02*
X73540000Y-48810000D01*
X82750000Y-46934004D02*
X82750000Y-50040000D01*
X85850000Y-43834004D02*
X82750000Y-46934004D01*
X57960000Y-48600000D02*
X57960000Y-50030000D01*
X85850000Y-15260000D02*
X85850000Y-43834004D01*
X-3260000Y-49010000D02*
X-3300000Y-48970000D01*
X96270000Y-48510000D02*
X98305000Y-48510000D01*
X96270000Y-48510000D02*
X96270000Y-50070000D01*
X90050000Y-11060000D02*
X85850000Y-15260000D01*
X73540000Y-50000000D02*
X73580000Y-50040000D01*
X38990000Y-48690000D02*
X41025000Y-48690000D01*
X73540000Y-48810000D02*
X73540000Y-50000000D01*
X-3260000Y-50500000D02*
X-3260000Y-49010000D01*
X96270000Y-50070000D02*
X96280000Y-50080000D01*
X38990000Y-48690000D02*
X38990000Y-50040000D01*
X-3240000Y-49030000D02*
X-3300000Y-48970000D01*
X-3300000Y-48970000D02*
X-1265000Y-48970000D01*
X57960000Y-50030000D02*
X57950000Y-50040000D01*
%TO.N,Net-(D5-A)*%
X27390000Y8520000D02*
X25355000Y8520000D01*
X24650000Y5080000D02*
X21850000Y2280000D01*
X24650000Y5780000D02*
X27390000Y8520000D01*
X24650000Y5080000D02*
X24650000Y5780000D01*
X21850000Y2280000D02*
X21850000Y-5900000D01*
%TO.N,Net-(D6-A)*%
X24650000Y-13280000D02*
X27510000Y-10420000D01*
X21850000Y-16770000D02*
X24650000Y-13970000D01*
X24650000Y-13970000D02*
X24650000Y-13280000D01*
X21850000Y-24950000D02*
X21850000Y-16770000D01*
X27510000Y-10420000D02*
X25475000Y-10420000D01*
%TO.N,Net-(D7-A)*%
X24650000Y-32530000D02*
X27610000Y-29570000D01*
X24650000Y-33120000D02*
X24650000Y-32530000D01*
X21850000Y-35920000D02*
X24650000Y-33120000D01*
X27610000Y-29570000D02*
X25575000Y-29570000D01*
X21850000Y-44100000D02*
X21850000Y-35920000D01*
%TO.N,Net-(D8-A)*%
X21850000Y-63050000D02*
X21850000Y-54870000D01*
X21850000Y-54870000D02*
X24650000Y-52070000D01*
X27540000Y-48670000D02*
X24650000Y-51560000D01*
X24650000Y-51560000D02*
X24650000Y-52070000D01*
X27540000Y-48670000D02*
X25505000Y-48670000D01*
%TO.N,Net-(D9-A)*%
X40900000Y2280000D02*
X43700000Y5080000D01*
X46630000Y8010000D02*
X43700000Y5080000D01*
X46630000Y8610000D02*
X46630000Y8010000D01*
X40900000Y-5900000D02*
X40900000Y2280000D01*
X44595000Y8610000D02*
X46630000Y8610000D01*
%TO.N,Net-(D10-A)*%
X43700000Y-13970000D02*
X43700000Y-13340000D01*
X40900000Y-16770000D02*
X43700000Y-13970000D01*
X46620000Y-10420000D02*
X44585000Y-10420000D01*
X43700000Y-13340000D02*
X46620000Y-10420000D01*
X40900000Y-24950000D02*
X40900000Y-16770000D01*
%TO.N,Net-(D11-A)*%
X43800000Y-32370000D02*
X46520000Y-29650000D01*
X46520000Y-29650000D02*
X44485000Y-29650000D01*
X41000000Y-38556497D02*
X43800000Y-35756497D01*
X43800000Y-33120000D02*
X43800000Y-32370000D01*
X41000000Y-44100000D02*
X41000000Y-38556497D01*
X43800000Y-35756497D02*
X43800000Y-33120000D01*
%TO.N,Net-(D12-A)*%
X40900000Y-54870000D02*
X43700000Y-52070000D01*
X43700000Y-51600000D02*
X46610000Y-48690000D01*
X40900000Y-63050000D02*
X40900000Y-54870000D01*
X46610000Y-48690000D02*
X44575000Y-48690000D01*
X43700000Y-52070000D02*
X43700000Y-51600000D01*
%TO.N,Net-(D13-A)*%
X59950000Y2280000D02*
X62750000Y5080000D01*
X59950000Y-5900000D02*
X59950000Y2280000D01*
X63755000Y8480000D02*
X65790000Y8480000D01*
X65790000Y8480000D02*
X62750000Y5440000D01*
X62750000Y5440000D02*
X62750000Y5080000D01*
%TO.N,Net-(D14-A)*%
X59950000Y-16770000D02*
X62750000Y-13970000D01*
X62750000Y-13970000D02*
X62750000Y-13450000D01*
X65710000Y-10490000D02*
X63675000Y-10490000D01*
X59950000Y-24950000D02*
X59950000Y-16770000D01*
X62750000Y-13450000D02*
X65710000Y-10490000D01*
%TO.N,Net-(D15-A)*%
X65660000Y-29620000D02*
X65660000Y-30210000D01*
X59950000Y-44100000D02*
X59950000Y-35920000D01*
X59950000Y-35920000D02*
X62750000Y-33120000D01*
X65660000Y-30210000D02*
X62750000Y-33120000D01*
X63625000Y-29620000D02*
X65660000Y-29620000D01*
%TO.N,Net-(D16-A)*%
X59950000Y-63050000D02*
X59950000Y-54870000D01*
X65580000Y-48600000D02*
X62750000Y-51430000D01*
X59950000Y-54870000D02*
X62750000Y-52070000D01*
X62750000Y-51430000D02*
X62750000Y-52070000D01*
X65580000Y-48600000D02*
X63545000Y-48600000D01*
%TO.N,Net-(D17-A)*%
X79000000Y-5900000D02*
X79000000Y2280000D01*
X81800000Y5495000D02*
X81800000Y5080000D01*
X79000000Y2280000D02*
X81800000Y5080000D01*
X82780000Y8510000D02*
X84815000Y8510000D01*
X84815000Y8510000D02*
X81800000Y5495000D01*
%TO.N,Net-(D18-A)*%
X79000000Y-16770000D02*
X81800000Y-13970000D01*
X81800000Y-11875000D02*
X80475000Y-10550000D01*
X80475000Y-10550000D02*
X78440000Y-10550000D01*
X79000000Y-24950000D02*
X79000000Y-16770000D01*
X81800000Y-13970000D02*
X81800000Y-11875000D01*
%TO.N,Net-(D19-A)*%
X79000000Y-35920000D02*
X81800000Y-33120000D01*
X81800000Y-32640000D02*
X84810000Y-29630000D01*
X81800000Y-33120000D02*
X81800000Y-32640000D01*
X82775000Y-29630000D02*
X84810000Y-29630000D01*
X79000000Y-44100000D02*
X79000000Y-35920000D01*
%TO.N,Net-(D20-A)*%
X81800000Y-49450000D02*
X81160000Y-48810000D01*
X79000000Y-54870000D02*
X81800000Y-52070000D01*
X81800000Y-52070000D02*
X81800000Y-49450000D01*
X81160000Y-48810000D02*
X79125000Y-48810000D01*
X79000000Y-63050000D02*
X79000000Y-54870000D01*
%TO.N,Net-(D21-A)*%
X102645000Y-16415000D02*
X102400000Y-16660000D01*
X102645000Y-10040000D02*
X102645000Y-16415000D01*
X100610000Y-10040000D02*
X102645000Y-10040000D01*
%TO.N,Col0*%
X-6900000Y-54610000D02*
X-6900000Y-59650000D01*
X-8100000Y-53410000D02*
X-6900000Y-54610000D01*
X-6900000Y-40700000D02*
X-8100000Y-41900000D01*
X-6900000Y-59650000D02*
X-8100000Y-60850000D01*
X-6900000Y-2500000D02*
X-8100000Y-3700000D01*
X-8100000Y-3700000D02*
X-8100000Y-15310000D01*
X-8100000Y-41900000D02*
X-8100000Y-53410000D01*
X-8100000Y-34460000D02*
X-6900000Y-35660000D01*
X-6900000Y2540000D02*
X-6900000Y-2500000D01*
X-8100000Y-15310000D02*
X-6900000Y-16510000D01*
X-6900000Y-16510000D02*
X-6900000Y-21550000D01*
X-6900000Y-21550000D02*
X-8100000Y-22750000D01*
X-8100000Y-22750000D02*
X-8100000Y-34460000D01*
X-6900000Y-35660000D02*
X-6900000Y-40700000D01*
%TO.N,Col1*%
X12150000Y-35660000D02*
X12150000Y-40700000D01*
X12150000Y-40700000D02*
X10950000Y-41900000D01*
X10950000Y-34460000D02*
X12150000Y-35660000D01*
X13400000Y-12290000D02*
X12150000Y-13540000D01*
X12150000Y13050000D02*
X12150000Y2540000D01*
X12150000Y-52220000D02*
X12150000Y-54610000D01*
X12150000Y-16510000D02*
X12150000Y-21550000D01*
X13400000Y-6150000D02*
X13400000Y-12290000D01*
X10950000Y-41900000D02*
X10950000Y-43090000D01*
X10950000Y-22750000D02*
X10950000Y-34460000D01*
X12150000Y-54610000D02*
X12150000Y-59650000D01*
X12840000Y-45100000D02*
X12840000Y-51530000D01*
X12820000Y-44960000D02*
X12820000Y-45080000D01*
X12150000Y-2500000D02*
X10950000Y-3700000D01*
X10950000Y-3700000D02*
X13400000Y-6150000D01*
X12150000Y2540000D02*
X12150000Y-2500000D01*
X12820000Y-45080000D02*
X12840000Y-45100000D01*
X12150000Y-21550000D02*
X10950000Y-22750000D01*
X12040000Y13160000D02*
X12150000Y13050000D01*
X12840000Y-51530000D02*
X12150000Y-52220000D01*
X12150000Y-59650000D02*
X10950000Y-60850000D01*
X10950000Y-43090000D02*
X12820000Y-44960000D01*
X12150000Y-13540000D02*
X12150000Y-16510000D01*
%TO.N,Col2*%
X30000000Y-34360000D02*
X31300000Y-35660000D01*
X31200000Y-43110000D02*
X31200000Y-54610000D01*
X31200000Y11560000D02*
X31200000Y2540000D01*
X30000000Y-22750000D02*
X30000000Y-34360000D01*
X31200000Y-54610000D02*
X31200000Y-59650000D01*
X30000000Y-3700000D02*
X30000000Y-15310000D01*
X31200000Y-21550000D02*
X30000000Y-22750000D01*
X31170000Y11590000D02*
X31200000Y11560000D01*
X31200000Y-2500000D02*
X30000000Y-3700000D01*
X30100000Y-41900000D02*
X30100000Y-42010000D01*
X31300000Y-40700000D02*
X30100000Y-41900000D01*
X31170000Y11920000D02*
X31170000Y11590000D01*
X31200000Y-59650000D02*
X30000000Y-60850000D01*
X30100000Y-42010000D02*
X31200000Y-43110000D01*
X31200000Y-16510000D02*
X31200000Y-21550000D01*
X31300000Y-35660000D02*
X31300000Y-40700000D01*
X30000000Y-15310000D02*
X31200000Y-16510000D01*
X31200000Y2540000D02*
X31200000Y-2500000D01*
%TO.N,Col3*%
X50170000Y6870000D02*
X50170000Y6550000D01*
X49050000Y-53410000D02*
X50250000Y-54610000D01*
X50250000Y-21550000D02*
X49050000Y-22750000D01*
X50250000Y-54610000D02*
X50250000Y-59650000D01*
X49050000Y-41900000D02*
X49050000Y-53410000D01*
X50250000Y2540000D02*
X50250000Y-2500000D01*
X49050000Y-15310000D02*
X50250000Y-16510000D01*
X50250000Y6470000D02*
X50250000Y2540000D01*
X50250000Y-16510000D02*
X50250000Y-21550000D01*
X50250000Y-35660000D02*
X50250000Y-40700000D01*
X50250000Y-40700000D02*
X49050000Y-41900000D01*
X49050000Y-3700000D02*
X49050000Y-15310000D01*
X50250000Y-2500000D02*
X49050000Y-3700000D01*
X49050000Y-22750000D02*
X49050000Y-34460000D01*
X49050000Y-34460000D02*
X50250000Y-35660000D01*
X50250000Y-59650000D02*
X49050000Y-60850000D01*
X50170000Y6550000D02*
X50250000Y6470000D01*
%TO.N,Col4*%
X69300000Y-21550000D02*
X68100000Y-22750000D01*
X69300000Y-54850000D02*
X68100000Y-56050000D01*
X68100000Y-22750000D02*
X68100000Y-34460000D01*
X69300000Y-35660000D02*
X69300000Y-40700000D01*
X68100000Y-3700000D02*
X68100000Y-15310000D01*
X69300000Y-2500000D02*
X68100000Y-3700000D01*
X69220000Y4620000D02*
X69220000Y4300000D01*
X69300000Y-54610000D02*
X69300000Y-54850000D01*
X68100000Y-41900000D02*
X68100000Y-53410000D01*
X69220000Y4300000D02*
X69300000Y4220000D01*
X69300000Y-40700000D02*
X68100000Y-41900000D01*
X68100000Y-56050000D02*
X68100000Y-60850000D01*
X69300000Y2540000D02*
X69300000Y-2500000D01*
X68100000Y-15310000D02*
X69300000Y-16510000D01*
X69300000Y4220000D02*
X69300000Y2540000D01*
X68100000Y-34460000D02*
X69300000Y-35660000D01*
X68100000Y-53410000D02*
X69300000Y-54610000D01*
X69300000Y-16510000D02*
X69300000Y-21550000D01*
%TO.N,Col5*%
X88350000Y-40600000D02*
X87150000Y-41800000D01*
X88350000Y-53280000D02*
X88350000Y-54610000D01*
X102400000Y-21660000D02*
X102400000Y-26770000D01*
X88350000Y-27070000D02*
X88350000Y-35560000D01*
X87150000Y-41800000D02*
X87180000Y-41800000D01*
X88350000Y-35560000D02*
X88350000Y-35290000D01*
X90270000Y-44900000D02*
X90270000Y-51360000D01*
X87180000Y-41800000D02*
X87180000Y-41810000D01*
X88400000Y-27020000D02*
X88350000Y-27070000D01*
X87180000Y-41810000D02*
X90270000Y-44900000D01*
X88350000Y-35560000D02*
X88350000Y-40600000D01*
X88350000Y-54610000D02*
X88350000Y-59650000D01*
X90270000Y-51360000D02*
X88350000Y-53280000D01*
X88400000Y-26700000D02*
X88400000Y-27020000D01*
X88350000Y-59650000D02*
X87150000Y-60850000D01*
%TO.N,Net-(D22-A)*%
X103790000Y-29600000D02*
X100850000Y-32540000D01*
X98050000Y-44000000D02*
X98050000Y-35820000D01*
X100850000Y-32540000D02*
X100850000Y-33020000D01*
X98050000Y-35820000D02*
X100850000Y-33020000D01*
X103790000Y-29600000D02*
X101755000Y-29600000D01*
%TO.N,GND*%
X91050000Y-16010000D02*
X91050000Y320000D01*
X87900000Y-19160000D02*
X87900000Y-18655836D01*
X87900000Y-19160000D02*
X91050000Y-16010000D01*
%TO.N,Net-(D23-A)*%
X103890000Y-48510000D02*
X100850000Y-51550000D01*
X100850000Y-51550000D02*
X100850000Y-52070000D01*
X98050000Y-63050000D02*
X98050000Y-54870000D01*
X103890000Y-48510000D02*
X101855000Y-48510000D01*
X98050000Y-54870000D02*
X100850000Y-52070000D01*
%TO.N,RE_B*%
X87900000Y-21660000D02*
X91680000Y-17880000D01*
X91680000Y-17880000D02*
X91680000Y8980000D01*
%TO.N,RE_A1*%
X90450000Y-14110000D02*
X87900000Y-16660000D01*
X90450000Y9090000D02*
X90450000Y-14110000D01*
%TD*%
M02*
