M48
; DRILL file {KiCad 8.0.7} date 2025-02-16T08:14:50+0900
; FORMAT={-:-/ absolute / metric / decimal}
; #@! TF.CreationDate,2025-02-16T08:14:50+09:00
; #@! TF.GenerationSoftware,Kicad,Pcbnew,8.0.7
; #@! TF.FileFunction,Plated,1,2,PTH
FMAT,2
METRIC
; #@! TA.AperFunction,Plated,PTH,ViaDrill
T1C0.300
; #@! TA.AperFunction,Plated,PTH,ComponentDrill
T2C0.500
; #@! TA.AperFunction,Plated,PTH,ComponentDrill
T3C0.813
; #@! TA.AperFunction,Plated,PTH,ComponentDrill
T4C1.000
; #@! TA.AperFunction,Plated,PTH,ComponentDrill
T5C1.500
; #@! TA.AperFunction,Plated,PTH,ComponentDrill
T6C2.200
%
G90
G05
T1
X-6.88Y15.66
X-3.47Y-8.13
X-3.26Y-50.5
X0.91Y-27.59
X0.98Y10.49
X12.04Y13.16
X19.8Y10.5
X19.87Y-8.14
X19.92Y-50.04
X19.99Y-27.59
X31.17Y11.92
X38.93Y-27.59
X38.98Y-8.14
X38.99Y-50.04
X39.01Y10.5
X47.67Y16.81
X47.74Y-27.59
X50.17Y6.87
X57.95Y-50.04
X58.04Y-27.59
X58.08Y-8.14
X58.16Y10.5
X66.8Y19.4
X66.87Y-8.14
X69.22Y4.62
X72.87Y-8.11
X73.58Y-50.04
X77.14Y21.79
X77.21Y10.5
X77.23Y-27.59
X82.75Y-50.04
X85.82Y0.57
X88.4Y-26.7
X91.05Y3.09
X94.0Y24.5
X95.02Y-8.14
X96.22Y-27.59
X96.28Y-50.08
X101.6Y2.24
X102.4Y-26.77
T3
X-3.5Y-10.92
X-3.3Y-48.97
X0.89Y-29.72
X0.96Y8.65
X4.12Y-10.92
X4.32Y-48.97
X8.51Y-29.72
X8.58Y8.65
X19.77Y8.52
X19.89Y-10.42
X19.92Y-48.67
X19.99Y-29.57
X27.39Y8.52
X27.51Y-10.42
X27.54Y-48.67
X27.61Y-29.57
X38.9Y-29.65
X38.99Y-48.69
X39.0Y-10.42
X39.01Y8.61
X46.52Y-29.65
X46.61Y-48.69
X46.62Y-10.42
X46.63Y8.61
X57.96Y-48.6
X58.04Y-29.62
X58.09Y-10.49
X58.17Y8.48
X65.58Y-48.6
X65.66Y-29.62
X65.71Y-10.49
X65.79Y8.48
X72.855Y-10.55
X73.54Y-48.81
X77.19Y-29.63
X77.195Y8.51
X80.475Y-10.55
X81.16Y-48.81
X84.81Y-29.63
X84.815Y8.51
X88.24Y24.45
X88.24Y21.91
X88.24Y19.37
X88.24Y16.83
X88.24Y14.29
X88.24Y11.75
X88.24Y9.21
X95.025Y-10.04
X96.17Y-29.6
X96.27Y-48.51
X102.645Y-10.04
X103.48Y24.45
X103.48Y21.91
X103.48Y19.37
X103.48Y16.83
X103.48Y14.29
X103.48Y11.75
X103.48Y9.21
X103.79Y-29.6
X103.89Y-48.51
T4
X87.9Y-16.66
X87.9Y-19.16
X87.9Y-21.66
X91.415Y19.052
X91.415Y17.147
X99.695Y7.518
X101.575Y7.518
X102.4Y-16.66
X102.4Y-21.66
T5
X-6.4Y24.71
X82.87Y24.75
T6
X95.4Y-13.56
X95.4Y-24.76
T2
G00X103.84Y3.254
M15
G01X103.84Y2.954
M16
G05
G00X103.84Y0.754
M15
G01X103.84Y0.454
M16
G05
G00X103.84Y-1.746
M15
G01X103.84Y-2.046
M16
G05
M30
