%TF.GenerationSoftware,KiCad,Pcbnew,8.0.7*%
%TF.CreationDate,2025-05-03T19:39:34+09:00*%
%TF.ProjectId,cool642tb_R_with_tb,636f6f6c-3634-4327-9462-5f525f776974,rev?*%
%TF.SameCoordinates,Original*%
%TF.FileFunction,Profile,NP*%
%FSLAX46Y46*%
G04 Gerber Fmt 4.6, Leading zero omitted, Abs format (unit mm)*
G04 Created by KiCad (PCBNEW 8.0.7) date 2025-05-03 19:39:34*
%MOMM*%
%LPD*%
G01*
G04 APERTURE LIST*
%TA.AperFunction,Profile*%
%ADD10C,0.050000*%
%TD*%
%TA.AperFunction,Profile*%
%ADD11C,0.200000*%
%TD*%
%TA.AperFunction,Profile*%
%ADD12C,0.120000*%
%TD*%
G04 APERTURE END LIST*
D10*
X86419999Y27382636D02*
X86459999Y-73567364D01*
D11*
X67810000Y-47670000D02*
G75*
G02*
X65610000Y-47670000I-1100000J0D01*
G01*
X65610000Y-47670000D02*
G75*
G02*
X67810000Y-47670000I1100000J0D01*
G01*
D10*
X86459999Y-73567364D02*
X58610000Y-73557364D01*
D11*
X67810000Y-9470000D02*
G75*
G02*
X65610000Y-9470000I-1100000J0D01*
G01*
X65610000Y-9470000D02*
G75*
G02*
X67810000Y-9470000I1100000J0D01*
G01*
D10*
X9580000Y-47410000D02*
X9580000Y-66640000D01*
X58610000Y-73557364D02*
X58570000Y-47410000D01*
D11*
X-8420000Y-9530000D02*
G75*
G02*
X-10620000Y-9530000I-1100000J0D01*
G01*
X-10620000Y-9530000D02*
G75*
G02*
X-8420000Y-9530000I1100000J0D01*
G01*
D10*
X9580000Y-66640000D02*
X-29750001Y-66687364D01*
X-29750001Y27382636D02*
X86419999Y27382636D01*
X49943000Y-47396000D02*
X9580000Y-47410000D01*
X49943000Y-47396000D02*
X58570000Y-47410000D01*
D11*
X-8560000Y-47600000D02*
G75*
G02*
X-10760000Y-47600000I-1100000J0D01*
G01*
X-10760000Y-47600000D02*
G75*
G02*
X-8560000Y-47600000I1100000J0D01*
G01*
D10*
X-29750001Y-66687364D02*
X-29750001Y27382636D01*
D12*
%TO.C,U1*%
X-23697753Y17580553D02*
X-23697753Y18621953D01*
X-23011953Y19307753D02*
X-16399493Y19319370D01*
X-20823539Y22377540D02*
X-20820564Y21324209D01*
X-20820564Y21324209D02*
X-17239435Y21295791D01*
X-20770000Y23402268D02*
X-17188871Y23373850D01*
X-17242410Y22349122D02*
X-17239435Y21295791D01*
X-16411000Y16889000D02*
X-23011953Y16894753D01*
X-16030753Y18926753D02*
X-16030753Y17275753D01*
X-15417753Y7938047D02*
X-15421000Y14539000D01*
X-15036753Y14919247D02*
X-13385753Y14919247D01*
X-13690553Y7252247D02*
X-14731953Y7252247D01*
X-13004753Y14539000D02*
X-13004753Y7938047D01*
X-23697753Y17580553D02*
G75*
G02*
X-23011953Y16894753I247753J-438047D01*
G01*
X-23011953Y19307753D02*
G75*
G02*
X-23697753Y18621953I-438047J-247753D01*
G01*
X-20770000Y23402268D02*
G75*
G02*
X-20823539Y22377540I-220000J-502268D01*
G01*
X-17242410Y22349122D02*
G75*
G02*
X-17188871Y23373850I220000J502268D01*
G01*
X-16399493Y19319370D02*
G75*
G02*
X-16030754Y18926753I-9907J-378770D01*
G01*
X-16030000Y17270000D02*
G75*
G02*
X-16411000Y16889000I-381000J0D01*
G01*
X-15421000Y14539000D02*
G75*
G02*
X-15040000Y14920000I381000J0D01*
G01*
X-15417753Y7938047D02*
G75*
G02*
X-14731953Y7252247I247753J-438047D01*
G01*
X-13690553Y7252247D02*
G75*
G02*
X-13004749Y7938054I438053J247753D01*
G01*
X-13385753Y14920000D02*
G75*
G02*
X-13004800Y14539000I53J-380900D01*
G01*
%TD*%
M02*
