%TF.GenerationSoftware,KiCad,Pcbnew,8.0.7*%
%TF.CreationDate,2025-05-03T19:39:34+09:00*%
%TF.ProjectId,cool642tb_R_with_tb,636f6f6c-3634-4327-9462-5f525f776974,rev?*%
%TF.SameCoordinates,Original*%
%TF.FileFunction,Soldermask,Bot*%
%TF.FilePolarity,Negative*%
%FSLAX46Y46*%
G04 Gerber Fmt 4.6, Leading zero omitted, Abs format (unit mm)*
G04 Created by KiCad (PCBNEW 8.0.7) date 2025-05-03 19:39:34*
%MOMM*%
%LPD*%
G01*
G04 APERTURE LIST*
%ADD10R,1.300000X0.950000*%
%ADD11C,1.900000*%
%ADD12C,1.700000*%
%ADD13C,3.000000*%
%ADD14C,5.000000*%
%ADD15R,2.000000X2.000000*%
%ADD16R,1.900000X2.000000*%
%ADD17O,1.000000X1.300000*%
%ADD18O,2.750000X1.800000*%
%ADD19C,1.500000*%
%ADD20C,1.524000*%
%ADD21R,1.700000X1.700000*%
%ADD22O,1.700000X1.700000*%
%ADD23C,2.000000*%
G04 APERTURE END LIST*
D10*
%TO.C,D7*%
X21375000Y-30010000D03*
X24925000Y-30010000D03*
%TD*%
%TO.C,D11*%
X40405000Y-30100000D03*
X43955000Y-30100000D03*
%TD*%
D11*
%TO.C,SW1*%
X-5500000Y0D03*
D12*
X-5080000Y0D03*
D13*
X-5000000Y-3700000D03*
D12*
X-4500000Y0D03*
D13*
X-3810000Y2540000D03*
D14*
X0Y0D03*
D13*
X0Y-5900000D03*
X2540000Y5080000D03*
D12*
X4500000Y0D03*
X5080000Y0D03*
D11*
X5500000Y0D03*
D15*
X-8100000Y-3700000D03*
X-6900000Y2540000D03*
D16*
X2800000Y-5900000D03*
D15*
X5600000Y5080000D03*
%TD*%
D10*
%TO.C,D20*%
X76935000Y-49060000D03*
X80485000Y-49060000D03*
%TD*%
D11*
%TO.C,SW8*%
X-24550000Y-38100000D03*
D12*
X-24130000Y-38100000D03*
D13*
X-24050000Y-41800000D03*
D12*
X-23550000Y-38100000D03*
D13*
X-22860000Y-35560000D03*
D14*
X-19050000Y-38100000D03*
D13*
X-19050000Y-44000000D03*
X-16510000Y-33020000D03*
D12*
X-14550000Y-38100000D03*
X-13970000Y-38100000D03*
D11*
X-13550000Y-38100000D03*
D15*
X-27150000Y-41800000D03*
X-25950000Y-35560000D03*
D16*
X-16250000Y-44000000D03*
D15*
X-13450000Y-33020000D03*
%TD*%
D10*
%TO.C,D13*%
X59535000Y8140000D03*
X63085000Y8140000D03*
%TD*%
D11*
%TO.C,SW15*%
X51650000Y-38100000D03*
D12*
X52070000Y-38100000D03*
D13*
X52150000Y-41800000D03*
D12*
X52650000Y-38100000D03*
D13*
X53340000Y-35560000D03*
D14*
X57150000Y-38100000D03*
D13*
X57150000Y-44000000D03*
X59690000Y-33020000D03*
D12*
X61650000Y-38100000D03*
X62230000Y-38100000D03*
D11*
X62650000Y-38100000D03*
D15*
X49050000Y-41800000D03*
X50250000Y-35560000D03*
D16*
X59950000Y-44000000D03*
D15*
X62750000Y-33020000D03*
%TD*%
D11*
%TO.C,SW16*%
X-5500000Y-57150000D03*
D12*
X-5080000Y-57150000D03*
D13*
X-5000000Y-60850000D03*
D12*
X-4500000Y-57150000D03*
D13*
X-3810000Y-54610000D03*
D14*
X0Y-57150000D03*
D13*
X0Y-63050000D03*
X2540000Y-52070000D03*
D12*
X4500000Y-57150000D03*
X5080000Y-57150000D03*
D11*
X5500000Y-57150000D03*
D15*
X-8100000Y-60850000D03*
X-6900000Y-54610000D03*
D16*
X2800000Y-63050000D03*
D15*
X5600000Y-52070000D03*
%TD*%
D17*
%TO.C,SW21*%
X-27100000Y-1890000D03*
X-27100000Y610000D03*
X-27100000Y3110000D03*
%TD*%
D11*
%TO.C,SW13*%
X51650000Y0D03*
D12*
X52070000Y0D03*
D13*
X52150000Y-3700000D03*
D12*
X52650000Y0D03*
D13*
X53340000Y2540000D03*
D14*
X57150000Y0D03*
D13*
X57150000Y-5900000D03*
X59690000Y5080000D03*
D12*
X61650000Y0D03*
X62230000Y0D03*
D11*
X62650000Y0D03*
D15*
X49050000Y-3700000D03*
X50250000Y2540000D03*
D16*
X59950000Y-5900000D03*
D15*
X62750000Y5080000D03*
%TD*%
D10*
%TO.C,D15*%
X59535000Y-29950000D03*
X63085000Y-29950000D03*
%TD*%
%TO.C,D1*%
X2385000Y8000000D03*
X5935000Y8000000D03*
%TD*%
%TO.C,D9*%
X40525000Y8000000D03*
X44075000Y8000000D03*
%TD*%
%TO.C,D17*%
X76665000Y8180000D03*
X80215000Y8180000D03*
%TD*%
%TO.C,D4*%
X-20815000Y-10950000D03*
X-17265000Y-10950000D03*
%TD*%
%TO.C,D16*%
X2555000Y-48970000D03*
X6105000Y-48970000D03*
%TD*%
D11*
%TO.C,SW17*%
X70700000Y0D03*
D12*
X71120000Y0D03*
D13*
X71200000Y-3700000D03*
D12*
X71700000Y0D03*
D13*
X72390000Y2540000D03*
D14*
X76200000Y0D03*
D13*
X76200000Y-5900000D03*
X78740000Y5080000D03*
D12*
X80700000Y0D03*
X81280000Y0D03*
D11*
X81700000Y0D03*
D15*
X68100000Y-3700000D03*
X69300000Y2540000D03*
D16*
X79000000Y-5900000D03*
D15*
X81800000Y5080000D03*
%TD*%
D10*
%TO.C,D3*%
X2330000Y-30130000D03*
X5880000Y-30130000D03*
%TD*%
%TO.C,D19*%
X77080000Y-29940000D03*
X80630000Y-29940000D03*
%TD*%
D11*
%TO.C,SW11*%
X32600000Y-38100000D03*
D12*
X33020000Y-38100000D03*
D13*
X33100000Y-41800000D03*
D12*
X33600000Y-38100000D03*
D13*
X34290000Y-35560000D03*
D14*
X38100000Y-38100000D03*
D13*
X38100000Y-44000000D03*
X40640000Y-33020000D03*
D12*
X42600000Y-38100000D03*
X43180000Y-38100000D03*
D11*
X43600000Y-38100000D03*
D15*
X30000000Y-41800000D03*
X31200000Y-35560000D03*
D16*
X40900000Y-44000000D03*
D15*
X43700000Y-33020000D03*
%TD*%
D11*
%TO.C,SW12*%
X-24550000Y-57150000D03*
D12*
X-24130000Y-57150000D03*
D13*
X-24050000Y-60850000D03*
D12*
X-23550000Y-57150000D03*
D13*
X-22860000Y-54610000D03*
D14*
X-19050000Y-57150000D03*
D13*
X-19050000Y-63050000D03*
X-16510000Y-52070000D03*
D12*
X-14550000Y-57150000D03*
X-13970000Y-57150000D03*
D11*
X-13550000Y-57150000D03*
D15*
X-27150000Y-60850000D03*
X-25950000Y-54610000D03*
D16*
X-16250000Y-63050000D03*
D15*
X-13450000Y-52070000D03*
%TD*%
D11*
%TO.C,SW19*%
X70700000Y-38200000D03*
D12*
X71120000Y-38200000D03*
D13*
X71200000Y-41900000D03*
D12*
X71700000Y-38200000D03*
D13*
X72390000Y-35660000D03*
D14*
X76200000Y-38200000D03*
D13*
X76200000Y-44100000D03*
X78740000Y-33120000D03*
D12*
X80700000Y-38200000D03*
X81280000Y-38200000D03*
D11*
X81700000Y-38200000D03*
D15*
X68100000Y-41900000D03*
X69300000Y-35660000D03*
D16*
X79000000Y-44100000D03*
D15*
X81800000Y-33120000D03*
%TD*%
D11*
%TO.C,SW20*%
X70700000Y-57250000D03*
D12*
X71120000Y-57250000D03*
D13*
X71200000Y-60950000D03*
D12*
X71700000Y-57250000D03*
D13*
X72390000Y-54710000D03*
D14*
X76200000Y-57250000D03*
D13*
X76200000Y-63150000D03*
X78740000Y-52170000D03*
D12*
X80700000Y-57250000D03*
X81280000Y-57250000D03*
D11*
X81700000Y-57250000D03*
D15*
X68100000Y-60950000D03*
X69300000Y-54710000D03*
D16*
X79000000Y-63150000D03*
D15*
X81800000Y-52170000D03*
%TD*%
D11*
%TO.C,SW3*%
X-5500000Y-38100000D03*
D12*
X-5080000Y-38100000D03*
D13*
X-5000000Y-41800000D03*
D12*
X-4500000Y-38100000D03*
D13*
X-3810000Y-35560000D03*
D14*
X0Y-38100000D03*
D13*
X0Y-44000000D03*
X2540000Y-33020000D03*
D12*
X4500000Y-38100000D03*
X5080000Y-38100000D03*
D11*
X5500000Y-38100000D03*
D15*
X-8100000Y-41800000D03*
X-6900000Y-35560000D03*
D16*
X2800000Y-44000000D03*
D15*
X5600000Y-33020000D03*
%TD*%
D10*
%TO.C,D10*%
X40465000Y-11150000D03*
X44015000Y-11150000D03*
%TD*%
D11*
%TO.C,SW7*%
X13550000Y-38100000D03*
D12*
X13970000Y-38100000D03*
D13*
X14050000Y-41800000D03*
D12*
X14550000Y-38100000D03*
D13*
X15240000Y-35560000D03*
D14*
X19050000Y-38100000D03*
D13*
X19050000Y-44000000D03*
X21590000Y-33020000D03*
D12*
X23550000Y-38100000D03*
X24130000Y-38100000D03*
D11*
X24550000Y-38100000D03*
D15*
X10950000Y-41800000D03*
X12150000Y-35560000D03*
D16*
X21850000Y-44000000D03*
D15*
X24650000Y-33020000D03*
%TD*%
D11*
%TO.C,SW10*%
X32600000Y-19050000D03*
D12*
X33020000Y-19050000D03*
D13*
X33100000Y-22750000D03*
D12*
X33600000Y-19050000D03*
D13*
X34290000Y-16510000D03*
D14*
X38100000Y-19050000D03*
D13*
X38100000Y-24950000D03*
X40640000Y-13970000D03*
D12*
X42600000Y-19050000D03*
X43180000Y-19050000D03*
D11*
X43600000Y-19050000D03*
D15*
X30000000Y-22750000D03*
X31200000Y-16510000D03*
D16*
X40900000Y-24950000D03*
D15*
X43700000Y-13970000D03*
%TD*%
D18*
%TO.C,U1*%
X-27110000Y24450000D03*
X-27110000Y21910000D03*
X-27110000Y19370000D03*
X-27110000Y16830000D03*
X-27110000Y14290000D03*
X-27110000Y11750000D03*
X-27110000Y9210000D03*
X-10870000Y9210000D03*
X-10870000Y11750000D03*
X-10870000Y14290000D03*
X-10870000Y16830000D03*
X-10870000Y19370000D03*
X-10870000Y21910000D03*
X-10870000Y24450000D03*
D19*
X-15154600Y7518000D03*
X-13275000Y7518000D03*
X-23435000Y17147000D03*
X-23435000Y19052000D03*
D20*
X-20870000Y22900000D03*
X-17150000Y22840000D03*
%TD*%
D10*
%TO.C,D2*%
X2535000Y-11080000D03*
X6085000Y-11080000D03*
%TD*%
D21*
%TO.C,J1*%
X60590000Y-54350000D03*
D22*
X60590000Y-56890000D03*
X60590000Y-59430000D03*
X60590000Y-61970000D03*
X60590000Y-64510000D03*
X60590000Y-67050000D03*
X60590000Y-69590000D03*
%TD*%
D10*
%TO.C,D6*%
X21375000Y-10980000D03*
X24925000Y-10980000D03*
%TD*%
D11*
%TO.C,SW5*%
X13550000Y0D03*
D12*
X13970000Y0D03*
D13*
X14050000Y-3700000D03*
D12*
X14550000Y0D03*
D13*
X15240000Y2540000D03*
D14*
X19050000Y0D03*
D13*
X19050000Y-5900000D03*
X21590000Y5080000D03*
D12*
X23550000Y0D03*
X24130000Y0D03*
D11*
X24550000Y0D03*
D15*
X10950000Y-3700000D03*
X12150000Y2540000D03*
D16*
X21850000Y-5900000D03*
D15*
X24650000Y5080000D03*
%TD*%
D11*
%TO.C,SW6*%
X13550000Y-19050000D03*
D12*
X13970000Y-19050000D03*
D13*
X14050000Y-22750000D03*
D12*
X14550000Y-19050000D03*
D13*
X15240000Y-16510000D03*
D14*
X19050000Y-19050000D03*
D13*
X19050000Y-24950000D03*
X21590000Y-13970000D03*
D12*
X23550000Y-19050000D03*
X24130000Y-19050000D03*
D11*
X24550000Y-19050000D03*
D15*
X10950000Y-22750000D03*
X12150000Y-16510000D03*
D16*
X21850000Y-24950000D03*
D15*
X24650000Y-13970000D03*
%TD*%
D11*
%TO.C,SW9*%
X32600000Y0D03*
D12*
X33020000Y0D03*
D13*
X33100000Y-3700000D03*
D12*
X33600000Y0D03*
D13*
X34290000Y2540000D03*
D14*
X38100000Y0D03*
D13*
X38100000Y-5900000D03*
X40640000Y5080000D03*
D12*
X42600000Y0D03*
X43180000Y0D03*
D11*
X43600000Y0D03*
D15*
X30000000Y-3700000D03*
X31200000Y2540000D03*
D16*
X40900000Y-5900000D03*
D15*
X43700000Y5080000D03*
%TD*%
D11*
%TO.C,SW4*%
X-24550000Y-19050000D03*
D12*
X-24130000Y-19050000D03*
D13*
X-24050000Y-22750000D03*
D12*
X-23550000Y-19050000D03*
D13*
X-22860000Y-16510000D03*
D14*
X-19050000Y-19050000D03*
D13*
X-19050000Y-24950000D03*
X-16510000Y-13970000D03*
D12*
X-14550000Y-19050000D03*
X-13970000Y-19050000D03*
D11*
X-13550000Y-19050000D03*
D15*
X-27150000Y-22750000D03*
X-25950000Y-16510000D03*
D16*
X-16250000Y-24950000D03*
D15*
X-13450000Y-13970000D03*
%TD*%
D10*
%TO.C,D8*%
X-16645000Y-29980000D03*
X-13095000Y-29980000D03*
%TD*%
D13*
%TO.C,BT1*%
X-6020000Y24670000D03*
X83250000Y24710000D03*
%TD*%
D10*
%TO.C,D14*%
X55715000Y-10930000D03*
X59265000Y-10930000D03*
%TD*%
%TO.C,D12*%
X-20465000Y-49140000D03*
X-16915000Y-49140000D03*
%TD*%
%TO.C,D5*%
X21635000Y8040000D03*
X25185000Y8040000D03*
%TD*%
D23*
%TO.C,SW22*%
X-15770000Y580000D03*
X-22270000Y580000D03*
%TD*%
D11*
%TO.C,SW2*%
X-5500000Y-19050000D03*
D12*
X-5080000Y-19050000D03*
D13*
X-5000000Y-22750000D03*
D12*
X-4500000Y-19050000D03*
D13*
X-3810000Y-16510000D03*
D14*
X0Y-19050000D03*
D13*
X0Y-24950000D03*
X2540000Y-13970000D03*
D12*
X4500000Y-19050000D03*
X5080000Y-19050000D03*
D11*
X5500000Y-19050000D03*
D15*
X-8100000Y-22750000D03*
X-6900000Y-16510000D03*
D16*
X2800000Y-24950000D03*
D15*
X5600000Y-13970000D03*
%TD*%
D11*
%TO.C,SW18*%
X70700000Y-19050000D03*
D12*
X71120000Y-19050000D03*
D13*
X71200000Y-22750000D03*
D12*
X71700000Y-19050000D03*
D13*
X72390000Y-16510000D03*
D14*
X76200000Y-19050000D03*
D13*
X76200000Y-24950000D03*
X78740000Y-13970000D03*
D12*
X80700000Y-19050000D03*
X81280000Y-19050000D03*
D11*
X81700000Y-19050000D03*
D15*
X68100000Y-22750000D03*
X69300000Y-16510000D03*
D16*
X79000000Y-24950000D03*
D15*
X81800000Y-13970000D03*
%TD*%
D11*
%TO.C,SW14*%
X51650000Y-19050000D03*
D12*
X52070000Y-19050000D03*
D13*
X52150000Y-22750000D03*
D12*
X52650000Y-19050000D03*
D13*
X53340000Y-16510000D03*
D14*
X57150000Y-19050000D03*
D13*
X57150000Y-24950000D03*
X59690000Y-13970000D03*
D12*
X61650000Y-19050000D03*
X62230000Y-19050000D03*
D11*
X62650000Y-19050000D03*
D15*
X49050000Y-22750000D03*
X50250000Y-16510000D03*
D16*
X59950000Y-24950000D03*
D15*
X62750000Y-13970000D03*
%TD*%
D10*
%TO.C,D18*%
X76635000Y-10860000D03*
X80185000Y-10860000D03*
%TD*%
M02*
