%TF.GenerationSoftware,KiCad,Pcbnew,8.0.7*%
%TF.CreationDate,2025-02-25T22:45:06+09:00*%
%TF.ProjectId,cool642tb_L,636f6f6c-3634-4327-9462-5f4c2e6b6963,rev?*%
%TF.SameCoordinates,Original*%
%TF.FileFunction,Soldermask,Bot*%
%TF.FilePolarity,Negative*%
%FSLAX46Y46*%
G04 Gerber Fmt 4.6, Leading zero omitted, Abs format (unit mm)*
G04 Created by KiCad (PCBNEW 8.0.7) date 2025-02-25 22:45:06*
%MOMM*%
%LPD*%
G01*
G04 APERTURE LIST*
%ADD10C,1.900000*%
%ADD11C,1.700000*%
%ADD12C,3.000000*%
%ADD13C,5.000000*%
%ADD14R,2.000000X2.000000*%
%ADD15R,1.900000X2.000000*%
%ADD16R,1.397000X1.397000*%
%ADD17R,1.300000X0.950000*%
%ADD18C,1.397000*%
%ADD19R,1.500000X1.500000*%
%ADD20C,2.000000*%
%ADD21C,2.800000*%
%ADD22O,1.000000X1.300000*%
%ADD23O,2.750000X1.800000*%
%ADD24C,1.500000*%
G04 APERTURE END LIST*
D10*
%TO.C,SW14*%
X51650000Y-19050000D03*
D11*
X52070000Y-19050000D03*
D12*
X52150000Y-22750000D03*
D11*
X52650000Y-19050000D03*
D12*
X53340000Y-16510000D03*
D13*
X57150000Y-19050000D03*
D12*
X57150000Y-24950000D03*
X59690000Y-13970000D03*
D11*
X61650000Y-19050000D03*
X62230000Y-19050000D03*
D10*
X62650000Y-19050000D03*
D14*
X49050000Y-22750000D03*
X50250000Y-16510000D03*
D15*
X59950000Y-24950000D03*
D14*
X62750000Y-13970000D03*
%TD*%
D16*
%TO.C,D3*%
X890000Y-29720000D03*
D17*
X2925000Y-29720000D03*
X6475000Y-29720000D03*
D18*
X8510000Y-29720000D03*
%TD*%
D12*
%TO.C,B1*%
X-6400000Y24710000D03*
X82870000Y24750000D03*
%TD*%
D10*
%TO.C,SW18*%
X70700000Y-19050000D03*
D11*
X71120000Y-19050000D03*
D12*
X71200000Y-22750000D03*
D11*
X71700000Y-19050000D03*
D12*
X72390000Y-16510000D03*
D13*
X76200000Y-19050000D03*
D12*
X76200000Y-24950000D03*
X78740000Y-13970000D03*
D11*
X80700000Y-19050000D03*
X81280000Y-19050000D03*
D10*
X81700000Y-19050000D03*
D14*
X68100000Y-22750000D03*
X69300000Y-16510000D03*
D15*
X79000000Y-24950000D03*
D14*
X81800000Y-13970000D03*
%TD*%
D16*
%TO.C,D13*%
X58170000Y8480000D03*
D17*
X60205000Y8480000D03*
X63755000Y8480000D03*
D18*
X65790000Y8480000D03*
%TD*%
D10*
%TO.C,SW12*%
X32600000Y-57150000D03*
D11*
X33020000Y-57150000D03*
D12*
X33100000Y-60850000D03*
D11*
X33600000Y-57150000D03*
D12*
X34290000Y-54610000D03*
D13*
X38100000Y-57150000D03*
D12*
X38100000Y-63050000D03*
X40640000Y-52070000D03*
D11*
X42600000Y-57150000D03*
X43180000Y-57150000D03*
D10*
X43600000Y-57150000D03*
D14*
X30000000Y-60850000D03*
X31200000Y-54610000D03*
D15*
X40900000Y-63050000D03*
D14*
X43700000Y-52070000D03*
%TD*%
D10*
%TO.C,SW23*%
X89750000Y-57150000D03*
D11*
X90170000Y-57150000D03*
D12*
X90250000Y-60850000D03*
D11*
X90750000Y-57150000D03*
D12*
X91440000Y-54610000D03*
D13*
X95250000Y-57150000D03*
D12*
X95250000Y-63050000D03*
X97790000Y-52070000D03*
D11*
X99750000Y-57150000D03*
X100330000Y-57150000D03*
D10*
X100750000Y-57150000D03*
D14*
X87150000Y-60850000D03*
X88350000Y-54610000D03*
D15*
X98050000Y-63050000D03*
D14*
X100850000Y-52070000D03*
%TD*%
D16*
%TO.C,D10*%
X39000000Y-10420000D03*
D17*
X41035000Y-10420000D03*
X44585000Y-10420000D03*
D18*
X46620000Y-10420000D03*
%TD*%
D16*
%TO.C,D19*%
X77190000Y-29630000D03*
D17*
X79225000Y-29630000D03*
X82775000Y-29630000D03*
D18*
X84810000Y-29630000D03*
%TD*%
D16*
%TO.C,D16*%
X57960000Y-48600000D03*
D17*
X59995000Y-48600000D03*
X63545000Y-48600000D03*
D18*
X65580000Y-48600000D03*
%TD*%
D10*
%TO.C,SW19*%
X70700000Y-38200000D03*
D11*
X71120000Y-38200000D03*
D12*
X71200000Y-41900000D03*
D11*
X71700000Y-38200000D03*
D12*
X72390000Y-35660000D03*
D13*
X76200000Y-38200000D03*
D12*
X76200000Y-44100000D03*
X78740000Y-33120000D03*
D11*
X80700000Y-38200000D03*
X81280000Y-38200000D03*
D10*
X81700000Y-38200000D03*
D14*
X68100000Y-41900000D03*
X69300000Y-35660000D03*
D15*
X79000000Y-44100000D03*
D14*
X81800000Y-33120000D03*
%TD*%
D10*
%TO.C,SW1*%
X-5500000Y0D03*
D11*
X-5080000Y0D03*
D12*
X-5000000Y-3700000D03*
D11*
X-4500000Y0D03*
D12*
X-3810000Y2540000D03*
D13*
X0Y0D03*
D12*
X0Y-5900000D03*
X2540000Y5080000D03*
D11*
X4500000Y0D03*
X5080000Y0D03*
D10*
X5500000Y0D03*
D14*
X-8100000Y-3700000D03*
X-6900000Y2540000D03*
D15*
X2800000Y-5900000D03*
D14*
X5600000Y5080000D03*
%TD*%
D10*
%TO.C,SW13*%
X51650000Y0D03*
D11*
X52070000Y0D03*
D12*
X52150000Y-3700000D03*
D11*
X52650000Y0D03*
D12*
X53340000Y2540000D03*
D13*
X57150000Y0D03*
D12*
X57150000Y-5900000D03*
X59690000Y5080000D03*
D11*
X61650000Y0D03*
X62230000Y0D03*
D10*
X62650000Y0D03*
D14*
X49050000Y-3700000D03*
X50250000Y2540000D03*
D15*
X59950000Y-5900000D03*
D14*
X62750000Y5080000D03*
%TD*%
D16*
%TO.C,D7*%
X19990000Y-29570000D03*
D17*
X22025000Y-29570000D03*
X25575000Y-29570000D03*
D18*
X27610000Y-29570000D03*
%TD*%
D16*
%TO.C,D21*%
X95025000Y-10040000D03*
D17*
X97060000Y-10040000D03*
X100610000Y-10040000D03*
D18*
X102645000Y-10040000D03*
%TD*%
D10*
%TO.C,SW10*%
X32600000Y-19050000D03*
D11*
X33020000Y-19050000D03*
D12*
X33100000Y-22750000D03*
D11*
X33600000Y-19050000D03*
D12*
X34290000Y-16510000D03*
D13*
X38100000Y-19050000D03*
D12*
X38100000Y-24950000D03*
X40640000Y-13970000D03*
D11*
X42600000Y-19050000D03*
X43180000Y-19050000D03*
D10*
X43600000Y-19050000D03*
D14*
X30000000Y-22750000D03*
X31200000Y-16510000D03*
D15*
X40900000Y-24950000D03*
D14*
X43700000Y-13970000D03*
%TD*%
D16*
%TO.C,D14*%
X58090000Y-10490000D03*
D17*
X60125000Y-10490000D03*
X63675000Y-10490000D03*
D18*
X65710000Y-10490000D03*
%TD*%
D16*
%TO.C,D18*%
X72855000Y-10550000D03*
D17*
X74890000Y-10550000D03*
X78440000Y-10550000D03*
D18*
X80475000Y-10550000D03*
%TD*%
D16*
%TO.C,D5*%
X19770000Y8520000D03*
D17*
X21805000Y8520000D03*
X25355000Y8520000D03*
D18*
X27390000Y8520000D03*
%TD*%
D10*
%TO.C,SW9*%
X32600000Y0D03*
D11*
X33020000Y0D03*
D12*
X33100000Y-3700000D03*
D11*
X33600000Y0D03*
D12*
X34290000Y2540000D03*
D13*
X38100000Y0D03*
D12*
X38100000Y-5900000D03*
X40640000Y5080000D03*
D11*
X42600000Y0D03*
X43180000Y0D03*
D10*
X43600000Y0D03*
D14*
X30000000Y-3700000D03*
X31200000Y2540000D03*
D15*
X40900000Y-5900000D03*
D14*
X43700000Y5080000D03*
%TD*%
D10*
%TO.C,SW15*%
X51650000Y-38200000D03*
D11*
X52070000Y-38200000D03*
D12*
X52150000Y-41900000D03*
D11*
X52650000Y-38200000D03*
D12*
X53340000Y-35660000D03*
D13*
X57150000Y-38200000D03*
D12*
X57150000Y-44100000D03*
X59690000Y-33120000D03*
D11*
X61650000Y-38200000D03*
X62230000Y-38200000D03*
D10*
X62650000Y-38200000D03*
D14*
X49050000Y-41900000D03*
X50250000Y-35660000D03*
D15*
X59950000Y-44100000D03*
D14*
X62750000Y-33120000D03*
%TD*%
D10*
%TO.C,SW11*%
X32700000Y-38200000D03*
D11*
X33120000Y-38200000D03*
D12*
X33200000Y-41900000D03*
D11*
X33700000Y-38200000D03*
D12*
X34390000Y-35660000D03*
D13*
X38200000Y-38200000D03*
D12*
X38200000Y-44100000D03*
X40740000Y-33120000D03*
D11*
X42700000Y-38200000D03*
X43280000Y-38200000D03*
D10*
X43700000Y-38200000D03*
D14*
X30100000Y-41900000D03*
X31300000Y-35660000D03*
D15*
X41000000Y-44100000D03*
D14*
X43800000Y-33120000D03*
%TD*%
D10*
%TO.C,SW5*%
X13550000Y0D03*
D11*
X13970000Y0D03*
D12*
X14050000Y-3700000D03*
D11*
X14550000Y0D03*
D12*
X15240000Y2540000D03*
D13*
X19050000Y0D03*
D12*
X19050000Y-5900000D03*
X21590000Y5080000D03*
D11*
X23550000Y0D03*
X24130000Y0D03*
D10*
X24550000Y0D03*
D14*
X10950000Y-3700000D03*
X12150000Y2540000D03*
D15*
X21850000Y-5900000D03*
D14*
X24650000Y5080000D03*
%TD*%
D16*
%TO.C,D9*%
X39010000Y8610000D03*
D17*
X41045000Y8610000D03*
X44595000Y8610000D03*
D18*
X46630000Y8610000D03*
%TD*%
D16*
%TO.C,D8*%
X19920000Y-48670000D03*
D17*
X21955000Y-48670000D03*
X25505000Y-48670000D03*
D18*
X27540000Y-48670000D03*
%TD*%
D10*
%TO.C,SW4*%
X-5500000Y-57150000D03*
D11*
X-5080000Y-57150000D03*
D12*
X-5000000Y-60850000D03*
D11*
X-4500000Y-57150000D03*
D12*
X-3810000Y-54610000D03*
D13*
X0Y-57150000D03*
D12*
X0Y-63050000D03*
X2540000Y-52070000D03*
D11*
X4500000Y-57150000D03*
X5080000Y-57150000D03*
D10*
X5500000Y-57150000D03*
D14*
X-8100000Y-60850000D03*
X-6900000Y-54610000D03*
D15*
X2800000Y-63050000D03*
D14*
X5600000Y-52070000D03*
%TD*%
D10*
%TO.C,SW17*%
X70700000Y0D03*
D11*
X71120000Y0D03*
D12*
X71200000Y-3700000D03*
D11*
X71700000Y0D03*
D12*
X72390000Y2540000D03*
D13*
X76200000Y0D03*
D12*
X76200000Y-5900000D03*
X78740000Y5080000D03*
D11*
X80700000Y0D03*
X81280000Y0D03*
D10*
X81700000Y0D03*
D14*
X68100000Y-3700000D03*
X69300000Y2540000D03*
D15*
X79000000Y-5900000D03*
D14*
X81800000Y5080000D03*
%TD*%
D16*
%TO.C,D23*%
X96270000Y-48510000D03*
D17*
X98305000Y-48510000D03*
X101855000Y-48510000D03*
D18*
X103890000Y-48510000D03*
%TD*%
D10*
%TO.C,SW22*%
X89750000Y-38100000D03*
D11*
X90170000Y-38100000D03*
D12*
X90250000Y-41800000D03*
D11*
X90750000Y-38100000D03*
D12*
X91440000Y-35560000D03*
D13*
X95250000Y-38100000D03*
D12*
X95250000Y-44000000D03*
X97790000Y-33020000D03*
D11*
X99750000Y-38100000D03*
X100330000Y-38100000D03*
D10*
X100750000Y-38100000D03*
D14*
X87150000Y-41800000D03*
X88350000Y-35560000D03*
D15*
X98050000Y-44000000D03*
D14*
X100850000Y-33020000D03*
%TD*%
D16*
%TO.C,D11*%
X38900000Y-29650000D03*
D17*
X40935000Y-29650000D03*
X44485000Y-29650000D03*
D18*
X46520000Y-29650000D03*
%TD*%
D10*
%TO.C,SW6*%
X13550000Y-19050000D03*
D11*
X13970000Y-19050000D03*
D12*
X14050000Y-22750000D03*
D11*
X14550000Y-19050000D03*
D12*
X15240000Y-16510000D03*
D13*
X19050000Y-19050000D03*
D12*
X19050000Y-24950000D03*
X21590000Y-13970000D03*
D11*
X23550000Y-19050000D03*
X24130000Y-19050000D03*
D10*
X24550000Y-19050000D03*
D14*
X10950000Y-22750000D03*
X12150000Y-16510000D03*
D15*
X21850000Y-24950000D03*
D14*
X24650000Y-13970000D03*
%TD*%
D19*
%TO.C,SW21*%
X87900000Y-16660000D03*
D20*
X87900000Y-21660000D03*
X87900000Y-19160000D03*
D21*
X95400000Y-13560000D03*
X95400000Y-24760000D03*
D20*
X102400000Y-16660000D03*
X102400000Y-21660000D03*
%TD*%
D10*
%TO.C,SW3*%
X-5500000Y-38200000D03*
D11*
X-5080000Y-38200000D03*
D12*
X-5000000Y-41900000D03*
D11*
X-4500000Y-38200000D03*
D12*
X-3810000Y-35660000D03*
D13*
X0Y-38200000D03*
D12*
X0Y-44100000D03*
X2540000Y-33120000D03*
D11*
X4500000Y-38200000D03*
X5080000Y-38200000D03*
D10*
X5500000Y-38200000D03*
D14*
X-8100000Y-41900000D03*
X-6900000Y-35660000D03*
D15*
X2800000Y-44100000D03*
D14*
X5600000Y-33120000D03*
%TD*%
D16*
%TO.C,D6*%
X19890000Y-10420000D03*
D17*
X21925000Y-10420000D03*
X25475000Y-10420000D03*
D18*
X27510000Y-10420000D03*
%TD*%
D10*
%TO.C,SW2*%
X-5500000Y-19050000D03*
D11*
X-5080000Y-19050000D03*
D12*
X-5000000Y-22750000D03*
D11*
X-4500000Y-19050000D03*
D12*
X-3810000Y-16510000D03*
D13*
X0Y-19050000D03*
D12*
X0Y-24950000D03*
X2540000Y-13970000D03*
D11*
X4500000Y-19050000D03*
X5080000Y-19050000D03*
D10*
X5500000Y-19050000D03*
D14*
X-8100000Y-22750000D03*
X-6900000Y-16510000D03*
D15*
X2800000Y-24950000D03*
D14*
X5600000Y-13970000D03*
%TD*%
D10*
%TO.C,SW16*%
X51650000Y-57150000D03*
D11*
X52070000Y-57150000D03*
D12*
X52150000Y-60850000D03*
D11*
X52650000Y-57150000D03*
D12*
X53340000Y-54610000D03*
D13*
X57150000Y-57150000D03*
D12*
X57150000Y-63050000D03*
X59690000Y-52070000D03*
D11*
X61650000Y-57150000D03*
X62230000Y-57150000D03*
D10*
X62650000Y-57150000D03*
D14*
X49050000Y-60850000D03*
X50250000Y-54610000D03*
D15*
X59950000Y-63050000D03*
D14*
X62750000Y-52070000D03*
%TD*%
D22*
%TO.C,SW24*%
X103840000Y3104000D03*
X103840000Y604000D03*
X103840000Y-1896000D03*
%TD*%
D16*
%TO.C,D15*%
X58040000Y-29620000D03*
D17*
X60075000Y-29620000D03*
X63625000Y-29620000D03*
D18*
X65660000Y-29620000D03*
%TD*%
D10*
%TO.C,SW8*%
X13550000Y-57150000D03*
D11*
X13970000Y-57150000D03*
D12*
X14050000Y-60850000D03*
D11*
X14550000Y-57150000D03*
D12*
X15240000Y-54610000D03*
D13*
X19050000Y-57150000D03*
D12*
X19050000Y-63050000D03*
X21590000Y-52070000D03*
D11*
X23550000Y-57150000D03*
X24130000Y-57150000D03*
D10*
X24550000Y-57150000D03*
D14*
X10950000Y-60850000D03*
X12150000Y-54610000D03*
D15*
X21850000Y-63050000D03*
D14*
X24650000Y-52070000D03*
%TD*%
D16*
%TO.C,D2*%
X-3500000Y-10920000D03*
D17*
X-1465000Y-10920000D03*
X2085000Y-10920000D03*
D18*
X4120000Y-10920000D03*
%TD*%
D16*
%TO.C,D12*%
X38990000Y-48690000D03*
D17*
X41025000Y-48690000D03*
X44575000Y-48690000D03*
D18*
X46610000Y-48690000D03*
%TD*%
D16*
%TO.C,D4*%
X-3300000Y-48970000D03*
D17*
X-1265000Y-48970000D03*
X2285000Y-48970000D03*
D18*
X4320000Y-48970000D03*
%TD*%
D16*
%TO.C,D1*%
X960000Y8650000D03*
D17*
X2995000Y8650000D03*
X6545000Y8650000D03*
D18*
X8580000Y8650000D03*
%TD*%
D16*
%TO.C,D17*%
X77195000Y8510000D03*
D17*
X79230000Y8510000D03*
X82780000Y8510000D03*
D18*
X84815000Y8510000D03*
%TD*%
D10*
%TO.C,SW7*%
X13550000Y-38200000D03*
D11*
X13970000Y-38200000D03*
D12*
X14050000Y-41900000D03*
D11*
X14550000Y-38200000D03*
D12*
X15240000Y-35660000D03*
D13*
X19050000Y-38200000D03*
D12*
X19050000Y-44100000D03*
X21590000Y-33120000D03*
D11*
X23550000Y-38200000D03*
X24130000Y-38200000D03*
D10*
X24550000Y-38200000D03*
D14*
X10950000Y-41900000D03*
X12150000Y-35660000D03*
D15*
X21850000Y-44100000D03*
D14*
X24650000Y-33120000D03*
%TD*%
D23*
%TO.C,U1*%
X87740000Y24450000D03*
X87740000Y21910000D03*
X87740000Y19370000D03*
X87740000Y16830000D03*
X87740000Y14290000D03*
X87740000Y11750000D03*
X87740000Y9210000D03*
X103980000Y9210000D03*
X103980000Y11750000D03*
X103980000Y14290000D03*
X103980000Y16830000D03*
X103980000Y19370000D03*
X103980000Y21910000D03*
X103980000Y24450000D03*
D24*
X99695400Y7518000D03*
X101575000Y7518000D03*
X91415000Y17147000D03*
X91415000Y19052000D03*
%TD*%
D10*
%TO.C,SW20*%
X70700000Y-57150000D03*
D11*
X71120000Y-57150000D03*
D12*
X71200000Y-60850000D03*
D11*
X71700000Y-57150000D03*
D12*
X72390000Y-54610000D03*
D13*
X76200000Y-57150000D03*
D12*
X76200000Y-63050000D03*
X78740000Y-52070000D03*
D11*
X80700000Y-57150000D03*
X81280000Y-57150000D03*
D10*
X81700000Y-57150000D03*
D14*
X68100000Y-60850000D03*
X69300000Y-54610000D03*
D15*
X79000000Y-63050000D03*
D14*
X81800000Y-52070000D03*
%TD*%
D16*
%TO.C,D22*%
X96170000Y-29600000D03*
D17*
X98205000Y-29600000D03*
X101755000Y-29600000D03*
D18*
X103790000Y-29600000D03*
%TD*%
D16*
%TO.C,D20*%
X73540000Y-48810000D03*
D17*
X75575000Y-48810000D03*
X79125000Y-48810000D03*
D18*
X81160000Y-48810000D03*
%TD*%
M02*
