%TF.GenerationSoftware,KiCad,Pcbnew,8.0.7*%
%TF.CreationDate,2025-02-28T21:37:25+09:00*%
%TF.ProjectId,cool642tb_R_with_tb,636f6f6c-3634-4327-9462-5f525f776974,rev?*%
%TF.SameCoordinates,Original*%
%TF.FileFunction,Profile,NP*%
%FSLAX46Y46*%
G04 Gerber Fmt 4.6, Leading zero omitted, Abs format (unit mm)*
G04 Created by KiCad (PCBNEW 8.0.7) date 2025-02-28 21:37:25*
%MOMM*%
%LPD*%
G01*
G04 APERTURE LIST*
%TA.AperFunction,Profile*%
%ADD10C,0.050000*%
%TD*%
%TA.AperFunction,Profile*%
%ADD11C,0.200000*%
%TD*%
%TA.AperFunction,Profile*%
%ADD12C,0.120000*%
%TD*%
G04 APERTURE END LIST*
D10*
X86419999Y27382636D02*
X86459999Y-73567364D01*
D11*
X27922893Y-56674893D02*
X27922893Y-50924893D01*
X67810000Y-47670000D02*
G75*
G02*
X65610000Y-47670000I-1100000J0D01*
G01*
X65610000Y-47670000D02*
G75*
G02*
X67810000Y-47670000I1100000J0D01*
G01*
D10*
X86459999Y-73567364D02*
X58610000Y-73557364D01*
D11*
X28922893Y-49924893D02*
X29783000Y-49926000D01*
X67810000Y-9470000D02*
G75*
G02*
X65610000Y-9470000I-1100000J0D01*
G01*
X65610000Y-9470000D02*
G75*
G02*
X67810000Y-9470000I1100000J0D01*
G01*
D10*
X9580000Y-47410000D02*
X9580000Y-66640000D01*
D11*
X50422893Y-49924893D02*
G75*
G02*
X51422907Y-50924893I7J-1000007D01*
G01*
X28922893Y-71924893D02*
G75*
G02*
X27922907Y-70924893I7J999993D01*
G01*
X37403000Y-49926000D02*
X42323000Y-49936000D01*
D10*
X58610000Y-73557364D02*
X58570000Y-47410000D01*
D11*
X-8420000Y-9530000D02*
G75*
G02*
X-10620000Y-9530000I-1100000J0D01*
G01*
X-10620000Y-9530000D02*
G75*
G02*
X-8420000Y-9530000I1100000J0D01*
G01*
X43922893Y-65174893D02*
X43922893Y-56674893D01*
D10*
X9580000Y-66640000D02*
X-29750001Y-66687364D01*
D11*
X43922893Y-56674893D02*
X27922893Y-56674893D01*
X27922893Y-65174893D02*
X27922893Y-70924893D01*
D10*
X-29750001Y27382636D02*
X86419999Y27382636D01*
X29783000Y-47386000D02*
X9580000Y-47410000D01*
D11*
X51422893Y-70924893D02*
X51422893Y-50924893D01*
D10*
X37403000Y-47386000D02*
X42323000Y-47396000D01*
D11*
X50422893Y-49924893D02*
X49943000Y-49936000D01*
D10*
X49943000Y-47396000D02*
X58570000Y-47410000D01*
D11*
X50422893Y-71924893D02*
X28922893Y-71924893D01*
X43922893Y-65174893D02*
X27922893Y-65174893D01*
X51422893Y-70924893D02*
G75*
G02*
X50422893Y-71924893I-999993J-7D01*
G01*
X-8560000Y-47600000D02*
G75*
G02*
X-10760000Y-47600000I-1100000J0D01*
G01*
X-10760000Y-47600000D02*
G75*
G02*
X-8560000Y-47600000I1100000J0D01*
G01*
X27922893Y-50924893D02*
G75*
G02*
X28922893Y-49924893I1000007J-7D01*
G01*
D10*
X-29750001Y-66687364D02*
X-29750001Y27382636D01*
D12*
%TO.C,REF\u002A\u002A*%
X42323000Y-47396000D02*
G75*
G02*
X42323000Y-49936000I0J-1270000D01*
G01*
X49943000Y-49936000D02*
G75*
G02*
X49943000Y-47396000I0J1270000D01*
G01*
%TO.C,U1*%
X-23697753Y17580553D02*
X-23697753Y18621953D01*
X-23011953Y19307753D02*
X-21411753Y19307753D01*
X-21411753Y16894753D02*
X-23011953Y16894753D01*
X-21030753Y18926753D02*
X-21030753Y17275753D01*
X-15417753Y7938047D02*
X-15417753Y9538247D01*
X-15036753Y9919247D02*
X-13385753Y9919247D01*
X-13690553Y7252247D02*
X-14731953Y7252247D01*
X-13004753Y9538247D02*
X-13004753Y7938047D01*
X-23697753Y17580553D02*
G75*
G02*
X-23011953Y16894753I247753J-438047D01*
G01*
X-23011953Y19307753D02*
G75*
G02*
X-23697753Y18621953I-438047J-247753D01*
G01*
X-21411753Y19307753D02*
G75*
G02*
X-21030753Y18926753I8J-380992D01*
G01*
X-21030753Y17275753D02*
G75*
G02*
X-21411753Y16894753I-380996J-4D01*
G01*
X-15417753Y9538247D02*
G75*
G02*
X-15036753Y9919243I380993J3D01*
G01*
X-15417753Y7938047D02*
G75*
G02*
X-14731953Y7252247I247753J-438047D01*
G01*
X-13690553Y7252247D02*
G75*
G02*
X-13004749Y7938054I438053J247753D01*
G01*
X-13385753Y9919247D02*
G75*
G02*
X-13004753Y9538247I3J-380997D01*
G01*
%TO.C,REF\u002A\u002A*%
X29783000Y-47386000D02*
G75*
G02*
X29783000Y-49926000I0J-1270000D01*
G01*
X37403000Y-49926000D02*
G75*
G02*
X37403000Y-47386000I0J1270000D01*
G01*
%TD*%
M02*
