%TF.GenerationSoftware,KiCad,Pcbnew,8.0.7*%
%TF.CreationDate,2025-02-28T21:37:25+09:00*%
%TF.ProjectId,cool642tb_R_with_tb,636f6f6c-3634-4327-9462-5f525f776974,rev?*%
%TF.SameCoordinates,Original*%
%TF.FileFunction,Legend,Bot*%
%TF.FilePolarity,Positive*%
%FSLAX46Y46*%
G04 Gerber Fmt 4.6, Leading zero omitted, Abs format (unit mm)*
G04 Created by KiCad (PCBNEW 8.0.7) date 2025-02-28 21:37:25*
%MOMM*%
%LPD*%
G01*
G04 APERTURE LIST*
%ADD10C,0.300000*%
%ADD11C,0.100000*%
%ADD12C,0.125000*%
%ADD13C,0.150000*%
%ADD14C,0.062500*%
%ADD15C,0.120000*%
G04 APERTURE END LIST*
D10*
X58549298Y23325376D02*
X58739774Y23230137D01*
X58739774Y23230137D02*
X59120727Y23230137D01*
X59120727Y23230137D02*
X59311203Y23325376D01*
X59311203Y23325376D02*
X59406441Y23420614D01*
X59406441Y23420614D02*
X59501679Y23611090D01*
X59501679Y23611090D02*
X59501679Y24182518D01*
X59501679Y24182518D02*
X59406441Y24372995D01*
X59406441Y24372995D02*
X59311203Y24468233D01*
X59311203Y24468233D02*
X59120727Y24563471D01*
X59120727Y24563471D02*
X58739774Y24563471D01*
X58739774Y24563471D02*
X58549298Y24468233D01*
X57406441Y23230137D02*
X57596917Y23325376D01*
X57596917Y23325376D02*
X57692155Y23420614D01*
X57692155Y23420614D02*
X57787393Y23611090D01*
X57787393Y23611090D02*
X57787393Y24182518D01*
X57787393Y24182518D02*
X57692155Y24372995D01*
X57692155Y24372995D02*
X57596917Y24468233D01*
X57596917Y24468233D02*
X57406441Y24563471D01*
X57406441Y24563471D02*
X57120726Y24563471D01*
X57120726Y24563471D02*
X56930250Y24468233D01*
X56930250Y24468233D02*
X56835012Y24372995D01*
X56835012Y24372995D02*
X56739774Y24182518D01*
X56739774Y24182518D02*
X56739774Y23611090D01*
X56739774Y23611090D02*
X56835012Y23420614D01*
X56835012Y23420614D02*
X56930250Y23325376D01*
X56930250Y23325376D02*
X57120726Y23230137D01*
X57120726Y23230137D02*
X57406441Y23230137D01*
X55596917Y23230137D02*
X55787393Y23325376D01*
X55787393Y23325376D02*
X55882631Y23420614D01*
X55882631Y23420614D02*
X55977869Y23611090D01*
X55977869Y23611090D02*
X55977869Y24182518D01*
X55977869Y24182518D02*
X55882631Y24372995D01*
X55882631Y24372995D02*
X55787393Y24468233D01*
X55787393Y24468233D02*
X55596917Y24563471D01*
X55596917Y24563471D02*
X55311202Y24563471D01*
X55311202Y24563471D02*
X55120726Y24468233D01*
X55120726Y24468233D02*
X55025488Y24372995D01*
X55025488Y24372995D02*
X54930250Y24182518D01*
X54930250Y24182518D02*
X54930250Y23611090D01*
X54930250Y23611090D02*
X55025488Y23420614D01*
X55025488Y23420614D02*
X55120726Y23325376D01*
X55120726Y23325376D02*
X55311202Y23230137D01*
X55311202Y23230137D02*
X55596917Y23230137D01*
X53787393Y23230137D02*
X53977869Y23325376D01*
X53977869Y23325376D02*
X54073107Y23515852D01*
X54073107Y23515852D02*
X54073107Y25230137D01*
X52168345Y25230137D02*
X52549298Y25230137D01*
X52549298Y25230137D02*
X52739774Y25134899D01*
X52739774Y25134899D02*
X52835012Y25039661D01*
X52835012Y25039661D02*
X53025488Y24753947D01*
X53025488Y24753947D02*
X53120726Y24372995D01*
X53120726Y24372995D02*
X53120726Y23611090D01*
X53120726Y23611090D02*
X53025488Y23420614D01*
X53025488Y23420614D02*
X52930250Y23325376D01*
X52930250Y23325376D02*
X52739774Y23230137D01*
X52739774Y23230137D02*
X52358821Y23230137D01*
X52358821Y23230137D02*
X52168345Y23325376D01*
X52168345Y23325376D02*
X52073107Y23420614D01*
X52073107Y23420614D02*
X51977869Y23611090D01*
X51977869Y23611090D02*
X51977869Y24087280D01*
X51977869Y24087280D02*
X52073107Y24277756D01*
X52073107Y24277756D02*
X52168345Y24372995D01*
X52168345Y24372995D02*
X52358821Y24468233D01*
X52358821Y24468233D02*
X52739774Y24468233D01*
X52739774Y24468233D02*
X52930250Y24372995D01*
X52930250Y24372995D02*
X53025488Y24277756D01*
X53025488Y24277756D02*
X53120726Y24087280D01*
X50263583Y24563471D02*
X50263583Y23230137D01*
X50739774Y25325376D02*
X51215964Y23896804D01*
X51215964Y23896804D02*
X49977869Y23896804D01*
X49311202Y25039661D02*
X49215964Y25134899D01*
X49215964Y25134899D02*
X49025488Y25230137D01*
X49025488Y25230137D02*
X48549297Y25230137D01*
X48549297Y25230137D02*
X48358821Y25134899D01*
X48358821Y25134899D02*
X48263583Y25039661D01*
X48263583Y25039661D02*
X48168345Y24849185D01*
X48168345Y24849185D02*
X48168345Y24658709D01*
X48168345Y24658709D02*
X48263583Y24372995D01*
X48263583Y24372995D02*
X49406440Y23230137D01*
X49406440Y23230137D02*
X48168345Y23230137D01*
X47596916Y24563471D02*
X46835012Y24563471D01*
X47311202Y25230137D02*
X47311202Y23515852D01*
X47311202Y23515852D02*
X47215964Y23325376D01*
X47215964Y23325376D02*
X47025488Y23230137D01*
X47025488Y23230137D02*
X46835012Y23230137D01*
X46168345Y23230137D02*
X46168345Y25230137D01*
X46168345Y24468233D02*
X45977869Y24563471D01*
X45977869Y24563471D02*
X45596916Y24563471D01*
X45596916Y24563471D02*
X45406440Y24468233D01*
X45406440Y24468233D02*
X45311202Y24372995D01*
X45311202Y24372995D02*
X45215964Y24182518D01*
X45215964Y24182518D02*
X45215964Y23611090D01*
X45215964Y23611090D02*
X45311202Y23420614D01*
X45311202Y23420614D02*
X45406440Y23325376D01*
X45406440Y23325376D02*
X45596916Y23230137D01*
X45596916Y23230137D02*
X45977869Y23230137D01*
X45977869Y23230137D02*
X46168345Y23325376D01*
X44835012Y23039661D02*
X43311202Y23039661D01*
X41692154Y23230137D02*
X42358821Y24182518D01*
X42835011Y23230137D02*
X42835011Y25230137D01*
X42835011Y25230137D02*
X42073106Y25230137D01*
X42073106Y25230137D02*
X41882630Y25134899D01*
X41882630Y25134899D02*
X41787392Y25039661D01*
X41787392Y25039661D02*
X41692154Y24849185D01*
X41692154Y24849185D02*
X41692154Y24563471D01*
X41692154Y24563471D02*
X41787392Y24372995D01*
X41787392Y24372995D02*
X41882630Y24277756D01*
X41882630Y24277756D02*
X42073106Y24182518D01*
X42073106Y24182518D02*
X42835011Y24182518D01*
X41311202Y23039661D02*
X39787392Y23039661D01*
X39501677Y24563471D02*
X39120725Y23230137D01*
X39120725Y23230137D02*
X38739772Y24182518D01*
X38739772Y24182518D02*
X38358820Y23230137D01*
X38358820Y23230137D02*
X37977868Y24563471D01*
X37215963Y23230137D02*
X37215963Y24563471D01*
X37215963Y25230137D02*
X37311201Y25134899D01*
X37311201Y25134899D02*
X37215963Y25039661D01*
X37215963Y25039661D02*
X37120725Y25134899D01*
X37120725Y25134899D02*
X37215963Y25230137D01*
X37215963Y25230137D02*
X37215963Y25039661D01*
X36549296Y24563471D02*
X35787392Y24563471D01*
X36263582Y25230137D02*
X36263582Y23515852D01*
X36263582Y23515852D02*
X36168344Y23325376D01*
X36168344Y23325376D02*
X35977868Y23230137D01*
X35977868Y23230137D02*
X35787392Y23230137D01*
X35120725Y23230137D02*
X35120725Y25230137D01*
X34263582Y23230137D02*
X34263582Y24277756D01*
X34263582Y24277756D02*
X34358820Y24468233D01*
X34358820Y24468233D02*
X34549296Y24563471D01*
X34549296Y24563471D02*
X34835011Y24563471D01*
X34835011Y24563471D02*
X35025487Y24468233D01*
X35025487Y24468233D02*
X35120725Y24372995D01*
X33787392Y23039661D02*
X32263582Y23039661D01*
X32073105Y24563471D02*
X31311201Y24563471D01*
X31787391Y25230137D02*
X31787391Y23515852D01*
X31787391Y23515852D02*
X31692153Y23325376D01*
X31692153Y23325376D02*
X31501677Y23230137D01*
X31501677Y23230137D02*
X31311201Y23230137D01*
X30644534Y23230137D02*
X30644534Y24563471D01*
X30644534Y24182518D02*
X30549296Y24372995D01*
X30549296Y24372995D02*
X30454058Y24468233D01*
X30454058Y24468233D02*
X30263582Y24563471D01*
X30263582Y24563471D02*
X30073105Y24563471D01*
X28549296Y23230137D02*
X28549296Y24277756D01*
X28549296Y24277756D02*
X28644534Y24468233D01*
X28644534Y24468233D02*
X28835010Y24563471D01*
X28835010Y24563471D02*
X29215963Y24563471D01*
X29215963Y24563471D02*
X29406439Y24468233D01*
X28549296Y23325376D02*
X28739772Y23230137D01*
X28739772Y23230137D02*
X29215963Y23230137D01*
X29215963Y23230137D02*
X29406439Y23325376D01*
X29406439Y23325376D02*
X29501677Y23515852D01*
X29501677Y23515852D02*
X29501677Y23706328D01*
X29501677Y23706328D02*
X29406439Y23896804D01*
X29406439Y23896804D02*
X29215963Y23992042D01*
X29215963Y23992042D02*
X28739772Y23992042D01*
X28739772Y23992042D02*
X28549296Y24087280D01*
X26739772Y23325376D02*
X26930248Y23230137D01*
X26930248Y23230137D02*
X27311201Y23230137D01*
X27311201Y23230137D02*
X27501677Y23325376D01*
X27501677Y23325376D02*
X27596915Y23420614D01*
X27596915Y23420614D02*
X27692153Y23611090D01*
X27692153Y23611090D02*
X27692153Y24182518D01*
X27692153Y24182518D02*
X27596915Y24372995D01*
X27596915Y24372995D02*
X27501677Y24468233D01*
X27501677Y24468233D02*
X27311201Y24563471D01*
X27311201Y24563471D02*
X26930248Y24563471D01*
X26930248Y24563471D02*
X26739772Y24468233D01*
X25882629Y23230137D02*
X25882629Y25230137D01*
X25692153Y23992042D02*
X25120724Y23230137D01*
X25120724Y24563471D02*
X25882629Y23801566D01*
X24263581Y23230137D02*
X24263581Y25230137D01*
X24263581Y24468233D02*
X24073105Y24563471D01*
X24073105Y24563471D02*
X23692152Y24563471D01*
X23692152Y24563471D02*
X23501676Y24468233D01*
X23501676Y24468233D02*
X23406438Y24372995D01*
X23406438Y24372995D02*
X23311200Y24182518D01*
X23311200Y24182518D02*
X23311200Y23611090D01*
X23311200Y23611090D02*
X23406438Y23420614D01*
X23406438Y23420614D02*
X23501676Y23325376D01*
X23501676Y23325376D02*
X23692152Y23230137D01*
X23692152Y23230137D02*
X24073105Y23230137D01*
X24073105Y23230137D02*
X24263581Y23325376D01*
X21596914Y23230137D02*
X21596914Y24277756D01*
X21596914Y24277756D02*
X21692152Y24468233D01*
X21692152Y24468233D02*
X21882628Y24563471D01*
X21882628Y24563471D02*
X22263581Y24563471D01*
X22263581Y24563471D02*
X22454057Y24468233D01*
X21596914Y23325376D02*
X21787390Y23230137D01*
X21787390Y23230137D02*
X22263581Y23230137D01*
X22263581Y23230137D02*
X22454057Y23325376D01*
X22454057Y23325376D02*
X22549295Y23515852D01*
X22549295Y23515852D02*
X22549295Y23706328D01*
X22549295Y23706328D02*
X22454057Y23896804D01*
X22454057Y23896804D02*
X22263581Y23992042D01*
X22263581Y23992042D02*
X21787390Y23992042D01*
X21787390Y23992042D02*
X21596914Y24087280D01*
X20358819Y23230137D02*
X20549295Y23325376D01*
X20549295Y23325376D02*
X20644533Y23515852D01*
X20644533Y23515852D02*
X20644533Y25230137D01*
X19311200Y23230137D02*
X19501676Y23325376D01*
X19501676Y23325376D02*
X19596914Y23515852D01*
X19596914Y23515852D02*
X19596914Y25230137D01*
X19025486Y23039661D02*
X17501676Y23039661D01*
X17025485Y24563471D02*
X17025485Y22563471D01*
X17025485Y24468233D02*
X16835009Y24563471D01*
X16835009Y24563471D02*
X16454056Y24563471D01*
X16454056Y24563471D02*
X16263580Y24468233D01*
X16263580Y24468233D02*
X16168342Y24372995D01*
X16168342Y24372995D02*
X16073104Y24182518D01*
X16073104Y24182518D02*
X16073104Y23611090D01*
X16073104Y23611090D02*
X16168342Y23420614D01*
X16168342Y23420614D02*
X16263580Y23325376D01*
X16263580Y23325376D02*
X16454056Y23230137D01*
X16454056Y23230137D02*
X16835009Y23230137D01*
X16835009Y23230137D02*
X17025485Y23325376D01*
X14358818Y23325376D02*
X14549294Y23230137D01*
X14549294Y23230137D02*
X14930247Y23230137D01*
X14930247Y23230137D02*
X15120723Y23325376D01*
X15120723Y23325376D02*
X15215961Y23420614D01*
X15215961Y23420614D02*
X15311199Y23611090D01*
X15311199Y23611090D02*
X15311199Y24182518D01*
X15311199Y24182518D02*
X15215961Y24372995D01*
X15215961Y24372995D02*
X15120723Y24468233D01*
X15120723Y24468233D02*
X14930247Y24563471D01*
X14930247Y24563471D02*
X14549294Y24563471D01*
X14549294Y24563471D02*
X14358818Y24468233D01*
X13501675Y23230137D02*
X13501675Y25230137D01*
X13501675Y24468233D02*
X13311199Y24563471D01*
X13311199Y24563471D02*
X12930246Y24563471D01*
X12930246Y24563471D02*
X12739770Y24468233D01*
X12739770Y24468233D02*
X12644532Y24372995D01*
X12644532Y24372995D02*
X12549294Y24182518D01*
X12549294Y24182518D02*
X12549294Y23611090D01*
X12549294Y23611090D02*
X12644532Y23420614D01*
X12644532Y23420614D02*
X12739770Y23325376D01*
X12739770Y23325376D02*
X12930246Y23230137D01*
X12930246Y23230137D02*
X13311199Y23230137D01*
X13311199Y23230137D02*
X13501675Y23325376D01*
X58549298Y20010249D02*
X58549298Y22010249D01*
X58549298Y20105488D02*
X58739774Y20010249D01*
X58739774Y20010249D02*
X59120727Y20010249D01*
X59120727Y20010249D02*
X59311203Y20105488D01*
X59311203Y20105488D02*
X59406441Y20200726D01*
X59406441Y20200726D02*
X59501679Y20391202D01*
X59501679Y20391202D02*
X59501679Y20962630D01*
X59501679Y20962630D02*
X59406441Y21153107D01*
X59406441Y21153107D02*
X59311203Y21248345D01*
X59311203Y21248345D02*
X59120727Y21343583D01*
X59120727Y21343583D02*
X58739774Y21343583D01*
X58739774Y21343583D02*
X58549298Y21248345D01*
X56835012Y20105488D02*
X57025488Y20010249D01*
X57025488Y20010249D02*
X57406441Y20010249D01*
X57406441Y20010249D02*
X57596917Y20105488D01*
X57596917Y20105488D02*
X57692155Y20295964D01*
X57692155Y20295964D02*
X57692155Y21057868D01*
X57692155Y21057868D02*
X57596917Y21248345D01*
X57596917Y21248345D02*
X57406441Y21343583D01*
X57406441Y21343583D02*
X57025488Y21343583D01*
X57025488Y21343583D02*
X56835012Y21248345D01*
X56835012Y21248345D02*
X56739774Y21057868D01*
X56739774Y21057868D02*
X56739774Y20867392D01*
X56739774Y20867392D02*
X57692155Y20676916D01*
X55977869Y20105488D02*
X55787393Y20010249D01*
X55787393Y20010249D02*
X55406441Y20010249D01*
X55406441Y20010249D02*
X55215964Y20105488D01*
X55215964Y20105488D02*
X55120726Y20295964D01*
X55120726Y20295964D02*
X55120726Y20391202D01*
X55120726Y20391202D02*
X55215964Y20581678D01*
X55215964Y20581678D02*
X55406441Y20676916D01*
X55406441Y20676916D02*
X55692155Y20676916D01*
X55692155Y20676916D02*
X55882631Y20772154D01*
X55882631Y20772154D02*
X55977869Y20962630D01*
X55977869Y20962630D02*
X55977869Y21057868D01*
X55977869Y21057868D02*
X55882631Y21248345D01*
X55882631Y21248345D02*
X55692155Y21343583D01*
X55692155Y21343583D02*
X55406441Y21343583D01*
X55406441Y21343583D02*
X55215964Y21248345D01*
X54263583Y20010249D02*
X54263583Y21343583D01*
X54263583Y22010249D02*
X54358821Y21915011D01*
X54358821Y21915011D02*
X54263583Y21819773D01*
X54263583Y21819773D02*
X54168345Y21915011D01*
X54168345Y21915011D02*
X54263583Y22010249D01*
X54263583Y22010249D02*
X54263583Y21819773D01*
X52454059Y21343583D02*
X52454059Y19724535D01*
X52454059Y19724535D02*
X52549297Y19534059D01*
X52549297Y19534059D02*
X52644535Y19438821D01*
X52644535Y19438821D02*
X52835012Y19343583D01*
X52835012Y19343583D02*
X53120726Y19343583D01*
X53120726Y19343583D02*
X53311202Y19438821D01*
X52454059Y20105488D02*
X52644535Y20010249D01*
X52644535Y20010249D02*
X53025488Y20010249D01*
X53025488Y20010249D02*
X53215964Y20105488D01*
X53215964Y20105488D02*
X53311202Y20200726D01*
X53311202Y20200726D02*
X53406440Y20391202D01*
X53406440Y20391202D02*
X53406440Y20962630D01*
X53406440Y20962630D02*
X53311202Y21153107D01*
X53311202Y21153107D02*
X53215964Y21248345D01*
X53215964Y21248345D02*
X53025488Y21343583D01*
X53025488Y21343583D02*
X52644535Y21343583D01*
X52644535Y21343583D02*
X52454059Y21248345D01*
X51501678Y21343583D02*
X51501678Y20010249D01*
X51501678Y21153107D02*
X51406440Y21248345D01*
X51406440Y21248345D02*
X51215964Y21343583D01*
X51215964Y21343583D02*
X50930249Y21343583D01*
X50930249Y21343583D02*
X50739773Y21248345D01*
X50739773Y21248345D02*
X50644535Y21057868D01*
X50644535Y21057868D02*
X50644535Y20010249D01*
X48930249Y20105488D02*
X49120725Y20010249D01*
X49120725Y20010249D02*
X49501678Y20010249D01*
X49501678Y20010249D02*
X49692154Y20105488D01*
X49692154Y20105488D02*
X49787392Y20295964D01*
X49787392Y20295964D02*
X49787392Y21057868D01*
X49787392Y21057868D02*
X49692154Y21248345D01*
X49692154Y21248345D02*
X49501678Y21343583D01*
X49501678Y21343583D02*
X49120725Y21343583D01*
X49120725Y21343583D02*
X48930249Y21248345D01*
X48930249Y21248345D02*
X48835011Y21057868D01*
X48835011Y21057868D02*
X48835011Y20867392D01*
X48835011Y20867392D02*
X49787392Y20676916D01*
X47120725Y20010249D02*
X47120725Y22010249D01*
X47120725Y20105488D02*
X47311201Y20010249D01*
X47311201Y20010249D02*
X47692154Y20010249D01*
X47692154Y20010249D02*
X47882630Y20105488D01*
X47882630Y20105488D02*
X47977868Y20200726D01*
X47977868Y20200726D02*
X48073106Y20391202D01*
X48073106Y20391202D02*
X48073106Y20962630D01*
X48073106Y20962630D02*
X47977868Y21153107D01*
X47977868Y21153107D02*
X47882630Y21248345D01*
X47882630Y21248345D02*
X47692154Y21343583D01*
X47692154Y21343583D02*
X47311201Y21343583D01*
X47311201Y21343583D02*
X47120725Y21248345D01*
X44644534Y20010249D02*
X44644534Y22010249D01*
X44644534Y21248345D02*
X44454058Y21343583D01*
X44454058Y21343583D02*
X44073105Y21343583D01*
X44073105Y21343583D02*
X43882629Y21248345D01*
X43882629Y21248345D02*
X43787391Y21153107D01*
X43787391Y21153107D02*
X43692153Y20962630D01*
X43692153Y20962630D02*
X43692153Y20391202D01*
X43692153Y20391202D02*
X43787391Y20200726D01*
X43787391Y20200726D02*
X43882629Y20105488D01*
X43882629Y20105488D02*
X44073105Y20010249D01*
X44073105Y20010249D02*
X44454058Y20010249D01*
X44454058Y20010249D02*
X44644534Y20105488D01*
X43025486Y21343583D02*
X42549296Y20010249D01*
X42073105Y21343583D02*
X42549296Y20010249D01*
X42549296Y20010249D02*
X42739772Y19534059D01*
X42739772Y19534059D02*
X42835010Y19438821D01*
X42835010Y19438821D02*
X43025486Y19343583D01*
X39787390Y20010249D02*
X39787390Y21343583D01*
X39787390Y21153107D02*
X39692152Y21248345D01*
X39692152Y21248345D02*
X39501676Y21343583D01*
X39501676Y21343583D02*
X39215961Y21343583D01*
X39215961Y21343583D02*
X39025485Y21248345D01*
X39025485Y21248345D02*
X38930247Y21057868D01*
X38930247Y21057868D02*
X38930247Y20010249D01*
X38930247Y21057868D02*
X38835009Y21248345D01*
X38835009Y21248345D02*
X38644533Y21343583D01*
X38644533Y21343583D02*
X38358819Y21343583D01*
X38358819Y21343583D02*
X38168342Y21248345D01*
X38168342Y21248345D02*
X38073104Y21057868D01*
X38073104Y21057868D02*
X38073104Y20010249D01*
X37120723Y20200726D02*
X37025485Y20105488D01*
X37025485Y20105488D02*
X37120723Y20010249D01*
X37120723Y20010249D02*
X37215961Y20105488D01*
X37215961Y20105488D02*
X37120723Y20200726D01*
X37120723Y20200726D02*
X37120723Y20010249D01*
X36168342Y20010249D02*
X36168342Y22010249D01*
X35977866Y20772154D02*
X35406437Y20010249D01*
X35406437Y21343583D02*
X36168342Y20581678D01*
X34549294Y20010249D02*
X34549294Y21343583D01*
X34549294Y22010249D02*
X34644532Y21915011D01*
X34644532Y21915011D02*
X34549294Y21819773D01*
X34549294Y21819773D02*
X34454056Y21915011D01*
X34454056Y21915011D02*
X34549294Y22010249D01*
X34549294Y22010249D02*
X34549294Y21819773D01*
X59596917Y18123695D02*
X59120727Y16790361D01*
X59120727Y16790361D02*
X58644536Y18123695D01*
X57120726Y16885600D02*
X57311202Y16790361D01*
X57311202Y16790361D02*
X57692155Y16790361D01*
X57692155Y16790361D02*
X57882631Y16885600D01*
X57882631Y16885600D02*
X57977869Y17076076D01*
X57977869Y17076076D02*
X57977869Y17837980D01*
X57977869Y17837980D02*
X57882631Y18028457D01*
X57882631Y18028457D02*
X57692155Y18123695D01*
X57692155Y18123695D02*
X57311202Y18123695D01*
X57311202Y18123695D02*
X57120726Y18028457D01*
X57120726Y18028457D02*
X57025488Y17837980D01*
X57025488Y17837980D02*
X57025488Y17647504D01*
X57025488Y17647504D02*
X57977869Y17457028D01*
X56168345Y16790361D02*
X56168345Y18123695D01*
X56168345Y17742742D02*
X56073107Y17933219D01*
X56073107Y17933219D02*
X55977869Y18028457D01*
X55977869Y18028457D02*
X55787393Y18123695D01*
X55787393Y18123695D02*
X55596916Y18123695D01*
X54930250Y16980838D02*
X54835012Y16885600D01*
X54835012Y16885600D02*
X54930250Y16790361D01*
X54930250Y16790361D02*
X55025488Y16885600D01*
X55025488Y16885600D02*
X54930250Y16980838D01*
X54930250Y16980838D02*
X54930250Y16790361D01*
X52930250Y16790361D02*
X54073107Y16790361D01*
X53501679Y16790361D02*
X53501679Y18790361D01*
X53501679Y18790361D02*
X53692155Y18504647D01*
X53692155Y18504647D02*
X53882631Y18314171D01*
X53882631Y18314171D02*
X54073107Y18218933D01*
X52073107Y16980838D02*
X51977869Y16885600D01*
X51977869Y16885600D02*
X52073107Y16790361D01*
X52073107Y16790361D02*
X52168345Y16885600D01*
X52168345Y16885600D02*
X52073107Y16980838D01*
X52073107Y16980838D02*
X52073107Y16790361D01*
X51215964Y18599885D02*
X51120726Y18695123D01*
X51120726Y18695123D02*
X50930250Y18790361D01*
X50930250Y18790361D02*
X50454059Y18790361D01*
X50454059Y18790361D02*
X50263583Y18695123D01*
X50263583Y18695123D02*
X50168345Y18599885D01*
X50168345Y18599885D02*
X50073107Y18409409D01*
X50073107Y18409409D02*
X50073107Y18218933D01*
X50073107Y18218933D02*
X50168345Y17933219D01*
X50168345Y17933219D02*
X51311202Y16790361D01*
X51311202Y16790361D02*
X50073107Y16790361D01*
X46835011Y16790361D02*
X46835011Y18790361D01*
X46835011Y16885600D02*
X47025487Y16790361D01*
X47025487Y16790361D02*
X47406440Y16790361D01*
X47406440Y16790361D02*
X47596916Y16885600D01*
X47596916Y16885600D02*
X47692154Y16980838D01*
X47692154Y16980838D02*
X47787392Y17171314D01*
X47787392Y17171314D02*
X47787392Y17742742D01*
X47787392Y17742742D02*
X47692154Y17933219D01*
X47692154Y17933219D02*
X47596916Y18028457D01*
X47596916Y18028457D02*
X47406440Y18123695D01*
X47406440Y18123695D02*
X47025487Y18123695D01*
X47025487Y18123695D02*
X46835011Y18028457D01*
X45025487Y16790361D02*
X45025487Y17837980D01*
X45025487Y17837980D02*
X45120725Y18028457D01*
X45120725Y18028457D02*
X45311201Y18123695D01*
X45311201Y18123695D02*
X45692154Y18123695D01*
X45692154Y18123695D02*
X45882630Y18028457D01*
X45025487Y16885600D02*
X45215963Y16790361D01*
X45215963Y16790361D02*
X45692154Y16790361D01*
X45692154Y16790361D02*
X45882630Y16885600D01*
X45882630Y16885600D02*
X45977868Y17076076D01*
X45977868Y17076076D02*
X45977868Y17266552D01*
X45977868Y17266552D02*
X45882630Y17457028D01*
X45882630Y17457028D02*
X45692154Y17552266D01*
X45692154Y17552266D02*
X45215963Y17552266D01*
X45215963Y17552266D02*
X45025487Y17647504D01*
X44358820Y18123695D02*
X43596916Y18123695D01*
X44073106Y18790361D02*
X44073106Y17076076D01*
X44073106Y17076076D02*
X43977868Y16885600D01*
X43977868Y16885600D02*
X43787392Y16790361D01*
X43787392Y16790361D02*
X43596916Y16790361D01*
X42073106Y16790361D02*
X42073106Y17837980D01*
X42073106Y17837980D02*
X42168344Y18028457D01*
X42168344Y18028457D02*
X42358820Y18123695D01*
X42358820Y18123695D02*
X42739773Y18123695D01*
X42739773Y18123695D02*
X42930249Y18028457D01*
X42073106Y16885600D02*
X42263582Y16790361D01*
X42263582Y16790361D02*
X42739773Y16790361D01*
X42739773Y16790361D02*
X42930249Y16885600D01*
X42930249Y16885600D02*
X43025487Y17076076D01*
X43025487Y17076076D02*
X43025487Y17266552D01*
X43025487Y17266552D02*
X42930249Y17457028D01*
X42930249Y17457028D02*
X42739773Y17552266D01*
X42739773Y17552266D02*
X42263582Y17552266D01*
X42263582Y17552266D02*
X42073106Y17647504D01*
X41215963Y18599885D02*
X41120725Y18695123D01*
X41120725Y18695123D02*
X40930249Y18790361D01*
X40930249Y18790361D02*
X40454058Y18790361D01*
X40454058Y18790361D02*
X40263582Y18695123D01*
X40263582Y18695123D02*
X40168344Y18599885D01*
X40168344Y18599885D02*
X40073106Y18409409D01*
X40073106Y18409409D02*
X40073106Y18218933D01*
X40073106Y18218933D02*
X40168344Y17933219D01*
X40168344Y17933219D02*
X41311201Y16790361D01*
X41311201Y16790361D02*
X40073106Y16790361D01*
X38835011Y18790361D02*
X38644534Y18790361D01*
X38644534Y18790361D02*
X38454058Y18695123D01*
X38454058Y18695123D02*
X38358820Y18599885D01*
X38358820Y18599885D02*
X38263582Y18409409D01*
X38263582Y18409409D02*
X38168344Y18028457D01*
X38168344Y18028457D02*
X38168344Y17552266D01*
X38168344Y17552266D02*
X38263582Y17171314D01*
X38263582Y17171314D02*
X38358820Y16980838D01*
X38358820Y16980838D02*
X38454058Y16885600D01*
X38454058Y16885600D02*
X38644534Y16790361D01*
X38644534Y16790361D02*
X38835011Y16790361D01*
X38835011Y16790361D02*
X39025487Y16885600D01*
X39025487Y16885600D02*
X39120725Y16980838D01*
X39120725Y16980838D02*
X39215963Y17171314D01*
X39215963Y17171314D02*
X39311201Y17552266D01*
X39311201Y17552266D02*
X39311201Y18028457D01*
X39311201Y18028457D02*
X39215963Y18409409D01*
X39215963Y18409409D02*
X39120725Y18599885D01*
X39120725Y18599885D02*
X39025487Y18695123D01*
X39025487Y18695123D02*
X38835011Y18790361D01*
X37406439Y18599885D02*
X37311201Y18695123D01*
X37311201Y18695123D02*
X37120725Y18790361D01*
X37120725Y18790361D02*
X36644534Y18790361D01*
X36644534Y18790361D02*
X36454058Y18695123D01*
X36454058Y18695123D02*
X36358820Y18599885D01*
X36358820Y18599885D02*
X36263582Y18409409D01*
X36263582Y18409409D02*
X36263582Y18218933D01*
X36263582Y18218933D02*
X36358820Y17933219D01*
X36358820Y17933219D02*
X37501677Y16790361D01*
X37501677Y16790361D02*
X36263582Y16790361D01*
X34454058Y18790361D02*
X35406439Y18790361D01*
X35406439Y18790361D02*
X35501677Y17837980D01*
X35501677Y17837980D02*
X35406439Y17933219D01*
X35406439Y17933219D02*
X35215963Y18028457D01*
X35215963Y18028457D02*
X34739772Y18028457D01*
X34739772Y18028457D02*
X34549296Y17933219D01*
X34549296Y17933219D02*
X34454058Y17837980D01*
X34454058Y17837980D02*
X34358820Y17647504D01*
X34358820Y17647504D02*
X34358820Y17171314D01*
X34358820Y17171314D02*
X34454058Y16980838D01*
X34454058Y16980838D02*
X34549296Y16885600D01*
X34549296Y16885600D02*
X34739772Y16790361D01*
X34739772Y16790361D02*
X35215963Y16790361D01*
X35215963Y16790361D02*
X35406439Y16885600D01*
X35406439Y16885600D02*
X35501677Y16980838D01*
X33120725Y18790361D02*
X32930248Y18790361D01*
X32930248Y18790361D02*
X32739772Y18695123D01*
X32739772Y18695123D02*
X32644534Y18599885D01*
X32644534Y18599885D02*
X32549296Y18409409D01*
X32549296Y18409409D02*
X32454058Y18028457D01*
X32454058Y18028457D02*
X32454058Y17552266D01*
X32454058Y17552266D02*
X32549296Y17171314D01*
X32549296Y17171314D02*
X32644534Y16980838D01*
X32644534Y16980838D02*
X32739772Y16885600D01*
X32739772Y16885600D02*
X32930248Y16790361D01*
X32930248Y16790361D02*
X33120725Y16790361D01*
X33120725Y16790361D02*
X33311201Y16885600D01*
X33311201Y16885600D02*
X33406439Y16980838D01*
X33406439Y16980838D02*
X33501677Y17171314D01*
X33501677Y17171314D02*
X33596915Y17552266D01*
X33596915Y17552266D02*
X33596915Y18028457D01*
X33596915Y18028457D02*
X33501677Y18409409D01*
X33501677Y18409409D02*
X33406439Y18599885D01*
X33406439Y18599885D02*
X33311201Y18695123D01*
X33311201Y18695123D02*
X33120725Y18790361D01*
X31692153Y18599885D02*
X31596915Y18695123D01*
X31596915Y18695123D02*
X31406439Y18790361D01*
X31406439Y18790361D02*
X30930248Y18790361D01*
X30930248Y18790361D02*
X30739772Y18695123D01*
X30739772Y18695123D02*
X30644534Y18599885D01*
X30644534Y18599885D02*
X30549296Y18409409D01*
X30549296Y18409409D02*
X30549296Y18218933D01*
X30549296Y18218933D02*
X30644534Y17933219D01*
X30644534Y17933219D02*
X31787391Y16790361D01*
X31787391Y16790361D02*
X30549296Y16790361D01*
X29787391Y18599885D02*
X29692153Y18695123D01*
X29692153Y18695123D02*
X29501677Y18790361D01*
X29501677Y18790361D02*
X29025486Y18790361D01*
X29025486Y18790361D02*
X28835010Y18695123D01*
X28835010Y18695123D02*
X28739772Y18599885D01*
X28739772Y18599885D02*
X28644534Y18409409D01*
X28644534Y18409409D02*
X28644534Y18218933D01*
X28644534Y18218933D02*
X28739772Y17933219D01*
X28739772Y17933219D02*
X29882629Y16790361D01*
X29882629Y16790361D02*
X28644534Y16790361D01*
X27501677Y17933219D02*
X27692153Y18028457D01*
X27692153Y18028457D02*
X27787391Y18123695D01*
X27787391Y18123695D02*
X27882629Y18314171D01*
X27882629Y18314171D02*
X27882629Y18409409D01*
X27882629Y18409409D02*
X27787391Y18599885D01*
X27787391Y18599885D02*
X27692153Y18695123D01*
X27692153Y18695123D02*
X27501677Y18790361D01*
X27501677Y18790361D02*
X27120724Y18790361D01*
X27120724Y18790361D02*
X26930248Y18695123D01*
X26930248Y18695123D02*
X26835010Y18599885D01*
X26835010Y18599885D02*
X26739772Y18409409D01*
X26739772Y18409409D02*
X26739772Y18314171D01*
X26739772Y18314171D02*
X26835010Y18123695D01*
X26835010Y18123695D02*
X26930248Y18028457D01*
X26930248Y18028457D02*
X27120724Y17933219D01*
X27120724Y17933219D02*
X27501677Y17933219D01*
X27501677Y17933219D02*
X27692153Y17837980D01*
X27692153Y17837980D02*
X27787391Y17742742D01*
X27787391Y17742742D02*
X27882629Y17552266D01*
X27882629Y17552266D02*
X27882629Y17171314D01*
X27882629Y17171314D02*
X27787391Y16980838D01*
X27787391Y16980838D02*
X27692153Y16885600D01*
X27692153Y16885600D02*
X27501677Y16790361D01*
X27501677Y16790361D02*
X27120724Y16790361D01*
X27120724Y16790361D02*
X26930248Y16885600D01*
X26930248Y16885600D02*
X26835010Y16980838D01*
X26835010Y16980838D02*
X26739772Y17171314D01*
X26739772Y17171314D02*
X26739772Y17552266D01*
X26739772Y17552266D02*
X26835010Y17742742D01*
X26835010Y17742742D02*
X26930248Y17837980D01*
X26930248Y17837980D02*
X27120724Y17933219D01*
D11*
X44623169Y-57722512D02*
X45123169Y-57722512D01*
X44646978Y-57722512D02*
X44623169Y-57770131D01*
X44623169Y-57770131D02*
X44623169Y-57865369D01*
X44623169Y-57865369D02*
X44646978Y-57912988D01*
X44646978Y-57912988D02*
X44670788Y-57936798D01*
X44670788Y-57936798D02*
X44718407Y-57960607D01*
X44718407Y-57960607D02*
X44861264Y-57960607D01*
X44861264Y-57960607D02*
X44908883Y-57936798D01*
X44908883Y-57936798D02*
X44932693Y-57912988D01*
X44932693Y-57912988D02*
X44956502Y-57865369D01*
X44956502Y-57865369D02*
X44956502Y-57770131D01*
X44956502Y-57770131D02*
X44932693Y-57722512D01*
X44956502Y-58174893D02*
X44623169Y-58174893D01*
X44670788Y-58174893D02*
X44646978Y-58198703D01*
X44646978Y-58198703D02*
X44623169Y-58246322D01*
X44623169Y-58246322D02*
X44623169Y-58317750D01*
X44623169Y-58317750D02*
X44646978Y-58365369D01*
X44646978Y-58365369D02*
X44694597Y-58389179D01*
X44694597Y-58389179D02*
X44956502Y-58389179D01*
X44694597Y-58389179D02*
X44646978Y-58412988D01*
X44646978Y-58412988D02*
X44623169Y-58460607D01*
X44623169Y-58460607D02*
X44623169Y-58532036D01*
X44623169Y-58532036D02*
X44646978Y-58579655D01*
X44646978Y-58579655D02*
X44694597Y-58603465D01*
X44694597Y-58603465D02*
X44956502Y-58603465D01*
X44623169Y-58793941D02*
X44956502Y-58889179D01*
X44956502Y-58889179D02*
X44718407Y-58984417D01*
X44718407Y-58984417D02*
X44956502Y-59079655D01*
X44956502Y-59079655D02*
X44623169Y-59174893D01*
X44456502Y-59317751D02*
X44456502Y-59627275D01*
X44456502Y-59627275D02*
X44646978Y-59460608D01*
X44646978Y-59460608D02*
X44646978Y-59532037D01*
X44646978Y-59532037D02*
X44670788Y-59579656D01*
X44670788Y-59579656D02*
X44694597Y-59603465D01*
X44694597Y-59603465D02*
X44742216Y-59627275D01*
X44742216Y-59627275D02*
X44861264Y-59627275D01*
X44861264Y-59627275D02*
X44908883Y-59603465D01*
X44908883Y-59603465D02*
X44932693Y-59579656D01*
X44932693Y-59579656D02*
X44956502Y-59532037D01*
X44956502Y-59532037D02*
X44956502Y-59389180D01*
X44956502Y-59389180D02*
X44932693Y-59341561D01*
X44932693Y-59341561D02*
X44908883Y-59317751D01*
X44456502Y-60055846D02*
X44456502Y-59960608D01*
X44456502Y-59960608D02*
X44480312Y-59912989D01*
X44480312Y-59912989D02*
X44504121Y-59889179D01*
X44504121Y-59889179D02*
X44575550Y-59841560D01*
X44575550Y-59841560D02*
X44670788Y-59817751D01*
X44670788Y-59817751D02*
X44861264Y-59817751D01*
X44861264Y-59817751D02*
X44908883Y-59841560D01*
X44908883Y-59841560D02*
X44932693Y-59865370D01*
X44932693Y-59865370D02*
X44956502Y-59912989D01*
X44956502Y-59912989D02*
X44956502Y-60008227D01*
X44956502Y-60008227D02*
X44932693Y-60055846D01*
X44932693Y-60055846D02*
X44908883Y-60079655D01*
X44908883Y-60079655D02*
X44861264Y-60103465D01*
X44861264Y-60103465D02*
X44742216Y-60103465D01*
X44742216Y-60103465D02*
X44694597Y-60079655D01*
X44694597Y-60079655D02*
X44670788Y-60055846D01*
X44670788Y-60055846D02*
X44646978Y-60008227D01*
X44646978Y-60008227D02*
X44646978Y-59912989D01*
X44646978Y-59912989D02*
X44670788Y-59865370D01*
X44670788Y-59865370D02*
X44694597Y-59841560D01*
X44694597Y-59841560D02*
X44742216Y-59817751D01*
X44956502Y-60579655D02*
X44956502Y-60293941D01*
X44956502Y-60436798D02*
X44456502Y-60436798D01*
X44456502Y-60436798D02*
X44527931Y-60389179D01*
X44527931Y-60389179D02*
X44575550Y-60341560D01*
X44575550Y-60341560D02*
X44599359Y-60293941D01*
X44456502Y-60889178D02*
X44456502Y-60936797D01*
X44456502Y-60936797D02*
X44480312Y-60984416D01*
X44480312Y-60984416D02*
X44504121Y-61008226D01*
X44504121Y-61008226D02*
X44551740Y-61032035D01*
X44551740Y-61032035D02*
X44646978Y-61055845D01*
X44646978Y-61055845D02*
X44766026Y-61055845D01*
X44766026Y-61055845D02*
X44861264Y-61032035D01*
X44861264Y-61032035D02*
X44908883Y-61008226D01*
X44908883Y-61008226D02*
X44932693Y-60984416D01*
X44932693Y-60984416D02*
X44956502Y-60936797D01*
X44956502Y-60936797D02*
X44956502Y-60889178D01*
X44956502Y-60889178D02*
X44932693Y-60841559D01*
X44932693Y-60841559D02*
X44908883Y-60817750D01*
X44908883Y-60817750D02*
X44861264Y-60793940D01*
X44861264Y-60793940D02*
X44766026Y-60770131D01*
X44766026Y-60770131D02*
X44646978Y-60770131D01*
X44646978Y-60770131D02*
X44551740Y-60793940D01*
X44551740Y-60793940D02*
X44504121Y-60817750D01*
X44504121Y-60817750D02*
X44480312Y-60841559D01*
X44480312Y-60841559D02*
X44456502Y-60889178D01*
X44956502Y-61651082D02*
X44623169Y-61651082D01*
X44670788Y-61651082D02*
X44646978Y-61674892D01*
X44646978Y-61674892D02*
X44623169Y-61722511D01*
X44623169Y-61722511D02*
X44623169Y-61793939D01*
X44623169Y-61793939D02*
X44646978Y-61841558D01*
X44646978Y-61841558D02*
X44694597Y-61865368D01*
X44694597Y-61865368D02*
X44956502Y-61865368D01*
X44694597Y-61865368D02*
X44646978Y-61889177D01*
X44646978Y-61889177D02*
X44623169Y-61936796D01*
X44623169Y-61936796D02*
X44623169Y-62008225D01*
X44623169Y-62008225D02*
X44646978Y-62055844D01*
X44646978Y-62055844D02*
X44694597Y-62079654D01*
X44694597Y-62079654D02*
X44956502Y-62079654D01*
X44956502Y-62389178D02*
X44932693Y-62341559D01*
X44932693Y-62341559D02*
X44908883Y-62317749D01*
X44908883Y-62317749D02*
X44861264Y-62293940D01*
X44861264Y-62293940D02*
X44718407Y-62293940D01*
X44718407Y-62293940D02*
X44670788Y-62317749D01*
X44670788Y-62317749D02*
X44646978Y-62341559D01*
X44646978Y-62341559D02*
X44623169Y-62389178D01*
X44623169Y-62389178D02*
X44623169Y-62460606D01*
X44623169Y-62460606D02*
X44646978Y-62508225D01*
X44646978Y-62508225D02*
X44670788Y-62532035D01*
X44670788Y-62532035D02*
X44718407Y-62555844D01*
X44718407Y-62555844D02*
X44861264Y-62555844D01*
X44861264Y-62555844D02*
X44908883Y-62532035D01*
X44908883Y-62532035D02*
X44932693Y-62508225D01*
X44932693Y-62508225D02*
X44956502Y-62460606D01*
X44956502Y-62460606D02*
X44956502Y-62389178D01*
X44956502Y-62984416D02*
X44456502Y-62984416D01*
X44932693Y-62984416D02*
X44956502Y-62936797D01*
X44956502Y-62936797D02*
X44956502Y-62841559D01*
X44956502Y-62841559D02*
X44932693Y-62793940D01*
X44932693Y-62793940D02*
X44908883Y-62770130D01*
X44908883Y-62770130D02*
X44861264Y-62746321D01*
X44861264Y-62746321D02*
X44718407Y-62746321D01*
X44718407Y-62746321D02*
X44670788Y-62770130D01*
X44670788Y-62770130D02*
X44646978Y-62793940D01*
X44646978Y-62793940D02*
X44623169Y-62841559D01*
X44623169Y-62841559D02*
X44623169Y-62936797D01*
X44623169Y-62936797D02*
X44646978Y-62984416D01*
X44623169Y-63436797D02*
X44956502Y-63436797D01*
X44623169Y-63222511D02*
X44885073Y-63222511D01*
X44885073Y-63222511D02*
X44932693Y-63246321D01*
X44932693Y-63246321D02*
X44956502Y-63293940D01*
X44956502Y-63293940D02*
X44956502Y-63365368D01*
X44956502Y-63365368D02*
X44932693Y-63412987D01*
X44932693Y-63412987D02*
X44908883Y-63436797D01*
X44956502Y-63746321D02*
X44932693Y-63698702D01*
X44932693Y-63698702D02*
X44885073Y-63674892D01*
X44885073Y-63674892D02*
X44456502Y-63674892D01*
X44932693Y-64127273D02*
X44956502Y-64079654D01*
X44956502Y-64079654D02*
X44956502Y-63984416D01*
X44956502Y-63984416D02*
X44932693Y-63936797D01*
X44932693Y-63936797D02*
X44885073Y-63912988D01*
X44885073Y-63912988D02*
X44694597Y-63912988D01*
X44694597Y-63912988D02*
X44646978Y-63936797D01*
X44646978Y-63936797D02*
X44623169Y-63984416D01*
X44623169Y-63984416D02*
X44623169Y-64079654D01*
X44623169Y-64079654D02*
X44646978Y-64127273D01*
X44646978Y-64127273D02*
X44694597Y-64151083D01*
X44694597Y-64151083D02*
X44742216Y-64151083D01*
X44742216Y-64151083D02*
X44789835Y-63912988D01*
D10*
X38768382Y-51190007D02*
X39268382Y-51190007D01*
X39268382Y-51975721D02*
X39268382Y-50475721D01*
X39268382Y-50475721D02*
X38554096Y-50475721D01*
X37982668Y-51975721D02*
X37982668Y-50975721D01*
X37982668Y-51261435D02*
X37911239Y-51118578D01*
X37911239Y-51118578D02*
X37839811Y-51047150D01*
X37839811Y-51047150D02*
X37696953Y-50975721D01*
X37696953Y-50975721D02*
X37554096Y-50975721D01*
X36839811Y-51975721D02*
X36982668Y-51904293D01*
X36982668Y-51904293D02*
X37054097Y-51832864D01*
X37054097Y-51832864D02*
X37125525Y-51690007D01*
X37125525Y-51690007D02*
X37125525Y-51261435D01*
X37125525Y-51261435D02*
X37054097Y-51118578D01*
X37054097Y-51118578D02*
X36982668Y-51047150D01*
X36982668Y-51047150D02*
X36839811Y-50975721D01*
X36839811Y-50975721D02*
X36625525Y-50975721D01*
X36625525Y-50975721D02*
X36482668Y-51047150D01*
X36482668Y-51047150D02*
X36411240Y-51118578D01*
X36411240Y-51118578D02*
X36339811Y-51261435D01*
X36339811Y-51261435D02*
X36339811Y-51690007D01*
X36339811Y-51690007D02*
X36411240Y-51832864D01*
X36411240Y-51832864D02*
X36482668Y-51904293D01*
X36482668Y-51904293D02*
X36625525Y-51975721D01*
X36625525Y-51975721D02*
X36839811Y-51975721D01*
X35696954Y-50975721D02*
X35696954Y-51975721D01*
X35696954Y-51118578D02*
X35625525Y-51047150D01*
X35625525Y-51047150D02*
X35482668Y-50975721D01*
X35482668Y-50975721D02*
X35268382Y-50975721D01*
X35268382Y-50975721D02*
X35125525Y-51047150D01*
X35125525Y-51047150D02*
X35054097Y-51190007D01*
X35054097Y-51190007D02*
X35054097Y-51975721D01*
X34554096Y-50975721D02*
X33982668Y-50975721D01*
X34339811Y-50475721D02*
X34339811Y-51761435D01*
X34339811Y-51761435D02*
X34268382Y-51904293D01*
X34268382Y-51904293D02*
X34125525Y-51975721D01*
X34125525Y-51975721D02*
X33982668Y-51975721D01*
X32411239Y-51904293D02*
X32268382Y-51975721D01*
X32268382Y-51975721D02*
X31982668Y-51975721D01*
X31982668Y-51975721D02*
X31839811Y-51904293D01*
X31839811Y-51904293D02*
X31768382Y-51761435D01*
X31768382Y-51761435D02*
X31768382Y-51690007D01*
X31768382Y-51690007D02*
X31839811Y-51547150D01*
X31839811Y-51547150D02*
X31982668Y-51475721D01*
X31982668Y-51475721D02*
X32196954Y-51475721D01*
X32196954Y-51475721D02*
X32339811Y-51404293D01*
X32339811Y-51404293D02*
X32411239Y-51261435D01*
X32411239Y-51261435D02*
X32411239Y-51190007D01*
X32411239Y-51190007D02*
X32339811Y-51047150D01*
X32339811Y-51047150D02*
X32196954Y-50975721D01*
X32196954Y-50975721D02*
X31982668Y-50975721D01*
X31982668Y-50975721D02*
X31839811Y-51047150D01*
X31125525Y-51975721D02*
X31125525Y-50975721D01*
X31125525Y-50475721D02*
X31196953Y-50547150D01*
X31196953Y-50547150D02*
X31125525Y-50618578D01*
X31125525Y-50618578D02*
X31054096Y-50547150D01*
X31054096Y-50547150D02*
X31125525Y-50475721D01*
X31125525Y-50475721D02*
X31125525Y-50618578D01*
X29768382Y-51975721D02*
X29768382Y-50475721D01*
X29768382Y-51904293D02*
X29911239Y-51975721D01*
X29911239Y-51975721D02*
X30196953Y-51975721D01*
X30196953Y-51975721D02*
X30339810Y-51904293D01*
X30339810Y-51904293D02*
X30411239Y-51832864D01*
X30411239Y-51832864D02*
X30482667Y-51690007D01*
X30482667Y-51690007D02*
X30482667Y-51261435D01*
X30482667Y-51261435D02*
X30411239Y-51118578D01*
X30411239Y-51118578D02*
X30339810Y-51047150D01*
X30339810Y-51047150D02*
X30196953Y-50975721D01*
X30196953Y-50975721D02*
X29911239Y-50975721D01*
X29911239Y-50975721D02*
X29768382Y-51047150D01*
X28482667Y-51904293D02*
X28625524Y-51975721D01*
X28625524Y-51975721D02*
X28911239Y-51975721D01*
X28911239Y-51975721D02*
X29054096Y-51904293D01*
X29054096Y-51904293D02*
X29125524Y-51761435D01*
X29125524Y-51761435D02*
X29125524Y-51190007D01*
X29125524Y-51190007D02*
X29054096Y-51047150D01*
X29054096Y-51047150D02*
X28911239Y-50975721D01*
X28911239Y-50975721D02*
X28625524Y-50975721D01*
X28625524Y-50975721D02*
X28482667Y-51047150D01*
X28482667Y-51047150D02*
X28411239Y-51190007D01*
X28411239Y-51190007D02*
X28411239Y-51332864D01*
X28411239Y-51332864D02*
X29125524Y-51475721D01*
D12*
X23740475Y-31773595D02*
X23740475Y-30973595D01*
X23740475Y-30973595D02*
X23549999Y-30973595D01*
X23549999Y-30973595D02*
X23435713Y-31011690D01*
X23435713Y-31011690D02*
X23359523Y-31087880D01*
X23359523Y-31087880D02*
X23321428Y-31164071D01*
X23321428Y-31164071D02*
X23283332Y-31316452D01*
X23283332Y-31316452D02*
X23283332Y-31430738D01*
X23283332Y-31430738D02*
X23321428Y-31583119D01*
X23321428Y-31583119D02*
X23359523Y-31659309D01*
X23359523Y-31659309D02*
X23435713Y-31735500D01*
X23435713Y-31735500D02*
X23549999Y-31773595D01*
X23549999Y-31773595D02*
X23740475Y-31773595D01*
X23016666Y-30973595D02*
X22483332Y-30973595D01*
X22483332Y-30973595D02*
X22826190Y-31773595D01*
X43151428Y-31863595D02*
X43151428Y-31063595D01*
X43151428Y-31063595D02*
X42960952Y-31063595D01*
X42960952Y-31063595D02*
X42846666Y-31101690D01*
X42846666Y-31101690D02*
X42770476Y-31177880D01*
X42770476Y-31177880D02*
X42732381Y-31254071D01*
X42732381Y-31254071D02*
X42694285Y-31406452D01*
X42694285Y-31406452D02*
X42694285Y-31520738D01*
X42694285Y-31520738D02*
X42732381Y-31673119D01*
X42732381Y-31673119D02*
X42770476Y-31749309D01*
X42770476Y-31749309D02*
X42846666Y-31825500D01*
X42846666Y-31825500D02*
X42960952Y-31863595D01*
X42960952Y-31863595D02*
X43151428Y-31863595D01*
X41932381Y-31863595D02*
X42389524Y-31863595D01*
X42160952Y-31863595D02*
X42160952Y-31063595D01*
X42160952Y-31063595D02*
X42237143Y-31177880D01*
X42237143Y-31177880D02*
X42313333Y-31254071D01*
X42313333Y-31254071D02*
X42389524Y-31292166D01*
X41170476Y-31863595D02*
X41627619Y-31863595D01*
X41399047Y-31863595D02*
X41399047Y-31063595D01*
X41399047Y-31063595D02*
X41475238Y-31177880D01*
X41475238Y-31177880D02*
X41551428Y-31254071D01*
X41551428Y-31254071D02*
X41627619Y-31292166D01*
X79681428Y-50823595D02*
X79681428Y-50023595D01*
X79681428Y-50023595D02*
X79490952Y-50023595D01*
X79490952Y-50023595D02*
X79376666Y-50061690D01*
X79376666Y-50061690D02*
X79300476Y-50137880D01*
X79300476Y-50137880D02*
X79262381Y-50214071D01*
X79262381Y-50214071D02*
X79224285Y-50366452D01*
X79224285Y-50366452D02*
X79224285Y-50480738D01*
X79224285Y-50480738D02*
X79262381Y-50633119D01*
X79262381Y-50633119D02*
X79300476Y-50709309D01*
X79300476Y-50709309D02*
X79376666Y-50785500D01*
X79376666Y-50785500D02*
X79490952Y-50823595D01*
X79490952Y-50823595D02*
X79681428Y-50823595D01*
X78919524Y-50099785D02*
X78881428Y-50061690D01*
X78881428Y-50061690D02*
X78805238Y-50023595D01*
X78805238Y-50023595D02*
X78614762Y-50023595D01*
X78614762Y-50023595D02*
X78538571Y-50061690D01*
X78538571Y-50061690D02*
X78500476Y-50099785D01*
X78500476Y-50099785D02*
X78462381Y-50175976D01*
X78462381Y-50175976D02*
X78462381Y-50252166D01*
X78462381Y-50252166D02*
X78500476Y-50366452D01*
X78500476Y-50366452D02*
X78957619Y-50823595D01*
X78957619Y-50823595D02*
X78462381Y-50823595D01*
X77967142Y-50023595D02*
X77890952Y-50023595D01*
X77890952Y-50023595D02*
X77814761Y-50061690D01*
X77814761Y-50061690D02*
X77776666Y-50099785D01*
X77776666Y-50099785D02*
X77738571Y-50175976D01*
X77738571Y-50175976D02*
X77700476Y-50328357D01*
X77700476Y-50328357D02*
X77700476Y-50518833D01*
X77700476Y-50518833D02*
X77738571Y-50671214D01*
X77738571Y-50671214D02*
X77776666Y-50747404D01*
X77776666Y-50747404D02*
X77814761Y-50785500D01*
X77814761Y-50785500D02*
X77890952Y-50823595D01*
X77890952Y-50823595D02*
X77967142Y-50823595D01*
X77967142Y-50823595D02*
X78043333Y-50785500D01*
X78043333Y-50785500D02*
X78081428Y-50747404D01*
X78081428Y-50747404D02*
X78119523Y-50671214D01*
X78119523Y-50671214D02*
X78157619Y-50518833D01*
X78157619Y-50518833D02*
X78157619Y-50328357D01*
X78157619Y-50328357D02*
X78119523Y-50175976D01*
X78119523Y-50175976D02*
X78081428Y-50099785D01*
X78081428Y-50099785D02*
X78043333Y-50061690D01*
X78043333Y-50061690D02*
X77967142Y-50023595D01*
X62281428Y6376404D02*
X62281428Y7176404D01*
X62281428Y7176404D02*
X62090952Y7176404D01*
X62090952Y7176404D02*
X61976666Y7138309D01*
X61976666Y7138309D02*
X61900476Y7062119D01*
X61900476Y7062119D02*
X61862381Y6985928D01*
X61862381Y6985928D02*
X61824285Y6833547D01*
X61824285Y6833547D02*
X61824285Y6719261D01*
X61824285Y6719261D02*
X61862381Y6566880D01*
X61862381Y6566880D02*
X61900476Y6490690D01*
X61900476Y6490690D02*
X61976666Y6414500D01*
X61976666Y6414500D02*
X62090952Y6376404D01*
X62090952Y6376404D02*
X62281428Y6376404D01*
X61062381Y6376404D02*
X61519524Y6376404D01*
X61290952Y6376404D02*
X61290952Y7176404D01*
X61290952Y7176404D02*
X61367143Y7062119D01*
X61367143Y7062119D02*
X61443333Y6985928D01*
X61443333Y6985928D02*
X61519524Y6947833D01*
X60795714Y7176404D02*
X60300476Y7176404D01*
X60300476Y7176404D02*
X60567142Y6871642D01*
X60567142Y6871642D02*
X60452857Y6871642D01*
X60452857Y6871642D02*
X60376666Y6833547D01*
X60376666Y6833547D02*
X60338571Y6795452D01*
X60338571Y6795452D02*
X60300476Y6719261D01*
X60300476Y6719261D02*
X60300476Y6528785D01*
X60300476Y6528785D02*
X60338571Y6452595D01*
X60338571Y6452595D02*
X60376666Y6414500D01*
X60376666Y6414500D02*
X60452857Y6376404D01*
X60452857Y6376404D02*
X60681428Y6376404D01*
X60681428Y6376404D02*
X60757619Y6414500D01*
X60757619Y6414500D02*
X60795714Y6452595D01*
X62281428Y-31713595D02*
X62281428Y-30913595D01*
X62281428Y-30913595D02*
X62090952Y-30913595D01*
X62090952Y-30913595D02*
X61976666Y-30951690D01*
X61976666Y-30951690D02*
X61900476Y-31027880D01*
X61900476Y-31027880D02*
X61862381Y-31104071D01*
X61862381Y-31104071D02*
X61824285Y-31256452D01*
X61824285Y-31256452D02*
X61824285Y-31370738D01*
X61824285Y-31370738D02*
X61862381Y-31523119D01*
X61862381Y-31523119D02*
X61900476Y-31599309D01*
X61900476Y-31599309D02*
X61976666Y-31675500D01*
X61976666Y-31675500D02*
X62090952Y-31713595D01*
X62090952Y-31713595D02*
X62281428Y-31713595D01*
X61062381Y-31713595D02*
X61519524Y-31713595D01*
X61290952Y-31713595D02*
X61290952Y-30913595D01*
X61290952Y-30913595D02*
X61367143Y-31027880D01*
X61367143Y-31027880D02*
X61443333Y-31104071D01*
X61443333Y-31104071D02*
X61519524Y-31142166D01*
X60338571Y-30913595D02*
X60719523Y-30913595D01*
X60719523Y-30913595D02*
X60757619Y-31294547D01*
X60757619Y-31294547D02*
X60719523Y-31256452D01*
X60719523Y-31256452D02*
X60643333Y-31218357D01*
X60643333Y-31218357D02*
X60452857Y-31218357D01*
X60452857Y-31218357D02*
X60376666Y-31256452D01*
X60376666Y-31256452D02*
X60338571Y-31294547D01*
X60338571Y-31294547D02*
X60300476Y-31370738D01*
X60300476Y-31370738D02*
X60300476Y-31561214D01*
X60300476Y-31561214D02*
X60338571Y-31637404D01*
X60338571Y-31637404D02*
X60376666Y-31675500D01*
X60376666Y-31675500D02*
X60452857Y-31713595D01*
X60452857Y-31713595D02*
X60643333Y-31713595D01*
X60643333Y-31713595D02*
X60719523Y-31675500D01*
X60719523Y-31675500D02*
X60757619Y-31637404D01*
X4750475Y6236404D02*
X4750475Y7036404D01*
X4750475Y7036404D02*
X4559999Y7036404D01*
X4559999Y7036404D02*
X4445713Y6998309D01*
X4445713Y6998309D02*
X4369523Y6922119D01*
X4369523Y6922119D02*
X4331428Y6845928D01*
X4331428Y6845928D02*
X4293332Y6693547D01*
X4293332Y6693547D02*
X4293332Y6579261D01*
X4293332Y6579261D02*
X4331428Y6426880D01*
X4331428Y6426880D02*
X4369523Y6350690D01*
X4369523Y6350690D02*
X4445713Y6274500D01*
X4445713Y6274500D02*
X4559999Y6236404D01*
X4559999Y6236404D02*
X4750475Y6236404D01*
X3531428Y6236404D02*
X3988571Y6236404D01*
X3759999Y6236404D02*
X3759999Y7036404D01*
X3759999Y7036404D02*
X3836190Y6922119D01*
X3836190Y6922119D02*
X3912380Y6845928D01*
X3912380Y6845928D02*
X3988571Y6807833D01*
X42890475Y6236404D02*
X42890475Y7036404D01*
X42890475Y7036404D02*
X42699999Y7036404D01*
X42699999Y7036404D02*
X42585713Y6998309D01*
X42585713Y6998309D02*
X42509523Y6922119D01*
X42509523Y6922119D02*
X42471428Y6845928D01*
X42471428Y6845928D02*
X42433332Y6693547D01*
X42433332Y6693547D02*
X42433332Y6579261D01*
X42433332Y6579261D02*
X42471428Y6426880D01*
X42471428Y6426880D02*
X42509523Y6350690D01*
X42509523Y6350690D02*
X42585713Y6274500D01*
X42585713Y6274500D02*
X42699999Y6236404D01*
X42699999Y6236404D02*
X42890475Y6236404D01*
X42052380Y6236404D02*
X41899999Y6236404D01*
X41899999Y6236404D02*
X41823809Y6274500D01*
X41823809Y6274500D02*
X41785713Y6312595D01*
X41785713Y6312595D02*
X41709523Y6426880D01*
X41709523Y6426880D02*
X41671428Y6579261D01*
X41671428Y6579261D02*
X41671428Y6884023D01*
X41671428Y6884023D02*
X41709523Y6960214D01*
X41709523Y6960214D02*
X41747618Y6998309D01*
X41747618Y6998309D02*
X41823809Y7036404D01*
X41823809Y7036404D02*
X41976190Y7036404D01*
X41976190Y7036404D02*
X42052380Y6998309D01*
X42052380Y6998309D02*
X42090475Y6960214D01*
X42090475Y6960214D02*
X42128571Y6884023D01*
X42128571Y6884023D02*
X42128571Y6693547D01*
X42128571Y6693547D02*
X42090475Y6617357D01*
X42090475Y6617357D02*
X42052380Y6579261D01*
X42052380Y6579261D02*
X41976190Y6541166D01*
X41976190Y6541166D02*
X41823809Y6541166D01*
X41823809Y6541166D02*
X41747618Y6579261D01*
X41747618Y6579261D02*
X41709523Y6617357D01*
X41709523Y6617357D02*
X41671428Y6693547D01*
X79411428Y6416404D02*
X79411428Y7216404D01*
X79411428Y7216404D02*
X79220952Y7216404D01*
X79220952Y7216404D02*
X79106666Y7178309D01*
X79106666Y7178309D02*
X79030476Y7102119D01*
X79030476Y7102119D02*
X78992381Y7025928D01*
X78992381Y7025928D02*
X78954285Y6873547D01*
X78954285Y6873547D02*
X78954285Y6759261D01*
X78954285Y6759261D02*
X78992381Y6606880D01*
X78992381Y6606880D02*
X79030476Y6530690D01*
X79030476Y6530690D02*
X79106666Y6454500D01*
X79106666Y6454500D02*
X79220952Y6416404D01*
X79220952Y6416404D02*
X79411428Y6416404D01*
X78192381Y6416404D02*
X78649524Y6416404D01*
X78420952Y6416404D02*
X78420952Y7216404D01*
X78420952Y7216404D02*
X78497143Y7102119D01*
X78497143Y7102119D02*
X78573333Y7025928D01*
X78573333Y7025928D02*
X78649524Y6987833D01*
X77925714Y7216404D02*
X77392380Y7216404D01*
X77392380Y7216404D02*
X77735238Y6416404D01*
X-18449524Y-12713595D02*
X-18449524Y-11913595D01*
X-18449524Y-11913595D02*
X-18640000Y-11913595D01*
X-18640000Y-11913595D02*
X-18754286Y-11951690D01*
X-18754286Y-11951690D02*
X-18830476Y-12027880D01*
X-18830476Y-12027880D02*
X-18868571Y-12104071D01*
X-18868571Y-12104071D02*
X-18906667Y-12256452D01*
X-18906667Y-12256452D02*
X-18906667Y-12370738D01*
X-18906667Y-12370738D02*
X-18868571Y-12523119D01*
X-18868571Y-12523119D02*
X-18830476Y-12599309D01*
X-18830476Y-12599309D02*
X-18754286Y-12675500D01*
X-18754286Y-12675500D02*
X-18640000Y-12713595D01*
X-18640000Y-12713595D02*
X-18449524Y-12713595D01*
X-19592381Y-12180261D02*
X-19592381Y-12713595D01*
X-19401905Y-11875500D02*
X-19211428Y-12446928D01*
X-19211428Y-12446928D02*
X-19706667Y-12446928D01*
X5301428Y-50733595D02*
X5301428Y-49933595D01*
X5301428Y-49933595D02*
X5110952Y-49933595D01*
X5110952Y-49933595D02*
X4996666Y-49971690D01*
X4996666Y-49971690D02*
X4920476Y-50047880D01*
X4920476Y-50047880D02*
X4882381Y-50124071D01*
X4882381Y-50124071D02*
X4844285Y-50276452D01*
X4844285Y-50276452D02*
X4844285Y-50390738D01*
X4844285Y-50390738D02*
X4882381Y-50543119D01*
X4882381Y-50543119D02*
X4920476Y-50619309D01*
X4920476Y-50619309D02*
X4996666Y-50695500D01*
X4996666Y-50695500D02*
X5110952Y-50733595D01*
X5110952Y-50733595D02*
X5301428Y-50733595D01*
X4082381Y-50733595D02*
X4539524Y-50733595D01*
X4310952Y-50733595D02*
X4310952Y-49933595D01*
X4310952Y-49933595D02*
X4387143Y-50047880D01*
X4387143Y-50047880D02*
X4463333Y-50124071D01*
X4463333Y-50124071D02*
X4539524Y-50162166D01*
X3396666Y-49933595D02*
X3549047Y-49933595D01*
X3549047Y-49933595D02*
X3625238Y-49971690D01*
X3625238Y-49971690D02*
X3663333Y-50009785D01*
X3663333Y-50009785D02*
X3739523Y-50124071D01*
X3739523Y-50124071D02*
X3777619Y-50276452D01*
X3777619Y-50276452D02*
X3777619Y-50581214D01*
X3777619Y-50581214D02*
X3739523Y-50657404D01*
X3739523Y-50657404D02*
X3701428Y-50695500D01*
X3701428Y-50695500D02*
X3625238Y-50733595D01*
X3625238Y-50733595D02*
X3472857Y-50733595D01*
X3472857Y-50733595D02*
X3396666Y-50695500D01*
X3396666Y-50695500D02*
X3358571Y-50657404D01*
X3358571Y-50657404D02*
X3320476Y-50581214D01*
X3320476Y-50581214D02*
X3320476Y-50390738D01*
X3320476Y-50390738D02*
X3358571Y-50314547D01*
X3358571Y-50314547D02*
X3396666Y-50276452D01*
X3396666Y-50276452D02*
X3472857Y-50238357D01*
X3472857Y-50238357D02*
X3625238Y-50238357D01*
X3625238Y-50238357D02*
X3701428Y-50276452D01*
X3701428Y-50276452D02*
X3739523Y-50314547D01*
X3739523Y-50314547D02*
X3777619Y-50390738D01*
X4695475Y-31893595D02*
X4695475Y-31093595D01*
X4695475Y-31093595D02*
X4504999Y-31093595D01*
X4504999Y-31093595D02*
X4390713Y-31131690D01*
X4390713Y-31131690D02*
X4314523Y-31207880D01*
X4314523Y-31207880D02*
X4276428Y-31284071D01*
X4276428Y-31284071D02*
X4238332Y-31436452D01*
X4238332Y-31436452D02*
X4238332Y-31550738D01*
X4238332Y-31550738D02*
X4276428Y-31703119D01*
X4276428Y-31703119D02*
X4314523Y-31779309D01*
X4314523Y-31779309D02*
X4390713Y-31855500D01*
X4390713Y-31855500D02*
X4504999Y-31893595D01*
X4504999Y-31893595D02*
X4695475Y-31893595D01*
X3971666Y-31093595D02*
X3476428Y-31093595D01*
X3476428Y-31093595D02*
X3743094Y-31398357D01*
X3743094Y-31398357D02*
X3628809Y-31398357D01*
X3628809Y-31398357D02*
X3552618Y-31436452D01*
X3552618Y-31436452D02*
X3514523Y-31474547D01*
X3514523Y-31474547D02*
X3476428Y-31550738D01*
X3476428Y-31550738D02*
X3476428Y-31741214D01*
X3476428Y-31741214D02*
X3514523Y-31817404D01*
X3514523Y-31817404D02*
X3552618Y-31855500D01*
X3552618Y-31855500D02*
X3628809Y-31893595D01*
X3628809Y-31893595D02*
X3857380Y-31893595D01*
X3857380Y-31893595D02*
X3933571Y-31855500D01*
X3933571Y-31855500D02*
X3971666Y-31817404D01*
X79826428Y-31703595D02*
X79826428Y-30903595D01*
X79826428Y-30903595D02*
X79635952Y-30903595D01*
X79635952Y-30903595D02*
X79521666Y-30941690D01*
X79521666Y-30941690D02*
X79445476Y-31017880D01*
X79445476Y-31017880D02*
X79407381Y-31094071D01*
X79407381Y-31094071D02*
X79369285Y-31246452D01*
X79369285Y-31246452D02*
X79369285Y-31360738D01*
X79369285Y-31360738D02*
X79407381Y-31513119D01*
X79407381Y-31513119D02*
X79445476Y-31589309D01*
X79445476Y-31589309D02*
X79521666Y-31665500D01*
X79521666Y-31665500D02*
X79635952Y-31703595D01*
X79635952Y-31703595D02*
X79826428Y-31703595D01*
X78607381Y-31703595D02*
X79064524Y-31703595D01*
X78835952Y-31703595D02*
X78835952Y-30903595D01*
X78835952Y-30903595D02*
X78912143Y-31017880D01*
X78912143Y-31017880D02*
X78988333Y-31094071D01*
X78988333Y-31094071D02*
X79064524Y-31132166D01*
X78226428Y-31703595D02*
X78074047Y-31703595D01*
X78074047Y-31703595D02*
X77997857Y-31665500D01*
X77997857Y-31665500D02*
X77959761Y-31627404D01*
X77959761Y-31627404D02*
X77883571Y-31513119D01*
X77883571Y-31513119D02*
X77845476Y-31360738D01*
X77845476Y-31360738D02*
X77845476Y-31055976D01*
X77845476Y-31055976D02*
X77883571Y-30979785D01*
X77883571Y-30979785D02*
X77921666Y-30941690D01*
X77921666Y-30941690D02*
X77997857Y-30903595D01*
X77997857Y-30903595D02*
X78150238Y-30903595D01*
X78150238Y-30903595D02*
X78226428Y-30941690D01*
X78226428Y-30941690D02*
X78264523Y-30979785D01*
X78264523Y-30979785D02*
X78302619Y-31055976D01*
X78302619Y-31055976D02*
X78302619Y-31246452D01*
X78302619Y-31246452D02*
X78264523Y-31322642D01*
X78264523Y-31322642D02*
X78226428Y-31360738D01*
X78226428Y-31360738D02*
X78150238Y-31398833D01*
X78150238Y-31398833D02*
X77997857Y-31398833D01*
X77997857Y-31398833D02*
X77921666Y-31360738D01*
X77921666Y-31360738D02*
X77883571Y-31322642D01*
X77883571Y-31322642D02*
X77845476Y-31246452D01*
X43211428Y-12913595D02*
X43211428Y-12113595D01*
X43211428Y-12113595D02*
X43020952Y-12113595D01*
X43020952Y-12113595D02*
X42906666Y-12151690D01*
X42906666Y-12151690D02*
X42830476Y-12227880D01*
X42830476Y-12227880D02*
X42792381Y-12304071D01*
X42792381Y-12304071D02*
X42754285Y-12456452D01*
X42754285Y-12456452D02*
X42754285Y-12570738D01*
X42754285Y-12570738D02*
X42792381Y-12723119D01*
X42792381Y-12723119D02*
X42830476Y-12799309D01*
X42830476Y-12799309D02*
X42906666Y-12875500D01*
X42906666Y-12875500D02*
X43020952Y-12913595D01*
X43020952Y-12913595D02*
X43211428Y-12913595D01*
X41992381Y-12913595D02*
X42449524Y-12913595D01*
X42220952Y-12913595D02*
X42220952Y-12113595D01*
X42220952Y-12113595D02*
X42297143Y-12227880D01*
X42297143Y-12227880D02*
X42373333Y-12304071D01*
X42373333Y-12304071D02*
X42449524Y-12342166D01*
X41497142Y-12113595D02*
X41420952Y-12113595D01*
X41420952Y-12113595D02*
X41344761Y-12151690D01*
X41344761Y-12151690D02*
X41306666Y-12189785D01*
X41306666Y-12189785D02*
X41268571Y-12265976D01*
X41268571Y-12265976D02*
X41230476Y-12418357D01*
X41230476Y-12418357D02*
X41230476Y-12608833D01*
X41230476Y-12608833D02*
X41268571Y-12761214D01*
X41268571Y-12761214D02*
X41306666Y-12837404D01*
X41306666Y-12837404D02*
X41344761Y-12875500D01*
X41344761Y-12875500D02*
X41420952Y-12913595D01*
X41420952Y-12913595D02*
X41497142Y-12913595D01*
X41497142Y-12913595D02*
X41573333Y-12875500D01*
X41573333Y-12875500D02*
X41611428Y-12837404D01*
X41611428Y-12837404D02*
X41649523Y-12761214D01*
X41649523Y-12761214D02*
X41687619Y-12608833D01*
X41687619Y-12608833D02*
X41687619Y-12418357D01*
X41687619Y-12418357D02*
X41649523Y-12265976D01*
X41649523Y-12265976D02*
X41611428Y-12189785D01*
X41611428Y-12189785D02*
X41573333Y-12151690D01*
X41573333Y-12151690D02*
X41497142Y-12113595D01*
X4900475Y-12843595D02*
X4900475Y-12043595D01*
X4900475Y-12043595D02*
X4709999Y-12043595D01*
X4709999Y-12043595D02*
X4595713Y-12081690D01*
X4595713Y-12081690D02*
X4519523Y-12157880D01*
X4519523Y-12157880D02*
X4481428Y-12234071D01*
X4481428Y-12234071D02*
X4443332Y-12386452D01*
X4443332Y-12386452D02*
X4443332Y-12500738D01*
X4443332Y-12500738D02*
X4481428Y-12653119D01*
X4481428Y-12653119D02*
X4519523Y-12729309D01*
X4519523Y-12729309D02*
X4595713Y-12805500D01*
X4595713Y-12805500D02*
X4709999Y-12843595D01*
X4709999Y-12843595D02*
X4900475Y-12843595D01*
X4138571Y-12119785D02*
X4100475Y-12081690D01*
X4100475Y-12081690D02*
X4024285Y-12043595D01*
X4024285Y-12043595D02*
X3833809Y-12043595D01*
X3833809Y-12043595D02*
X3757618Y-12081690D01*
X3757618Y-12081690D02*
X3719523Y-12119785D01*
X3719523Y-12119785D02*
X3681428Y-12195976D01*
X3681428Y-12195976D02*
X3681428Y-12272166D01*
X3681428Y-12272166D02*
X3719523Y-12386452D01*
X3719523Y-12386452D02*
X4176666Y-12843595D01*
X4176666Y-12843595D02*
X3681428Y-12843595D01*
X23740475Y-12743595D02*
X23740475Y-11943595D01*
X23740475Y-11943595D02*
X23549999Y-11943595D01*
X23549999Y-11943595D02*
X23435713Y-11981690D01*
X23435713Y-11981690D02*
X23359523Y-12057880D01*
X23359523Y-12057880D02*
X23321428Y-12134071D01*
X23321428Y-12134071D02*
X23283332Y-12286452D01*
X23283332Y-12286452D02*
X23283332Y-12400738D01*
X23283332Y-12400738D02*
X23321428Y-12553119D01*
X23321428Y-12553119D02*
X23359523Y-12629309D01*
X23359523Y-12629309D02*
X23435713Y-12705500D01*
X23435713Y-12705500D02*
X23549999Y-12743595D01*
X23549999Y-12743595D02*
X23740475Y-12743595D01*
X22597618Y-11943595D02*
X22749999Y-11943595D01*
X22749999Y-11943595D02*
X22826190Y-11981690D01*
X22826190Y-11981690D02*
X22864285Y-12019785D01*
X22864285Y-12019785D02*
X22940475Y-12134071D01*
X22940475Y-12134071D02*
X22978571Y-12286452D01*
X22978571Y-12286452D02*
X22978571Y-12591214D01*
X22978571Y-12591214D02*
X22940475Y-12667404D01*
X22940475Y-12667404D02*
X22902380Y-12705500D01*
X22902380Y-12705500D02*
X22826190Y-12743595D01*
X22826190Y-12743595D02*
X22673809Y-12743595D01*
X22673809Y-12743595D02*
X22597618Y-12705500D01*
X22597618Y-12705500D02*
X22559523Y-12667404D01*
X22559523Y-12667404D02*
X22521428Y-12591214D01*
X22521428Y-12591214D02*
X22521428Y-12400738D01*
X22521428Y-12400738D02*
X22559523Y-12324547D01*
X22559523Y-12324547D02*
X22597618Y-12286452D01*
X22597618Y-12286452D02*
X22673809Y-12248357D01*
X22673809Y-12248357D02*
X22826190Y-12248357D01*
X22826190Y-12248357D02*
X22902380Y-12286452D01*
X22902380Y-12286452D02*
X22940475Y-12324547D01*
X22940475Y-12324547D02*
X22978571Y-12400738D01*
X-14279524Y-31743595D02*
X-14279524Y-30943595D01*
X-14279524Y-30943595D02*
X-14470000Y-30943595D01*
X-14470000Y-30943595D02*
X-14584286Y-30981690D01*
X-14584286Y-30981690D02*
X-14660476Y-31057880D01*
X-14660476Y-31057880D02*
X-14698571Y-31134071D01*
X-14698571Y-31134071D02*
X-14736667Y-31286452D01*
X-14736667Y-31286452D02*
X-14736667Y-31400738D01*
X-14736667Y-31400738D02*
X-14698571Y-31553119D01*
X-14698571Y-31553119D02*
X-14660476Y-31629309D01*
X-14660476Y-31629309D02*
X-14584286Y-31705500D01*
X-14584286Y-31705500D02*
X-14470000Y-31743595D01*
X-14470000Y-31743595D02*
X-14279524Y-31743595D01*
X-15193809Y-31286452D02*
X-15117619Y-31248357D01*
X-15117619Y-31248357D02*
X-15079524Y-31210261D01*
X-15079524Y-31210261D02*
X-15041428Y-31134071D01*
X-15041428Y-31134071D02*
X-15041428Y-31095976D01*
X-15041428Y-31095976D02*
X-15079524Y-31019785D01*
X-15079524Y-31019785D02*
X-15117619Y-30981690D01*
X-15117619Y-30981690D02*
X-15193809Y-30943595D01*
X-15193809Y-30943595D02*
X-15346190Y-30943595D01*
X-15346190Y-30943595D02*
X-15422381Y-30981690D01*
X-15422381Y-30981690D02*
X-15460476Y-31019785D01*
X-15460476Y-31019785D02*
X-15498571Y-31095976D01*
X-15498571Y-31095976D02*
X-15498571Y-31134071D01*
X-15498571Y-31134071D02*
X-15460476Y-31210261D01*
X-15460476Y-31210261D02*
X-15422381Y-31248357D01*
X-15422381Y-31248357D02*
X-15346190Y-31286452D01*
X-15346190Y-31286452D02*
X-15193809Y-31286452D01*
X-15193809Y-31286452D02*
X-15117619Y-31324547D01*
X-15117619Y-31324547D02*
X-15079524Y-31362642D01*
X-15079524Y-31362642D02*
X-15041428Y-31438833D01*
X-15041428Y-31438833D02*
X-15041428Y-31591214D01*
X-15041428Y-31591214D02*
X-15079524Y-31667404D01*
X-15079524Y-31667404D02*
X-15117619Y-31705500D01*
X-15117619Y-31705500D02*
X-15193809Y-31743595D01*
X-15193809Y-31743595D02*
X-15346190Y-31743595D01*
X-15346190Y-31743595D02*
X-15422381Y-31705500D01*
X-15422381Y-31705500D02*
X-15460476Y-31667404D01*
X-15460476Y-31667404D02*
X-15498571Y-31591214D01*
X-15498571Y-31591214D02*
X-15498571Y-31438833D01*
X-15498571Y-31438833D02*
X-15460476Y-31362642D01*
X-15460476Y-31362642D02*
X-15422381Y-31324547D01*
X-15422381Y-31324547D02*
X-15346190Y-31286452D01*
X58461428Y-12693595D02*
X58461428Y-11893595D01*
X58461428Y-11893595D02*
X58270952Y-11893595D01*
X58270952Y-11893595D02*
X58156666Y-11931690D01*
X58156666Y-11931690D02*
X58080476Y-12007880D01*
X58080476Y-12007880D02*
X58042381Y-12084071D01*
X58042381Y-12084071D02*
X58004285Y-12236452D01*
X58004285Y-12236452D02*
X58004285Y-12350738D01*
X58004285Y-12350738D02*
X58042381Y-12503119D01*
X58042381Y-12503119D02*
X58080476Y-12579309D01*
X58080476Y-12579309D02*
X58156666Y-12655500D01*
X58156666Y-12655500D02*
X58270952Y-12693595D01*
X58270952Y-12693595D02*
X58461428Y-12693595D01*
X57242381Y-12693595D02*
X57699524Y-12693595D01*
X57470952Y-12693595D02*
X57470952Y-11893595D01*
X57470952Y-11893595D02*
X57547143Y-12007880D01*
X57547143Y-12007880D02*
X57623333Y-12084071D01*
X57623333Y-12084071D02*
X57699524Y-12122166D01*
X56556666Y-12160261D02*
X56556666Y-12693595D01*
X56747142Y-11855500D02*
X56937619Y-12426928D01*
X56937619Y-12426928D02*
X56442380Y-12426928D01*
X-17718571Y-50903595D02*
X-17718571Y-50103595D01*
X-17718571Y-50103595D02*
X-17909047Y-50103595D01*
X-17909047Y-50103595D02*
X-18023333Y-50141690D01*
X-18023333Y-50141690D02*
X-18099523Y-50217880D01*
X-18099523Y-50217880D02*
X-18137618Y-50294071D01*
X-18137618Y-50294071D02*
X-18175714Y-50446452D01*
X-18175714Y-50446452D02*
X-18175714Y-50560738D01*
X-18175714Y-50560738D02*
X-18137618Y-50713119D01*
X-18137618Y-50713119D02*
X-18099523Y-50789309D01*
X-18099523Y-50789309D02*
X-18023333Y-50865500D01*
X-18023333Y-50865500D02*
X-17909047Y-50903595D01*
X-17909047Y-50903595D02*
X-17718571Y-50903595D01*
X-18937618Y-50903595D02*
X-18480475Y-50903595D01*
X-18709047Y-50903595D02*
X-18709047Y-50103595D01*
X-18709047Y-50103595D02*
X-18632856Y-50217880D01*
X-18632856Y-50217880D02*
X-18556666Y-50294071D01*
X-18556666Y-50294071D02*
X-18480475Y-50332166D01*
X-19242380Y-50179785D02*
X-19280476Y-50141690D01*
X-19280476Y-50141690D02*
X-19356666Y-50103595D01*
X-19356666Y-50103595D02*
X-19547142Y-50103595D01*
X-19547142Y-50103595D02*
X-19623333Y-50141690D01*
X-19623333Y-50141690D02*
X-19661428Y-50179785D01*
X-19661428Y-50179785D02*
X-19699523Y-50255976D01*
X-19699523Y-50255976D02*
X-19699523Y-50332166D01*
X-19699523Y-50332166D02*
X-19661428Y-50446452D01*
X-19661428Y-50446452D02*
X-19204285Y-50903595D01*
X-19204285Y-50903595D02*
X-19699523Y-50903595D01*
X24000475Y6276404D02*
X24000475Y7076404D01*
X24000475Y7076404D02*
X23809999Y7076404D01*
X23809999Y7076404D02*
X23695713Y7038309D01*
X23695713Y7038309D02*
X23619523Y6962119D01*
X23619523Y6962119D02*
X23581428Y6885928D01*
X23581428Y6885928D02*
X23543332Y6733547D01*
X23543332Y6733547D02*
X23543332Y6619261D01*
X23543332Y6619261D02*
X23581428Y6466880D01*
X23581428Y6466880D02*
X23619523Y6390690D01*
X23619523Y6390690D02*
X23695713Y6314500D01*
X23695713Y6314500D02*
X23809999Y6276404D01*
X23809999Y6276404D02*
X24000475Y6276404D01*
X22819523Y7076404D02*
X23200475Y7076404D01*
X23200475Y7076404D02*
X23238571Y6695452D01*
X23238571Y6695452D02*
X23200475Y6733547D01*
X23200475Y6733547D02*
X23124285Y6771642D01*
X23124285Y6771642D02*
X22933809Y6771642D01*
X22933809Y6771642D02*
X22857618Y6733547D01*
X22857618Y6733547D02*
X22819523Y6695452D01*
X22819523Y6695452D02*
X22781428Y6619261D01*
X22781428Y6619261D02*
X22781428Y6428785D01*
X22781428Y6428785D02*
X22819523Y6352595D01*
X22819523Y6352595D02*
X22857618Y6314500D01*
X22857618Y6314500D02*
X22933809Y6276404D01*
X22933809Y6276404D02*
X23124285Y6276404D01*
X23124285Y6276404D02*
X23200475Y6314500D01*
X23200475Y6314500D02*
X23238571Y6352595D01*
X79381428Y-12623595D02*
X79381428Y-11823595D01*
X79381428Y-11823595D02*
X79190952Y-11823595D01*
X79190952Y-11823595D02*
X79076666Y-11861690D01*
X79076666Y-11861690D02*
X79000476Y-11937880D01*
X79000476Y-11937880D02*
X78962381Y-12014071D01*
X78962381Y-12014071D02*
X78924285Y-12166452D01*
X78924285Y-12166452D02*
X78924285Y-12280738D01*
X78924285Y-12280738D02*
X78962381Y-12433119D01*
X78962381Y-12433119D02*
X79000476Y-12509309D01*
X79000476Y-12509309D02*
X79076666Y-12585500D01*
X79076666Y-12585500D02*
X79190952Y-12623595D01*
X79190952Y-12623595D02*
X79381428Y-12623595D01*
X78162381Y-12623595D02*
X78619524Y-12623595D01*
X78390952Y-12623595D02*
X78390952Y-11823595D01*
X78390952Y-11823595D02*
X78467143Y-11937880D01*
X78467143Y-11937880D02*
X78543333Y-12014071D01*
X78543333Y-12014071D02*
X78619524Y-12052166D01*
X77705238Y-12166452D02*
X77781428Y-12128357D01*
X77781428Y-12128357D02*
X77819523Y-12090261D01*
X77819523Y-12090261D02*
X77857619Y-12014071D01*
X77857619Y-12014071D02*
X77857619Y-11975976D01*
X77857619Y-11975976D02*
X77819523Y-11899785D01*
X77819523Y-11899785D02*
X77781428Y-11861690D01*
X77781428Y-11861690D02*
X77705238Y-11823595D01*
X77705238Y-11823595D02*
X77552857Y-11823595D01*
X77552857Y-11823595D02*
X77476666Y-11861690D01*
X77476666Y-11861690D02*
X77438571Y-11899785D01*
X77438571Y-11899785D02*
X77400476Y-11975976D01*
X77400476Y-11975976D02*
X77400476Y-12014071D01*
X77400476Y-12014071D02*
X77438571Y-12090261D01*
X77438571Y-12090261D02*
X77476666Y-12128357D01*
X77476666Y-12128357D02*
X77552857Y-12166452D01*
X77552857Y-12166452D02*
X77705238Y-12166452D01*
X77705238Y-12166452D02*
X77781428Y-12204547D01*
X77781428Y-12204547D02*
X77819523Y-12242642D01*
X77819523Y-12242642D02*
X77857619Y-12318833D01*
X77857619Y-12318833D02*
X77857619Y-12471214D01*
X77857619Y-12471214D02*
X77819523Y-12547404D01*
X77819523Y-12547404D02*
X77781428Y-12585500D01*
X77781428Y-12585500D02*
X77705238Y-12623595D01*
X77705238Y-12623595D02*
X77552857Y-12623595D01*
X77552857Y-12623595D02*
X77476666Y-12585500D01*
X77476666Y-12585500D02*
X77438571Y-12547404D01*
X77438571Y-12547404D02*
X77400476Y-12471214D01*
X77400476Y-12471214D02*
X77400476Y-12318833D01*
X77400476Y-12318833D02*
X77438571Y-12242642D01*
X77438571Y-12242642D02*
X77476666Y-12204547D01*
X77476666Y-12204547D02*
X77552857Y-12166452D01*
D13*
X38977712Y-52162988D02*
X39787235Y-52162988D01*
X39787235Y-52162988D02*
X39882473Y-52210607D01*
X39882473Y-52210607D02*
X39930093Y-52258226D01*
X39930093Y-52258226D02*
X39977712Y-52353464D01*
X39977712Y-52353464D02*
X39977712Y-52543940D01*
X39977712Y-52543940D02*
X39930093Y-52639178D01*
X39930093Y-52639178D02*
X39882473Y-52686797D01*
X39882473Y-52686797D02*
X39787235Y-52734416D01*
X39787235Y-52734416D02*
X38977712Y-52734416D01*
X39977712Y-53734416D02*
X39977712Y-53162988D01*
X39977712Y-53448702D02*
X38977712Y-53448702D01*
X38977712Y-53448702D02*
X39120569Y-53353464D01*
X39120569Y-53353464D02*
X39215807Y-53258226D01*
X39215807Y-53258226D02*
X39263426Y-53162988D01*
D14*
X47673333Y-53791559D02*
X47697143Y-53767750D01*
X47697143Y-53767750D02*
X47720952Y-53696321D01*
X47720952Y-53696321D02*
X47720952Y-53648702D01*
X47720952Y-53648702D02*
X47697143Y-53577274D01*
X47697143Y-53577274D02*
X47649523Y-53529655D01*
X47649523Y-53529655D02*
X47601904Y-53505845D01*
X47601904Y-53505845D02*
X47506666Y-53482036D01*
X47506666Y-53482036D02*
X47435238Y-53482036D01*
X47435238Y-53482036D02*
X47340000Y-53505845D01*
X47340000Y-53505845D02*
X47292381Y-53529655D01*
X47292381Y-53529655D02*
X47244762Y-53577274D01*
X47244762Y-53577274D02*
X47220952Y-53648702D01*
X47220952Y-53648702D02*
X47220952Y-53696321D01*
X47220952Y-53696321D02*
X47244762Y-53767750D01*
X47244762Y-53767750D02*
X47268571Y-53791559D01*
X47720952Y-54267750D02*
X47720952Y-53982036D01*
X47720952Y-54124893D02*
X47220952Y-54124893D01*
X47220952Y-54124893D02*
X47292381Y-54077274D01*
X47292381Y-54077274D02*
X47340000Y-54029655D01*
X47340000Y-54029655D02*
X47363809Y-53982036D01*
X47673333Y-57291559D02*
X47697143Y-57267750D01*
X47697143Y-57267750D02*
X47720952Y-57196321D01*
X47720952Y-57196321D02*
X47720952Y-57148702D01*
X47720952Y-57148702D02*
X47697143Y-57077274D01*
X47697143Y-57077274D02*
X47649523Y-57029655D01*
X47649523Y-57029655D02*
X47601904Y-57005845D01*
X47601904Y-57005845D02*
X47506666Y-56982036D01*
X47506666Y-56982036D02*
X47435238Y-56982036D01*
X47435238Y-56982036D02*
X47340000Y-57005845D01*
X47340000Y-57005845D02*
X47292381Y-57029655D01*
X47292381Y-57029655D02*
X47244762Y-57077274D01*
X47244762Y-57077274D02*
X47220952Y-57148702D01*
X47220952Y-57148702D02*
X47220952Y-57196321D01*
X47220952Y-57196321D02*
X47244762Y-57267750D01*
X47244762Y-57267750D02*
X47268571Y-57291559D01*
X47268571Y-57482036D02*
X47244762Y-57505845D01*
X47244762Y-57505845D02*
X47220952Y-57553464D01*
X47220952Y-57553464D02*
X47220952Y-57672512D01*
X47220952Y-57672512D02*
X47244762Y-57720131D01*
X47244762Y-57720131D02*
X47268571Y-57743940D01*
X47268571Y-57743940D02*
X47316190Y-57767750D01*
X47316190Y-57767750D02*
X47363809Y-57767750D01*
X47363809Y-57767750D02*
X47435238Y-57743940D01*
X47435238Y-57743940D02*
X47720952Y-57458226D01*
X47720952Y-57458226D02*
X47720952Y-57767750D01*
X47673333Y-60791559D02*
X47697143Y-60767750D01*
X47697143Y-60767750D02*
X47720952Y-60696321D01*
X47720952Y-60696321D02*
X47720952Y-60648702D01*
X47720952Y-60648702D02*
X47697143Y-60577274D01*
X47697143Y-60577274D02*
X47649523Y-60529655D01*
X47649523Y-60529655D02*
X47601904Y-60505845D01*
X47601904Y-60505845D02*
X47506666Y-60482036D01*
X47506666Y-60482036D02*
X47435238Y-60482036D01*
X47435238Y-60482036D02*
X47340000Y-60505845D01*
X47340000Y-60505845D02*
X47292381Y-60529655D01*
X47292381Y-60529655D02*
X47244762Y-60577274D01*
X47244762Y-60577274D02*
X47220952Y-60648702D01*
X47220952Y-60648702D02*
X47220952Y-60696321D01*
X47220952Y-60696321D02*
X47244762Y-60767750D01*
X47244762Y-60767750D02*
X47268571Y-60791559D01*
X47220952Y-60958226D02*
X47220952Y-61267750D01*
X47220952Y-61267750D02*
X47411428Y-61101083D01*
X47411428Y-61101083D02*
X47411428Y-61172512D01*
X47411428Y-61172512D02*
X47435238Y-61220131D01*
X47435238Y-61220131D02*
X47459047Y-61243940D01*
X47459047Y-61243940D02*
X47506666Y-61267750D01*
X47506666Y-61267750D02*
X47625714Y-61267750D01*
X47625714Y-61267750D02*
X47673333Y-61243940D01*
X47673333Y-61243940D02*
X47697143Y-61220131D01*
X47697143Y-61220131D02*
X47720952Y-61172512D01*
X47720952Y-61172512D02*
X47720952Y-61029655D01*
X47720952Y-61029655D02*
X47697143Y-60982036D01*
X47697143Y-60982036D02*
X47673333Y-60958226D01*
X28673333Y-69016559D02*
X28697143Y-68992750D01*
X28697143Y-68992750D02*
X28720952Y-68921321D01*
X28720952Y-68921321D02*
X28720952Y-68873702D01*
X28720952Y-68873702D02*
X28697143Y-68802274D01*
X28697143Y-68802274D02*
X28649523Y-68754655D01*
X28649523Y-68754655D02*
X28601904Y-68730845D01*
X28601904Y-68730845D02*
X28506666Y-68707036D01*
X28506666Y-68707036D02*
X28435238Y-68707036D01*
X28435238Y-68707036D02*
X28340000Y-68730845D01*
X28340000Y-68730845D02*
X28292381Y-68754655D01*
X28292381Y-68754655D02*
X28244762Y-68802274D01*
X28244762Y-68802274D02*
X28220952Y-68873702D01*
X28220952Y-68873702D02*
X28220952Y-68921321D01*
X28220952Y-68921321D02*
X28244762Y-68992750D01*
X28244762Y-68992750D02*
X28268571Y-69016559D01*
X28220952Y-69445131D02*
X28220952Y-69349893D01*
X28220952Y-69349893D02*
X28244762Y-69302274D01*
X28244762Y-69302274D02*
X28268571Y-69278464D01*
X28268571Y-69278464D02*
X28340000Y-69230845D01*
X28340000Y-69230845D02*
X28435238Y-69207036D01*
X28435238Y-69207036D02*
X28625714Y-69207036D01*
X28625714Y-69207036D02*
X28673333Y-69230845D01*
X28673333Y-69230845D02*
X28697143Y-69254655D01*
X28697143Y-69254655D02*
X28720952Y-69302274D01*
X28720952Y-69302274D02*
X28720952Y-69397512D01*
X28720952Y-69397512D02*
X28697143Y-69445131D01*
X28697143Y-69445131D02*
X28673333Y-69468940D01*
X28673333Y-69468940D02*
X28625714Y-69492750D01*
X28625714Y-69492750D02*
X28506666Y-69492750D01*
X28506666Y-69492750D02*
X28459047Y-69468940D01*
X28459047Y-69468940D02*
X28435238Y-69445131D01*
X28435238Y-69445131D02*
X28411428Y-69397512D01*
X28411428Y-69397512D02*
X28411428Y-69302274D01*
X28411428Y-69302274D02*
X28435238Y-69254655D01*
X28435238Y-69254655D02*
X28459047Y-69230845D01*
X28459047Y-69230845D02*
X28506666Y-69207036D01*
X34673333Y-69016559D02*
X34697143Y-68992750D01*
X34697143Y-68992750D02*
X34720952Y-68921321D01*
X34720952Y-68921321D02*
X34720952Y-68873702D01*
X34720952Y-68873702D02*
X34697143Y-68802274D01*
X34697143Y-68802274D02*
X34649523Y-68754655D01*
X34649523Y-68754655D02*
X34601904Y-68730845D01*
X34601904Y-68730845D02*
X34506666Y-68707036D01*
X34506666Y-68707036D02*
X34435238Y-68707036D01*
X34435238Y-68707036D02*
X34340000Y-68730845D01*
X34340000Y-68730845D02*
X34292381Y-68754655D01*
X34292381Y-68754655D02*
X34244762Y-68802274D01*
X34244762Y-68802274D02*
X34220952Y-68873702D01*
X34220952Y-68873702D02*
X34220952Y-68921321D01*
X34220952Y-68921321D02*
X34244762Y-68992750D01*
X34244762Y-68992750D02*
X34268571Y-69016559D01*
X34435238Y-69302274D02*
X34411428Y-69254655D01*
X34411428Y-69254655D02*
X34387619Y-69230845D01*
X34387619Y-69230845D02*
X34340000Y-69207036D01*
X34340000Y-69207036D02*
X34316190Y-69207036D01*
X34316190Y-69207036D02*
X34268571Y-69230845D01*
X34268571Y-69230845D02*
X34244762Y-69254655D01*
X34244762Y-69254655D02*
X34220952Y-69302274D01*
X34220952Y-69302274D02*
X34220952Y-69397512D01*
X34220952Y-69397512D02*
X34244762Y-69445131D01*
X34244762Y-69445131D02*
X34268571Y-69468940D01*
X34268571Y-69468940D02*
X34316190Y-69492750D01*
X34316190Y-69492750D02*
X34340000Y-69492750D01*
X34340000Y-69492750D02*
X34387619Y-69468940D01*
X34387619Y-69468940D02*
X34411428Y-69445131D01*
X34411428Y-69445131D02*
X34435238Y-69397512D01*
X34435238Y-69397512D02*
X34435238Y-69302274D01*
X34435238Y-69302274D02*
X34459047Y-69254655D01*
X34459047Y-69254655D02*
X34482857Y-69230845D01*
X34482857Y-69230845D02*
X34530476Y-69207036D01*
X34530476Y-69207036D02*
X34625714Y-69207036D01*
X34625714Y-69207036D02*
X34673333Y-69230845D01*
X34673333Y-69230845D02*
X34697143Y-69254655D01*
X34697143Y-69254655D02*
X34720952Y-69302274D01*
X34720952Y-69302274D02*
X34720952Y-69397512D01*
X34720952Y-69397512D02*
X34697143Y-69445131D01*
X34697143Y-69445131D02*
X34673333Y-69468940D01*
X34673333Y-69468940D02*
X34625714Y-69492750D01*
X34625714Y-69492750D02*
X34530476Y-69492750D01*
X34530476Y-69492750D02*
X34482857Y-69468940D01*
X34482857Y-69468940D02*
X34459047Y-69445131D01*
X34459047Y-69445131D02*
X34435238Y-69397512D01*
X37673333Y-69016559D02*
X37697143Y-68992750D01*
X37697143Y-68992750D02*
X37720952Y-68921321D01*
X37720952Y-68921321D02*
X37720952Y-68873702D01*
X37720952Y-68873702D02*
X37697143Y-68802274D01*
X37697143Y-68802274D02*
X37649523Y-68754655D01*
X37649523Y-68754655D02*
X37601904Y-68730845D01*
X37601904Y-68730845D02*
X37506666Y-68707036D01*
X37506666Y-68707036D02*
X37435238Y-68707036D01*
X37435238Y-68707036D02*
X37340000Y-68730845D01*
X37340000Y-68730845D02*
X37292381Y-68754655D01*
X37292381Y-68754655D02*
X37244762Y-68802274D01*
X37244762Y-68802274D02*
X37220952Y-68873702D01*
X37220952Y-68873702D02*
X37220952Y-68921321D01*
X37220952Y-68921321D02*
X37244762Y-68992750D01*
X37244762Y-68992750D02*
X37268571Y-69016559D01*
X37720952Y-69254655D02*
X37720952Y-69349893D01*
X37720952Y-69349893D02*
X37697143Y-69397512D01*
X37697143Y-69397512D02*
X37673333Y-69421321D01*
X37673333Y-69421321D02*
X37601904Y-69468940D01*
X37601904Y-69468940D02*
X37506666Y-69492750D01*
X37506666Y-69492750D02*
X37316190Y-69492750D01*
X37316190Y-69492750D02*
X37268571Y-69468940D01*
X37268571Y-69468940D02*
X37244762Y-69445131D01*
X37244762Y-69445131D02*
X37220952Y-69397512D01*
X37220952Y-69397512D02*
X37220952Y-69302274D01*
X37220952Y-69302274D02*
X37244762Y-69254655D01*
X37244762Y-69254655D02*
X37268571Y-69230845D01*
X37268571Y-69230845D02*
X37316190Y-69207036D01*
X37316190Y-69207036D02*
X37435238Y-69207036D01*
X37435238Y-69207036D02*
X37482857Y-69230845D01*
X37482857Y-69230845D02*
X37506666Y-69254655D01*
X37506666Y-69254655D02*
X37530476Y-69302274D01*
X37530476Y-69302274D02*
X37530476Y-69397512D01*
X37530476Y-69397512D02*
X37506666Y-69445131D01*
X37506666Y-69445131D02*
X37482857Y-69468940D01*
X37482857Y-69468940D02*
X37435238Y-69492750D01*
X47673333Y-64291559D02*
X47697143Y-64267750D01*
X47697143Y-64267750D02*
X47720952Y-64196321D01*
X47720952Y-64196321D02*
X47720952Y-64148702D01*
X47720952Y-64148702D02*
X47697143Y-64077274D01*
X47697143Y-64077274D02*
X47649523Y-64029655D01*
X47649523Y-64029655D02*
X47601904Y-64005845D01*
X47601904Y-64005845D02*
X47506666Y-63982036D01*
X47506666Y-63982036D02*
X47435238Y-63982036D01*
X47435238Y-63982036D02*
X47340000Y-64005845D01*
X47340000Y-64005845D02*
X47292381Y-64029655D01*
X47292381Y-64029655D02*
X47244762Y-64077274D01*
X47244762Y-64077274D02*
X47220952Y-64148702D01*
X47220952Y-64148702D02*
X47220952Y-64196321D01*
X47220952Y-64196321D02*
X47244762Y-64267750D01*
X47244762Y-64267750D02*
X47268571Y-64291559D01*
X47387619Y-64720131D02*
X47720952Y-64720131D01*
X47197143Y-64601083D02*
X47554285Y-64482036D01*
X47554285Y-64482036D02*
X47554285Y-64791559D01*
X40720952Y-69016559D02*
X40482857Y-68849893D01*
X40720952Y-68730845D02*
X40220952Y-68730845D01*
X40220952Y-68730845D02*
X40220952Y-68921321D01*
X40220952Y-68921321D02*
X40244762Y-68968940D01*
X40244762Y-68968940D02*
X40268571Y-68992750D01*
X40268571Y-68992750D02*
X40316190Y-69016559D01*
X40316190Y-69016559D02*
X40387619Y-69016559D01*
X40387619Y-69016559D02*
X40435238Y-68992750D01*
X40435238Y-68992750D02*
X40459047Y-68968940D01*
X40459047Y-68968940D02*
X40482857Y-68921321D01*
X40482857Y-68921321D02*
X40482857Y-68730845D01*
X40720952Y-69492750D02*
X40720952Y-69207036D01*
X40720952Y-69349893D02*
X40220952Y-69349893D01*
X40220952Y-69349893D02*
X40292381Y-69302274D01*
X40292381Y-69302274D02*
X40340000Y-69254655D01*
X40340000Y-69254655D02*
X40363809Y-69207036D01*
X47673333Y-67791559D02*
X47697143Y-67767750D01*
X47697143Y-67767750D02*
X47720952Y-67696321D01*
X47720952Y-67696321D02*
X47720952Y-67648702D01*
X47720952Y-67648702D02*
X47697143Y-67577274D01*
X47697143Y-67577274D02*
X47649523Y-67529655D01*
X47649523Y-67529655D02*
X47601904Y-67505845D01*
X47601904Y-67505845D02*
X47506666Y-67482036D01*
X47506666Y-67482036D02*
X47435238Y-67482036D01*
X47435238Y-67482036D02*
X47340000Y-67505845D01*
X47340000Y-67505845D02*
X47292381Y-67529655D01*
X47292381Y-67529655D02*
X47244762Y-67577274D01*
X47244762Y-67577274D02*
X47220952Y-67648702D01*
X47220952Y-67648702D02*
X47220952Y-67696321D01*
X47220952Y-67696321D02*
X47244762Y-67767750D01*
X47244762Y-67767750D02*
X47268571Y-67791559D01*
X47220952Y-68243940D02*
X47220952Y-68005845D01*
X47220952Y-68005845D02*
X47459047Y-67982036D01*
X47459047Y-67982036D02*
X47435238Y-68005845D01*
X47435238Y-68005845D02*
X47411428Y-68053464D01*
X47411428Y-68053464D02*
X47411428Y-68172512D01*
X47411428Y-68172512D02*
X47435238Y-68220131D01*
X47435238Y-68220131D02*
X47459047Y-68243940D01*
X47459047Y-68243940D02*
X47506666Y-68267750D01*
X47506666Y-68267750D02*
X47625714Y-68267750D01*
X47625714Y-68267750D02*
X47673333Y-68243940D01*
X47673333Y-68243940D02*
X47697143Y-68220131D01*
X47697143Y-68220131D02*
X47720952Y-68172512D01*
X47720952Y-68172512D02*
X47720952Y-68053464D01*
X47720952Y-68053464D02*
X47697143Y-68005845D01*
X47697143Y-68005845D02*
X47673333Y-67982036D01*
X31673333Y-69016559D02*
X31697143Y-68992750D01*
X31697143Y-68992750D02*
X31720952Y-68921321D01*
X31720952Y-68921321D02*
X31720952Y-68873702D01*
X31720952Y-68873702D02*
X31697143Y-68802274D01*
X31697143Y-68802274D02*
X31649523Y-68754655D01*
X31649523Y-68754655D02*
X31601904Y-68730845D01*
X31601904Y-68730845D02*
X31506666Y-68707036D01*
X31506666Y-68707036D02*
X31435238Y-68707036D01*
X31435238Y-68707036D02*
X31340000Y-68730845D01*
X31340000Y-68730845D02*
X31292381Y-68754655D01*
X31292381Y-68754655D02*
X31244762Y-68802274D01*
X31244762Y-68802274D02*
X31220952Y-68873702D01*
X31220952Y-68873702D02*
X31220952Y-68921321D01*
X31220952Y-68921321D02*
X31244762Y-68992750D01*
X31244762Y-68992750D02*
X31268571Y-69016559D01*
X31220952Y-69183226D02*
X31220952Y-69516559D01*
X31220952Y-69516559D02*
X31720952Y-69302274D01*
D13*
%TO.C,D7*%
X20450000Y-29260000D02*
X20450000Y-30760000D01*
X20450000Y-30760000D02*
X25850000Y-30760000D01*
X22650000Y-29510000D02*
X22650000Y-30510000D01*
X22750000Y-30010000D02*
X23650000Y-29510000D01*
X23650000Y-29510000D02*
X23650000Y-30510000D01*
X23650000Y-30510000D02*
X22750000Y-30010000D01*
X25850000Y-29260000D02*
X20450000Y-29260000D01*
X25850000Y-30760000D02*
X25850000Y-29260000D01*
%TO.C,D11*%
X39480000Y-29350000D02*
X39480000Y-30850000D01*
X39480000Y-30850000D02*
X44880000Y-30850000D01*
X41680000Y-29600000D02*
X41680000Y-30600000D01*
X41780000Y-30100000D02*
X42680000Y-29600000D01*
X42680000Y-29600000D02*
X42680000Y-30600000D01*
X42680000Y-30600000D02*
X41780000Y-30100000D01*
X44880000Y-29350000D02*
X39480000Y-29350000D01*
X44880000Y-30850000D02*
X44880000Y-29350000D01*
%TO.C,SW1*%
X-7275000Y-1400000D02*
X-7300000Y-6000000D01*
X-6100000Y4850000D02*
X-6100000Y905000D01*
X-6100000Y896000D02*
X-2490000Y896000D01*
X-3500000Y-6025000D02*
X-7275000Y-6025000D01*
X-2575000Y-1375000D02*
X-7275000Y-1375000D01*
X-2280000Y-7500000D02*
X-2280000Y-8200000D01*
X2275000Y-3575000D02*
X-275000Y-3575000D01*
X2275000Y-8225000D02*
X-2275000Y-8225000D01*
X2300000Y-3600000D02*
X2300000Y-8200000D01*
X4800000Y6804000D02*
X-3825000Y6804000D01*
X4800000Y2896000D02*
X4800000Y6804000D01*
X4800000Y2850000D02*
X-250000Y2804000D01*
X-6089000Y4920000D02*
G75*
G02*
X-3825000Y6804000I2074000J-190000D01*
G01*
X-3500000Y-6030000D02*
G75*
G02*
X-2280000Y-7450000I-100000J-1320000D01*
G01*
X-2485000Y920000D02*
G75*
G02*
X-225000Y2800000I2070000J-190000D01*
G01*
X-200000Y-3570000D02*
G75*
G02*
X-2570000Y-1400000I-100000J2270000D01*
G01*
%TO.C,D20*%
X76010000Y-48310000D02*
X76010000Y-49810000D01*
X76010000Y-49810000D02*
X81410000Y-49810000D01*
X78210000Y-48560000D02*
X78210000Y-49560000D01*
X78310000Y-49060000D02*
X79210000Y-48560000D01*
X79210000Y-48560000D02*
X79210000Y-49560000D01*
X79210000Y-49560000D02*
X78310000Y-49060000D01*
X81410000Y-48310000D02*
X76010000Y-48310000D01*
X81410000Y-49810000D02*
X81410000Y-48310000D01*
%TO.C,SW8*%
X-26325000Y-39500000D02*
X-26350000Y-44100000D01*
X-25150000Y-33250000D02*
X-25150000Y-37195000D01*
X-25150000Y-37204000D02*
X-21540000Y-37204000D01*
X-22550000Y-44125000D02*
X-26325000Y-44125000D01*
X-21625000Y-39475000D02*
X-26325000Y-39475000D01*
X-21330000Y-45600000D02*
X-21330000Y-46300000D01*
X-16775000Y-41675000D02*
X-19325000Y-41675000D01*
X-16775000Y-46325000D02*
X-21325000Y-46325000D01*
X-16750000Y-41700000D02*
X-16750000Y-46300000D01*
X-14250000Y-31296000D02*
X-22875000Y-31296000D01*
X-14250000Y-35204000D02*
X-14250000Y-31296000D01*
X-14250000Y-35250000D02*
X-19300000Y-35296000D01*
X-25139000Y-33180000D02*
G75*
G02*
X-22875000Y-31296000I2074000J-190000D01*
G01*
X-22550000Y-44130000D02*
G75*
G02*
X-21330000Y-45550000I-100000J-1320000D01*
G01*
X-21535000Y-37180000D02*
G75*
G02*
X-19275000Y-35300000I2070000J-190000D01*
G01*
X-19250000Y-41670000D02*
G75*
G02*
X-21620000Y-39500000I-100000J2270000D01*
G01*
%TO.C,D13*%
X58610000Y8890000D02*
X58610000Y7390000D01*
X58610000Y7390000D02*
X64010000Y7390000D01*
X60810000Y8640000D02*
X60810000Y7640000D01*
X60910000Y8140000D02*
X61810000Y8640000D01*
X61810000Y8640000D02*
X61810000Y7640000D01*
X61810000Y7640000D02*
X60910000Y8140000D01*
X64010000Y8890000D02*
X58610000Y8890000D01*
X64010000Y7390000D02*
X64010000Y8890000D01*
%TO.C,SW15*%
X49875000Y-39500000D02*
X49850000Y-44100000D01*
X51050000Y-33250000D02*
X51050000Y-37195000D01*
X51050000Y-37204000D02*
X54660000Y-37204000D01*
X53650000Y-44125000D02*
X49875000Y-44125000D01*
X54575000Y-39475000D02*
X49875000Y-39475000D01*
X54870000Y-45600000D02*
X54870000Y-46300000D01*
X59425000Y-41675000D02*
X56875000Y-41675000D01*
X59425000Y-46325000D02*
X54875000Y-46325000D01*
X59450000Y-41700000D02*
X59450000Y-46300000D01*
X61950000Y-31296000D02*
X53325000Y-31296000D01*
X61950000Y-35204000D02*
X61950000Y-31296000D01*
X61950000Y-35250000D02*
X56900000Y-35296000D01*
X51061000Y-33180000D02*
G75*
G02*
X53325000Y-31296000I2074000J-190000D01*
G01*
X53650000Y-44130000D02*
G75*
G02*
X54870000Y-45550000I-100000J-1320000D01*
G01*
X54665000Y-37180000D02*
G75*
G02*
X56925000Y-35300000I2070000J-190000D01*
G01*
X56950000Y-41670000D02*
G75*
G02*
X54580000Y-39500000I-100000J2270000D01*
G01*
%TO.C,SW16*%
X-7275000Y-58550000D02*
X-7300000Y-63150000D01*
X-6100000Y-52300000D02*
X-6100000Y-56245000D01*
X-6100000Y-56254000D02*
X-2490000Y-56254000D01*
X-3500000Y-63175000D02*
X-7275000Y-63175000D01*
X-2575000Y-58525000D02*
X-7275000Y-58525000D01*
X-2280000Y-64650000D02*
X-2280000Y-65350000D01*
X2275000Y-60725000D02*
X-275000Y-60725000D01*
X2275000Y-65375000D02*
X-2275000Y-65375000D01*
X2300000Y-60750000D02*
X2300000Y-65350000D01*
X4800000Y-50346000D02*
X-3825000Y-50346000D01*
X4800000Y-54254000D02*
X4800000Y-50346000D01*
X4800000Y-54300000D02*
X-250000Y-54346000D01*
X-6089000Y-52230000D02*
G75*
G02*
X-3825000Y-50346000I2074000J-190000D01*
G01*
X-3500000Y-63180000D02*
G75*
G02*
X-2280000Y-64600000I-100000J-1320000D01*
G01*
X-2485000Y-56230000D02*
G75*
G02*
X-225000Y-54350000I2070000J-190000D01*
G01*
X-200000Y-60720000D02*
G75*
G02*
X-2570000Y-58550000I-100000J2270000D01*
G01*
%TO.C,SW13*%
X49875000Y-1400000D02*
X49850000Y-6000000D01*
X51050000Y4850000D02*
X51050000Y905000D01*
X51050000Y896000D02*
X54660000Y896000D01*
X53650000Y-6025000D02*
X49875000Y-6025000D01*
X54575000Y-1375000D02*
X49875000Y-1375000D01*
X54870000Y-7500000D02*
X54870000Y-8200000D01*
X59425000Y-3575000D02*
X56875000Y-3575000D01*
X59425000Y-8225000D02*
X54875000Y-8225000D01*
X59450000Y-3600000D02*
X59450000Y-8200000D01*
X61950000Y6804000D02*
X53325000Y6804000D01*
X61950000Y2896000D02*
X61950000Y6804000D01*
X61950000Y2850000D02*
X56900000Y2804000D01*
X51061000Y4920000D02*
G75*
G02*
X53325000Y6804000I2074000J-190000D01*
G01*
X53650000Y-6030000D02*
G75*
G02*
X54870000Y-7450000I-100000J-1320000D01*
G01*
X54665000Y920000D02*
G75*
G02*
X56925000Y2800000I2070000J-190000D01*
G01*
X56950000Y-3570000D02*
G75*
G02*
X54580000Y-1400000I-100000J2270000D01*
G01*
%TO.C,D15*%
X58610000Y-29200000D02*
X58610000Y-30700000D01*
X58610000Y-30700000D02*
X64010000Y-30700000D01*
X60810000Y-29450000D02*
X60810000Y-30450000D01*
X60910000Y-29950000D02*
X61810000Y-29450000D01*
X61810000Y-29450000D02*
X61810000Y-30450000D01*
X61810000Y-30450000D02*
X60910000Y-29950000D01*
X64010000Y-29200000D02*
X58610000Y-29200000D01*
X64010000Y-30700000D02*
X64010000Y-29200000D01*
%TO.C,D1*%
X1460000Y8750000D02*
X1460000Y7250000D01*
X1460000Y7250000D02*
X6860000Y7250000D01*
X3660000Y8500000D02*
X3660000Y7500000D01*
X3760000Y8000000D02*
X4660000Y8500000D01*
X4660000Y8500000D02*
X4660000Y7500000D01*
X4660000Y7500000D02*
X3760000Y8000000D01*
X6860000Y8750000D02*
X1460000Y8750000D01*
X6860000Y7250000D02*
X6860000Y8750000D01*
%TO.C,D9*%
X39600000Y8750000D02*
X39600000Y7250000D01*
X39600000Y7250000D02*
X45000000Y7250000D01*
X41800000Y8500000D02*
X41800000Y7500000D01*
X41900000Y8000000D02*
X42800000Y8500000D01*
X42800000Y8500000D02*
X42800000Y7500000D01*
X42800000Y7500000D02*
X41900000Y8000000D01*
X45000000Y8750000D02*
X39600000Y8750000D01*
X45000000Y7250000D02*
X45000000Y8750000D01*
%TO.C,D17*%
X75740000Y8930000D02*
X75740000Y7430000D01*
X75740000Y7430000D02*
X81140000Y7430000D01*
X77940000Y8680000D02*
X77940000Y7680000D01*
X78040000Y8180000D02*
X78940000Y8680000D01*
X78940000Y8680000D02*
X78940000Y7680000D01*
X78940000Y7680000D02*
X78040000Y8180000D01*
X81140000Y8930000D02*
X75740000Y8930000D01*
X81140000Y7430000D02*
X81140000Y8930000D01*
%TO.C,D4*%
X-21740000Y-10200000D02*
X-21740000Y-11700000D01*
X-21740000Y-11700000D02*
X-16340000Y-11700000D01*
X-19540000Y-10450000D02*
X-19540000Y-11450000D01*
X-19440000Y-10950000D02*
X-18540000Y-10450000D01*
X-18540000Y-10450000D02*
X-18540000Y-11450000D01*
X-18540000Y-11450000D02*
X-19440000Y-10950000D01*
X-16340000Y-10200000D02*
X-21740000Y-10200000D01*
X-16340000Y-11700000D02*
X-16340000Y-10200000D01*
%TO.C,D16*%
X1630000Y-48220000D02*
X1630000Y-49720000D01*
X1630000Y-49720000D02*
X7030000Y-49720000D01*
X3830000Y-48470000D02*
X3830000Y-49470000D01*
X3930000Y-48970000D02*
X4830000Y-48470000D01*
X4830000Y-48470000D02*
X4830000Y-49470000D01*
X4830000Y-49470000D02*
X3930000Y-48970000D01*
X7030000Y-48220000D02*
X1630000Y-48220000D01*
X7030000Y-49720000D02*
X7030000Y-48220000D01*
%TO.C,SW17*%
X68925000Y-1400000D02*
X68900000Y-6000000D01*
X70100000Y4850000D02*
X70100000Y905000D01*
X70100000Y896000D02*
X73710000Y896000D01*
X72700000Y-6025000D02*
X68925000Y-6025000D01*
X73625000Y-1375000D02*
X68925000Y-1375000D01*
X73920000Y-7500000D02*
X73920000Y-8200000D01*
X78475000Y-3575000D02*
X75925000Y-3575000D01*
X78475000Y-8225000D02*
X73925000Y-8225000D01*
X78500000Y-3600000D02*
X78500000Y-8200000D01*
X81000000Y6804000D02*
X72375000Y6804000D01*
X81000000Y2896000D02*
X81000000Y6804000D01*
X81000000Y2850000D02*
X75950000Y2804000D01*
X70111000Y4920000D02*
G75*
G02*
X72375000Y6804000I2074000J-190000D01*
G01*
X72700000Y-6030000D02*
G75*
G02*
X73920000Y-7450000I-100000J-1320000D01*
G01*
X73715000Y920000D02*
G75*
G02*
X75975000Y2800000I2070000J-190000D01*
G01*
X76000000Y-3570000D02*
G75*
G02*
X73630000Y-1400000I-100000J2270000D01*
G01*
%TO.C,D3*%
X1405000Y-29380000D02*
X1405000Y-30880000D01*
X1405000Y-30880000D02*
X6805000Y-30880000D01*
X3605000Y-29630000D02*
X3605000Y-30630000D01*
X3705000Y-30130000D02*
X4605000Y-29630000D01*
X4605000Y-29630000D02*
X4605000Y-30630000D01*
X4605000Y-30630000D02*
X3705000Y-30130000D01*
X6805000Y-29380000D02*
X1405000Y-29380000D01*
X6805000Y-30880000D02*
X6805000Y-29380000D01*
%TO.C,D19*%
X76155000Y-29190000D02*
X76155000Y-30690000D01*
X76155000Y-30690000D02*
X81555000Y-30690000D01*
X78355000Y-29440000D02*
X78355000Y-30440000D01*
X78455000Y-29940000D02*
X79355000Y-29440000D01*
X79355000Y-29440000D02*
X79355000Y-30440000D01*
X79355000Y-30440000D02*
X78455000Y-29940000D01*
X81555000Y-29190000D02*
X76155000Y-29190000D01*
X81555000Y-30690000D02*
X81555000Y-29190000D01*
%TO.C,SW11*%
X30825000Y-39500000D02*
X30800000Y-44100000D01*
X32000000Y-33250000D02*
X32000000Y-37195000D01*
X32000000Y-37204000D02*
X35610000Y-37204000D01*
X34600000Y-44125000D02*
X30825000Y-44125000D01*
X35525000Y-39475000D02*
X30825000Y-39475000D01*
X35820000Y-45600000D02*
X35820000Y-46300000D01*
X40375000Y-41675000D02*
X37825000Y-41675000D01*
X40375000Y-46325000D02*
X35825000Y-46325000D01*
X40400000Y-41700000D02*
X40400000Y-46300000D01*
X42900000Y-31296000D02*
X34275000Y-31296000D01*
X42900000Y-35204000D02*
X42900000Y-31296000D01*
X42900000Y-35250000D02*
X37850000Y-35296000D01*
X32011000Y-33180000D02*
G75*
G02*
X34275000Y-31296000I2074000J-190000D01*
G01*
X34600000Y-44130000D02*
G75*
G02*
X35820000Y-45550000I-100000J-1320000D01*
G01*
X35615000Y-37180000D02*
G75*
G02*
X37875000Y-35300000I2070000J-190000D01*
G01*
X37900000Y-41670000D02*
G75*
G02*
X35530000Y-39500000I-100000J2270000D01*
G01*
%TO.C,SW12*%
X-26325000Y-58550000D02*
X-26350000Y-63150000D01*
X-25150000Y-52300000D02*
X-25150000Y-56245000D01*
X-25150000Y-56254000D02*
X-21540000Y-56254000D01*
X-22550000Y-63175000D02*
X-26325000Y-63175000D01*
X-21625000Y-58525000D02*
X-26325000Y-58525000D01*
X-21330000Y-64650000D02*
X-21330000Y-65350000D01*
X-16775000Y-60725000D02*
X-19325000Y-60725000D01*
X-16775000Y-65375000D02*
X-21325000Y-65375000D01*
X-16750000Y-60750000D02*
X-16750000Y-65350000D01*
X-14250000Y-50346000D02*
X-22875000Y-50346000D01*
X-14250000Y-54254000D02*
X-14250000Y-50346000D01*
X-14250000Y-54300000D02*
X-19300000Y-54346000D01*
X-25139000Y-52230000D02*
G75*
G02*
X-22875000Y-50346000I2074000J-190000D01*
G01*
X-22550000Y-63180000D02*
G75*
G02*
X-21330000Y-64600000I-100000J-1320000D01*
G01*
X-21535000Y-56230000D02*
G75*
G02*
X-19275000Y-54350000I2070000J-190000D01*
G01*
X-19250000Y-60720000D02*
G75*
G02*
X-21620000Y-58550000I-100000J2270000D01*
G01*
%TO.C,SW19*%
X68925000Y-39600000D02*
X68900000Y-44200000D01*
X70100000Y-33350000D02*
X70100000Y-37295000D01*
X70100000Y-37304000D02*
X73710000Y-37304000D01*
X72700000Y-44225000D02*
X68925000Y-44225000D01*
X73625000Y-39575000D02*
X68925000Y-39575000D01*
X73920000Y-45700000D02*
X73920000Y-46400000D01*
X78475000Y-41775000D02*
X75925000Y-41775000D01*
X78475000Y-46425000D02*
X73925000Y-46425000D01*
X78500000Y-41800000D02*
X78500000Y-46400000D01*
X81000000Y-31396000D02*
X72375000Y-31396000D01*
X81000000Y-35304000D02*
X81000000Y-31396000D01*
X81000000Y-35350000D02*
X75950000Y-35396000D01*
X70111000Y-33280000D02*
G75*
G02*
X72375000Y-31396000I2074000J-190000D01*
G01*
X72700000Y-44230000D02*
G75*
G02*
X73920000Y-45650000I-100000J-1320000D01*
G01*
X73715000Y-37280000D02*
G75*
G02*
X75975000Y-35400000I2070000J-190000D01*
G01*
X76000000Y-41770000D02*
G75*
G02*
X73630000Y-39600000I-100000J2270000D01*
G01*
%TO.C,SW20*%
X68925000Y-58650000D02*
X68900000Y-63250000D01*
X70100000Y-52400000D02*
X70100000Y-56345000D01*
X70100000Y-56354000D02*
X73710000Y-56354000D01*
X72700000Y-63275000D02*
X68925000Y-63275000D01*
X73625000Y-58625000D02*
X68925000Y-58625000D01*
X73920000Y-64750000D02*
X73920000Y-65450000D01*
X78475000Y-60825000D02*
X75925000Y-60825000D01*
X78475000Y-65475000D02*
X73925000Y-65475000D01*
X78500000Y-60850000D02*
X78500000Y-65450000D01*
X81000000Y-50446000D02*
X72375000Y-50446000D01*
X81000000Y-54354000D02*
X81000000Y-50446000D01*
X81000000Y-54400000D02*
X75950000Y-54446000D01*
X70111000Y-52330000D02*
G75*
G02*
X72375000Y-50446000I2074000J-190000D01*
G01*
X72700000Y-63280000D02*
G75*
G02*
X73920000Y-64700000I-100000J-1320000D01*
G01*
X73715000Y-56330000D02*
G75*
G02*
X75975000Y-54450000I2070000J-190000D01*
G01*
X76000000Y-60820000D02*
G75*
G02*
X73630000Y-58650000I-100000J2270000D01*
G01*
%TO.C,SW3*%
X-7275000Y-39500000D02*
X-7300000Y-44100000D01*
X-6100000Y-33250000D02*
X-6100000Y-37195000D01*
X-6100000Y-37204000D02*
X-2490000Y-37204000D01*
X-3500000Y-44125000D02*
X-7275000Y-44125000D01*
X-2575000Y-39475000D02*
X-7275000Y-39475000D01*
X-2280000Y-45600000D02*
X-2280000Y-46300000D01*
X2275000Y-41675000D02*
X-275000Y-41675000D01*
X2275000Y-46325000D02*
X-2275000Y-46325000D01*
X2300000Y-41700000D02*
X2300000Y-46300000D01*
X4800000Y-31296000D02*
X-3825000Y-31296000D01*
X4800000Y-35204000D02*
X4800000Y-31296000D01*
X4800000Y-35250000D02*
X-250000Y-35296000D01*
X-6089000Y-33180000D02*
G75*
G02*
X-3825000Y-31296000I2074000J-190000D01*
G01*
X-3500000Y-44130000D02*
G75*
G02*
X-2280000Y-45550000I-100000J-1320000D01*
G01*
X-2485000Y-37180000D02*
G75*
G02*
X-225000Y-35300000I2070000J-190000D01*
G01*
X-200000Y-41670000D02*
G75*
G02*
X-2570000Y-39500000I-100000J2270000D01*
G01*
%TO.C,D10*%
X39540000Y-10400000D02*
X39540000Y-11900000D01*
X39540000Y-11900000D02*
X44940000Y-11900000D01*
X41740000Y-10650000D02*
X41740000Y-11650000D01*
X41840000Y-11150000D02*
X42740000Y-10650000D01*
X42740000Y-10650000D02*
X42740000Y-11650000D01*
X42740000Y-11650000D02*
X41840000Y-11150000D01*
X44940000Y-10400000D02*
X39540000Y-10400000D01*
X44940000Y-11900000D02*
X44940000Y-10400000D01*
%TO.C,SW7*%
X11775000Y-39500000D02*
X11750000Y-44100000D01*
X12950000Y-33250000D02*
X12950000Y-37195000D01*
X12950000Y-37204000D02*
X16560000Y-37204000D01*
X15550000Y-44125000D02*
X11775000Y-44125000D01*
X16475000Y-39475000D02*
X11775000Y-39475000D01*
X16770000Y-45600000D02*
X16770000Y-46300000D01*
X21325000Y-41675000D02*
X18775000Y-41675000D01*
X21325000Y-46325000D02*
X16775000Y-46325000D01*
X21350000Y-41700000D02*
X21350000Y-46300000D01*
X23850000Y-31296000D02*
X15225000Y-31296000D01*
X23850000Y-35204000D02*
X23850000Y-31296000D01*
X23850000Y-35250000D02*
X18800000Y-35296000D01*
X12961000Y-33180000D02*
G75*
G02*
X15225000Y-31296000I2074000J-190000D01*
G01*
X15550000Y-44130000D02*
G75*
G02*
X16770000Y-45550000I-100000J-1320000D01*
G01*
X16565000Y-37180000D02*
G75*
G02*
X18825000Y-35300000I2070000J-190000D01*
G01*
X18850000Y-41670000D02*
G75*
G02*
X16480000Y-39500000I-100000J2270000D01*
G01*
%TO.C,SW10*%
X30825000Y-20450000D02*
X30800000Y-25050000D01*
X32000000Y-14200000D02*
X32000000Y-18145000D01*
X32000000Y-18154000D02*
X35610000Y-18154000D01*
X34600000Y-25075000D02*
X30825000Y-25075000D01*
X35525000Y-20425000D02*
X30825000Y-20425000D01*
X35820000Y-26550000D02*
X35820000Y-27250000D01*
X40375000Y-22625000D02*
X37825000Y-22625000D01*
X40375000Y-27275000D02*
X35825000Y-27275000D01*
X40400000Y-22650000D02*
X40400000Y-27250000D01*
X42900000Y-12246000D02*
X34275000Y-12246000D01*
X42900000Y-16154000D02*
X42900000Y-12246000D01*
X42900000Y-16200000D02*
X37850000Y-16246000D01*
X32011000Y-14130000D02*
G75*
G02*
X34275000Y-12246000I2074000J-190000D01*
G01*
X34600000Y-25080000D02*
G75*
G02*
X35820000Y-26500000I-100000J-1320000D01*
G01*
X35615000Y-18130000D02*
G75*
G02*
X37875000Y-16250000I2070000J-190000D01*
G01*
X37900000Y-22620000D02*
G75*
G02*
X35530000Y-20450000I-100000J2270000D01*
G01*
%TO.C,D2*%
X1610000Y-10330000D02*
X1610000Y-11830000D01*
X1610000Y-11830000D02*
X7010000Y-11830000D01*
X3810000Y-10580000D02*
X3810000Y-11580000D01*
X3910000Y-11080000D02*
X4810000Y-10580000D01*
X4810000Y-10580000D02*
X4810000Y-11580000D01*
X4810000Y-11580000D02*
X3910000Y-11080000D01*
X7010000Y-10330000D02*
X1610000Y-10330000D01*
X7010000Y-11830000D02*
X7010000Y-10330000D01*
%TO.C,D6*%
X20450000Y-10230000D02*
X20450000Y-11730000D01*
X20450000Y-11730000D02*
X25850000Y-11730000D01*
X22650000Y-10480000D02*
X22650000Y-11480000D01*
X22750000Y-10980000D02*
X23650000Y-10480000D01*
X23650000Y-10480000D02*
X23650000Y-11480000D01*
X23650000Y-11480000D02*
X22750000Y-10980000D01*
X25850000Y-10230000D02*
X20450000Y-10230000D01*
X25850000Y-11730000D02*
X25850000Y-10230000D01*
%TO.C,SW5*%
X11775000Y-1400000D02*
X11750000Y-6000000D01*
X12950000Y4850000D02*
X12950000Y905000D01*
X12950000Y896000D02*
X16560000Y896000D01*
X15550000Y-6025000D02*
X11775000Y-6025000D01*
X16475000Y-1375000D02*
X11775000Y-1375000D01*
X16770000Y-7500000D02*
X16770000Y-8200000D01*
X21325000Y-3575000D02*
X18775000Y-3575000D01*
X21325000Y-8225000D02*
X16775000Y-8225000D01*
X21350000Y-3600000D02*
X21350000Y-8200000D01*
X23850000Y6804000D02*
X15225000Y6804000D01*
X23850000Y2896000D02*
X23850000Y6804000D01*
X23850000Y2850000D02*
X18800000Y2804000D01*
X12961000Y4920000D02*
G75*
G02*
X15225000Y6804000I2074000J-190000D01*
G01*
X15550000Y-6030000D02*
G75*
G02*
X16770000Y-7450000I-100000J-1320000D01*
G01*
X16565000Y920000D02*
G75*
G02*
X18825000Y2800000I2070000J-190000D01*
G01*
X18850000Y-3570000D02*
G75*
G02*
X16480000Y-1400000I-100000J2270000D01*
G01*
%TO.C,SW6*%
X11775000Y-20450000D02*
X11750000Y-25050000D01*
X12950000Y-14200000D02*
X12950000Y-18145000D01*
X12950000Y-18154000D02*
X16560000Y-18154000D01*
X15550000Y-25075000D02*
X11775000Y-25075000D01*
X16475000Y-20425000D02*
X11775000Y-20425000D01*
X16770000Y-26550000D02*
X16770000Y-27250000D01*
X21325000Y-22625000D02*
X18775000Y-22625000D01*
X21325000Y-27275000D02*
X16775000Y-27275000D01*
X21350000Y-22650000D02*
X21350000Y-27250000D01*
X23850000Y-12246000D02*
X15225000Y-12246000D01*
X23850000Y-16154000D02*
X23850000Y-12246000D01*
X23850000Y-16200000D02*
X18800000Y-16246000D01*
X12961000Y-14130000D02*
G75*
G02*
X15225000Y-12246000I2074000J-190000D01*
G01*
X15550000Y-25080000D02*
G75*
G02*
X16770000Y-26500000I-100000J-1320000D01*
G01*
X16565000Y-18130000D02*
G75*
G02*
X18825000Y-16250000I2070000J-190000D01*
G01*
X18850000Y-22620000D02*
G75*
G02*
X16480000Y-20450000I-100000J2270000D01*
G01*
%TO.C,SW9*%
X30825000Y-1400000D02*
X30800000Y-6000000D01*
X32000000Y4850000D02*
X32000000Y905000D01*
X32000000Y896000D02*
X35610000Y896000D01*
X34600000Y-6025000D02*
X30825000Y-6025000D01*
X35525000Y-1375000D02*
X30825000Y-1375000D01*
X35820000Y-7500000D02*
X35820000Y-8200000D01*
X40375000Y-3575000D02*
X37825000Y-3575000D01*
X40375000Y-8225000D02*
X35825000Y-8225000D01*
X40400000Y-3600000D02*
X40400000Y-8200000D01*
X42900000Y6804000D02*
X34275000Y6804000D01*
X42900000Y2896000D02*
X42900000Y6804000D01*
X42900000Y2850000D02*
X37850000Y2804000D01*
X32011000Y4920000D02*
G75*
G02*
X34275000Y6804000I2074000J-190000D01*
G01*
X34600000Y-6030000D02*
G75*
G02*
X35820000Y-7450000I-100000J-1320000D01*
G01*
X35615000Y920000D02*
G75*
G02*
X37875000Y2800000I2070000J-190000D01*
G01*
X37900000Y-3570000D02*
G75*
G02*
X35530000Y-1400000I-100000J2270000D01*
G01*
%TO.C,SW4*%
X-26325000Y-20450000D02*
X-26350000Y-25050000D01*
X-25150000Y-14200000D02*
X-25150000Y-18145000D01*
X-25150000Y-18154000D02*
X-21540000Y-18154000D01*
X-22550000Y-25075000D02*
X-26325000Y-25075000D01*
X-21625000Y-20425000D02*
X-26325000Y-20425000D01*
X-21330000Y-26550000D02*
X-21330000Y-27250000D01*
X-16775000Y-22625000D02*
X-19325000Y-22625000D01*
X-16775000Y-27275000D02*
X-21325000Y-27275000D01*
X-16750000Y-22650000D02*
X-16750000Y-27250000D01*
X-14250000Y-12246000D02*
X-22875000Y-12246000D01*
X-14250000Y-16154000D02*
X-14250000Y-12246000D01*
X-14250000Y-16200000D02*
X-19300000Y-16246000D01*
X-25139000Y-14130000D02*
G75*
G02*
X-22875000Y-12246000I2074000J-190000D01*
G01*
X-22550000Y-25080000D02*
G75*
G02*
X-21330000Y-26500000I-100000J-1320000D01*
G01*
X-21535000Y-18130000D02*
G75*
G02*
X-19275000Y-16250000I2070000J-190000D01*
G01*
X-19250000Y-22620000D02*
G75*
G02*
X-21620000Y-20450000I-100000J2270000D01*
G01*
%TO.C,D8*%
X-17570000Y-29230000D02*
X-17570000Y-30730000D01*
X-17570000Y-30730000D02*
X-12170000Y-30730000D01*
X-15370000Y-29480000D02*
X-15370000Y-30480000D01*
X-15270000Y-29980000D02*
X-14370000Y-29480000D01*
X-14370000Y-29480000D02*
X-14370000Y-30480000D01*
X-14370000Y-30480000D02*
X-15270000Y-29980000D01*
X-12170000Y-29230000D02*
X-17570000Y-29230000D01*
X-12170000Y-30730000D02*
X-12170000Y-29230000D01*
%TO.C,D14*%
X54790000Y-10180000D02*
X54790000Y-11680000D01*
X54790000Y-11680000D02*
X60190000Y-11680000D01*
X56990000Y-10430000D02*
X56990000Y-11430000D01*
X57090000Y-10930000D02*
X57990000Y-10430000D01*
X57990000Y-10430000D02*
X57990000Y-11430000D01*
X57990000Y-11430000D02*
X57090000Y-10930000D01*
X60190000Y-10180000D02*
X54790000Y-10180000D01*
X60190000Y-11680000D02*
X60190000Y-10180000D01*
%TO.C,D12*%
X-21390000Y-48390000D02*
X-21390000Y-49890000D01*
X-21390000Y-49890000D02*
X-15990000Y-49890000D01*
X-19190000Y-48640000D02*
X-19190000Y-49640000D01*
X-19090000Y-49140000D02*
X-18190000Y-48640000D01*
X-18190000Y-48640000D02*
X-18190000Y-49640000D01*
X-18190000Y-49640000D02*
X-19090000Y-49140000D01*
X-15990000Y-48390000D02*
X-21390000Y-48390000D01*
X-15990000Y-49890000D02*
X-15990000Y-48390000D01*
%TO.C,D5*%
X20710000Y8790000D02*
X20710000Y7290000D01*
X20710000Y7290000D02*
X26110000Y7290000D01*
X22910000Y8540000D02*
X22910000Y7540000D01*
X23010000Y8040000D02*
X23910000Y8540000D01*
X23910000Y8540000D02*
X23910000Y7540000D01*
X23910000Y7540000D02*
X23010000Y8040000D01*
X26110000Y8790000D02*
X20710000Y8790000D01*
X26110000Y7290000D02*
X26110000Y8790000D01*
%TO.C,SW2*%
X-7275000Y-20450000D02*
X-7300000Y-25050000D01*
X-6100000Y-14200000D02*
X-6100000Y-18145000D01*
X-6100000Y-18154000D02*
X-2490000Y-18154000D01*
X-3500000Y-25075000D02*
X-7275000Y-25075000D01*
X-2575000Y-20425000D02*
X-7275000Y-20425000D01*
X-2280000Y-26550000D02*
X-2280000Y-27250000D01*
X2275000Y-22625000D02*
X-275000Y-22625000D01*
X2275000Y-27275000D02*
X-2275000Y-27275000D01*
X2300000Y-22650000D02*
X2300000Y-27250000D01*
X4800000Y-12246000D02*
X-3825000Y-12246000D01*
X4800000Y-16154000D02*
X4800000Y-12246000D01*
X4800000Y-16200000D02*
X-250000Y-16246000D01*
X-6089000Y-14130000D02*
G75*
G02*
X-3825000Y-12246000I2074000J-190000D01*
G01*
X-3500000Y-25080000D02*
G75*
G02*
X-2280000Y-26500000I-100000J-1320000D01*
G01*
X-2485000Y-18130000D02*
G75*
G02*
X-225000Y-16250000I2070000J-190000D01*
G01*
X-200000Y-22620000D02*
G75*
G02*
X-2570000Y-20450000I-100000J2270000D01*
G01*
%TO.C,SW18*%
X68925000Y-20450000D02*
X68900000Y-25050000D01*
X70100000Y-14200000D02*
X70100000Y-18145000D01*
X70100000Y-18154000D02*
X73710000Y-18154000D01*
X72700000Y-25075000D02*
X68925000Y-25075000D01*
X73625000Y-20425000D02*
X68925000Y-20425000D01*
X73920000Y-26550000D02*
X73920000Y-27250000D01*
X78475000Y-22625000D02*
X75925000Y-22625000D01*
X78475000Y-27275000D02*
X73925000Y-27275000D01*
X78500000Y-22650000D02*
X78500000Y-27250000D01*
X81000000Y-12246000D02*
X72375000Y-12246000D01*
X81000000Y-16154000D02*
X81000000Y-12246000D01*
X81000000Y-16200000D02*
X75950000Y-16246000D01*
X70111000Y-14130000D02*
G75*
G02*
X72375000Y-12246000I2074000J-190000D01*
G01*
X72700000Y-25080000D02*
G75*
G02*
X73920000Y-26500000I-100000J-1320000D01*
G01*
X73715000Y-18130000D02*
G75*
G02*
X75975000Y-16250000I2070000J-190000D01*
G01*
X76000000Y-22620000D02*
G75*
G02*
X73630000Y-20450000I-100000J2270000D01*
G01*
%TO.C,SW14*%
X49875000Y-20450000D02*
X49850000Y-25050000D01*
X51050000Y-14200000D02*
X51050000Y-18145000D01*
X51050000Y-18154000D02*
X54660000Y-18154000D01*
X53650000Y-25075000D02*
X49875000Y-25075000D01*
X54575000Y-20425000D02*
X49875000Y-20425000D01*
X54870000Y-26550000D02*
X54870000Y-27250000D01*
X59425000Y-22625000D02*
X56875000Y-22625000D01*
X59425000Y-27275000D02*
X54875000Y-27275000D01*
X59450000Y-22650000D02*
X59450000Y-27250000D01*
X61950000Y-12246000D02*
X53325000Y-12246000D01*
X61950000Y-16154000D02*
X61950000Y-12246000D01*
X61950000Y-16200000D02*
X56900000Y-16246000D01*
X51061000Y-14130000D02*
G75*
G02*
X53325000Y-12246000I2074000J-190000D01*
G01*
X53650000Y-25080000D02*
G75*
G02*
X54870000Y-26500000I-100000J-1320000D01*
G01*
X54665000Y-18130000D02*
G75*
G02*
X56925000Y-16250000I2070000J-190000D01*
G01*
X56950000Y-22620000D02*
G75*
G02*
X54580000Y-20450000I-100000J2270000D01*
G01*
%TO.C,D18*%
X75710000Y-10110000D02*
X75710000Y-11610000D01*
X75710000Y-11610000D02*
X81110000Y-11610000D01*
X77910000Y-10360000D02*
X77910000Y-11360000D01*
X78010000Y-10860000D02*
X78910000Y-10360000D01*
X78910000Y-10360000D02*
X78910000Y-11360000D01*
X78910000Y-11360000D02*
X78010000Y-10860000D01*
X81110000Y-10110000D02*
X75710000Y-10110000D01*
X81110000Y-11610000D02*
X81110000Y-10110000D01*
D15*
%TO.C,U1*%
X40362893Y-52274893D02*
X40362893Y-52924893D01*
X40362893Y-53574893D02*
X40362893Y-52924893D01*
X43482893Y-52274893D02*
X43482893Y-52924893D01*
X43482893Y-53574893D02*
X43482893Y-52924893D01*
X40412893Y-51762393D02*
X40082893Y-52002393D01*
X40082893Y-51522393D01*
X40412893Y-51762393D01*
G36*
X40412893Y-51762393D02*
G01*
X40082893Y-52002393D01*
X40082893Y-51522393D01*
X40412893Y-51762393D01*
G37*
%TO.C,C1*%
X48412893Y-54015473D02*
X48412893Y-53734313D01*
X49432893Y-54015473D02*
X49432893Y-53734313D01*
%TO.C,C2*%
X48412893Y-57515473D02*
X48412893Y-57234313D01*
X49432893Y-57515473D02*
X49432893Y-57234313D01*
%TO.C,C3*%
X48412893Y-61015473D02*
X48412893Y-60734313D01*
X49432893Y-61015473D02*
X49432893Y-60734313D01*
%TO.C,C6*%
X29412893Y-69240473D02*
X29412893Y-68959313D01*
X30432893Y-69240473D02*
X30432893Y-68959313D01*
%TO.C,C8*%
X35412893Y-69240473D02*
X35412893Y-68959313D01*
X36432893Y-69240473D02*
X36432893Y-68959313D01*
%TO.C,C9*%
X38412893Y-69240473D02*
X38412893Y-68959313D01*
X39432893Y-69240473D02*
X39432893Y-68959313D01*
%TO.C,C4*%
X48412893Y-64515473D02*
X48412893Y-64234313D01*
X49432893Y-64515473D02*
X49432893Y-64234313D01*
%TO.C,R1*%
X41400393Y-69337151D02*
X41400393Y-68862635D01*
X42445393Y-69337151D02*
X42445393Y-68862635D01*
%TO.C,C5*%
X48412893Y-68015473D02*
X48412893Y-67734313D01*
X49432893Y-68015473D02*
X49432893Y-67734313D01*
%TO.C,C7*%
X32412893Y-69240473D02*
X32412893Y-68959313D01*
X33432893Y-69240473D02*
X33432893Y-68959313D01*
%TD*%
M02*
