%TF.GenerationSoftware,KiCad,Pcbnew,8.0.7*%
%TF.CreationDate,2025-02-28T21:37:25+09:00*%
%TF.ProjectId,cool642tb_R_with_tb,636f6f6c-3634-4327-9462-5f525f776974,rev?*%
%TF.SameCoordinates,Original*%
%TF.FileFunction,Legend,Top*%
%TF.FilePolarity,Positive*%
%FSLAX46Y46*%
G04 Gerber Fmt 4.6, Leading zero omitted, Abs format (unit mm)*
G04 Created by KiCad (PCBNEW 8.0.7) date 2025-02-28 21:37:25*
%MOMM*%
%LPD*%
G01*
G04 APERTURE LIST*
%ADD10C,0.300000*%
%ADD11C,0.100000*%
%ADD12C,0.150000*%
G04 APERTURE END LIST*
D10*
X29207403Y-51300007D02*
X29421689Y-51371435D01*
X29421689Y-51371435D02*
X29493118Y-51442864D01*
X29493118Y-51442864D02*
X29564546Y-51585721D01*
X29564546Y-51585721D02*
X29564546Y-51800007D01*
X29564546Y-51800007D02*
X29493118Y-51942864D01*
X29493118Y-51942864D02*
X29421689Y-52014293D01*
X29421689Y-52014293D02*
X29278832Y-52085721D01*
X29278832Y-52085721D02*
X28707403Y-52085721D01*
X28707403Y-52085721D02*
X28707403Y-50585721D01*
X28707403Y-50585721D02*
X29207403Y-50585721D01*
X29207403Y-50585721D02*
X29350261Y-50657150D01*
X29350261Y-50657150D02*
X29421689Y-50728578D01*
X29421689Y-50728578D02*
X29493118Y-50871435D01*
X29493118Y-50871435D02*
X29493118Y-51014293D01*
X29493118Y-51014293D02*
X29421689Y-51157150D01*
X29421689Y-51157150D02*
X29350261Y-51228578D01*
X29350261Y-51228578D02*
X29207403Y-51300007D01*
X29207403Y-51300007D02*
X28707403Y-51300007D01*
X30850261Y-52085721D02*
X30850261Y-51300007D01*
X30850261Y-51300007D02*
X30778832Y-51157150D01*
X30778832Y-51157150D02*
X30635975Y-51085721D01*
X30635975Y-51085721D02*
X30350261Y-51085721D01*
X30350261Y-51085721D02*
X30207403Y-51157150D01*
X30850261Y-52014293D02*
X30707403Y-52085721D01*
X30707403Y-52085721D02*
X30350261Y-52085721D01*
X30350261Y-52085721D02*
X30207403Y-52014293D01*
X30207403Y-52014293D02*
X30135975Y-51871435D01*
X30135975Y-51871435D02*
X30135975Y-51728578D01*
X30135975Y-51728578D02*
X30207403Y-51585721D01*
X30207403Y-51585721D02*
X30350261Y-51514293D01*
X30350261Y-51514293D02*
X30707403Y-51514293D01*
X30707403Y-51514293D02*
X30850261Y-51442864D01*
X32207404Y-52014293D02*
X32064546Y-52085721D01*
X32064546Y-52085721D02*
X31778832Y-52085721D01*
X31778832Y-52085721D02*
X31635975Y-52014293D01*
X31635975Y-52014293D02*
X31564546Y-51942864D01*
X31564546Y-51942864D02*
X31493118Y-51800007D01*
X31493118Y-51800007D02*
X31493118Y-51371435D01*
X31493118Y-51371435D02*
X31564546Y-51228578D01*
X31564546Y-51228578D02*
X31635975Y-51157150D01*
X31635975Y-51157150D02*
X31778832Y-51085721D01*
X31778832Y-51085721D02*
X32064546Y-51085721D01*
X32064546Y-51085721D02*
X32207404Y-51157150D01*
X32850260Y-52085721D02*
X32850260Y-50585721D01*
X32993118Y-51514293D02*
X33421689Y-52085721D01*
X33421689Y-51085721D02*
X32850260Y-51657150D01*
X35135975Y-52014293D02*
X35278832Y-52085721D01*
X35278832Y-52085721D02*
X35564546Y-52085721D01*
X35564546Y-52085721D02*
X35707403Y-52014293D01*
X35707403Y-52014293D02*
X35778832Y-51871435D01*
X35778832Y-51871435D02*
X35778832Y-51800007D01*
X35778832Y-51800007D02*
X35707403Y-51657150D01*
X35707403Y-51657150D02*
X35564546Y-51585721D01*
X35564546Y-51585721D02*
X35350261Y-51585721D01*
X35350261Y-51585721D02*
X35207403Y-51514293D01*
X35207403Y-51514293D02*
X35135975Y-51371435D01*
X35135975Y-51371435D02*
X35135975Y-51300007D01*
X35135975Y-51300007D02*
X35207403Y-51157150D01*
X35207403Y-51157150D02*
X35350261Y-51085721D01*
X35350261Y-51085721D02*
X35564546Y-51085721D01*
X35564546Y-51085721D02*
X35707403Y-51157150D01*
X36421689Y-52085721D02*
X36421689Y-51085721D01*
X36421689Y-50585721D02*
X36350261Y-50657150D01*
X36350261Y-50657150D02*
X36421689Y-50728578D01*
X36421689Y-50728578D02*
X36493118Y-50657150D01*
X36493118Y-50657150D02*
X36421689Y-50585721D01*
X36421689Y-50585721D02*
X36421689Y-50728578D01*
X37778833Y-52085721D02*
X37778833Y-50585721D01*
X37778833Y-52014293D02*
X37635975Y-52085721D01*
X37635975Y-52085721D02*
X37350261Y-52085721D01*
X37350261Y-52085721D02*
X37207404Y-52014293D01*
X37207404Y-52014293D02*
X37135975Y-51942864D01*
X37135975Y-51942864D02*
X37064547Y-51800007D01*
X37064547Y-51800007D02*
X37064547Y-51371435D01*
X37064547Y-51371435D02*
X37135975Y-51228578D01*
X37135975Y-51228578D02*
X37207404Y-51157150D01*
X37207404Y-51157150D02*
X37350261Y-51085721D01*
X37350261Y-51085721D02*
X37635975Y-51085721D01*
X37635975Y-51085721D02*
X37778833Y-51157150D01*
X39064547Y-52014293D02*
X38921690Y-52085721D01*
X38921690Y-52085721D02*
X38635976Y-52085721D01*
X38635976Y-52085721D02*
X38493118Y-52014293D01*
X38493118Y-52014293D02*
X38421690Y-51871435D01*
X38421690Y-51871435D02*
X38421690Y-51300007D01*
X38421690Y-51300007D02*
X38493118Y-51157150D01*
X38493118Y-51157150D02*
X38635976Y-51085721D01*
X38635976Y-51085721D02*
X38921690Y-51085721D01*
X38921690Y-51085721D02*
X39064547Y-51157150D01*
X39064547Y-51157150D02*
X39135976Y-51300007D01*
X39135976Y-51300007D02*
X39135976Y-51442864D01*
X39135976Y-51442864D02*
X38421690Y-51585721D01*
D11*
X47856502Y-69740056D02*
X47356502Y-69740056D01*
X47356502Y-69740056D02*
X47713645Y-69573389D01*
X47713645Y-69573389D02*
X47356502Y-69406723D01*
X47356502Y-69406723D02*
X47856502Y-69406723D01*
X47356502Y-69073389D02*
X47356502Y-68978151D01*
X47356502Y-68978151D02*
X47380312Y-68930532D01*
X47380312Y-68930532D02*
X47427931Y-68882913D01*
X47427931Y-68882913D02*
X47523169Y-68859103D01*
X47523169Y-68859103D02*
X47689835Y-68859103D01*
X47689835Y-68859103D02*
X47785073Y-68882913D01*
X47785073Y-68882913D02*
X47832693Y-68930532D01*
X47832693Y-68930532D02*
X47856502Y-68978151D01*
X47856502Y-68978151D02*
X47856502Y-69073389D01*
X47856502Y-69073389D02*
X47832693Y-69121008D01*
X47832693Y-69121008D02*
X47785073Y-69168627D01*
X47785073Y-69168627D02*
X47689835Y-69192436D01*
X47689835Y-69192436D02*
X47523169Y-69192436D01*
X47523169Y-69192436D02*
X47427931Y-69168627D01*
X47427931Y-69168627D02*
X47380312Y-69121008D01*
X47380312Y-69121008D02*
X47356502Y-69073389D01*
X47356502Y-68716245D02*
X47356502Y-68430531D01*
X47856502Y-68573388D02*
X47356502Y-68573388D01*
X47856502Y-68263865D02*
X47356502Y-68263865D01*
X47356502Y-67930532D02*
X47356502Y-67835294D01*
X47356502Y-67835294D02*
X47380312Y-67787675D01*
X47380312Y-67787675D02*
X47427931Y-67740056D01*
X47427931Y-67740056D02*
X47523169Y-67716246D01*
X47523169Y-67716246D02*
X47689835Y-67716246D01*
X47689835Y-67716246D02*
X47785073Y-67740056D01*
X47785073Y-67740056D02*
X47832693Y-67787675D01*
X47832693Y-67787675D02*
X47856502Y-67835294D01*
X47856502Y-67835294D02*
X47856502Y-67930532D01*
X47856502Y-67930532D02*
X47832693Y-67978151D01*
X47832693Y-67978151D02*
X47785073Y-68025770D01*
X47785073Y-68025770D02*
X47689835Y-68049579D01*
X47689835Y-68049579D02*
X47523169Y-68049579D01*
X47523169Y-68049579D02*
X47427931Y-68025770D01*
X47427931Y-68025770D02*
X47380312Y-67978151D01*
X47380312Y-67978151D02*
X47356502Y-67930532D01*
X47856502Y-67501960D02*
X47356502Y-67501960D01*
X47356502Y-67501960D02*
X47856502Y-67216246D01*
X47856502Y-67216246D02*
X47356502Y-67216246D01*
X47356502Y-61611484D02*
X47856502Y-61444818D01*
X47856502Y-61444818D02*
X47356502Y-61278151D01*
X47808883Y-60825771D02*
X47832693Y-60849580D01*
X47832693Y-60849580D02*
X47856502Y-60921009D01*
X47856502Y-60921009D02*
X47856502Y-60968628D01*
X47856502Y-60968628D02*
X47832693Y-61040056D01*
X47832693Y-61040056D02*
X47785073Y-61087675D01*
X47785073Y-61087675D02*
X47737454Y-61111485D01*
X47737454Y-61111485D02*
X47642216Y-61135294D01*
X47642216Y-61135294D02*
X47570788Y-61135294D01*
X47570788Y-61135294D02*
X47475550Y-61111485D01*
X47475550Y-61111485D02*
X47427931Y-61087675D01*
X47427931Y-61087675D02*
X47380312Y-61040056D01*
X47380312Y-61040056D02*
X47356502Y-60968628D01*
X47356502Y-60968628D02*
X47356502Y-60921009D01*
X47356502Y-60921009D02*
X47380312Y-60849580D01*
X47380312Y-60849580D02*
X47404121Y-60825771D01*
X47808883Y-60325771D02*
X47832693Y-60349580D01*
X47832693Y-60349580D02*
X47856502Y-60421009D01*
X47856502Y-60421009D02*
X47856502Y-60468628D01*
X47856502Y-60468628D02*
X47832693Y-60540056D01*
X47832693Y-60540056D02*
X47785073Y-60587675D01*
X47785073Y-60587675D02*
X47737454Y-60611485D01*
X47737454Y-60611485D02*
X47642216Y-60635294D01*
X47642216Y-60635294D02*
X47570788Y-60635294D01*
X47570788Y-60635294D02*
X47475550Y-60611485D01*
X47475550Y-60611485D02*
X47427931Y-60587675D01*
X47427931Y-60587675D02*
X47380312Y-60540056D01*
X47380312Y-60540056D02*
X47356502Y-60468628D01*
X47356502Y-60468628D02*
X47356502Y-60421009D01*
X47356502Y-60421009D02*
X47380312Y-60349580D01*
X47380312Y-60349580D02*
X47404121Y-60325771D01*
X47856502Y-56440056D02*
X47356502Y-56440056D01*
X47356502Y-56440056D02*
X47856502Y-56154342D01*
X47856502Y-56154342D02*
X47356502Y-56154342D01*
X47808883Y-55630532D02*
X47832693Y-55654341D01*
X47832693Y-55654341D02*
X47856502Y-55725770D01*
X47856502Y-55725770D02*
X47856502Y-55773389D01*
X47856502Y-55773389D02*
X47832693Y-55844817D01*
X47832693Y-55844817D02*
X47785073Y-55892436D01*
X47785073Y-55892436D02*
X47737454Y-55916246D01*
X47737454Y-55916246D02*
X47642216Y-55940055D01*
X47642216Y-55940055D02*
X47570788Y-55940055D01*
X47570788Y-55940055D02*
X47475550Y-55916246D01*
X47475550Y-55916246D02*
X47427931Y-55892436D01*
X47427931Y-55892436D02*
X47380312Y-55844817D01*
X47380312Y-55844817D02*
X47356502Y-55773389D01*
X47356502Y-55773389D02*
X47356502Y-55725770D01*
X47356502Y-55725770D02*
X47380312Y-55654341D01*
X47380312Y-55654341D02*
X47404121Y-55630532D01*
X47832693Y-55440055D02*
X47856502Y-55368627D01*
X47856502Y-55368627D02*
X47856502Y-55249579D01*
X47856502Y-55249579D02*
X47832693Y-55201960D01*
X47832693Y-55201960D02*
X47808883Y-55178151D01*
X47808883Y-55178151D02*
X47761264Y-55154341D01*
X47761264Y-55154341D02*
X47713645Y-55154341D01*
X47713645Y-55154341D02*
X47666026Y-55178151D01*
X47666026Y-55178151D02*
X47642216Y-55201960D01*
X47642216Y-55201960D02*
X47618407Y-55249579D01*
X47618407Y-55249579D02*
X47594597Y-55344817D01*
X47594597Y-55344817D02*
X47570788Y-55392436D01*
X47570788Y-55392436D02*
X47546978Y-55416246D01*
X47546978Y-55416246D02*
X47499359Y-55440055D01*
X47499359Y-55440055D02*
X47451740Y-55440055D01*
X47451740Y-55440055D02*
X47404121Y-55416246D01*
X47404121Y-55416246D02*
X47380312Y-55392436D01*
X47380312Y-55392436D02*
X47356502Y-55344817D01*
X47356502Y-55344817D02*
X47356502Y-55225770D01*
X47356502Y-55225770D02*
X47380312Y-55154341D01*
X47523169Y-63592437D02*
X47808883Y-63306723D01*
X47523169Y-63306723D02*
X47808883Y-63592437D01*
X47832693Y-54063865D02*
X47856502Y-53992437D01*
X47856502Y-53992437D02*
X47856502Y-53873389D01*
X47856502Y-53873389D02*
X47832693Y-53825770D01*
X47832693Y-53825770D02*
X47808883Y-53801961D01*
X47808883Y-53801961D02*
X47761264Y-53778151D01*
X47761264Y-53778151D02*
X47713645Y-53778151D01*
X47713645Y-53778151D02*
X47666026Y-53801961D01*
X47666026Y-53801961D02*
X47642216Y-53825770D01*
X47642216Y-53825770D02*
X47618407Y-53873389D01*
X47618407Y-53873389D02*
X47594597Y-53968627D01*
X47594597Y-53968627D02*
X47570788Y-54016246D01*
X47570788Y-54016246D02*
X47546978Y-54040056D01*
X47546978Y-54040056D02*
X47499359Y-54063865D01*
X47499359Y-54063865D02*
X47451740Y-54063865D01*
X47451740Y-54063865D02*
X47404121Y-54040056D01*
X47404121Y-54040056D02*
X47380312Y-54016246D01*
X47380312Y-54016246D02*
X47356502Y-53968627D01*
X47356502Y-53968627D02*
X47356502Y-53849580D01*
X47356502Y-53849580D02*
X47380312Y-53778151D01*
X47808883Y-53278152D02*
X47832693Y-53301961D01*
X47832693Y-53301961D02*
X47856502Y-53373390D01*
X47856502Y-53373390D02*
X47856502Y-53421009D01*
X47856502Y-53421009D02*
X47832693Y-53492437D01*
X47832693Y-53492437D02*
X47785073Y-53540056D01*
X47785073Y-53540056D02*
X47737454Y-53563866D01*
X47737454Y-53563866D02*
X47642216Y-53587675D01*
X47642216Y-53587675D02*
X47570788Y-53587675D01*
X47570788Y-53587675D02*
X47475550Y-53563866D01*
X47475550Y-53563866D02*
X47427931Y-53540056D01*
X47427931Y-53540056D02*
X47380312Y-53492437D01*
X47380312Y-53492437D02*
X47356502Y-53421009D01*
X47356502Y-53421009D02*
X47356502Y-53373390D01*
X47356502Y-53373390D02*
X47380312Y-53301961D01*
X47380312Y-53301961D02*
X47404121Y-53278152D01*
X47856502Y-52825771D02*
X47856502Y-53063866D01*
X47856502Y-53063866D02*
X47356502Y-53063866D01*
X47856502Y-52659104D02*
X47356502Y-52659104D01*
X47856502Y-52373390D02*
X47570788Y-52587675D01*
X47356502Y-52373390D02*
X47642216Y-52659104D01*
X47832693Y-66763865D02*
X47856502Y-66692437D01*
X47856502Y-66692437D02*
X47856502Y-66573389D01*
X47856502Y-66573389D02*
X47832693Y-66525770D01*
X47832693Y-66525770D02*
X47808883Y-66501961D01*
X47808883Y-66501961D02*
X47761264Y-66478151D01*
X47761264Y-66478151D02*
X47713645Y-66478151D01*
X47713645Y-66478151D02*
X47666026Y-66501961D01*
X47666026Y-66501961D02*
X47642216Y-66525770D01*
X47642216Y-66525770D02*
X47618407Y-66573389D01*
X47618407Y-66573389D02*
X47594597Y-66668627D01*
X47594597Y-66668627D02*
X47570788Y-66716246D01*
X47570788Y-66716246D02*
X47546978Y-66740056D01*
X47546978Y-66740056D02*
X47499359Y-66763865D01*
X47499359Y-66763865D02*
X47451740Y-66763865D01*
X47451740Y-66763865D02*
X47404121Y-66740056D01*
X47404121Y-66740056D02*
X47380312Y-66716246D01*
X47380312Y-66716246D02*
X47356502Y-66668627D01*
X47356502Y-66668627D02*
X47356502Y-66549580D01*
X47356502Y-66549580D02*
X47380312Y-66478151D01*
X47856502Y-66263866D02*
X47356502Y-66263866D01*
X47356502Y-66263866D02*
X47356502Y-66144818D01*
X47356502Y-66144818D02*
X47380312Y-66073390D01*
X47380312Y-66073390D02*
X47427931Y-66025771D01*
X47427931Y-66025771D02*
X47475550Y-66001961D01*
X47475550Y-66001961D02*
X47570788Y-65978152D01*
X47570788Y-65978152D02*
X47642216Y-65978152D01*
X47642216Y-65978152D02*
X47737454Y-66001961D01*
X47737454Y-66001961D02*
X47785073Y-66025771D01*
X47785073Y-66025771D02*
X47832693Y-66073390D01*
X47832693Y-66073390D02*
X47856502Y-66144818D01*
X47856502Y-66144818D02*
X47856502Y-66263866D01*
X47856502Y-65763866D02*
X47356502Y-65763866D01*
X47356502Y-65430533D02*
X47356502Y-65335295D01*
X47356502Y-65335295D02*
X47380312Y-65287676D01*
X47380312Y-65287676D02*
X47427931Y-65240057D01*
X47427931Y-65240057D02*
X47523169Y-65216247D01*
X47523169Y-65216247D02*
X47689835Y-65216247D01*
X47689835Y-65216247D02*
X47785073Y-65240057D01*
X47785073Y-65240057D02*
X47832693Y-65287676D01*
X47832693Y-65287676D02*
X47856502Y-65335295D01*
X47856502Y-65335295D02*
X47856502Y-65430533D01*
X47856502Y-65430533D02*
X47832693Y-65478152D01*
X47832693Y-65478152D02*
X47785073Y-65525771D01*
X47785073Y-65525771D02*
X47689835Y-65549580D01*
X47689835Y-65549580D02*
X47523169Y-65549580D01*
X47523169Y-65549580D02*
X47427931Y-65525771D01*
X47427931Y-65525771D02*
X47380312Y-65478152D01*
X47380312Y-65478152D02*
X47356502Y-65430533D01*
X47380312Y-58778151D02*
X47356502Y-58825770D01*
X47356502Y-58825770D02*
X47356502Y-58897199D01*
X47356502Y-58897199D02*
X47380312Y-58968627D01*
X47380312Y-58968627D02*
X47427931Y-59016246D01*
X47427931Y-59016246D02*
X47475550Y-59040056D01*
X47475550Y-59040056D02*
X47570788Y-59063865D01*
X47570788Y-59063865D02*
X47642216Y-59063865D01*
X47642216Y-59063865D02*
X47737454Y-59040056D01*
X47737454Y-59040056D02*
X47785073Y-59016246D01*
X47785073Y-59016246D02*
X47832693Y-58968627D01*
X47832693Y-58968627D02*
X47856502Y-58897199D01*
X47856502Y-58897199D02*
X47856502Y-58849580D01*
X47856502Y-58849580D02*
X47832693Y-58778151D01*
X47832693Y-58778151D02*
X47808883Y-58754342D01*
X47808883Y-58754342D02*
X47642216Y-58754342D01*
X47642216Y-58754342D02*
X47642216Y-58849580D01*
X47856502Y-58540056D02*
X47356502Y-58540056D01*
X47356502Y-58540056D02*
X47856502Y-58254342D01*
X47856502Y-58254342D02*
X47356502Y-58254342D01*
X47856502Y-58016246D02*
X47356502Y-58016246D01*
X47356502Y-58016246D02*
X47356502Y-57897198D01*
X47356502Y-57897198D02*
X47380312Y-57825770D01*
X47380312Y-57825770D02*
X47427931Y-57778151D01*
X47427931Y-57778151D02*
X47475550Y-57754341D01*
X47475550Y-57754341D02*
X47570788Y-57730532D01*
X47570788Y-57730532D02*
X47642216Y-57730532D01*
X47642216Y-57730532D02*
X47737454Y-57754341D01*
X47737454Y-57754341D02*
X47785073Y-57778151D01*
X47785073Y-57778151D02*
X47832693Y-57825770D01*
X47832693Y-57825770D02*
X47856502Y-57897198D01*
X47856502Y-57897198D02*
X47856502Y-58016246D01*
X60256666Y-60927419D02*
X60256666Y-61641704D01*
X60256666Y-61641704D02*
X60209047Y-61784561D01*
X60209047Y-61784561D02*
X60113809Y-61879800D01*
X60113809Y-61879800D02*
X59970952Y-61927419D01*
X59970952Y-61927419D02*
X59875714Y-61927419D01*
X61256666Y-61927419D02*
X60685238Y-61927419D01*
X60970952Y-61927419D02*
X60970952Y-60927419D01*
X60970952Y-60927419D02*
X60875714Y-61070276D01*
X60875714Y-61070276D02*
X60780476Y-61165514D01*
X60780476Y-61165514D02*
X60685238Y-61213133D01*
D12*
X40385714Y19481009D02*
X40242857Y19528628D01*
X40242857Y19528628D02*
X40195238Y19576247D01*
X40195238Y19576247D02*
X40147619Y19671485D01*
X40147619Y19671485D02*
X40147619Y19814342D01*
X40147619Y19814342D02*
X40195238Y19909580D01*
X40195238Y19909580D02*
X40242857Y19957200D01*
X40242857Y19957200D02*
X40338095Y20004819D01*
X40338095Y20004819D02*
X40719047Y20004819D01*
X40719047Y20004819D02*
X40719047Y19004819D01*
X40719047Y19004819D02*
X40385714Y19004819D01*
X40385714Y19004819D02*
X40290476Y19052438D01*
X40290476Y19052438D02*
X40242857Y19100057D01*
X40242857Y19100057D02*
X40195238Y19195295D01*
X40195238Y19195295D02*
X40195238Y19290533D01*
X40195238Y19290533D02*
X40242857Y19385771D01*
X40242857Y19385771D02*
X40290476Y19433390D01*
X40290476Y19433390D02*
X40385714Y19481009D01*
X40385714Y19481009D02*
X40719047Y19481009D01*
X39861904Y19004819D02*
X39290476Y19004819D01*
X39576190Y20004819D02*
X39576190Y19004819D01*
X38433333Y20004819D02*
X39004761Y20004819D01*
X38719047Y20004819D02*
X38719047Y19004819D01*
X38719047Y19004819D02*
X38814285Y19147676D01*
X38814285Y19147676D02*
X38909523Y19242914D01*
X38909523Y19242914D02*
X39004761Y19290533D01*
X83980839Y15725533D02*
X80171316Y15725533D01*
X-2689160Y16155533D02*
X-6498684Y16155533D01*
X-4593922Y18060295D02*
X-4593922Y14250771D01*
%TO.C,SW21*%
X-29650000Y5110000D02*
X-26150000Y5110000D01*
X-29650000Y-3890000D02*
X-29650000Y5110000D01*
X-26150000Y5110000D02*
X-26150000Y-3890000D01*
X-26150000Y-3890000D02*
X-29650000Y-3890000D01*
%TO.C,BT1*%
X-4400000Y23050000D02*
X-8400000Y23050000D01*
X-8400000Y27050000D01*
X-4400000Y27050000D01*
X-4400000Y23050000D01*
X85600000Y23050000D02*
X81600000Y23050000D01*
X81600000Y27050000D01*
X85600000Y27050000D01*
X85600000Y23050000D01*
X86100000Y13050000D02*
X-8900000Y13050000D01*
X-8900000Y27050000D01*
X86100000Y27050000D01*
X86100000Y13050000D01*
%TD*%
M02*
