M48
; DRILL file {KiCad 8.0.7} date 2025-02-28T21:37:27+0900
; FORMAT={-:-/ absolute / metric / decimal}
; #@! TF.CreationDate,2025-02-28T21:37:27+09:00
; #@! TF.GenerationSoftware,Kicad,Pcbnew,8.0.7
; #@! TF.FileFunction,Plated,1,2,PTH
FMAT,2
METRIC
; #@! TA.AperFunction,Plated,PTH,ViaDrill
T1C0.300
; #@! TA.AperFunction,Plated,PTH,ComponentDrill
T2C0.500
; #@! TA.AperFunction,Plated,PTH,ComponentDrill
T3C0.750
; #@! TA.AperFunction,Plated,PTH,ComponentDrill
T4C0.800
; #@! TA.AperFunction,Plated,PTH,ComponentDrill
T5C0.813
; #@! TA.AperFunction,Plated,PTH,ComponentDrill
T6C1.000
; #@! TA.AperFunction,Plated,PTH,ComponentDrill
T7C1.500
%
G90
G05
T1
X-29.12Y-27.84
X-28.7Y-31.1
X-28.16Y-5.07
X-27.13Y-27.24
X-27.1Y-45.81
X-25.04Y25.32
X-23.44Y21.89
X-22.45Y-46.34
X-20.31Y20.07
X-20.27Y-9.07
X-17.32Y3.11
X-17.31Y21.89
X-13.27Y-6.16
X-9.85Y-28.7
X-8.87Y0.62
X-8.85Y20.64
X-6.9Y-27.24
X-6.88Y16.76
X-6.85Y-44.94
X0.34Y22.2
X0.34Y-28.07
X0.35Y9.09
X0.51Y-9.1
X0.56Y-46.93
X11.05Y-46.23
X12.09Y14.29
X19.34Y-9.1
X19.36Y-28.07
X19.6Y8.04
X28.47Y-30.3
X28.48Y-7.84
X31.2Y-31.24
X31.21Y11.78
X31.49Y-67.676
X38.45Y-9.1
X38.47Y-28.07
X38.49Y8.0
X39.818Y-70.508
X40.365Y-53.432
X41.923Y-51.244
X42.049Y-52.139
X43.763Y-68.76
X43.763Y-55.042
X43.954Y-65.7
X44.335Y-52.771
X44.519Y-54.2
X45.124Y-66.997
X47.548Y-57.041
X47.919Y-53.353
X48.169Y-62.699
X49.02Y-45.64
X49.71Y-62.813
X49.787Y-55.48
X49.928Y-57.028
X50.22Y9.66
X50.808Y-65.989
X50.888Y-67.238
X53.67Y-9.04
X57.5Y8.14
X57.53Y-28.07
X63.31Y-54.39
X63.91Y-56.86
X65.68Y-31.23
X66.69Y12.84
X67.12Y-28.72
X69.43Y-6.24
X74.63Y8.18
X74.64Y-9.08
X74.9Y-49.06
X75.04Y-28.07
X80.3Y26.94
X80.5Y15.48
X83.92Y-68.24
X84.69Y-69.59
X85.35Y19.3
X85.37Y-66.96
T3
X29.023Y-66.275
X29.913Y-55.575
X30.803Y-66.275
X31.693Y-55.575
X32.583Y-66.275
X33.473Y-55.575
X34.363Y-66.275
X35.253Y-55.575
X36.143Y-66.275
X37.033Y-55.575
X37.923Y-66.275
X38.813Y-55.575
X39.703Y-66.275
X40.593Y-55.575
X41.483Y-66.275
X42.373Y-55.575
T4
X46.423Y-53.305
X46.423Y-55.845
X46.423Y-58.385
X46.423Y-60.925
X46.423Y-63.465
X46.423Y-66.005
X46.423Y-68.545
T5
X-26.61Y24.45
X-26.61Y21.91
X-26.61Y19.37
X-26.61Y16.83
X-26.61Y14.29
X-26.61Y11.75
X-26.61Y9.21
X-11.37Y24.45
X-11.37Y21.91
X-11.37Y19.37
X-11.37Y16.83
X-11.37Y14.29
X-11.37Y11.75
X-11.37Y9.21
T6
X-23.435Y19.052
X-23.435Y17.147
X-15.155Y7.518
X-13.275Y7.518
X60.59Y-54.35
X60.59Y-56.89
X60.59Y-59.43
X60.59Y-61.97
X60.59Y-64.51
X60.59Y-67.05
X60.59Y-69.59
T7
X-6.02Y24.67
X83.25Y24.71
T2
G00X-27.1Y2.96
M15
G01X-27.1Y3.26
M16
G05
G00X-27.1Y0.46
M15
G01X-27.1Y0.76
M16
G05
G00X-27.1Y-2.04
M15
G01X-27.1Y-1.74
M16
G05
M30
