%TF.GenerationSoftware,KiCad,Pcbnew,8.0.7*%
%TF.CreationDate,2025-05-02T22:34:39+09:00*%
%TF.ProjectId,cool642tb_L,636f6f6c-3634-4327-9462-5f4c2e6b6963,rev?*%
%TF.SameCoordinates,Original*%
%TF.FileFunction,Legend,Top*%
%TF.FilePolarity,Positive*%
%FSLAX46Y46*%
G04 Gerber Fmt 4.6, Leading zero omitted, Abs format (unit mm)*
G04 Created by KiCad (PCBNEW 8.0.7) date 2025-05-02 22:34:39*
%MOMM*%
%LPD*%
G01*
G04 APERTURE LIST*
%ADD10C,0.150000*%
%ADD11C,0.120000*%
%ADD12C,2.000000*%
G04 APERTURE END LIST*
D10*
X39624761Y19521009D02*
X39481904Y19568628D01*
X39481904Y19568628D02*
X39434285Y19616247D01*
X39434285Y19616247D02*
X39386666Y19711485D01*
X39386666Y19711485D02*
X39386666Y19854342D01*
X39386666Y19854342D02*
X39434285Y19949580D01*
X39434285Y19949580D02*
X39481904Y19997200D01*
X39481904Y19997200D02*
X39577142Y20044819D01*
X39577142Y20044819D02*
X39958094Y20044819D01*
X39958094Y20044819D02*
X39958094Y19044819D01*
X39958094Y19044819D02*
X39624761Y19044819D01*
X39624761Y19044819D02*
X39529523Y19092438D01*
X39529523Y19092438D02*
X39481904Y19140057D01*
X39481904Y19140057D02*
X39434285Y19235295D01*
X39434285Y19235295D02*
X39434285Y19330533D01*
X39434285Y19330533D02*
X39481904Y19425771D01*
X39481904Y19425771D02*
X39529523Y19473390D01*
X39529523Y19473390D02*
X39624761Y19521009D01*
X39624761Y19521009D02*
X39958094Y19521009D01*
X38434285Y20044819D02*
X39005713Y20044819D01*
X38719999Y20044819D02*
X38719999Y19044819D01*
X38719999Y19044819D02*
X38815237Y19187676D01*
X38815237Y19187676D02*
X38910475Y19282914D01*
X38910475Y19282914D02*
X39005713Y19330533D01*
X-3069160Y16195533D02*
X-6878684Y16195533D01*
X-4973922Y18100295D02*
X-4973922Y14290771D01*
X83600839Y15765533D02*
X79791316Y15765533D01*
%TO.C,B1*%
X-4780000Y23090000D02*
X-8780000Y23090000D01*
X-8780000Y27090000D01*
X-4780000Y27090000D01*
X-4780000Y23090000D01*
X85220000Y23090000D02*
X81220000Y23090000D01*
X81220000Y27090000D01*
X85220000Y27090000D01*
X85220000Y23090000D01*
X85720000Y13090000D02*
X-9280000Y13090000D01*
X-9280000Y27090000D01*
X85720000Y27090000D01*
X85720000Y13090000D01*
D11*
%TO.C,SW21*%
X87600000Y-15060000D02*
X88200000Y-15060000D01*
X87900000Y-15360000D02*
X87600000Y-15060000D01*
X88200000Y-15060000D02*
X87900000Y-15360000D01*
X88700000Y-12860000D02*
X88700000Y-15360000D01*
X88700000Y-25460000D02*
X88700000Y-22660000D01*
X93500000Y-12860000D02*
X88700000Y-12860000D01*
X93600000Y-25460000D02*
X88700000Y-25460000D01*
X94900000Y-19160000D02*
X95900000Y-19160000D01*
X95400000Y-18660000D02*
X95400000Y-19660000D01*
X97200000Y-12860000D02*
X102100000Y-12860000D01*
X102100000Y-12860000D02*
X102100000Y-15460000D01*
X102100000Y-17860000D02*
X102100000Y-20460000D01*
X102100000Y-22860000D02*
X102100000Y-25460000D01*
X102100000Y-25460000D02*
X97200000Y-25460000D01*
X98400000Y-19160000D02*
G75*
G02*
X92400000Y-19160000I-3000000J0D01*
G01*
X92400000Y-19160000D02*
G75*
G02*
X98400000Y-19160000I3000000J0D01*
G01*
D10*
%TO.C,SW24*%
X102890000Y5104000D02*
X106390000Y5104000D01*
X102890000Y-3896000D02*
X102890000Y5104000D01*
X106390000Y5104000D02*
X106390000Y-3896000D01*
X106390000Y-3896000D02*
X102890000Y-3896000D01*
%TD*%
D12*
%TO.C,SW25*%
X99100000Y560000D03*
X92600000Y560000D03*
%TD*%
M02*
