M48
; DRILL file {KiCad 8.0.7} date 2025-05-02T22:34:41+0900
; FORMAT={-:-/ absolute / metric / decimal}
; #@! TF.CreationDate,2025-05-02T22:34:41+09:00
; #@! TF.GenerationSoftware,Kicad,Pcbnew,8.0.7
; #@! TF.FileFunction,Plated,1,2,PTH
FMAT,2
METRIC
; #@! TA.AperFunction,Plated,PTH,ViaDrill
T1C0.300
; #@! TA.AperFunction,Plated,PTH,ComponentDrill
T2C0.500
; #@! TA.AperFunction,Plated,PTH,ComponentDrill
T3C0.762
; #@! TA.AperFunction,Plated,PTH,ComponentDrill
T4C0.813
; #@! TA.AperFunction,Plated,PTH,ComponentDrill
T5C1.000
; #@! TA.AperFunction,Plated,PTH,ComponentDrill
T6C1.300
; #@! TA.AperFunction,Plated,PTH,ComponentDrill
T7C1.500
; #@! TA.AperFunction,Plated,PTH,ComponentDrill
T8C2.200
%
G90
G05
T1
X-6.88Y15.66
X-1.48Y-8.14
X-1.29Y-50.47
X3.0Y10.5
X3.0Y-27.59
X12.04Y13.16
X19.8Y10.5
X22.0Y-8.14
X22.01Y-50.04
X22.03Y-27.59
X31.17Y11.92
X39.01Y10.5
X40.94Y-27.59
X41.01Y-8.14
X41.04Y-50.04
X47.67Y16.81
X47.74Y-27.59
X50.17Y6.87
X58.16Y10.5
X60.02Y-50.04
X60.08Y-27.59
X60.1Y-8.14
X66.8Y19.4
X66.87Y-8.14
X69.22Y4.62
X74.89Y-8.11
X75.57Y-50.04
X77.14Y21.79
X77.21Y10.5
X79.26Y-27.59
X82.75Y-50.04
X85.82Y0.57
X88.4Y-26.7
X91.05Y3.09
X95.02Y-8.14
X96.22Y-27.59
X98.3Y-50.06
X98.81Y24.502
X99.85Y23.95
X101.6Y2.24
X102.4Y-26.77
T3
X93.98Y22.9
X97.7Y22.84
T4
X88.24Y24.45
X88.24Y21.91
X88.24Y19.37
X88.24Y16.83
X88.24Y14.29
X88.24Y11.75
X88.24Y9.21
X103.48Y24.45
X103.48Y21.91
X103.48Y19.37
X103.48Y16.83
X103.48Y14.29
X103.48Y11.75
X103.48Y9.21
T5
X87.9Y-16.66
X87.9Y-19.16
X87.9Y-21.66
X91.415Y19.052
X91.415Y17.147
X99.695Y7.518
X101.575Y7.518
X102.4Y-16.66
X102.4Y-21.66
T6
X92.6Y0.56
X99.1Y0.56
T7
X-6.4Y24.71
X82.87Y24.75
T8
X95.4Y-13.56
X95.4Y-24.76
T2
G00X103.84Y3.254
M15
G01X103.84Y2.954
M16
G05
G00X103.84Y0.754
M15
G01X103.84Y0.454
M16
G05
G00X103.84Y-1.746
M15
G01X103.84Y-2.046
M16
G05
M30
