%TF.GenerationSoftware,KiCad,Pcbnew,8.0.7*%
%TF.CreationDate,2025-05-02T22:34:39+09:00*%
%TF.ProjectId,cool642tb_L,636f6f6c-3634-4327-9462-5f4c2e6b6963,rev?*%
%TF.SameCoordinates,Original*%
%TF.FileFunction,Profile,NP*%
%FSLAX46Y46*%
G04 Gerber Fmt 4.6, Leading zero omitted, Abs format (unit mm)*
G04 Created by KiCad (PCBNEW 8.0.7) date 2025-05-02 22:34:39*
%MOMM*%
%LPD*%
G01*
G04 APERTURE LIST*
%TA.AperFunction,Profile*%
%ADD10C,0.200000*%
%TD*%
%TA.AperFunction,Profile*%
%ADD11C,0.050000*%
%TD*%
%TA.AperFunction,Profile*%
%ADD12C,0.120000*%
%TD*%
G04 APERTURE END LIST*
D10*
X86850000Y-47620000D02*
G75*
G02*
X84650000Y-47620000I-1100000J0D01*
G01*
X84650000Y-47620000D02*
G75*
G02*
X86850000Y-47620000I1100000J0D01*
G01*
X10480000Y-47550000D02*
G75*
G02*
X8280000Y-47550000I-1100000J0D01*
G01*
X8280000Y-47550000D02*
G75*
G02*
X10480000Y-47550000I1100000J0D01*
G01*
X86850000Y-9420000D02*
G75*
G02*
X84650000Y-9420000I-1100000J0D01*
G01*
X84650000Y-9420000D02*
G75*
G02*
X86850000Y-9420000I1100000J0D01*
G01*
X10620000Y-9480000D02*
G75*
G02*
X8420000Y-9480000I-1100000J0D01*
G01*
X8420000Y-9480000D02*
G75*
G02*
X10620000Y-9480000I1100000J0D01*
G01*
D11*
X-9570000Y27370000D02*
X106600000Y27370000D01*
X106600000Y-66700000D01*
X-9570000Y-66700000D01*
X-9570000Y27370000D01*
D12*
%TO.C,U1*%
X91152247Y17580553D02*
X91152247Y18621953D01*
X91838047Y19307753D02*
X98450507Y19319370D01*
X94026461Y22377540D02*
X94029436Y21324209D01*
X94029436Y21324209D02*
X97610565Y21295791D01*
X94080000Y23402268D02*
X97661129Y23373850D01*
X97607590Y22349122D02*
X97610565Y21295791D01*
X98439000Y16889000D02*
X91838047Y16894753D01*
X98819247Y18926753D02*
X98819247Y17275753D01*
X99432247Y7938047D02*
X99429000Y14539000D01*
X99813247Y14919247D02*
X101464247Y14919247D01*
X101159447Y7252247D02*
X100118047Y7252247D01*
X101845247Y14539000D02*
X101845247Y7938047D01*
X91152247Y17580553D02*
G75*
G02*
X91838047Y16894753I247753J-438047D01*
G01*
X91838047Y19307753D02*
G75*
G02*
X91152247Y18621953I-438047J-247753D01*
G01*
X94080000Y23402268D02*
G75*
G02*
X94026461Y22377540I-220000J-502268D01*
G01*
X97607590Y22349122D02*
G75*
G02*
X97661129Y23373850I220000J502268D01*
G01*
X98450507Y19319370D02*
G75*
G02*
X98819246Y18926753I-9907J-378770D01*
G01*
X98820000Y17270000D02*
G75*
G02*
X98439000Y16889000I-381000J0D01*
G01*
X99429000Y14539000D02*
G75*
G02*
X99810000Y14920000I381000J0D01*
G01*
X99432247Y7938047D02*
G75*
G02*
X100118047Y7252247I247753J-438047D01*
G01*
X101159447Y7252247D02*
G75*
G02*
X101845251Y7938054I438053J247753D01*
G01*
X101464247Y14920000D02*
G75*
G02*
X101845300Y14539000I53J-381000D01*
G01*
%TD*%
M02*
