M48
; DRILL file {KiCad 8.0.7} date 2025-02-15T16:41:37+0900
; FORMAT={-:-/ absolute / metric / decimal}
; #@! TF.CreationDate,2025-02-15T16:41:37+09:00
; #@! TF.GenerationSoftware,Kicad,Pcbnew,8.0.7
; #@! TF.FileFunction,NonPlated,1,2,NPTH
FMAT,2
METRIC
; #@! TA.AperFunction,NonPlated,NPTH,ComponentDrill
T1C1.700
; #@! TA.AperFunction,NonPlated,NPTH,ComponentDrill
T2C1.900
; #@! TA.AperFunction,NonPlated,NPTH,ComponentDrill
T3C3.000
; #@! TA.AperFunction,NonPlated,NPTH,ComponentDrill
T4C5.000
%
G90
G05
T1
X-24.13Y-19.05
X-24.13Y-38.1
X-24.13Y-57.15
X-23.55Y-19.05
X-23.55Y-38.1
X-23.55Y-57.15
X-14.55Y-19.05
X-14.55Y-38.1
X-14.55Y-57.15
X-13.97Y-19.05
X-13.97Y-38.1
X-13.97Y-57.15
X-5.08Y0.0
X-5.08Y-19.05
X-5.08Y-38.1
X-5.08Y-57.15
X-4.5Y0.0
X-4.5Y-19.05
X-4.5Y-38.1
X-4.5Y-57.15
X4.5Y0.0
X4.5Y-19.05
X4.5Y-38.1
X4.5Y-57.15
X5.08Y0.0
X5.08Y-19.05
X5.08Y-38.1
X5.08Y-57.15
X13.97Y0.0
X13.97Y-19.05
X13.97Y-38.1
X14.55Y0.0
X14.55Y-19.05
X14.55Y-38.1
X23.55Y0.0
X23.55Y-19.05
X23.55Y-38.1
X24.13Y0.0
X24.13Y-19.05
X24.13Y-38.1
X33.02Y0.0
X33.02Y-19.05
X33.02Y-38.1
X33.6Y0.0
X33.6Y-19.05
X33.6Y-38.1
X42.6Y0.0
X42.6Y-19.05
X42.6Y-38.1
X43.18Y0.0
X43.18Y-19.05
X43.18Y-38.1
X52.07Y0.0
X52.07Y-19.05
X52.07Y-38.1
X52.65Y0.0
X52.65Y-19.05
X52.65Y-38.1
X61.65Y0.0
X61.65Y-19.05
X61.65Y-38.1
X62.23Y0.0
X62.23Y-19.05
X62.23Y-38.1
X71.12Y0.0
X71.12Y-19.05
X71.12Y-38.2
X71.12Y-57.25
X71.7Y0.0
X71.7Y-19.05
X71.7Y-38.2
X71.7Y-57.25
X80.7Y0.0
X80.7Y-19.05
X80.7Y-38.2
X80.7Y-57.25
X81.28Y0.0
X81.28Y-19.05
X81.28Y-38.2
X81.28Y-57.25
T2
X-24.55Y-19.05
X-24.55Y-38.1
X-24.55Y-57.15
X-13.55Y-19.05
X-13.55Y-38.1
X-13.55Y-57.15
X-5.5Y0.0
X-5.5Y-19.05
X-5.5Y-38.1
X-5.5Y-57.15
X5.5Y0.0
X5.5Y-19.05
X5.5Y-38.1
X5.5Y-57.15
X13.55Y0.0
X13.55Y-19.05
X13.55Y-38.1
X24.55Y0.0
X24.55Y-19.05
X24.55Y-38.1
X32.6Y0.0
X32.6Y-19.05
X32.6Y-38.1
X43.6Y0.0
X43.6Y-19.05
X43.6Y-38.1
X51.65Y0.0
X51.65Y-19.05
X51.65Y-38.1
X62.65Y0.0
X62.65Y-19.05
X62.65Y-38.1
X70.7Y0.0
X70.7Y-19.05
X70.7Y-38.2
X70.7Y-57.25
X81.7Y0.0
X81.7Y-19.05
X81.7Y-38.2
X81.7Y-57.25
T3
X-24.05Y-22.75
X-24.05Y-41.8
X-24.05Y-60.85
X-22.86Y-16.51
X-22.86Y-35.56
X-22.86Y-54.61
X-19.05Y-24.95
X-19.05Y-44.0
X-19.05Y-63.05
X-16.51Y-13.97
X-16.51Y-33.02
X-16.51Y-52.07
X-5.0Y-3.7
X-5.0Y-22.75
X-5.0Y-41.8
X-5.0Y-60.85
X-3.81Y2.54
X-3.81Y-16.51
X-3.81Y-35.56
X-3.81Y-54.61
X0.0Y-5.9
X0.0Y-24.95
X0.0Y-44.0
X0.0Y-63.05
X2.54Y5.08
X2.54Y-13.97
X2.54Y-33.02
X2.54Y-52.07
X14.05Y-3.7
X14.05Y-22.75
X14.05Y-41.8
X15.24Y2.54
X15.24Y-16.51
X15.24Y-35.56
X19.05Y-5.9
X19.05Y-24.95
X19.05Y-44.0
X21.59Y5.08
X21.59Y-13.97
X21.59Y-33.02
X33.1Y-3.7
X33.1Y-22.75
X33.1Y-41.8
X34.29Y2.54
X34.29Y-16.51
X34.29Y-35.56
X38.1Y-5.9
X38.1Y-24.95
X38.1Y-44.0
X40.64Y5.08
X40.64Y-13.97
X40.64Y-33.02
X52.15Y-3.7
X52.15Y-22.75
X52.15Y-41.8
X53.34Y2.54
X53.34Y-16.51
X53.34Y-35.56
X57.15Y-5.9
X57.15Y-24.95
X57.15Y-44.0
X59.69Y5.08
X59.69Y-13.97
X59.69Y-33.02
X71.2Y-3.7
X71.2Y-22.75
X71.2Y-41.9
X71.2Y-60.95
X72.39Y2.54
X72.39Y-16.51
X72.39Y-35.66
X72.39Y-54.71
X76.2Y-5.9
X76.2Y-24.95
X76.2Y-44.1
X76.2Y-63.15
X78.74Y5.08
X78.74Y-13.97
X78.74Y-33.12
X78.74Y-52.17
T4
X-19.05Y-19.05
X-19.05Y-38.1
X-19.05Y-57.15
X0.0Y0.0
X0.0Y-19.05
X0.0Y-38.1
X0.0Y-57.15
X19.05Y0.0
X19.05Y-19.05
X19.05Y-38.1
X38.1Y0.0
X38.1Y-19.05
X38.1Y-38.1
X57.15Y0.0
X57.15Y-19.05
X57.15Y-38.1
X76.2Y0.0
X76.2Y-19.05
X76.2Y-38.2
X76.2Y-57.25
M30
