%TF.GenerationSoftware,KiCad,Pcbnew,8.0.7*%
%TF.CreationDate,2025-02-15T16:41:36+09:00*%
%TF.ProjectId,cool642tb_R,636f6f6c-3634-4327-9462-5f522e6b6963,rev?*%
%TF.SameCoordinates,Original*%
%TF.FileFunction,Profile,NP*%
%FSLAX46Y46*%
G04 Gerber Fmt 4.6, Leading zero omitted, Abs format (unit mm)*
G04 Created by KiCad (PCBNEW 8.0.7) date 2025-02-15 16:41:36*
%MOMM*%
%LPD*%
G01*
G04 APERTURE LIST*
%TA.AperFunction,Profile*%
%ADD10C,0.050000*%
%TD*%
%TA.AperFunction,Profile*%
%ADD11C,0.200000*%
%TD*%
%TA.AperFunction,Profile*%
%ADD12C,0.120000*%
%TD*%
G04 APERTURE END LIST*
D10*
X86980000Y27380000D02*
X87020000Y-76290000D01*
D11*
X67810000Y-47670000D02*
G75*
G02*
X65610000Y-47670000I-1100000J0D01*
G01*
X65610000Y-47670000D02*
G75*
G02*
X67810000Y-47670000I1100000J0D01*
G01*
D10*
X87020000Y-76290000D02*
X58610000Y-76280000D01*
D11*
X67810000Y-9470000D02*
G75*
G02*
X65610000Y-9470000I-1100000J0D01*
G01*
X65610000Y-9470000D02*
G75*
G02*
X67810000Y-9470000I1100000J0D01*
G01*
D10*
X9580000Y-47410000D02*
X9580000Y-66640000D01*
X58610000Y-76280000D02*
X58570000Y-47410000D01*
D11*
X-8420000Y-9530000D02*
G75*
G02*
X-10620000Y-9530000I-1100000J0D01*
G01*
X-10620000Y-9530000D02*
G75*
G02*
X-8420000Y-9530000I1100000J0D01*
G01*
D10*
X9580000Y-66640000D02*
X-31750000Y-66690000D01*
X-31750000Y27380000D02*
X86980000Y27380000D01*
X58570000Y-47410000D02*
X9580000Y-47410000D01*
D11*
X-8560000Y-47600000D02*
G75*
G02*
X-10760000Y-47600000I-1100000J0D01*
G01*
X-10760000Y-47600000D02*
G75*
G02*
X-8560000Y-47600000I1100000J0D01*
G01*
D10*
X-31750000Y-66690000D02*
X-31750000Y27380000D01*
D12*
%TO.C,U1*%
X-26207753Y17550553D02*
X-26207753Y18591953D01*
X-25521953Y19277753D02*
X-23921753Y19277753D01*
X-23921753Y16864753D02*
X-25521953Y16864753D01*
X-23540753Y18896753D02*
X-23540753Y17245753D01*
X-17927753Y7908047D02*
X-17927753Y9508247D01*
X-17546753Y9889247D02*
X-15895753Y9889247D01*
X-16200553Y7222247D02*
X-17241953Y7222247D01*
X-15514753Y9508247D02*
X-15514753Y7908047D01*
X-26207753Y17550553D02*
G75*
G02*
X-25521953Y16864753I247753J-438047D01*
G01*
X-25521953Y19277753D02*
G75*
G02*
X-26207753Y18591953I-438047J-247753D01*
G01*
X-23921753Y19277753D02*
G75*
G02*
X-23540753Y18896753I8J-380992D01*
G01*
X-23540753Y17245753D02*
G75*
G02*
X-23921753Y16864753I-380996J-4D01*
G01*
X-17927753Y9508247D02*
G75*
G02*
X-17546753Y9889253I381003J3D01*
G01*
X-17927753Y7908047D02*
G75*
G02*
X-17241953Y7222247I247753J-438047D01*
G01*
X-16200553Y7222247D02*
G75*
G02*
X-15514749Y7908054I438053J247753D01*
G01*
X-15895753Y9889247D02*
G75*
G02*
X-15514753Y9508247I3J-380997D01*
G01*
%TD*%
M02*
