%TF.GenerationSoftware,KiCad,Pcbnew,8.0.7*%
%TF.CreationDate,2025-02-15T16:41:35+09:00*%
%TF.ProjectId,cool642tb_R,636f6f6c-3634-4327-9462-5f522e6b6963,rev?*%
%TF.SameCoordinates,Original*%
%TF.FileFunction,Legend,Top*%
%TF.FilePolarity,Positive*%
%FSLAX46Y46*%
G04 Gerber Fmt 4.6, Leading zero omitted, Abs format (unit mm)*
G04 Created by KiCad (PCBNEW 8.0.7) date 2025-02-15 16:41:35*
%MOMM*%
%LPD*%
G01*
G04 APERTURE LIST*
%ADD10C,0.100000*%
%ADD11C,0.150000*%
%ADD12R,1.397000X1.397000*%
%ADD13C,1.397000*%
G04 APERTURE END LIST*
D10*
X60256666Y-60927419D02*
X60256666Y-61641704D01*
X60256666Y-61641704D02*
X60209047Y-61784561D01*
X60209047Y-61784561D02*
X60113809Y-61879800D01*
X60113809Y-61879800D02*
X59970952Y-61927419D01*
X59970952Y-61927419D02*
X59875714Y-61927419D01*
X61256666Y-61927419D02*
X60685238Y-61927419D01*
X60970952Y-61927419D02*
X60970952Y-60927419D01*
X60970952Y-60927419D02*
X60875714Y-61070276D01*
X60875714Y-61070276D02*
X60780476Y-61165514D01*
X60780476Y-61165514D02*
X60685238Y-61213133D01*
D11*
X39055714Y19431009D02*
X38912857Y19478628D01*
X38912857Y19478628D02*
X38865238Y19526247D01*
X38865238Y19526247D02*
X38817619Y19621485D01*
X38817619Y19621485D02*
X38817619Y19764342D01*
X38817619Y19764342D02*
X38865238Y19859580D01*
X38865238Y19859580D02*
X38912857Y19907200D01*
X38912857Y19907200D02*
X39008095Y19954819D01*
X39008095Y19954819D02*
X39389047Y19954819D01*
X39389047Y19954819D02*
X39389047Y18954819D01*
X39389047Y18954819D02*
X39055714Y18954819D01*
X39055714Y18954819D02*
X38960476Y19002438D01*
X38960476Y19002438D02*
X38912857Y19050057D01*
X38912857Y19050057D02*
X38865238Y19145295D01*
X38865238Y19145295D02*
X38865238Y19240533D01*
X38865238Y19240533D02*
X38912857Y19335771D01*
X38912857Y19335771D02*
X38960476Y19383390D01*
X38960476Y19383390D02*
X39055714Y19431009D01*
X39055714Y19431009D02*
X39389047Y19431009D01*
X38531904Y18954819D02*
X37960476Y18954819D01*
X38246190Y19954819D02*
X38246190Y18954819D01*
X37103333Y19954819D02*
X37674761Y19954819D01*
X37389047Y19954819D02*
X37389047Y18954819D01*
X37389047Y18954819D02*
X37484285Y19097676D01*
X37484285Y19097676D02*
X37579523Y19192914D01*
X37579523Y19192914D02*
X37674761Y19240533D01*
X-4019160Y16105533D02*
X-7828684Y16105533D01*
X-5923922Y18010295D02*
X-5923922Y14200771D01*
X82650839Y15675533D02*
X78841316Y15675533D01*
%TO.C,D7*%
X20450000Y-29260000D02*
X20450000Y-30760000D01*
X20450000Y-30760000D02*
X25850000Y-30760000D01*
X22650000Y-29510000D02*
X23550000Y-30010000D01*
X22650000Y-30510000D02*
X22650000Y-29510000D01*
X23550000Y-30010000D02*
X22650000Y-30510000D01*
X23650000Y-30510000D02*
X23650000Y-29510000D01*
X25850000Y-29260000D02*
X20450000Y-29260000D01*
X25850000Y-30760000D02*
X25850000Y-29260000D01*
%TO.C,D11*%
X39480000Y-29350000D02*
X39480000Y-30850000D01*
X39480000Y-30850000D02*
X44880000Y-30850000D01*
X41680000Y-29600000D02*
X42580000Y-30100000D01*
X41680000Y-30600000D02*
X41680000Y-29600000D01*
X42580000Y-30100000D02*
X41680000Y-30600000D01*
X42680000Y-30600000D02*
X42680000Y-29600000D01*
X44880000Y-29350000D02*
X39480000Y-29350000D01*
X44880000Y-30850000D02*
X44880000Y-29350000D01*
%TO.C,D20*%
X77620000Y-48450000D02*
X77620000Y-49950000D01*
X77620000Y-49950000D02*
X83020000Y-49950000D01*
X79820000Y-48700000D02*
X80720000Y-49200000D01*
X79820000Y-49700000D02*
X79820000Y-48700000D01*
X80720000Y-49200000D02*
X79820000Y-49700000D01*
X80820000Y-49700000D02*
X80820000Y-48700000D01*
X83020000Y-48450000D02*
X77620000Y-48450000D01*
X83020000Y-49950000D02*
X83020000Y-48450000D01*
%TO.C,D13*%
X58610000Y8890000D02*
X58610000Y7390000D01*
X58610000Y7390000D02*
X64010000Y7390000D01*
X60810000Y8640000D02*
X61710000Y8140000D01*
X60810000Y7640000D02*
X60810000Y8640000D01*
X61710000Y8140000D02*
X60810000Y7640000D01*
X61810000Y7640000D02*
X61810000Y8640000D01*
X64010000Y8890000D02*
X58610000Y8890000D01*
X64010000Y7390000D02*
X64010000Y8890000D01*
%TO.C,SW21*%
X-31650000Y5100000D02*
X-28150000Y5100000D01*
X-31650000Y-3900000D02*
X-31650000Y5100000D01*
X-28150000Y5100000D02*
X-28150000Y-3900000D01*
X-28150000Y-3900000D02*
X-31650000Y-3900000D01*
%TO.C,D15*%
X58610000Y-29200000D02*
X58610000Y-30700000D01*
X58610000Y-30700000D02*
X64010000Y-30700000D01*
X60810000Y-29450000D02*
X61710000Y-29950000D01*
X60810000Y-30450000D02*
X60810000Y-29450000D01*
X61710000Y-29950000D02*
X60810000Y-30450000D01*
X61810000Y-30450000D02*
X61810000Y-29450000D01*
X64010000Y-29200000D02*
X58610000Y-29200000D01*
X64010000Y-30700000D02*
X64010000Y-29200000D01*
%TO.C,D1*%
X1460000Y8750000D02*
X1460000Y7250000D01*
X1460000Y7250000D02*
X6860000Y7250000D01*
X3660000Y8500000D02*
X4560000Y8000000D01*
X3660000Y7500000D02*
X3660000Y8500000D01*
X4560000Y8000000D02*
X3660000Y7500000D01*
X4660000Y7500000D02*
X4660000Y8500000D01*
X6860000Y8750000D02*
X1460000Y8750000D01*
X6860000Y7250000D02*
X6860000Y8750000D01*
%TO.C,D9*%
X39600000Y8750000D02*
X39600000Y7250000D01*
X39600000Y7250000D02*
X45000000Y7250000D01*
X41800000Y8500000D02*
X42700000Y8000000D01*
X41800000Y7500000D02*
X41800000Y8500000D01*
X42700000Y8000000D02*
X41800000Y7500000D01*
X42800000Y7500000D02*
X42800000Y8500000D01*
X45000000Y8750000D02*
X39600000Y8750000D01*
X45000000Y7250000D02*
X45000000Y8750000D01*
%TO.C,D17*%
X77590000Y8810000D02*
X77590000Y7310000D01*
X77590000Y7310000D02*
X82990000Y7310000D01*
X79790000Y8560000D02*
X80690000Y8060000D01*
X79790000Y7560000D02*
X79790000Y8560000D01*
X80690000Y8060000D02*
X79790000Y7560000D01*
X80790000Y7560000D02*
X80790000Y8560000D01*
X82990000Y8810000D02*
X77590000Y8810000D01*
X82990000Y7310000D02*
X82990000Y8810000D01*
%TO.C,D4*%
X-21740000Y-10200000D02*
X-21740000Y-11700000D01*
X-21740000Y-11700000D02*
X-16340000Y-11700000D01*
X-19540000Y-10450000D02*
X-18640000Y-10950000D01*
X-19540000Y-11450000D02*
X-19540000Y-10450000D01*
X-18640000Y-10950000D02*
X-19540000Y-11450000D01*
X-18540000Y-11450000D02*
X-18540000Y-10450000D01*
X-16340000Y-10200000D02*
X-21740000Y-10200000D01*
X-16340000Y-11700000D02*
X-16340000Y-10200000D01*
%TO.C,D16*%
X1630000Y-48220000D02*
X1630000Y-49720000D01*
X1630000Y-49720000D02*
X7030000Y-49720000D01*
X3830000Y-48470000D02*
X4730000Y-48970000D01*
X3830000Y-49470000D02*
X3830000Y-48470000D01*
X4730000Y-48970000D02*
X3830000Y-49470000D01*
X4830000Y-49470000D02*
X4830000Y-48470000D01*
X7030000Y-48220000D02*
X1630000Y-48220000D01*
X7030000Y-49720000D02*
X7030000Y-48220000D01*
%TO.C,D3*%
X1405000Y-29380000D02*
X1405000Y-30880000D01*
X1405000Y-30880000D02*
X6805000Y-30880000D01*
X3605000Y-29630000D02*
X4505000Y-30130000D01*
X3605000Y-30630000D02*
X3605000Y-29630000D01*
X4505000Y-30130000D02*
X3605000Y-30630000D01*
X4605000Y-30630000D02*
X4605000Y-29630000D01*
X6805000Y-29380000D02*
X1405000Y-29380000D01*
X6805000Y-30880000D02*
X6805000Y-29380000D01*
%TO.C,D19*%
X77850000Y-29360000D02*
X77850000Y-30860000D01*
X77850000Y-30860000D02*
X83250000Y-30860000D01*
X80050000Y-29610000D02*
X80950000Y-30110000D01*
X80050000Y-30610000D02*
X80050000Y-29610000D01*
X80950000Y-30110000D02*
X80050000Y-30610000D01*
X81050000Y-30610000D02*
X81050000Y-29610000D01*
X83250000Y-29360000D02*
X77850000Y-29360000D01*
X83250000Y-30860000D02*
X83250000Y-29360000D01*
%TO.C,D10*%
X39540000Y-10400000D02*
X39540000Y-11900000D01*
X39540000Y-11900000D02*
X44940000Y-11900000D01*
X41740000Y-10650000D02*
X42640000Y-11150000D01*
X41740000Y-11650000D02*
X41740000Y-10650000D01*
X42640000Y-11150000D02*
X41740000Y-11650000D01*
X42740000Y-11650000D02*
X42740000Y-10650000D01*
X44940000Y-10400000D02*
X39540000Y-10400000D01*
X44940000Y-11900000D02*
X44940000Y-10400000D01*
%TO.C,D2*%
X1610000Y-10330000D02*
X1610000Y-11830000D01*
X1610000Y-11830000D02*
X7010000Y-11830000D01*
X3810000Y-10580000D02*
X4710000Y-11080000D01*
X3810000Y-11580000D02*
X3810000Y-10580000D01*
X4710000Y-11080000D02*
X3810000Y-11580000D01*
X4810000Y-11580000D02*
X4810000Y-10580000D01*
X7010000Y-10330000D02*
X1610000Y-10330000D01*
X7010000Y-11830000D02*
X7010000Y-10330000D01*
%TO.C,D6*%
X20450000Y-10230000D02*
X20450000Y-11730000D01*
X20450000Y-11730000D02*
X25850000Y-11730000D01*
X22650000Y-10480000D02*
X23550000Y-10980000D01*
X22650000Y-11480000D02*
X22650000Y-10480000D01*
X23550000Y-10980000D02*
X22650000Y-11480000D01*
X23650000Y-11480000D02*
X23650000Y-10480000D01*
X25850000Y-10230000D02*
X20450000Y-10230000D01*
X25850000Y-11730000D02*
X25850000Y-10230000D01*
%TO.C,D8*%
X-17570000Y-29230000D02*
X-17570000Y-30730000D01*
X-17570000Y-30730000D02*
X-12170000Y-30730000D01*
X-15370000Y-29480000D02*
X-14470000Y-29980000D01*
X-15370000Y-30480000D02*
X-15370000Y-29480000D01*
X-14470000Y-29980000D02*
X-15370000Y-30480000D01*
X-14370000Y-30480000D02*
X-14370000Y-29480000D01*
X-12170000Y-29230000D02*
X-17570000Y-29230000D01*
X-12170000Y-30730000D02*
X-12170000Y-29230000D01*
%TO.C,BT1*%
X-5730000Y23000000D02*
X-9730000Y23000000D01*
X-9730000Y27000000D01*
X-5730000Y27000000D01*
X-5730000Y23000000D01*
X84270000Y23000000D02*
X80270000Y23000000D01*
X80270000Y27000000D01*
X84270000Y27000000D01*
X84270000Y23000000D01*
X84770000Y13000000D02*
X-10230000Y13000000D01*
X-10230000Y27000000D01*
X84770000Y27000000D01*
X84770000Y13000000D01*
%TO.C,D14*%
X54790000Y-10180000D02*
X54790000Y-11680000D01*
X54790000Y-11680000D02*
X60190000Y-11680000D01*
X56990000Y-10430000D02*
X57890000Y-10930000D01*
X56990000Y-11430000D02*
X56990000Y-10430000D01*
X57890000Y-10930000D02*
X56990000Y-11430000D01*
X57990000Y-11430000D02*
X57990000Y-10430000D01*
X60190000Y-10180000D02*
X54790000Y-10180000D01*
X60190000Y-11680000D02*
X60190000Y-10180000D01*
%TO.C,D12*%
X-21390000Y-48390000D02*
X-21390000Y-49890000D01*
X-21390000Y-49890000D02*
X-15990000Y-49890000D01*
X-19190000Y-48640000D02*
X-18290000Y-49140000D01*
X-19190000Y-49640000D02*
X-19190000Y-48640000D01*
X-18290000Y-49140000D02*
X-19190000Y-49640000D01*
X-18190000Y-49640000D02*
X-18190000Y-48640000D01*
X-15990000Y-48390000D02*
X-21390000Y-48390000D01*
X-15990000Y-49890000D02*
X-15990000Y-48390000D01*
%TO.C,D5*%
X20710000Y8790000D02*
X20710000Y7290000D01*
X20710000Y7290000D02*
X26110000Y7290000D01*
X22910000Y8540000D02*
X23810000Y8040000D01*
X22910000Y7540000D02*
X22910000Y8540000D01*
X23810000Y8040000D02*
X22910000Y7540000D01*
X23910000Y7540000D02*
X23910000Y8540000D01*
X26110000Y8790000D02*
X20710000Y8790000D01*
X26110000Y7290000D02*
X26110000Y8790000D01*
%TO.C,D18*%
X77840000Y-10170000D02*
X77840000Y-11670000D01*
X77840000Y-11670000D02*
X83240000Y-11670000D01*
X80040000Y-10420000D02*
X80940000Y-10920000D01*
X80040000Y-11420000D02*
X80040000Y-10420000D01*
X80940000Y-10920000D02*
X80040000Y-11420000D01*
X81040000Y-11420000D02*
X81040000Y-10420000D01*
X83240000Y-10170000D02*
X77840000Y-10170000D01*
X83240000Y-11670000D02*
X83240000Y-10170000D01*
%TD*%
D12*
%TO.C,D7*%
X19340000Y-30010000D03*
D13*
X26960000Y-30010000D03*
%TD*%
D12*
%TO.C,D11*%
X38370000Y-30100000D03*
D13*
X45990000Y-30100000D03*
%TD*%
D12*
%TO.C,D20*%
X76510000Y-49200000D03*
D13*
X84130000Y-49200000D03*
%TD*%
D12*
%TO.C,D13*%
X57500000Y8140000D03*
D13*
X65120000Y8140000D03*
%TD*%
D12*
%TO.C,D15*%
X57500000Y-29950000D03*
D13*
X65120000Y-29950000D03*
%TD*%
D12*
%TO.C,D1*%
X350000Y8000000D03*
D13*
X7970000Y8000000D03*
%TD*%
D12*
%TO.C,D9*%
X38490000Y8000000D03*
D13*
X46110000Y8000000D03*
%TD*%
D12*
%TO.C,D17*%
X76480000Y8060000D03*
D13*
X84100000Y8060000D03*
%TD*%
D12*
%TO.C,D4*%
X-22850000Y-10950000D03*
D13*
X-15230000Y-10950000D03*
%TD*%
D12*
%TO.C,D16*%
X520000Y-48970000D03*
D13*
X8140000Y-48970000D03*
%TD*%
D12*
%TO.C,D3*%
X295000Y-30130000D03*
D13*
X7915000Y-30130000D03*
%TD*%
D12*
%TO.C,D19*%
X76740000Y-30110000D03*
D13*
X84360000Y-30110000D03*
%TD*%
D12*
%TO.C,D10*%
X38430000Y-11150000D03*
D13*
X46050000Y-11150000D03*
%TD*%
D12*
%TO.C,D2*%
X500000Y-11080000D03*
D13*
X8120000Y-11080000D03*
%TD*%
D12*
%TO.C,D6*%
X19340000Y-10980000D03*
D13*
X26960000Y-10980000D03*
%TD*%
D12*
%TO.C,D8*%
X-18680000Y-29980000D03*
D13*
X-11060000Y-29980000D03*
%TD*%
D12*
%TO.C,D14*%
X53680000Y-10930000D03*
D13*
X61300000Y-10930000D03*
%TD*%
D12*
%TO.C,D12*%
X-22500000Y-49140000D03*
D13*
X-14880000Y-49140000D03*
%TD*%
D12*
%TO.C,D5*%
X19600000Y8040000D03*
D13*
X27220000Y8040000D03*
%TD*%
D12*
%TO.C,D18*%
X76730000Y-10920000D03*
D13*
X84350000Y-10920000D03*
%TD*%
M02*
