M48
; DRILL file {KiCad 8.0.7} date 2025-03-28T15:44:10+0900
; FORMAT={-:-/ absolute / metric / decimal}
; #@! TF.CreationDate,2025-03-28T15:44:10+09:00
; #@! TF.GenerationSoftware,Kicad,Pcbnew,8.0.7
; #@! TF.FileFunction,Plated,1,2,PTH
FMAT,2
METRIC
; #@! TA.AperFunction,Plated,PTH,ViaDrill
T1C0.300
; #@! TA.AperFunction,Plated,PTH,ComponentDrill
T2C0.500
; #@! TA.AperFunction,Plated,PTH,ComponentDrill
T3C0.762
; #@! TA.AperFunction,Plated,PTH,ComponentDrill
T4C0.813
; #@! TA.AperFunction,Plated,PTH,ComponentDrill
T5C1.000
; #@! TA.AperFunction,Plated,PTH,ComponentDrill
T6C1.300
; #@! TA.AperFunction,Plated,PTH,ComponentDrill
T7C1.500
%
G90
G05
T1
X-29.12Y-27.84
X-28.7Y-31.1
X-27.13Y-27.24
X-27.1Y-45.81
X-24.64Y22.87
X-23.851Y-9.101
X-23.39Y24.12
X-22.45Y-46.34
X-21.1Y4.77
X-18.91Y6.08
X-13.27Y-6.16
X-11.35Y4.51
X-9.85Y-28.7
X-8.87Y0.62
X-8.85Y20.64
X-6.9Y-27.24
X-6.88Y16.76
X-6.85Y-44.94
X-6.09Y6.09
X0.34Y22.2
X0.34Y-28.07
X0.35Y9.09
X0.51Y-9.1
X0.56Y-46.93
X11.05Y-46.23
X12.09Y14.29
X19.34Y-9.1
X19.36Y-28.07
X19.6Y8.04
X28.47Y-30.3
X28.48Y-7.84
X31.2Y-31.24
X31.21Y11.78
X38.45Y-9.1
X38.47Y-28.07
X38.49Y8.0
X49.02Y-45.64
X50.22Y9.66
X53.67Y-9.04
X57.5Y8.14
X57.53Y-28.07
X63.31Y-54.39
X63.91Y-56.86
X65.68Y-31.23
X66.69Y12.84
X67.12Y-28.72
X69.43Y-6.24
X74.63Y8.18
X74.64Y-9.08
X74.9Y-49.06
X75.04Y-28.07
X80.3Y26.94
X80.5Y15.48
X83.92Y-68.24
X84.69Y-69.59
X85.35Y19.3
X85.37Y-66.96
T3
X-20.87Y22.9
X-18.96Y3.06
X-18.96Y0.52
X-18.96Y-2.02
X-17.15Y22.84
X-11.35Y3.08
X-11.35Y0.52
X-11.35Y-2.02
T4
X-26.61Y24.45
X-26.61Y21.91
X-26.61Y19.37
X-26.61Y16.83
X-26.61Y14.29
X-26.61Y11.75
X-26.61Y9.21
X-11.37Y24.45
X-11.37Y21.91
X-11.37Y19.37
X-11.37Y16.83
X-11.37Y14.29
X-11.37Y11.75
X-11.37Y9.21
T5
X-23.435Y19.052
X-23.435Y17.147
X-15.155Y7.518
X-13.275Y7.518
X60.59Y-54.35
X60.59Y-56.89
X60.59Y-59.43
X60.59Y-61.97
X60.59Y-64.51
X60.59Y-67.05
X60.59Y-69.59
T6
X-23.47Y3.86
X-23.47Y-2.64
T7
X-6.02Y24.67
X83.25Y24.71
T2
G00X-27.1Y2.96
M15
G01X-27.1Y3.26
M16
G05
G00X-27.1Y0.46
M15
G01X-27.1Y0.76
M16
G05
G00X-27.1Y-2.04
M15
G01X-27.1Y-1.74
M16
G05
M30
