M48
; DRILL file {KiCad 8.0.7} date 2025-02-28T21:35:57+0900
; FORMAT={-:-/ absolute / metric / decimal}
; #@! TF.CreationDate,2025-02-28T21:35:57+09:00
; #@! TF.GenerationSoftware,Kicad,Pcbnew,8.0.7
; #@! TF.FileFunction,NonPlated,1,2,NPTH
FMAT,2
METRIC
; #@! TA.AperFunction,NonPlated,NPTH,ComponentDrill
T1C1.700
; #@! TA.AperFunction,NonPlated,NPTH,ComponentDrill
T2C1.900
; #@! TA.AperFunction,NonPlated,NPTH,ComponentDrill
T3C3.000
; #@! TA.AperFunction,NonPlated,NPTH,ComponentDrill
T4C5.000
%
G90
G05
T1
X-5.08Y0.0
X-5.08Y-19.05
X-5.08Y-38.2
X-5.08Y-57.15
X-4.5Y0.0
X-4.5Y-19.05
X-4.5Y-38.2
X-4.5Y-57.15
X4.5Y0.0
X4.5Y-19.05
X4.5Y-38.2
X4.5Y-57.15
X5.08Y0.0
X5.08Y-19.05
X5.08Y-38.2
X5.08Y-57.15
X13.97Y0.0
X13.97Y-19.05
X13.97Y-38.2
X13.97Y-57.15
X14.55Y0.0
X14.55Y-19.05
X14.55Y-38.2
X14.55Y-57.15
X23.55Y0.0
X23.55Y-19.05
X23.55Y-38.2
X23.55Y-57.15
X24.13Y0.0
X24.13Y-19.05
X24.13Y-38.2
X24.13Y-57.15
X33.02Y0.0
X33.02Y-19.05
X33.02Y-57.15
X33.12Y-38.2
X33.6Y0.0
X33.6Y-19.05
X33.6Y-57.15
X33.7Y-38.2
X42.6Y0.0
X42.6Y-19.05
X42.6Y-57.15
X42.7Y-38.2
X43.18Y0.0
X43.18Y-19.05
X43.18Y-57.15
X43.28Y-38.2
X52.07Y0.0
X52.07Y-19.05
X52.07Y-38.2
X52.07Y-57.15
X52.65Y0.0
X52.65Y-19.05
X52.65Y-38.2
X52.65Y-57.15
X61.65Y0.0
X61.65Y-19.05
X61.65Y-38.2
X61.65Y-57.15
X62.23Y0.0
X62.23Y-19.05
X62.23Y-38.2
X62.23Y-57.15
X71.12Y0.0
X71.12Y-19.05
X71.12Y-38.2
X71.12Y-57.15
X71.7Y0.0
X71.7Y-19.05
X71.7Y-38.2
X71.7Y-57.15
X80.7Y0.0
X80.7Y-19.05
X80.7Y-38.2
X80.7Y-57.15
X81.28Y0.0
X81.28Y-19.05
X81.28Y-38.2
X81.28Y-57.15
X90.17Y-38.1
X90.17Y-57.15
X90.75Y-38.1
X90.75Y-57.15
X99.75Y-38.1
X99.75Y-57.15
X100.33Y-38.1
X100.33Y-57.15
T2
X-5.5Y0.0
X-5.5Y-19.05
X-5.5Y-38.2
X-5.5Y-57.15
X5.5Y0.0
X5.5Y-19.05
X5.5Y-38.2
X5.5Y-57.15
X13.55Y0.0
X13.55Y-19.05
X13.55Y-38.2
X13.55Y-57.15
X24.55Y0.0
X24.55Y-19.05
X24.55Y-38.2
X24.55Y-57.15
X32.6Y0.0
X32.6Y-19.05
X32.6Y-57.15
X32.7Y-38.2
X43.6Y0.0
X43.6Y-19.05
X43.6Y-57.15
X43.7Y-38.2
X51.65Y0.0
X51.65Y-19.05
X51.65Y-38.2
X51.65Y-57.15
X62.65Y0.0
X62.65Y-19.05
X62.65Y-38.2
X62.65Y-57.15
X70.7Y0.0
X70.7Y-19.05
X70.7Y-38.2
X70.7Y-57.15
X81.7Y0.0
X81.7Y-19.05
X81.7Y-38.2
X81.7Y-57.15
X89.75Y-38.1
X89.75Y-57.15
X100.75Y-38.1
X100.75Y-57.15
T3
X-5.0Y-3.7
X-5.0Y-22.75
X-5.0Y-41.9
X-5.0Y-60.85
X-3.81Y2.54
X-3.81Y-16.51
X-3.81Y-35.66
X-3.81Y-54.61
X0.0Y-5.9
X0.0Y-24.95
X0.0Y-44.1
X0.0Y-63.05
X2.54Y5.08
X2.54Y-13.97
X2.54Y-33.12
X2.54Y-52.07
X14.05Y-3.7
X14.05Y-22.75
X14.05Y-41.9
X14.05Y-60.85
X15.24Y2.54
X15.24Y-16.51
X15.24Y-35.66
X15.24Y-54.61
X19.05Y-5.9
X19.05Y-24.95
X19.05Y-44.1
X19.05Y-63.05
X21.59Y5.08
X21.59Y-13.97
X21.59Y-33.12
X21.59Y-52.07
X33.1Y-3.7
X33.1Y-22.75
X33.1Y-60.85
X33.2Y-41.9
X34.29Y2.54
X34.29Y-16.51
X34.29Y-54.61
X34.39Y-35.66
X38.1Y-5.9
X38.1Y-24.95
X38.1Y-63.05
X38.2Y-44.1
X40.64Y5.08
X40.64Y-13.97
X40.64Y-52.07
X40.74Y-33.12
X52.15Y-3.7
X52.15Y-22.75
X52.15Y-41.9
X52.15Y-60.85
X53.34Y2.54
X53.34Y-16.51
X53.34Y-35.66
X53.34Y-54.61
X57.15Y-5.9
X57.15Y-24.95
X57.15Y-44.1
X57.15Y-63.05
X59.69Y5.08
X59.69Y-13.97
X59.69Y-33.12
X59.69Y-52.07
X71.2Y-3.7
X71.2Y-22.75
X71.2Y-41.9
X71.2Y-60.85
X72.39Y2.54
X72.39Y-16.51
X72.39Y-35.66
X72.39Y-54.61
X76.2Y-5.9
X76.2Y-24.95
X76.2Y-44.1
X76.2Y-63.05
X78.74Y5.08
X78.74Y-13.97
X78.74Y-33.12
X78.74Y-52.07
X90.25Y-41.8
X90.25Y-60.85
X91.44Y-35.56
X91.44Y-54.61
X95.25Y-44.0
X95.25Y-63.05
X97.79Y-33.02
X97.79Y-52.07
T4
X0.0Y0.0
X0.0Y-19.05
X0.0Y-38.2
X0.0Y-57.15
X19.05Y0.0
X19.05Y-19.05
X19.05Y-38.2
X19.05Y-57.15
X38.1Y0.0
X38.1Y-19.05
X38.1Y-57.15
X38.2Y-38.2
X57.15Y0.0
X57.15Y-19.05
X57.15Y-38.2
X57.15Y-57.15
X76.2Y0.0
X76.2Y-19.05
X76.2Y-38.2
X76.2Y-57.15
X95.25Y-38.1
X95.25Y-57.15
M30
