%TF.GenerationSoftware,KiCad,Pcbnew,8.0.7*%
%TF.CreationDate,2025-02-28T21:35:55+09:00*%
%TF.ProjectId,cool642tb_L,636f6f6c-3634-4327-9462-5f4c2e6b6963,rev?*%
%TF.SameCoordinates,Original*%
%TF.FileFunction,Copper,L1,Top*%
%TF.FilePolarity,Positive*%
%FSLAX46Y46*%
G04 Gerber Fmt 4.6, Leading zero omitted, Abs format (unit mm)*
G04 Created by KiCad (PCBNEW 8.0.7) date 2025-02-28 21:35:55*
%MOMM*%
%LPD*%
G01*
G04 APERTURE LIST*
%TA.AperFunction,ComponentPad*%
%ADD10C,3.000000*%
%TD*%
%TA.AperFunction,ComponentPad*%
%ADD11R,1.500000X1.500000*%
%TD*%
%TA.AperFunction,ComponentPad*%
%ADD12C,2.000000*%
%TD*%
%TA.AperFunction,ComponentPad*%
%ADD13C,2.800000*%
%TD*%
%TA.AperFunction,ComponentPad*%
%ADD14O,1.000000X1.300000*%
%TD*%
%TA.AperFunction,ComponentPad*%
%ADD15O,2.750000X1.800000*%
%TD*%
%TA.AperFunction,ComponentPad*%
%ADD16C,1.500000*%
%TD*%
%TA.AperFunction,ViaPad*%
%ADD17C,0.600000*%
%TD*%
%TA.AperFunction,Conductor*%
%ADD18C,0.200000*%
%TD*%
G04 APERTURE END LIST*
D10*
%TO.P,B1,1,+*%
%TO.N,Bat*%
X-6400000Y24710000D03*
%TO.P,B1,2,-*%
%TO.N,Net-(B1--)*%
X82870000Y24750000D03*
%TD*%
D11*
%TO.P,SW21,A,A*%
%TO.N,RE_A1*%
X87900000Y-16660000D03*
D12*
%TO.P,SW21,B,B*%
%TO.N,RE_B*%
X87900000Y-21660000D03*
%TO.P,SW21,C,C*%
%TO.N,GND*%
X87900000Y-19160000D03*
D13*
%TO.P,SW21,MP*%
%TO.N,N/C*%
X95400000Y-13560000D03*
X95400000Y-24760000D03*
D12*
%TO.P,SW21,S1*%
X102400000Y-16660000D03*
%TO.P,SW21,S2*%
X102400000Y-21660000D03*
%TD*%
D14*
%TO.P,SW24,1,A*%
%TO.N,GND*%
X103840000Y3104000D03*
%TO.P,SW24,2,B*%
%TO.N,Net-(B1--)*%
X103840000Y604000D03*
%TO.P,SW24,3,C*%
%TO.N,unconnected-(SW24-C-Pad3)*%
X103840000Y-1896000D03*
%TD*%
D15*
%TO.P,U1,1,P0.02_A0_D0*%
%TO.N,RE_B*%
X87740000Y24450000D03*
%TO.P,U1,2,P0.03_A1_D1*%
%TO.N,Row0*%
X87740000Y21910000D03*
%TO.P,U1,3,P0.28_A2_D2*%
%TO.N,Row1*%
X87740000Y19370000D03*
%TO.P,U1,4,P0.29_A3_D3*%
%TO.N,Row2*%
X87740000Y16830000D03*
%TO.P,U1,5,P0.04_A4_D4_SDA*%
%TO.N,unconnected-(U1-P0.04_A4_D4_SDA-Pad5)*%
X87740000Y14290000D03*
%TO.P,U1,6,P0.05_A5_D5_SCL*%
%TO.N,RE_A1*%
X87740000Y11750000D03*
%TO.P,U1,7,P1.11_D6_TX*%
%TO.N,Row3*%
X87740000Y9210000D03*
%TO.P,U1,8,P1.12_D7_RX*%
%TO.N,Col3*%
X103980000Y9210000D03*
%TO.P,U1,9,P1.13_D8_SCK*%
%TO.N,Col2*%
X103980000Y11750000D03*
%TO.P,U1,10,P1.14_D9_MISO*%
%TO.N,Col1*%
X103980000Y14290000D03*
%TO.P,U1,11,P1.15_D10_MOSI*%
%TO.N,Col0*%
X103980000Y16830000D03*
%TO.P,U1,12,3V3*%
%TO.N,unconnected-(U1-3V3-Pad12)*%
X103980000Y19370000D03*
%TO.P,U1,13,GND*%
%TO.N,GND*%
X103980000Y21910000D03*
%TO.P,U1,14,5V*%
%TO.N,VCC*%
X103980000Y24450000D03*
D16*
%TO.P,U1,15,NFC1_0.09*%
%TO.N,Col5*%
X99695400Y7518000D03*
%TO.P,U1,16,NFC2_0.10*%
%TO.N,Col4*%
X101575000Y7518000D03*
%TO.P,U1,20,BATT+*%
%TO.N,Bat*%
X91415000Y17147000D03*
%TO.P,U1,21,BATT-*%
%TO.N,GND*%
X91415000Y19052000D03*
%TD*%
D17*
%TO.N,Net-(B1--)*%
X85820000Y570000D03*
%TO.N,Row0*%
X19800000Y10500000D03*
X3000000Y10500000D03*
X39010000Y10500000D03*
X77210000Y10500000D03*
X77140000Y21790000D03*
X58160000Y10500000D03*
%TO.N,Row1*%
X-1480000Y-8140000D03*
X60100000Y-8140000D03*
X22000000Y-8140000D03*
X95020000Y-8140000D03*
X66870000Y-8140000D03*
X74890000Y-8110000D03*
X66800000Y19400000D03*
X41010000Y-8140000D03*
%TO.N,Row2*%
X40940000Y-27590000D03*
X96220000Y-27590000D03*
X60080000Y-27590000D03*
X3000000Y-27590000D03*
X79260000Y-27590000D03*
X22030000Y-27590000D03*
X47740000Y-27590000D03*
X47670000Y16810000D03*
%TO.N,Row3*%
X82750000Y-50040000D03*
X60020000Y-50040000D03*
X22010000Y-50040000D03*
X-1290000Y-50470000D03*
X41040000Y-50040000D03*
X75570000Y-50040000D03*
X98300000Y-50060000D03*
%TO.N,Col0*%
X-6880000Y15660000D03*
%TO.N,Col1*%
X12040000Y13160000D03*
%TO.N,Col2*%
X31170000Y11920000D03*
%TO.N,Col3*%
X50170000Y6870000D03*
%TO.N,Col4*%
X69220000Y4620000D03*
X101600000Y2240000D03*
%TO.N,Col5*%
X88400000Y-26700000D03*
X102400000Y-26770000D03*
%TO.N,GND*%
X91050000Y3090000D03*
%TO.N,RE_B*%
X94000000Y24500000D03*
%TD*%
D18*
%TO.N,Bat*%
X-6400000Y24710000D02*
X140000Y18170000D01*
X90392000Y18170000D02*
X91415000Y17147000D01*
X140000Y18170000D02*
X90392000Y18170000D01*
%TO.N,Net-(B1--)*%
X86290000Y570000D02*
X86324000Y604000D01*
X85820000Y570000D02*
X86290000Y570000D01*
X86324000Y604000D02*
X103840000Y604000D01*
%TO.N,Row0*%
X77210000Y10500000D02*
X58160000Y10500000D01*
X39010000Y10500000D02*
X19800000Y10500000D01*
X58160000Y10500000D02*
X39010000Y10500000D01*
X88120000Y21790000D02*
X88240000Y21910000D01*
X19800000Y10500000D02*
X3000000Y10500000D01*
X77140000Y21790000D02*
X88120000Y21790000D01*
X88336000Y21640000D02*
X88290000Y21686000D01*
%TO.N,Row1*%
X88940000Y-8120000D02*
X87290000Y-6470000D01*
X66830000Y19370000D02*
X66800000Y19400000D01*
X5850000Y-8140000D02*
X7240000Y-6750000D01*
X22000000Y-8140000D02*
X19870000Y-8140000D01*
X72840000Y-8140000D02*
X72870000Y-8110000D01*
X41010000Y-8140000D02*
X38980000Y-8140000D01*
X58080000Y-8140000D02*
X41010000Y-8140000D01*
X84080000Y-6470000D02*
X82440000Y-8110000D01*
X7240000Y-6750000D02*
X12940000Y-6750000D01*
X82440000Y-8110000D02*
X74890000Y-8110000D01*
X60100000Y-8140000D02*
X66870000Y-8140000D01*
X66870000Y-8140000D02*
X72840000Y-8140000D01*
X74890000Y-8110000D02*
X72870000Y-8110000D01*
X12940000Y-6750000D02*
X14330000Y-8140000D01*
X-1480000Y-8140000D02*
X5850000Y-8140000D01*
X38980000Y-8140000D02*
X22000000Y-8140000D01*
X88240000Y19370000D02*
X66830000Y19370000D01*
X58080000Y-8140000D02*
X60100000Y-8140000D01*
X14330000Y-8140000D02*
X19870000Y-8140000D01*
X87290000Y-6470000D02*
X84080000Y-6470000D01*
X95020000Y-8140000D02*
X95000000Y-8120000D01*
X95000000Y-8120000D02*
X88940000Y-8120000D01*
%TO.N,Row2*%
X22030000Y-27590000D02*
X19990000Y-27590000D01*
X77190000Y-27630000D02*
X77230000Y-27590000D01*
X77230000Y-27590000D02*
X60080000Y-27590000D01*
X47690000Y16830000D02*
X47670000Y16810000D01*
X38930000Y-27590000D02*
X22030000Y-27590000D01*
X40940000Y-27590000D02*
X38930000Y-27590000D01*
X96220000Y-27590000D02*
X79260000Y-27590000D01*
X19990000Y-27590000D02*
X3000000Y-27590000D01*
X79260000Y-27590000D02*
X77230000Y-27590000D01*
X88240000Y16830000D02*
X47690000Y16830000D01*
X47740000Y-27590000D02*
X40940000Y-27590000D01*
X58040000Y-27590000D02*
X47740000Y-27590000D01*
X60080000Y-27590000D02*
X58040000Y-27590000D01*
%TO.N,Row3*%
X22010000Y-50040000D02*
X38990000Y-50040000D01*
X-1290000Y-50470000D02*
X7610000Y-50470000D01*
X98300000Y-50060000D02*
X96300000Y-50060000D01*
X87850000Y-50080000D02*
X96280000Y-50080000D01*
X84330000Y-50960000D02*
X86970000Y-50960000D01*
X19920000Y-50040000D02*
X22010000Y-50040000D01*
X7900000Y-50760000D02*
X11010000Y-50760000D01*
X11010000Y-50760000D02*
X11730000Y-50040000D01*
X96300000Y-50060000D02*
X96280000Y-50080000D01*
X38990000Y-50040000D02*
X41040000Y-50040000D01*
X11730000Y-50040000D02*
X19920000Y-50040000D01*
X60020000Y-50040000D02*
X73580000Y-50040000D01*
X57950000Y-50040000D02*
X60020000Y-50040000D01*
X86970000Y-50960000D02*
X87850000Y-50080000D01*
X83410000Y-50040000D02*
X84330000Y-50960000D01*
X7610000Y-50470000D02*
X7900000Y-50760000D01*
X82750000Y-50040000D02*
X83410000Y-50040000D01*
X73580000Y-50040000D02*
X75570000Y-50040000D01*
X41040000Y-50040000D02*
X57950000Y-50040000D01*
X75570000Y-50040000D02*
X82750000Y-50040000D01*
%TO.N,Col0*%
X68870000Y15630000D02*
X68860000Y15620000D01*
X-6840000Y15620000D02*
X-6880000Y15660000D01*
X68860000Y15620000D02*
X-6840000Y15620000D01*
X103480000Y16830000D02*
X102280000Y15630000D01*
X102280000Y15630000D02*
X68870000Y15630000D01*
%TO.N,Col1*%
X103480000Y14290000D02*
X102280000Y13090000D01*
X12110000Y13090000D02*
X12040000Y13160000D01*
X102280000Y13090000D02*
X12110000Y13090000D01*
%TO.N,Col2*%
X78860000Y10550000D02*
X77935000Y11475000D01*
X77580000Y11830000D02*
X31260000Y11830000D01*
X77935000Y11475000D02*
X77580000Y11830000D01*
X102280000Y10550000D02*
X78860000Y10550000D01*
X31260000Y11830000D02*
X31170000Y11920000D01*
X103480000Y11750000D02*
X102280000Y10550000D01*
%TO.N,Col3*%
X85762000Y6468000D02*
X85350000Y6880000D01*
X50180000Y6880000D02*
X50170000Y6870000D01*
X85350000Y6880000D02*
X50180000Y6880000D01*
X102009925Y6468000D02*
X85762000Y6468000D01*
X103480000Y7938075D02*
X102009925Y6468000D01*
X103480000Y9210000D02*
X103480000Y7938075D01*
%TO.N,Col4*%
X73290000Y4620000D02*
X69220000Y4620000D01*
X77636955Y2240000D02*
X76886955Y2990000D01*
X76886955Y2990000D02*
X74920000Y2990000D01*
X74920000Y2990000D02*
X73290000Y4620000D01*
X101600000Y2240000D02*
X77636955Y2240000D01*
%TO.N,Col5*%
X102400000Y-26770000D02*
X88470000Y-26770000D01*
X88470000Y-26770000D02*
X88400000Y-26700000D01*
%TO.N,GND*%
X91064000Y3104000D02*
X91050000Y3090000D01*
X91415000Y19052000D02*
X94273000Y21910000D01*
X94273000Y21910000D02*
X103480000Y21910000D01*
X103840000Y3104000D02*
X91064000Y3104000D01*
%TO.N,RE_B*%
X93580000Y24450000D02*
X88240000Y24450000D01*
X94000000Y24500000D02*
X93630000Y24500000D01*
X93630000Y24500000D02*
X93580000Y24450000D01*
%TD*%
M02*
